<svg xmlns="http://www.w3.org/2000/svg" width="20" height="22" viewBox="0 0 20 22" fill="none">
  <path d="M19.4871 10.2108C18.8913 9.61505 17.8918 9.45902 17.1252 10.055L14.772 11.8853C14.6715 11.4265 14.1655 10.3951 12.9154 10.3951H11.0419L9.96043 10.1403C8.75356 9.8558 7.5097 10.2094 6.63303 11.0861L3.52053 14.1987L3.37906 14.0572C3.14291 13.821 2.75988 13.821 2.5236 14.0572L0.177117 16.4037C-0.0591198 16.6398 -0.0589585 17.0231 0.177117 17.2591L4.06467 21.1467C4.30098 21.383 4.68393 21.3828 4.92013 21.1467L7.26657 18.8002C7.50281 18.564 7.50281 18.181 7.26657 17.9448L7.04679 17.725C7.24249 17.5388 7.49752 17.4363 7.76828 17.4363H14.1241C14.7659 17.4363 15.3761 17.1594 15.7984 16.6766L19.8499 12.0463C19.9464 11.936 19.9996 11.7945 19.9996 11.6479C19.9996 11.3758 20.0336 10.7574 19.4871 10.2108ZM4.49242 19.8635L1.46029 16.8314L2.95131 15.3404L5.9834 18.3725L4.49242 19.8635ZM14.8879 15.88C14.6953 16.1002 14.4169 16.2265 14.1241 16.2265H7.76828C7.17434 16.2265 6.61524 16.4545 6.19096 16.8692L4.37595 15.0542L7.48853 11.9415C8.06666 11.3633 8.88684 11.1302 9.68282 11.3177L10.8329 11.5888C10.8784 11.5996 10.9249 11.6049 10.9716 11.6049H12.9154C13.2962 11.6049 13.6064 11.9129 13.6064 12.2959C13.6064 12.6773 13.2976 12.9868 12.9154 12.9868H10.3237C9.98963 12.9868 9.71879 13.2577 9.71879 13.5917C9.71879 13.9258 9.98963 14.1966 10.3237 14.1966H13.5633C13.6978 14.1966 13.8285 14.1518 13.9347 14.0692L17.8678 11.0101C18.2351 10.7247 18.7575 10.9736 18.7884 11.4222L14.8879 15.88Z" fill="white"/>
  <path d="M12.9154 9.01325C14.3208 9.01325 15.4641 7.86989 15.4641 6.46456C15.4641 5.05924 14.3207 3.91588 12.9154 3.91588C11.5101 3.91588 10.3667 5.05924 10.3667 6.46456C10.3667 7.86989 11.51 9.01325 12.9154 9.01325ZM12.9154 5.1257C13.6537 5.1257 14.2543 5.72633 14.2543 6.46456C14.2543 7.20279 13.6536 7.80343 12.9154 7.80343C12.1772 7.80343 11.5765 7.20279 11.5765 6.46456C11.5765 5.72633 12.1771 5.1257 12.9154 5.1257Z" fill="white"/>
  <path d="M12.9154 2.53399C13.2495 2.53399 13.5203 2.26315 13.5203 1.92908V1.28118C13.5203 0.947107 13.2495 0.67627 12.9154 0.67627C12.5813 0.67627 12.3105 0.947107 12.3105 1.28118V1.92908C12.3105 2.26319 12.5813 2.53399 12.9154 2.53399Z" fill="white"/>
  <path d="M10.3237 3.34791C10.6578 3.34791 10.9286 3.07707 10.9286 2.743V2.0951C10.9286 1.76103 10.6578 1.49019 10.3237 1.49019C9.98963 1.49019 9.71879 1.76103 9.71879 2.0951V2.743C9.71879 3.07707 9.98963 3.34791 10.3237 3.34791Z" fill="white"/>
  <path d="M15.5071 3.34791C15.8412 3.34791 16.112 3.07707 16.112 2.743V2.0951C16.112 1.76103 15.8412 1.49019 15.5071 1.49019C15.173 1.49019 14.9022 1.76103 14.9022 2.0951V2.743C14.9022 3.07707 15.173 3.34791 15.5071 3.34791Z" fill="white"/>
</svg>