<svg xmlns="http://www.w3.org/2000/svg" width="20" height="24" viewBox="0 0 20 24" fill="none">
  <path d="M19.9743 6.17955C19.9621 5.53158 19.9504 4.91946 19.9504 4.32727C19.9504 3.86333 19.5775 3.48721 19.1173 3.48721C15.5543 3.48721 12.8416 2.45472 10.5804 0.237863C10.2569 -0.0793436 9.74213 -0.0792316 9.41876 0.237863C7.15778 2.45472 4.44546 3.48721 0.882686 3.48721C0.42258 3.48721 0.0495626 3.86333 0.0495626 4.32727C0.0495626 4.91957 0.0380099 5.53192 0.0256797 6.17999C-0.0885138 12.2101 -0.244918 20.4685 9.72669 23.9536C9.81511 23.9845 9.90731 24 9.9995 24C10.0917 24 10.184 23.9845 10.2723 23.9536C20.2447 20.4684 20.0885 12.2097 19.9743 6.17955ZM9.99962 22.2685C1.44766 19.1359 1.57696 12.2738 1.69171 6.21203C1.69859 5.84823 1.70526 5.49563 1.70992 5.14997C5.04686 5.00794 7.7153 3.98833 9.99962 1.98183C12.2842 3.98833 14.953 5.00806 18.2902 5.14997C18.2949 5.49551 18.3015 5.84789 18.3084 6.21147C18.4231 12.2734 18.5522 19.1358 9.99962 22.2685Z" fill="white"/>
  <path d="M12.8686 9.08178L8.84746 13.1361L7.13156 11.4059C6.8062 11.078 6.27866 11.078 5.95341 11.4059C5.62805 11.7341 5.62805 12.2659 5.95341 12.594L8.25839 14.9182C8.42101 15.0822 8.63429 15.1641 8.84746 15.1641C9.06063 15.1641 9.27391 15.0822 9.43654 14.9182L14.0466 10.2699C14.3721 9.94178 14.3721 9.40985 14.0467 9.08189C13.7215 8.75382 13.1939 8.75371 12.8686 9.08178Z" fill="white"/>
</svg>