<svg xmlns="http://www.w3.org/2000/svg" width="20" height="20" viewBox="0 0 20 20" fill="none">
  <path d="M13.4175 12.014C13.4175 13.5579 12.1825 14.9474 9.95088 14.9474C7.91579 14.9474 6.34386 13.8807 6.31579 12.0281H8.42105C8.47719 12.814 8.99649 13.3333 9.90877 13.3333C10.8351 13.3333 11.3825 12.8421 11.3825 12.1404C11.3825 10.0211 6.32982 11.2982 6.34386 7.74737C6.34386 5.97895 7.77544 4.91228 9.79649 4.91228C11.8035 4.91228 13.1789 5.93684 13.3053 7.70526H11.1439C11.1018 7.05965 10.5825 6.55439 9.74035 6.54035C8.96842 6.51228 8.39298 6.89123 8.39298 7.69123C8.39298 9.65614 13.4175 8.5614 13.4175 12.014Z" fill="white"/>
  <path d="M20 10C20 15.5228 15.5228 20 10 20C4.47715 20 0 15.5228 0 10C0 4.47715 4.47715 0 10 0C15.5228 0 20 4.47715 20 10ZM1.10794 10C1.10794 14.911 5.08905 18.8921 10 18.8921C14.911 18.8921 18.8921 14.911 18.8921 10C18.8921 5.08905 14.911 1.10794 10 1.10794C5.08905 1.10794 1.10794 5.08905 1.10794 10Z" fill="white"/>
</svg>