<svg width="68" height="68" viewBox="0 0 68 68" fill="none" xmlns="http://www.w3.org/2000/svg">
<g filter="url(#filter0_f_947_1709)">
<circle cx="34" cy="34" r="28" fill="url(#paint0_linear_947_1709)"/>
</g>
<circle cx="34" cy="32" r="28" fill="url(#paint1_linear_947_1709)"/>
<path d="M43.1401 26.1425H40.0756L39.563 26.0295L39.1419 25.7116L37.899 24.2849L37.5687 24.0396L37.1686 23.9527L36.7686 24.0396L36.4383 24.2849L35.3729 25.5078L34.7528 25.9757L33.9982 26.1425H17.2266C16.743 27.5514 16.437 29.0169 16.3158 30.504H32.148L32.5469 30.4203L32.8812 30.1837L34.359 28.6173L34.681 28.3931L35.0636 28.3145L35.5218 28.4021L35.854 28.6464L37.097 30.0731L37.5179 30.3915L38.0307 30.504H50.9474C50.8289 29.0165 50.5228 27.5506 50.0366 26.1425H43.1401ZM25.893 39.6753L26.2915 39.5907L26.6262 39.3551L28.0983 37.7887L28.4209 37.5658L28.8029 37.4859L29.2668 37.5735L29.5991 37.8178L30.8363 39.2444L31.2579 39.5613L31.77 39.6753H49.2805C49.9477 38.281 50.4292 36.8025 50.7125 35.2789H33.9008L33.3923 35.1668L32.9729 34.8538L31.7299 33.4272L31.399 33.1782L30.9967 33.0894L30.5966 33.1773L30.2692 33.4272L29.2038 34.65L28.5799 35.115L27.8234 35.2789H16.5506C16.8311 36.8062 17.3108 38.2886 17.9769 39.687L25.893 39.6753ZM38.3171 21.3734L38.7187 21.2899L39.056 21.0531L40.5281 19.4925L40.8492 19.2647L41.2327 19.1839L41.6958 19.2718L42.0231 19.5216L43.2661 20.9483L43.6888 21.261L44.1998 21.3734H47.5277C45.9087 19.1818 43.8103 17.4033 41.3985 16.1784C38.9867 14.9535 36.3276 14.3158 33.6316 14.3158C30.9355 14.3158 28.2765 14.9535 25.8647 16.1784C23.4529 17.4033 21.3545 19.1818 19.7354 21.3734H38.3171ZM31.6268 44.0427H27.073L26.5631 43.9295L26.1451 43.6118L24.9078 42.1851L24.576 41.9395L24.1746 41.8525L23.7732 41.9395L23.4415 42.1851L22.3703 43.4312L21.7505 43.8997L20.9956 44.066C22.6212 45.8387 24.5196 47.2523 26.7058 48.2189C28.892 49.1854 31.2505 49.6842 33.6344 49.6842C36.0184 49.6842 38.3769 49.1854 40.5631 48.2189C42.7493 47.2523 44.7164 45.8387 46.342 44.066L31.6268 44.0427Z" fill="white"/>
<defs>
<filter id="filter0_f_947_1709" x="0" y="0" width="68" height="68" filterUnits="userSpaceOnUse" color-interpolation-filters="sRGB">
<feFlood flood-opacity="0" result="BackgroundImageFix"/>
<feBlend mode="normal" in="SourceGraphic" in2="BackgroundImageFix" result="shape"/>
<feGaussianBlur stdDeviation="3" result="effect1_foregroundBlur_947_1709"/>
</filter>
<linearGradient id="paint0_linear_947_1709" x1="53.1579" y1="14.1053" x2="13.3684" y2="56.8421" gradientUnits="userSpaceOnUse">
<stop stop-color="#2E88F1"/>
<stop offset="1" stop-color="#2EF1DA"/>
</linearGradient>
<linearGradient id="paint1_linear_947_1709" x1="53.1579" y1="12.1053" x2="13.3684" y2="54.8421" gradientUnits="userSpaceOnUse">
<stop stop-color="#2E88F1"/>
<stop offset="1" stop-color="#2EF1DA"/>
</linearGradient>
</defs>
</svg>
