<svg width="68" height="68" viewBox="0 0 68 68" fill="none" xmlns="http://www.w3.org/2000/svg">
<g filter="url(#filter0_f_947_1699)">
<circle cx="34" cy="34" r="28" fill="url(#paint0_linear_947_1699)"/>
</g>
<circle cx="34" cy="32" r="28" fill="url(#paint1_linear_947_1699)"/>
<path d="M44.6525 43.4527C42.5137 47.117 38.5467 49.5466 34 49.5466C29.4534 49.5466 25.4864 47.117 23.3791 43.5113L23.3476 43.4527C22.2992 41.7048 21.68 39.6028 21.68 37.3593C21.68 35.1157 22.2992 33.0137 23.3794 31.2083L23.3476 31.2658L32.7166 15.1874C32.9743 14.746 33.4522 14.4533 34 14.4533C34.5477 14.4533 35.0257 14.746 35.2796 15.1804L35.2834 15.1874L44.6524 31.2658C45.7008 33.0137 46.32 35.1157 46.32 37.3593C46.32 39.6028 45.7008 41.7048 44.6206 43.5103L44.6524 43.4527H44.6525ZM36.6393 22.8367L34.6417 19.4085C34.5129 19.1878 34.2739 19.0414 34 19.0414C33.7261 19.0414 33.4872 19.1878 33.3602 19.405L33.3583 19.4085L25.6735 32.5965C24.8545 33.9614 24.3708 35.6028 24.3708 37.3548C24.3708 38.4408 24.5567 39.4844 24.899 40.4566L24.8785 40.3897C24.9883 39.8938 25.1236 39.4659 25.2918 39.0543L25.2717 39.1101C26.3332 36.4558 28.7333 34.4076 32.4068 33.022C34.9323 32.0728 36.5445 30.6768 37.1996 28.8722C38.0432 26.5472 37.162 24.0112 36.6393 22.8367V22.8367ZM40.0455 28.6822L40.0359 28.7355C39.9569 29.1012 39.8529 29.4578 39.7439 29.7468C38.8159 32.3255 36.6706 34.2631 33.3683 35.5043C30.4468 36.6069 28.57 38.1379 27.7905 40.0555L27.8056 40.01C27.5357 40.7229 27.3882 41.4941 27.3882 42.299C27.3882 43.1623 27.5579 43.9867 27.8503 44.6978L27.8358 44.6862C29.5001 46.0586 31.649 46.8856 33.9952 46.8856C37.5503 46.8856 40.6525 44.9868 42.3266 42.1228L42.3017 42.1677C43.1461 40.7565 43.6302 39.1134 43.6302 37.3597C43.6302 35.6059 43.1461 33.9629 42.3266 32.5965L40.0455 28.6822H40.0455Z" fill="white"/>
<defs>
<filter id="filter0_f_947_1699" x="0" y="0" width="68" height="68" filterUnits="userSpaceOnUse" color-interpolation-filters="sRGB">
<feFlood flood-opacity="0" result="BackgroundImageFix"/>
<feBlend mode="normal" in="SourceGraphic" in2="BackgroundImageFix" result="shape"/>
<feGaussianBlur stdDeviation="3" result="effect1_foregroundBlur_947_1699"/>
</filter>
<linearGradient id="paint0_linear_947_1699" x1="53.1579" y1="14.1053" x2="13.3684" y2="56.8421" gradientUnits="userSpaceOnUse">
<stop stop-color="#2E88F1"/>
<stop offset="1" stop-color="#2EF1DA"/>
</linearGradient>
<linearGradient id="paint1_linear_947_1699" x1="53.1579" y1="12.1053" x2="13.3684" y2="54.8421" gradientUnits="userSpaceOnUse">
<stop stop-color="#2E88F1"/>
<stop offset="1" stop-color="#2EF1DA"/>
</linearGradient>
</defs>
</svg>
