<svg width="24" height="24" viewBox="0 0 24 24" fill="none" xmlns="http://www.w3.org/2000/svg">
<circle cx="12" cy="12" r="12" fill="#1d9bf0"/>
<path d="M19.7647 7.15129C19.1933 7.40666 18.5793 7.57864 17.9348 7.65617C18.5929 7.25943 19.0982 6.63078 19.3357 5.88162C18.7203 6.24903 18.0383 6.51613 17.3123 6.6601C16.7319 6.03666 15.9031 5.64709 14.9868 5.64709C12.9298 5.64709 11.4183 7.5793 11.8829 9.58511C9.23576 9.45156 6.88823 8.17472 5.31653 6.23405C4.48182 7.67571 4.88364 9.56166 6.302 10.5167C5.78047 10.4997 5.2887 10.3558 4.8597 10.1154C4.82476 11.6013 5.8827 12.9915 7.41494 13.301C6.96653 13.4235 6.47541 13.4521 5.97588 13.3557C6.38094 14.6299 7.55729 15.557 8.95235 15.583C7.61294 16.6403 5.92541 17.1126 4.23529 16.912C5.64523 17.822 7.32047 18.353 9.11929 18.353C15.0347 18.353 18.3768 13.3231 18.1749 8.81184C18.7973 8.35908 19.3376 7.79427 19.7647 7.15129V7.15129Z" fill="white"/>
</svg>
