<svg width="24" height="24" viewBox="0 0 24 24" fill="none" xmlns="http://www.w3.org/2000/svg">
<circle cx="12" cy="12" r="12" fill="#5865F2"/>
<g clip-path="url(#clip0_552_639)">
<path d="M17.6981 7.06862C16.7421 6.61559 15.7169 6.28181 14.6449 6.09065C14.6254 6.08696 14.6059 6.09618 14.5959 6.11462C14.464 6.3568 14.318 6.67275 14.2157 6.92108C13.0628 6.74283 11.9157 6.74283 10.7865 6.92108C10.6842 6.66723 10.5328 6.3568 10.4004 6.11462C10.3903 6.09679 10.3708 6.08757 10.3513 6.09065C9.27994 6.2812 8.25473 6.61498 7.29808 7.06862C7.2898 7.07231 7.2827 7.07846 7.27799 7.08644C5.33337 10.0868 4.80066 13.0133 5.06199 15.9036C5.06317 15.9177 5.07086 15.9313 5.0815 15.9398C6.36451 16.9129 7.60732 17.5036 8.82705 17.8952C8.84657 17.9013 8.86725 17.894 8.87968 17.8773C9.1682 17.4704 9.4254 17.0414 9.64592 16.5902C9.65894 16.5638 9.64651 16.5324 9.61992 16.522C9.21196 16.3621 8.8235 16.1673 8.44983 15.946C8.42027 15.9282 8.41791 15.8845 8.4451 15.8636C8.52373 15.8028 8.60239 15.7394 8.67747 15.6755C8.69106 15.6638 8.70999 15.6614 8.72596 15.6688C11.1808 16.8262 13.8385 16.8262 16.2643 15.6688C16.2803 15.6608 16.2992 15.6632 16.3134 15.6749C16.3885 15.7388 16.4672 15.8028 16.5464 15.8636C16.5736 15.8845 16.5718 15.9282 16.5422 15.946C16.1686 16.1716 15.7801 16.3621 15.3716 16.5213C15.345 16.5318 15.3331 16.5638 15.3462 16.5902C15.5714 17.0407 15.8286 17.4698 16.1118 17.8767C16.1236 17.894 16.1449 17.9013 16.1644 17.8952C17.3901 17.5036 18.6329 16.9129 19.9159 15.9398C19.9271 15.9313 19.9342 15.9183 19.9354 15.9042C20.2482 12.5627 19.4116 9.66016 17.7176 7.08706C17.7135 7.07846 17.7064 7.07231 17.6981 7.06862ZM10.0125 14.1437C9.27344 14.1437 8.66446 13.443 8.66446 12.5824C8.66446 11.7218 9.26163 11.0211 10.0125 11.0211C10.7693 11.0211 11.3724 11.728 11.3605 12.5824C11.3605 13.443 10.7634 14.1437 10.0125 14.1437ZM14.9967 14.1437C14.2577 14.1437 13.6487 13.443 13.6487 12.5824C13.6487 11.7218 14.2458 11.0211 14.9967 11.0211C15.7535 11.0211 16.3566 11.728 16.3448 12.5824C16.3448 13.443 15.7535 14.1437 14.9967 14.1437Z" fill="white"/>
</g>
<defs>
<clipPath id="clip0_552_639">
<rect width="15" height="12" fill="white" transform="translate(5 6)"/>
</clipPath>
</defs>
</svg>
