<svg width="94" height="107" viewBox="0 0 94 107" fill="none" xmlns="http://www.w3.org/2000/svg">
<path d="M46.5 0.5C44.1 0.9 14.5 18.6667 0 27.5L1 47.5L46.5 21L65 32L0 69.5V78.5C0 80.9 6.66667 83.8333 10 85C24.8333 76.1667 54.9 58.6 56.5 59C58.1 59.4 68.8333 66.1667 74 69.5C59.8333 78.1667 31.2 95.6 30 96C28.5 96.5 45 107 46.5 107C47.7 107 78.3333 88.6667 93.5 79.5V60.5C93.5 58.1 81.8333 50.8333 76 47.5L93.5 37.5C93.6667 34.8333 93.9 29.1 93.5 27.5C93 25.5 49.5 0 46.5 0.5Z" fill="#7524F9"/>
</svg>
