<svg width="500" height="500" viewBox="0 0 500 500" fill="none" xmlns="http://www.w3.org/2000/svg">
<rect width="500" height="500" fill="white"/>
<path d="M151.841 293.749C150.89 293.747 149.95 293.945 149.079 294.328C148.209 294.711 147.428 295.272 146.787 295.974C146.146 296.676 145.659 297.505 145.356 298.406C145.054 299.308 144.943 300.262 145.03 301.209C147.652 328.255 160.25 353.356 180.37 371.619C200.489 389.883 226.688 400.001 253.861 400.001C281.033 400.001 307.232 389.883 327.352 371.619C347.471 353.356 360.069 328.255 362.691 301.209C362.778 300.262 362.667 299.308 362.365 298.406C362.062 297.505 361.575 296.676 360.934 295.974C360.293 295.272 359.512 294.711 358.642 294.328C357.772 293.945 356.831 293.747 355.88 293.749H151.841Z" fill="#ADD3F0"/>
<path d="M151.839 100C177.037 100 201.203 110.01 219.02 127.828C236.838 145.646 246.848 169.811 246.848 195.009V272.016C246.848 273.825 246.129 275.56 244.85 276.839C243.571 278.118 241.836 278.837 240.027 278.837H151.839C150.03 278.837 148.295 278.118 147.016 276.839C145.737 275.56 145.018 273.825 145.018 272.016V106.821C145.018 105.012 145.737 103.277 147.016 101.998C148.295 100.719 150.03 100 151.839 100Z" fill="#1C2D66"/>
<path d="M268.553 182.008H273.043C284.82 182.008 296.481 184.327 307.362 188.834C318.242 193.341 328.128 199.947 336.456 208.274C344.783 216.601 351.389 226.487 355.895 237.368C360.402 248.248 362.722 259.909 362.722 271.686V272.016C362.722 273.825 362.003 275.56 360.724 276.839C359.445 278.118 357.71 278.837 355.901 278.837H305.506C293.894 278.837 282.757 274.224 274.546 266.013C266.335 257.802 261.722 246.665 261.722 235.053V188.788C261.733 186.985 262.458 185.259 263.738 183.988C265.018 182.717 266.749 182.005 268.553 182.008Z" fill="#347EB8"/>
</svg>
