<svg width="76" height="76" viewBox="0 0 76 76" fill="none" xmlns="http://www.w3.org/2000/svg">
<circle cx="38" cy="38" r="38" fill="url(#paint0_linear_1940_1450)"/>
<path d="M25.7425 46.2L31.3425 44.3C31.7425 44.2 31.9425 43.7 31.8425 43.3L27.2425 32C27.1425 31.6 27.1425 31.2 27.4425 31L34.1425 24.2C34.6425 23.8 34.3425 23 33.7425 23H20.3425C20.1425 23 19.9425 23.1 19.8425 23.3L13.5425 30.4C12.7425 31.4 12.8425 32.7 13.7425 33.6L24.9425 46C25.1425 46.2 25.4425 46.3 25.7425 46.2Z" fill="#1B1C1B"/>
<path d="M33.2406 39.8001C34.1242 39.8001 34.8406 39.0838 34.8406 38.2001C34.8406 37.3164 34.1242 36.6001 33.2406 36.6001C32.3569 36.6001 31.6406 37.3164 31.6406 38.2001C31.6406 39.0838 32.3569 39.8001 33.2406 39.8001Z" fill="#1B1C1B"/>
<path d="M33.2412 47.1001C33.1412 46.9001 32.9412 46.8001 32.7412 46.9001L24.0412 49.3001C23.6412 49.5001 23.7412 50.0001 24.0412 50.0001H28.3412C28.4412 50.0001 28.5412 50.0001 28.6412 50.1001L31.0412 52.8001C31.1412 52.9001 31.2412 52.9001 31.3412 52.9001H35.0412C35.3412 52.9001 35.5412 52.6001 35.4412 52.4001L33.2412 47.1001Z" fill="#1B1C1B"/>
<path d="M55.2438 23.3C55.0438 23.1 54.8438 23 54.6438 23H41.3438C40.7438 23 40.4438 23.8 40.9438 24.2L47.6438 31C47.9438 31.3 48.0438 31.7 47.8438 32L43.3438 43.3C43.1438 43.7 43.3438 44.2 43.8438 44.3L49.4438 46.2C49.7438 46.3 50.0438 46.2 50.2438 46L61.3438 33.6C62.2438 32.7 62.3438 31.4 61.5438 30.4L55.2438 23.3Z" fill="#1B1C1B"/>
<path d="M41.8422 39.8001C42.7259 39.8001 43.4422 39.0838 43.4422 38.2001C43.4422 37.3164 42.7259 36.6001 41.8422 36.6001C40.9586 36.6001 40.2422 37.3164 40.2422 38.2001C40.2422 39.0838 40.9586 39.8001 41.8422 39.8001Z" fill="#1B1C1B"/>
<path d="M51.0432 49.3L42.2432 46.8C42.0432 46.7 41.8432 46.8 41.7432 47L39.6432 52.3C39.5432 52.6 39.7432 52.8 40.0432 52.8H43.7432C43.8432 52.8 43.9432 52.8 44.0432 52.7L46.4432 50C46.5432 49.9 46.6432 49.9 46.7432 49.9H51.0432C51.3432 50 51.3432 49.5 51.0432 49.3Z" fill="#1B1C1B"/>
<defs>
<linearGradient id="paint0_linear_1940_1450" x1="38" y1="0" x2="38" y2="80" gradientUnits="userSpaceOnUse">
<stop stop-color="#01CBE3"/>
<stop offset="1" stop-color="#00D6B0"/>
</linearGradient>
</defs>
</svg>
