<svg width="30" height="42" viewBox="0 0 30 42" fill="none" xmlns="http://www.w3.org/2000/svg">
<path d="M3.83279 0.638306H25.5338C27.2964 0.638306 28.7253 2.06719 28.7253 3.82979V28.6229C28.7253 30.3855 27.2964 31.8144 25.5338 31.8144H3.83279C2.07018 31.8144 0.641296 30.3855 0.641296 28.6229V3.82979C0.641296 2.06719 2.07018 0.638306 3.83279 0.638306Z" stroke="url(#paint0_linear_1543_1574)" stroke-width="1.2766"/>
<path d="M4.26869 2.32755L19.5722 9.44848C20.4725 9.86739 21.0482 10.7703 21.0482 11.7633V37.4553C21.0482 39.3028 19.1468 40.5386 17.4584 39.7885L2.15489 32.9892C1.2327 32.5794 0.638367 31.665 0.638367 30.6559V4.64241C0.638367 2.77568 2.57621 1.54002 4.26869 2.32755Z" fill="#1E293B"/>
<defs>
<linearGradient id="paint0_linear_1543_1574" x1="28.7253" y1="8.93618" x2="14.6827" y2="15.9575" gradientUnits="userSpaceOnUse">
<stop stop-color="#1E293B"/>
<stop offset="1" stop-color="#1E293B" stop-opacity="0"/>
</linearGradient>
</defs>
</svg>
