<svg width="40" height="40" viewBox="0 0 40 40" fill="none" xmlns="http://www.w3.org/2000/svg">
<path d="M20 40C31.0457 40 40 31.0457 40 20C40 8.9543 31.0457 0 20 0C8.9543 0 0 8.9543 0 20C0 31.0457 8.9543 40 20 40Z" fill="url(#paint0_linear_1621_1596)"/>
<path fill-rule="evenodd" clip-rule="evenodd" d="M21.0749 6.44755C20.8015 6.51655 20.4931 6.67062 20.2803 6.84442C20.1473 6.95308 18.4476 9.19361 13.5882 15.6662C10.0057 20.4382 6.99471 24.439 6.89725 24.5569C6.26929 25.3163 6.2419 26.3497 6.82876 27.1404C6.89259 27.2264 8.28784 28.6353 9.92926 30.2711C12.8291 33.161 12.9211 33.2489 13.173 33.3706C13.6403 33.5964 14.1311 33.6512 14.6042 33.5303C14.9468 33.4428 15.145 33.3378 15.4881 33.0622C15.6457 32.9355 16.4615 32.3164 17.3009 31.6863C18.1404 31.0561 19.5335 30.0094 20.3967 29.3602C26.531 24.7464 28.457 23.2982 30.5693 21.7112C31.8872 20.7212 33.0295 19.8399 33.1078 19.7529C33.3971 19.4317 33.5928 18.8992 33.5928 18.4339C33.5928 18.0395 33.4551 17.5957 33.2329 17.2738C33.1792 17.1962 30.8177 14.8123 27.9851 11.9765C22.468 6.45295 22.6831 6.65595 22.1748 6.49295C21.8853 6.40008 21.3505 6.378 21.0749 6.44755ZM21.5746 8.73994C21.21 8.80538 20.8074 9.01849 20.5744 9.26958C20.5073 9.34191 20.1315 9.81366 19.7392 10.3179C18.9074 11.3873 14.1584 17.4655 12.5847 19.4751C11.9898 20.2347 11.5032 20.8654 11.5032 20.8769C11.5032 20.9038 12.0822 21.2764 12.4521 21.4878C12.9008 21.7441 13.8255 22.1888 14.2731 22.3636C15.4028 22.8047 16.0934 22.9537 17.2299 23.0014C18.0434 23.0355 18.5534 23.1059 19.1991 23.2736C20.3742 23.5787 21.7491 24.233 22.7968 24.9858C22.9508 25.0963 23.0791 25.166 23.1028 25.152C23.2319 25.0748 30.8712 19.3269 30.9323 19.2609C31.0629 19.1199 31.2495 18.7798 31.3183 18.5576C31.4146 18.2459 31.4096 17.7301 31.3073 17.4301C31.1358 16.9275 31.3305 17.1336 27.1028 12.9827C25.9532 11.8541 24.6074 10.5311 24.112 10.0428C23.6162 9.55394 23.1248 9.09986 23.0186 9.03242C22.6263 8.7832 22.0192 8.66024 21.5746 8.73994Z" fill="#FFFDFD"/>
<defs>
<linearGradient id="paint0_linear_1621_1596" x1="-16.4021" y1="20.0406" x2="58.5538" y2="20.0406" gradientUnits="userSpaceOnUse">
<stop stop-color="#FF0F7B"/>
<stop offset="1" stop-color="#F89B29"/>
</linearGradient>
</defs>
</svg>
