<svg width="510" height="510" viewBox="0 0 510 510" fill="none" xmlns="http://www.w3.org/2000/svg">
<rect x="0.816406" y="0.0366211" width="509" height="509.927" fill="black"/>
<path fill-rule="evenodd" clip-rule="evenodd" d="M304.903 59.8335C304.669 60.0192 303.691 61.4258 302.728 62.9593C292.436 79.3562 265.475 115.573 255.731 126.091C255.212 126.651 254.982 126.415 249.356 119.557C233.063 99.697 218.323 79.6886 208.226 63.726C205.147 58.8583 205.873 58.4236 180.902 80.0814C148.214 108.432 148.911 107.548 155.809 111.88C166.925 118.861 178.223 126.717 191.076 136.402C204.146 146.251 223.281 161.764 223.281 162.512C223.281 164.346 164.951 222.577 163.113 222.577C162.54 222.577 157.691 216.865 148.676 205.57C133.622 186.709 121.877 170.342 111.963 154.408C109.111 149.826 108.845 149.487 108.261 149.711C107.894 149.852 98.5034 159.945 91.957 167.233C63.0165 199.456 59.3262 204.506 63.0215 206.833C80.4551 217.813 108.324 238.491 124.931 252.769C127.395 254.887 127.728 254.334 120.331 260.398C99.7553 277.266 79.0772 292.423 61.8151 303.292C60.8409 303.905 60.007 304.601 59.9621 304.837C59.7382 306.016 91.3208 342.477 105.838 357.799C108.58 360.693 108.343 360.773 111.282 355.966C122.203 338.104 139.222 314.921 158.293 291.93C163.836 285.248 161.318 283.538 193.882 316.102C226.192 348.412 224.583 346.116 218.471 351.195C195.678 370.137 173.576 386.417 155.015 397.936C152.202 399.682 149.827 401.299 149.739 401.529C149.161 403.037 203.416 450.8 205.011 450.188C205.229 450.104 206.254 448.698 207.29 447.063C217.014 431.709 229.397 414.598 243.742 396.693C249 390.129 254.657 383.283 254.993 383.075C255.388 382.832 255.64 383.103 260.409 388.886C276.265 408.117 293.038 430.85 302.323 445.693C303.25 447.175 303.844 447.854 304.213 447.854C306.241 447.854 358.95 401.466 358.438 400.132C358.348 399.899 356.413 398.535 354.137 397.102C335.604 385.431 314.034 369.503 292.495 351.584C286.4 346.513 286.715 347.014 288.434 345.142C305.293 326.782 345.735 286.703 347.404 286.703C347.679 286.703 350.01 289.285 353.004 292.906C371.024 314.705 386.987 336.382 397.813 353.756C400.53 358.116 400.791 358.444 401.311 358.129C402.639 357.327 422.978 334.854 433.531 322.53C451.518 301.523 450.659 304.682 440.263 297.772C422.869 286.212 398.702 268.003 385.338 256.386C383.116 254.455 382.841 254.993 388.405 250.371C407.967 234.119 428.585 218.866 446.031 207.74C450.757 204.726 451.04 204.455 450.422 203.533C449.294 201.849 437.614 187.896 429.618 178.68C420.699 168.402 403.618 149.695 402.663 149.161C402.035 148.809 401.908 148.974 398.161 154.966C388.713 170.077 376.168 187.546 362.195 205.051C355.293 213.697 347.708 222.856 347.451 222.856C345.787 222.856 287.128 164.137 287.128 162.471C287.128 161.757 308.468 144.555 321.56 134.714C333.446 125.781 350.297 114.298 358.569 109.496C361.173 107.984 361.21 107.672 359.029 105.654C334.012 82.5093 306.1 58.8809 304.903 59.8335ZM261.533 134.125C267.441 141.003 278.114 153.046 283.462 158.869C287.014 162.736 287.248 162.002 280.645 167.677C274.187 173.227 264.048 182.206 259.036 186.815C254.951 190.57 255.514 190.51 252.268 187.542C246.922 182.654 234.397 171.567 229.332 167.238C223.048 161.867 222.98 163.309 229.875 155.732C235.659 149.377 246.195 137.403 251.833 130.779C255.588 126.367 254.565 126.014 261.533 134.125ZM263.07 197.617C272.393 206.31 302.476 236.349 310.823 245.3C314.255 248.98 317.625 252.581 318.312 253.302L319.562 254.614L317.076 257.324C303.785 271.819 278.692 297.049 262.521 312.178C258.572 315.873 255.373 318.983 255.412 319.089C255.579 319.541 272.02 334.231 280.785 341.76C287.403 347.445 287.384 346.135 280.954 353.198C274.656 360.118 265.747 370.225 259.943 377.037C255.576 382.16 255.364 382.38 255.01 382.16C254.888 382.085 252.188 378.988 249.011 375.278C243.154 368.441 232.482 356.402 227.089 350.55C223.474 346.627 223.465 347.055 227.235 343.856C235.907 336.497 255.065 319.415 255.065 319.041C255.065 318.942 251.332 315.361 246.77 311.083C242.208 306.805 231.565 296.402 223.12 287.964C209.161 274.019 204.122 268.834 194.18 258.185L190.87 254.64L194.459 250.815C213.053 231.001 230.406 213.631 250.883 194.337C255.76 189.741 254.161 189.31 263.07 197.617ZM168.102 229.059C173.294 235.101 181.87 244.793 187.318 250.775C191.249 255.092 191.082 254.456 188.902 256.795C183.977 262.084 170.908 276.864 165.479 283.288C162.92 286.315 163.144 286.256 161.145 284.425C152.644 276.629 140.691 266.041 132.459 259.011C126.654 254.054 126.402 255.482 134.271 248.748C141.427 242.623 153.553 231.868 159.155 226.676C163.449 222.696 162.391 222.415 168.102 229.059ZM350.975 226.386C356.648 231.614 368.764 242.357 375.874 248.465C379.679 251.732 382.752 254.558 382.705 254.745C382.658 254.931 379.42 257.83 375.51 261.187C368.027 267.611 359.316 275.321 352.09 281.918C346.834 286.717 348.198 287.035 341.728 279.506C335.885 272.708 328.745 264.648 323.171 258.556C321.284 256.494 319.773 254.713 319.813 254.6C319.854 254.487 322.477 251.533 325.641 248.035C331.996 241.012 340.548 231.282 344.566 226.506C347.695 222.785 347.08 222.797 350.975 226.386Z" fill="white"/>
</svg>
