<svg width="352" height="352" viewBox="0 0 352 352" fill="none" xmlns="http://www.w3.org/2000/svg">
<rect width="352" height="352" rx="87" fill="#1F1F1F"/>
<path fill-rule="evenodd" clip-rule="evenodd" d="M169.701 89.0841C159.508 89.8309 150.547 92.0014 141.076 96.0169C139.424 96.7174 133.702 99.6037 132.116 100.537C128.131 102.881 123.043 106.496 119.586 109.44C116.975 111.665 111.216 117.452 109.202 119.876C105.085 124.832 101.088 130.886 98.4384 136.179C97.9942 137.066 97.5635 137.817 97.4813 137.848C97.3993 137.88 97.332 137.995 97.332 138.105C97.332 138.214 96.7685 139.608 96.0796 141.2C94.6975 144.396 92.9176 149.496 91.9925 152.909C89.6267 161.64 88.5407 172.495 89.1811 181.011C90.3888 197.071 95.1866 211.12 103.853 223.975C110.147 233.311 118.336 241.413 127.995 247.861C138.936 255.163 151.971 259.91 165.532 261.529C169.247 261.972 177.731 262.146 181.762 261.861C198.093 260.706 213.616 254.994 226.78 245.297C244.082 232.552 256.076 213.797 260.332 192.834C261.601 186.582 262.006 182.355 262 175.407C261.996 170.337 261.946 169.295 261.541 165.829C259.705 150.142 254.059 135.888 244.783 123.527C238.903 115.689 230.992 108.248 223.098 103.129C218.485 100.136 216.178 98.8555 211.661 96.7774C202.338 92.4879 192.376 89.9091 182.187 89.1479C180.042 88.9876 171.606 88.9445 169.701 89.0841ZM183.025 103.657C189.503 104.348 196.284 106.034 202.36 108.464L204.356 109.262L204.356 110.822C204.357 116.896 200.344 122.307 194.333 124.334L192.72 124.878L173.523 124.987C155.289 125.09 151.994 125.175 147.616 125.657C137.676 126.752 129.872 128.265 121.302 130.761C120.05 131.125 118.917 131.424 118.785 131.424C118.464 131.424 118.909 130.791 120.752 128.622C124.483 124.233 130.732 118.598 134.706 116.041C135.126 115.77 135.508 115.509 135.555 115.46C135.602 115.411 136.251 114.979 136.999 114.501C142.263 111.131 148.036 108.441 154.072 106.543C159.658 104.787 164.814 103.872 172.164 103.331C173.874 103.206 180.723 103.411 183.025 103.657ZM219.133 118.022C222.751 120.779 229.499 127.136 229.499 127.787C229.499 128.606 226.75 133.493 224.784 136.168C218.032 145.355 207.921 151.556 196.797 153.332C193.945 153.788 191.994 153.835 175.732 153.845C155.396 153.857 152.577 153.966 145.068 155.028C131.169 156.994 118.004 161.385 105.77 168.137C104.757 168.695 103.885 169.108 103.831 169.054C103.65 168.873 104.313 163.969 104.895 161.182C105.514 158.218 106.542 154.414 107.311 152.247L107.786 150.909L109.481 150.156C120.994 145.042 134.808 141.382 147.447 140.097C154.258 139.405 155.166 139.378 173.948 139.304C184.912 139.261 193.116 139.16 193.93 139.06C195.28 138.892 197.846 138.287 199.41 137.766C199.841 137.622 201.188 137.025 202.403 136.439C209.556 132.987 214.91 126.798 217.358 119.154C217.792 117.798 218.057 117.204 218.184 117.3C218.287 117.378 218.714 117.703 219.133 118.022ZM239.399 141.825C240.678 144.023 242.805 149.163 244.091 153.16C245.141 156.426 245.218 156.818 244.899 157.305C244.453 157.985 238.991 163.511 237.377 164.916C229.514 171.756 220.252 176.882 210.575 179.75C205.773 181.173 201.344 182.001 195.623 182.546C194.698 182.634 185.945 182.716 176.172 182.729C155.09 182.755 153.809 182.811 146.597 184.001C133.809 186.112 120.685 191.706 110.094 199.56C109.205 200.219 108.368 200.767 108.235 200.777C107.954 200.798 107.382 199.218 106.244 195.276C105.429 192.452 104.248 186.814 104.331 186.14C104.371 185.819 104.897 185.401 106.76 184.211C117.659 177.246 129.499 172.487 141.925 170.075C145.383 169.404 145.931 169.322 149.995 168.865C155 168.302 156.664 168.261 177.006 168.205C195.672 168.153 195.883 168.144 200.874 167.174C208.636 165.667 216.207 162.473 222.628 157.998C228.533 153.882 234.403 147.892 237.97 142.34C238.403 141.666 238.807 141.112 238.868 141.109C238.929 141.106 239.168 141.428 239.399 141.825ZM247.675 176.808C247.672 181.549 246.755 188.177 245.359 193.533C244.957 195.077 244.847 195.308 244.38 195.59C244.09 195.766 243.318 196.238 242.664 196.641C230.534 204.108 216.415 209.137 203.121 210.725C201.511 210.917 199.544 211.163 198.75 211.271C197.77 211.404 190.754 211.507 176.921 211.591C165.709 211.658 156.306 211.756 156.025 211.807C155.745 211.859 154.79 211.989 153.902 212.097C143.772 213.325 133.208 217.859 125.156 224.434C124.436 225.022 123.772 225.503 123.68 225.503C123.191 225.503 118.092 219.279 115.89 215.994C114.944 214.582 114.736 214.161 114.89 213.972C115.227 213.558 119.428 210.391 121.2 209.215C127.441 205.074 134.105 201.964 140.991 199.98C145.003 198.824 147.949 198.227 153.037 197.542C155.332 197.233 158.667 197.175 180.148 197.072C195.858 196.996 197.12 196.946 202.318 196.197C214.701 194.412 226.627 189.857 237.398 182.797C239.548 181.388 243.712 178.256 245.722 176.535C246.656 175.735 247.478 175.078 247.548 175.074C247.618 175.07 247.675 175.85 247.675 176.808ZM234.425 217.129C234.425 217.294 232.218 220.175 230.616 222.102C228.885 224.185 223.929 229.134 221.866 230.841C210.347 240.371 197.141 245.906 182.272 247.435C179.222 247.748 171.089 247.698 168.104 247.346C160.555 246.458 153.972 244.763 147.447 242.028C145.913 241.385 141.814 239.379 140.503 238.629C137.807 237.089 134.873 235.211 134.878 235.031C134.888 234.684 139.681 231.654 142.195 230.407C146.057 228.49 149.457 227.397 154.39 226.487C156.312 226.132 156.911 226.119 176.411 226.001C187.436 225.934 196.801 225.835 197.221 225.78C197.642 225.725 199.018 225.597 200.279 225.494C205.126 225.1 211.843 223.976 216.959 222.704C219.639 222.038 224.158 220.794 224.657 220.586C224.844 220.508 226.029 220.092 227.29 219.662C228.551 219.231 230.615 218.466 231.877 217.961C234.323 216.982 234.425 216.949 234.425 217.129Z" fill="white"/>
</svg>
