<svg width="17" height="17" viewBox="0 0 17 17" fill="none" xmlns="http://www.w3.org/2000/svg">
<rect width="17" height="17" rx="3" fill="white"/>
<path d="M14.951 5.72428C14.951 5.69743 14.942 5.67953 14.942 5.67058V5.66163C14.933 5.64373 14.933 5.62583 14.9239 5.61688C14.9149 5.59898 14.9059 5.59003 14.8969 5.57213L14.8878 5.56318C14.8788 5.55423 14.8608 5.53633 14.8517 5.52738C14.8517 5.52738 14.8517 5.52738 14.8427 5.52738C14.8337 5.51843 14.8246 5.51843 14.8156 5.50948L11.0335 3.34354H11.0245C11.0155 3.33459 11.0065 3.33459 10.9974 3.33459C10.9884 3.33459 10.9794 3.32564 10.9704 3.32564C10.9613 3.32564 10.9523 3.31669 10.9433 3.31669C10.9342 3.31669 10.9252 3.31669 10.9162 3.30774C10.9072 3.30774 10.8982 3.30774 10.8891 3.30774C10.8801 3.30774 10.8711 3.30774 10.862 3.30774C10.853 3.30774 10.844 3.30774 10.835 3.31669C10.8259 3.31669 10.8169 3.31669 10.8079 3.32564C10.7989 3.32564 10.7898 3.33459 10.7808 3.33459C10.7718 3.33459 10.7627 3.34354 10.7537 3.34354H10.7447L6.96262 5.50948L3.15345 7.66648C3.1354 7.67543 3.12637 7.68439 3.10832 7.69331L3.09929 7.70226C3.09026 7.71122 3.07221 7.72912 3.06318 7.73808C3.05416 7.74703 3.04513 7.76491 3.03611 7.77386C3.03611 7.77386 3.03611 7.78282 3.02708 7.78282C3.01805 7.80072 3.01805 7.80968 3.00903 7.82759C3.00903 7.84546 3 7.86337 3 7.87232C3 7.88128 3 7.88128 3 7.89023V7.89919V12.2311C3 12.3384 3.05416 12.4369 3.15345 12.4906L6.93554 14.6565C6.98068 14.6834 7.03483 14.6924 7.08898 14.6924C7.14314 14.6924 7.18828 14.6834 7.24243 14.6565C7.33271 14.6028 7.39588 14.5044 7.39588 14.397V10.5753L10.7357 12.4817C10.7808 12.5085 10.835 12.5175 10.8891 12.5175C10.9433 12.5175 10.9884 12.5085 11.0426 12.4817C11.1328 12.428 11.196 12.3295 11.196 12.2221V8.40039L14.5358 10.3068C14.5809 10.3336 14.6351 10.3426 14.6893 10.3426C14.7434 10.3426 14.7886 10.3336 14.8427 10.3068C14.933 10.2531 14.9962 10.1546 14.9962 10.0472V5.71533C14.951 5.75114 14.951 5.73323 14.951 5.72428ZM7.07997 9.74291L3.89362 7.91706L7.07997 6.09124L10.2663 7.91706L7.07997 9.74291ZM10.8711 7.57697L7.68474 5.75113L10.8711 3.9253L14.0574 5.75113L10.8711 7.57697ZM6.78209 13.9048L3.59574 12.0789V8.42725L6.78209 10.2531V13.9048ZM7.68474 10.092L10.5732 8.43617V11.7388L7.68474 10.092ZM11.4668 7.92602L14.3553 6.27025V9.57285L11.4668 7.92602Z" fill="black"/>
</svg>
