<svg width="50" height="30" viewBox="0 0 50 30" fill="none" xmlns="http://www.w3.org/2000/svg">
<path fill-rule="evenodd" clip-rule="evenodd" d="M20.571 0.881963C21.6494 1.55075 22.3736 2.61076 28.9933 13.2103C35.9182 24.2983 36.2359 24.8616 36.2359 26.0531C36.2359 27.1336 36.1205 27.4135 35.3683 28.158C34.6119 28.9066 34.3363 29.0167 33.2189 29.0167C32.218 29.0167 31.7679 28.8758 31.1659 28.3745C30.7418 28.0214 28.7623 25.0947 26.7673 21.871C20.8185 12.2587 17.8166 7.50973 17.7431 7.59484C17.0709 8.37475 15.3109 11.7293 15.3109 12.2301C15.3109 12.6463 16.5825 15.0118 18.6209 18.3874C20.4414 21.4019 22.1097 24.2923 22.3284 24.8103C23.1802 26.8283 21.7053 29.0167 19.4928 29.0167C18.8671 29.0167 18.0702 28.8318 17.7219 28.6061C17.3736 28.38 15.8205 26.1069 14.2708 23.5548C12.7211 21.0024 11.3576 18.9142 11.2408 18.9142C11.1239 18.9142 9.82325 20.9317 8.3506 23.3972C6.87794 25.8627 5.43463 28.0926 5.14347 28.352C4.8523 28.6116 4.11151 28.8798 3.49754 28.9485C1.50303 29.171 0 27.8868 0 25.9597C0 25.0214 0.0107193 25.0017 7.59067 12.095C10.7314 6.74699 13.6757 1.99551 14.1335 1.5361C15.8419 -0.178551 18.4361 -0.441973 20.571 0.881963ZM34.7053 0.884233C35.4543 1.64445 49.3431 23.7629 49.7713 24.8772C50.3891 26.4858 49.734 27.9822 48.0608 28.7839C47.1557 29.2175 46.8318 29.2564 45.9905 29.0321C45.4419 28.8859 44.8082 28.5641 44.5821 28.3169C44.3561 28.0696 40.8366 22.5286 36.7608 16.0034C28.8047 3.2654 28.8024 3.2606 29.732 1.48129C30.6089 -0.197492 33.3192 -0.52254 34.7053 0.884233Z" fill="#236DFD"/>
</svg>
