<svg width="79" height="79" viewBox="0 0 79 79" fill="none" xmlns="http://www.w3.org/2000/svg">
<circle cx="39.5" cy="39.5" r="39.5" fill="#1D1D1D"/>
<path d="M39.8139 62.613C39.8139 62.613 42.8879 62.613 44.9499 60.443C47.3489 58.088 46.2689 55.348 49.6679 52.5C52.9199 49.803 57.0179 51.721 57.0179 51.721C59.8469 45.873 58.3069 39.07 58.3069 39.07C63.1229 26.032 59.1169 16.703 58.0669 14C54.6189 18.97 50.2999 22.412 45.1949 24.716C43.4219 24.216 41.6049 23.95 39.8139 23.969C38.0289 23.95 36.2059 24.216 34.4329 24.716C29.3339 22.405 25.0089 18.969 21.5599 14.001C20.5109 16.703 16.5049 26.032 21.3209 39.07C21.3209 39.07 19.7809 45.873 22.6099 51.721C22.6099 51.721 26.7079 49.804 29.9599 52.5C33.3649 55.348 32.2799 58.088 34.6779 60.442C36.7399 62.613 39.8139 62.613 39.8139 62.613Z" fill="#F7F7F7"/>
<path d="M36.0039 48.133C35.8739 43.803 31.7389 42.411 28.9169 44.234C28.9169 44.234 29.3589 46.094 31.4199 47.031C33.1009 47.797 33.8249 46.771 36.0039 48.133ZM22.2099 18.083C20.5479 24.103 21.2659 31.716 23.8919 37.26C26.5789 35.298 29.4019 32.266 30.9049 29.058C27.3649 26.355 24.3939 23.786 22.2099 18.083ZM43.6239 48.133C43.7539 43.803 47.8889 42.411 50.7109 44.234C50.7109 44.234 50.2689 46.094 48.2079 47.031C46.5259 47.797 45.8019 46.771 43.6239 48.133ZM57.4169 18.083C59.0799 24.103 58.3619 31.716 55.7359 37.26C53.0489 35.298 50.2259 32.266 48.7229 29.058C52.2629 26.355 55.2329 23.786 57.4169 18.083ZM39.8139 62.38C41.2909 62.38 42.4889 61.291 42.4889 59.95C42.4889 58.607 41.2909 57.519 39.8139 57.519C38.3369 57.519 37.1389 58.607 37.1389 59.949C37.1389 61.291 38.3369 62.38 39.8139 62.38Z" fill="#202137"/>
</svg>
