<svg width="276" height="276" viewBox="0 0 276 276" fill="none" xmlns="http://www.w3.org/2000/svg">
<path d="M230 0H46C20.5949 0 0 20.5949 0 46V230C0 255.405 20.5949 276 46 276H230C255.405 276 276 255.405 276 230V46C276 20.5949 255.405 0 230 0Z" fill="black"/>
<path d="M161.659 112.089H116.925C115.026 112.089 113.469 113.646 113.469 115.545V160.279C113.469 162.178 115.026 163.734 116.925 163.734H161.659C163.558 163.734 165.114 162.178 165.114 160.279V115.545C165.114 113.646 163.558 112.089 161.659 112.089Z" fill="white"/>
<path d="M110.025 60.6206H65.2906C63.3917 60.6206 61.8351 62.1773 61.8351 64.0761V108.81C61.8351 110.709 63.3917 112.266 65.2906 112.266H110.025C111.924 112.266 113.48 110.709 113.48 108.81V64.0761C113.469 62.1773 111.924 60.6206 110.025 60.6206Z" fill="white"/>
<path d="M213.127 60.6207H168.393C166.494 60.6207 164.938 62.1773 164.938 64.0762V108.81C164.938 110.709 166.494 112.266 168.393 112.266H213.127C215.026 112.266 216.583 110.709 216.583 108.81V64.0762C216.583 62.1773 215.026 60.6207 213.127 60.6207Z" fill="white"/>
<path d="M110.025 163.558H65.2906C63.3917 163.558 61.8351 165.114 61.8351 167.013V211.747C61.8351 213.646 63.3917 215.203 65.2906 215.203H110.025C111.924 215.203 113.48 213.646 113.48 211.747V167.013C113.469 165.114 111.924 163.558 110.025 163.558Z" fill="white"/>
<path d="M213.127 163.558H168.393C166.494 163.558 164.938 165.114 164.938 167.013V211.747C164.938 213.646 166.494 215.203 168.393 215.203H213.127C215.026 215.203 216.583 213.646 216.583 211.747V167.013C216.583 165.114 215.026 163.558 213.127 163.558Z" fill="white"/>
</svg>
