<svg width="11" height="11" viewBox="0 0 11 11" fill="none" xmlns="http://www.w3.org/2000/svg">
<g clip-path="url(#clip0_1623_1577)">
<path fill-rule="evenodd" clip-rule="evenodd" d="M5.49998 10.9154C9.23852 10.9154 10.9154 9.23852 10.9154 5.49998C10.9154 1.76144 9.23852 0.0845947 5.49998 0.0845947C1.76143 0.0845947 0.0845947 1.76144 0.0845947 5.49998C0.0845947 9.23852 1.76143 10.9154 5.49998 10.9154ZM5.98833 2.38099H4.48179L4.2175 3.18016H5.05426V4.86359H5.98833V2.38099ZM7.21774 6.90096C7.21774 7.84985 6.44852 8.61909 5.49962 8.61909C4.55073 8.61909 3.78149 7.84985 3.78149 6.90096C3.78149 5.95206 4.55073 5.18284 5.49962 5.18284C6.44852 5.18284 7.21774 5.95206 7.21774 6.90096ZM6.43774 6.90096C6.43774 7.41907 6.01772 7.83909 5.49961 7.83909C4.98151 7.83909 4.56149 7.41907 4.56149 6.90096C4.56149 6.38286 4.98151 5.96283 5.49961 5.96283C6.01772 5.96283 6.43774 6.38286 6.43774 6.90096Z" fill="black"/>
</g>
<defs>
<clipPath id="clip0_1623_1577">
<rect width="11" height="11" fill="white"/>
</clipPath>
</defs>
</svg>
