<svg width="64" height="64" viewBox="0 0 64 64" fill="none" xmlns="http://www.w3.org/2000/svg">
<g clip-path="url(#clip0_1056_1830)">
<g filter="url(#filter0_f_1056_1830)">
<path d="M32 4C16.5333 4 4 16.5333 4 32C4 43.2 10.4 52.8 20 57.3333C23.7333 59.2 27.7333 60 32 60C47.4667 60 60 47.4667 60 32C60 16.5333 47.4667 4 32 4ZM32 6.4C46.1333 6.4 57.6 17.8667 57.6 32C57.6 36 56.5333 40 54.9333 43.4667C51.2 41.6 47.4667 40.2667 43.7333 39.4667V18.1333C43.7333 17.3333 43.2 16.8 42.4 16.8H37.6H26.1333H21.3333C20.5333 16.8 20 17.3333 20 18.1333V39.7333C16.2667 40.5333 12.8 41.8667 9.06667 43.7333C7.46667 40.2667 6.4 36.5333 6.4 32.2667C6.4 17.8667 17.8667 6.4 32 6.4ZM10.6667 45.8667C13.6 44.2667 16.8 43.2 20 42.4V54.6667C16.2667 52.5333 12.8 49.6 10.6667 45.8667ZM26.1333 57.0667V28.2667C26.1333 25.0667 28.8 22.1333 32 22.1333C35.2 22.1333 37.8667 24.8 37.8667 28V37.8667C35.2 37.6 32.2667 37.3333 29.6 37.6L27.2 40.8C30.6667 40.5333 34.1333 40.5333 37.6 40.8C38.1333 40.8 40.2667 41.0667 42.4 41.6L37.6 43.2V56.2667C35.7333 56.8 33.8667 56.8 31.7333 56.8C30.1333 57.6 28 57.6 26.1333 57.0667ZM44 54.9333V42.6667C47.2 43.4667 50.4 44.8 53.6 46.1333C51.2 49.8667 47.7333 52.8 44 54.9333Z" fill="url(#paint0_linear_1056_1830)"/>
</g>
<path d="M32 4C16.5333 4 4 16.5333 4 32C4 43.2 10.4 52.8 20 57.3333C23.7333 59.2 27.7333 60 32 60C47.4667 60 60 47.4667 60 32C60 16.5333 47.4667 4 32 4ZM32 6.4C46.1333 6.4 57.6 17.8667 57.6 32C57.6 36 56.5333 40 54.9333 43.4667C51.2 41.6 47.4667 40.2667 43.7333 39.4667V18.1333C43.7333 17.3333 43.2 16.8 42.4 16.8H37.6H26.1333H21.3333C20.5333 16.8 20 17.3333 20 18.1333V39.7333C16.2667 40.5333 12.8 41.8667 9.06667 43.7333C7.46667 40.2667 6.4 36.5333 6.4 32.2667C6.4 17.8667 17.8667 6.4 32 6.4ZM10.6667 45.8667C13.6 44.2667 16.8 43.2 20 42.4V54.6667C16.2667 52.5333 12.8 49.6 10.6667 45.8667ZM26.1333 57.0667V28.2667C26.1333 25.0667 28.8 22.1333 32 22.1333C35.2 22.1333 37.8667 24.8 37.8667 28V37.8667C35.2 37.6 32.2667 37.3333 29.6 37.6L27.2 40.8C30.6667 40.5333 34.1333 40.5333 37.6 40.8C38.1333 40.8 40.2667 41.0667 42.4 41.6L37.6 43.2V56.2667C35.7333 56.8 33.8667 56.8 31.7333 56.8C30.1333 57.6 28 57.6 26.1333 57.0667ZM44 54.9333V42.6667C47.2 43.4667 50.4 44.8 53.6 46.1333C51.2 49.8667 47.7333 52.8 44 54.9333Z" fill="url(#paint1_linear_1056_1830)"/>
</g>
<defs>
<filter id="filter0_f_1056_1830" x="-1" y="-1" width="66" height="66" filterUnits="userSpaceOnUse" color-interpolation-filters="sRGB">
<feFlood flood-opacity="0" result="BackgroundImageFix"/>
<feBlend mode="normal" in="SourceGraphic" in2="BackgroundImageFix" result="shape"/>
<feGaussianBlur stdDeviation="2.5" result="effect1_foregroundBlur_1056_1830"/>
</filter>
<linearGradient id="paint0_linear_1056_1830" x1="4.98293" y1="32.1155" x2="60.9829" y2="32.0395" gradientUnits="userSpaceOnUse">
<stop offset="0.0858" stop-color="#A60AF8"/>
<stop offset="0.2383" stop-color="#BA00FF"/>
<stop offset="0.4667" stop-color="#F016F5"/>
<stop offset="0.7413" stop-color="#FA13A3"/>
<stop offset="1" stop-color="#F72B6B"/>
</linearGradient>
<linearGradient id="paint1_linear_1056_1830" x1="4.98293" y1="32.1155" x2="60.9829" y2="32.0395" gradientUnits="userSpaceOnUse">
<stop offset="0.0858" stop-color="#8D29C1"/>
<stop offset="0.2383" stop-color="#942BBB"/>
<stop offset="0.4667" stop-color="#A92FAC"/>
<stop offset="0.7413" stop-color="#CA3793"/>
<stop offset="1" stop-color="#F03F77"/>
</linearGradient>
<clipPath id="clip0_1056_1830">
<rect width="64" height="64" fill="white"/>
</clipPath>
</defs>
</svg>
