<svg width="22" height="22" viewBox="0 0 22 22" fill="none" xmlns="http://www.w3.org/2000/svg">
<path d="M11.2 0.600006C5.40001 0.600006 0.700012 5.30001 0.700012 11.1C0.700012 15.3 3.10001 18.9 6.70001 20.6C8.10001 21.3 9.60001 21.6 11.2 21.6C17 21.6 21.7 16.9 21.7 11.1C21.7 5.30001 17 0.600006 11.2 0.600006ZM11.2 1.50001C16.5 1.50001 20.8 5.80001 20.8 11.1C20.8 12.6 20.4 14.1 19.8 15.4C18.4 14.7 17 14.2 15.6 13.9V5.90001C15.6 5.60001 15.4 5.40001 15.1 5.40001H13.3H9.00001H7.20001C6.90001 5.40001 6.70001 5.60001 6.70001 5.90001V14C5.30001 14.3 4.00001 14.8 2.60001 15.5C2.00001 14.2 1.60001 12.8 1.60001 11.2C1.60001 5.80001 5.90001 1.50001 11.2 1.50001ZM3.20001 16.3C4.30001 15.7 5.50001 15.3 6.70001 15V19.6C5.30001 18.8 4.00001 17.7 3.20001 16.3ZM9.00001 20.5V9.70001C9.00001 8.50001 10 7.40001 11.2 7.40001C12.4 7.40001 13.4 8.40001 13.4 9.60001V13.3C12.4 13.2 11.3 13.1 10.3 13.2L9.40001 14.4C10.7 14.3 12 14.3 13.3 14.4C13.5 14.4 14.3 14.5 15.1 14.7L13.3 15.3V20.2C12.6 20.4 11.9 20.4 11.1 20.4C10.5 20.7 9.70001 20.7 9.00001 20.5ZM15.7 19.7V15.1C16.9 15.4 18.1 15.9 19.3 16.4C18.4 17.8 17.1 18.9 15.7 19.7Z" fill="url(#paint0_linear_1045_1825)"/>
<defs>
<linearGradient id="paint0_linear_1045_1825" x1="1.06861" y1="11.1433" x2="22.0686" y2="11.1148" gradientUnits="userSpaceOnUse">
<stop offset="0.0858" stop-color="#8D29C1"/>
<stop offset="0.2383" stop-color="#942BBB"/>
<stop offset="0.4667" stop-color="#A92FAC"/>
<stop offset="0.7413" stop-color="#CA3793"/>
<stop offset="1" stop-color="#F03F77"/>
</linearGradient>
</defs>
</svg>
