<svg width="28" height="28" viewBox="0 0 28 28" fill="none" xmlns="http://www.w3.org/2000/svg">
<path d="M13.6333 0.455078C6.10325 0.455078 0 6.62203 0 14.2276C0 21.8331 6.10325 28 13.6333 28C21.1633 28 27.2665 21.8331 27.2665 14.2276C27.2665 6.62203 21.1633 0.455078 13.6333 0.455078V0.455078ZM21.3648 13.5472C21.2998 13.9229 20.9442 14.2276 20.5723 14.2276H13.6333L12.8218 18.8808C12.7569 19.2565 12.4012 19.5611 12.0293 19.5611H5.76381C5.3919 19.5611 5.14307 19.2565 5.20933 18.8808L5.9031 14.9079C5.96801 14.5322 6.32369 14.2276 6.69559 14.2276H13.6346L14.446 9.5743C14.5109 9.1986 14.8666 8.894 15.2385 8.894H21.5041C21.876 8.894 22.1248 9.1986 22.0585 9.5743L21.3648 13.5472Z" fill="url(#paint0_linear_1544_1582)"/>
<defs>
<linearGradient id="paint0_linear_1544_1582" x1="4" y1="24.5" x2="22.5" y2="3.5" gradientUnits="userSpaceOnUse">
<stop stop-color="#0322E4"/>
<stop offset="0.427774" stop-color="#0C5DE6"/>
<stop offset="1" stop-color="#22E2E8"/>
</linearGradient>
</defs>
</svg>
