<svg width="75" height="75" viewBox="0 0 75 75" fill="none" xmlns="http://www.w3.org/2000/svg">
<g clip-path="url(#clip0_3_25)">
<path d="M75 9.58048V65.4195C75 70.7106 70.7106 75 65.4195 75H9.58048C8.37329 75 7.24315 74.7688 6.19007 74.3836C6.11301 74.3579 6.01027 74.3065 5.93322 74.2808C4.16096 73.536 2.64555 72.2774 1.59247 70.6849C0.590753 69.1695 0 67.3459 0 65.3938V9.58048C0 4.28938 4.28938 0 9.58048 0H65.4195C70.7106 0 75 4.28938 75 9.58048Z" fill="white"/>
<path d="M9.65753 40.351V34.8288C9.65753 37.7568 11.0188 40.6592 13.7414 42.8938V48.4161C11.0188 46.1815 9.65753 43.2534 9.65753 40.351Z" fill="url(#paint0_linear_3_25)"/>
<path d="M13.7414 42.8938V48.4161C11.0188 46.1815 9.65753 43.2791 9.65753 40.351V34.8288C9.65753 37.7568 11.0188 40.6592 13.7414 42.8938Z" fill="url(#paint1_linear_3_25)"/>
<path d="M47.363 15.1541V20.6764L13.7415 48.4161V42.8938L47.363 15.1541Z" fill="url(#paint2_linear_3_25)"/>
<path d="M39.7089 25.0171C45.0257 20.625 53.7072 20.5993 59.1011 24.9401L35.2911 44.5634C29.9743 48.9555 21.2928 48.8271 15.9247 44.4863L39.7089 25.0171Z" fill="url(#paint3_linear_3_25)"/>
<path d="M15.899 44.4863V49.9829C16.0531 50.1113 16.2329 50.2397 16.4127 50.3682C16.4641 50.4195 16.5411 50.4452 16.5925 50.4966C16.6952 50.5736 16.8236 50.6507 16.9264 50.7277C17.0034 50.7791 17.0805 50.8305 17.1319 50.8562C17.2346 50.9332 17.3373 50.9846 17.4658 51.0617C17.5428 51.113 17.6199 51.1644 17.6969 51.1901C17.7997 51.2414 17.9024 51.3185 18.0052 51.3699C18.0822 51.4212 18.1593 51.4469 18.262 51.4983C18.3647 51.5497 18.4675 51.601 18.5702 51.6524C18.6473 51.7038 18.75 51.7295 18.8271 51.7808C18.9298 51.8322 19.0325 51.8836 19.1353 51.9349C19.2123 51.9863 19.3151 52.012 19.3921 52.0377C19.4949 52.0891 19.5976 52.1147 19.726 52.1661C19.8288 52.1918 19.9058 52.2432 20.0086 52.2688C20.1113 52.3202 20.2141 52.3459 20.3425 52.3973C20.4452 52.423 20.5223 52.4486 20.625 52.5C20.7278 52.5257 20.8562 52.5771 20.9589 52.6027C21.0617 52.6284 21.1387 52.6541 21.2415 52.6798C21.3442 52.7055 21.4726 52.7312 21.5754 52.7569C21.6781 52.7825 21.7552 52.8082 21.8579 52.8339C21.9606 52.8596 22.0891 52.8853 22.1918 52.911C22.2945 52.9367 22.3716 52.9623 22.4743 52.9623C22.6028 52.988 22.7055 53.0137 22.8339 53.0137C22.9367 53.0394 23.0137 53.0394 23.1165 53.0651C23.2449 53.0908 23.3476 53.0908 23.476 53.1164C23.5788 53.1164 23.6558 53.1421 23.7586 53.1421C23.887 53.1678 24.0154 53.1678 24.1182 53.1678C24.1952 53.1678 24.298 53.1935 24.375 53.1935C24.5034 53.1935 24.6319 53.2192 24.7603 53.2192C24.8373 53.2192 24.9401 53.2192 25.0171 53.2449H25.0428C25.0942 53.2449 25.1456 53.2449 25.2226 53.2449C25.4024 53.2449 25.5565 53.2449 25.7363 53.2449C25.8134 53.2449 25.9161 53.2449 25.9932 53.2449C26.1473 53.2449 26.3014 53.2449 26.4555 53.2192C26.5582 53.2192 26.6353 53.2192 26.738 53.1935C26.8921 53.1935 27.0206 53.1678 27.1747 53.1678C27.2774 53.1678 27.3545 53.1421 27.4572 53.1421C27.6113 53.1164 27.7654 53.1164 27.8939 53.0908C27.9452 53.0908 28.0223 53.0651 28.0736 53.0651C28.0993 53.0651 28.125 53.0651 28.1507 53.0394C28.2791 53.0137 28.3819 52.988 28.5103 52.988C28.613 52.9623 28.7158 52.9623 28.8185 52.9367C28.9469 52.911 29.0497 52.8853 29.1781 52.8596C29.2808 52.8339 29.3836 52.8082 29.4863 52.7825C29.6147 52.7569 29.7175 52.7312 29.8459 52.6798C29.9486 52.6541 30.0514 52.6284 30.1284 52.6027C30.2569 52.5771 30.3596 52.5257 30.488 52.5C30.5651 52.4743 30.6421 52.4486 30.7192 52.423C30.7449 52.423 30.7449 52.423 30.7706 52.3973C30.9504 52.3459 31.1302 52.2688 31.3099 52.1918C31.3356 52.1661 31.387 52.1661 31.4127 52.1661C31.6182 52.0891 31.8493 51.9863 32.0548 51.9093C32.1062 51.8836 32.1832 51.8579 32.2346 51.8322C32.3887 51.7551 32.5171 51.7038 32.6712 51.6267C32.7483 51.5753 32.8254 51.5497 32.9024 51.4983C33.0308 51.4212 33.1593 51.3699 33.2877 51.2928C33.3134 51.2671 33.3391 51.2671 33.3647 51.2414C33.4418 51.1901 33.5189 51.1644 33.5959 51.113C33.673 51.0617 33.75 51.036 33.8271 50.9846C33.9298 50.9075 34.0325 50.8562 34.1353 50.7791C34.2123 50.7277 34.2637 50.7021 34.3408 50.6507C34.4692 50.5736 34.5719 50.4966 34.6747 50.4195C34.726 50.3682 34.7774 50.3425 34.8545 50.2911C35.0086 50.1884 35.1627 50.0599 35.2911 49.9315V49.9572L59.0497 30.3596V24.863L35.3425 44.4093V44.3836C35.1884 44.512 35.0086 44.6404 34.8545 44.7688C34.8031 44.8202 34.7517 44.8459 34.6747 44.8973C34.5719 44.9743 34.4435 45.0514 34.3408 45.1284C34.2637 45.1798 34.2123 45.2312 34.1353 45.2569C34.0325 45.3339 33.9298 45.3853 33.8271 45.4623C33.75 45.5137 33.673 45.5651 33.5959 45.5908C33.4932 45.6421 33.3904 45.7192 33.2877 45.7706C33.1593 45.8476 33.0308 45.899 32.9024 45.976C32.8254 46.0274 32.7483 46.0531 32.6712 46.1045C32.5171 46.1815 32.3887 46.2329 32.2346 46.3099C32.1832 46.3356 32.1062 46.3613 32.0548 46.387C31.8493 46.4897 31.6182 46.5668 31.4127 46.6438C31.387 46.6695 31.3356 46.6695 31.3099 46.6695C31.1302 46.7466 30.9504 46.798 30.7706 46.875C30.6678 46.9007 30.5908 46.9264 30.488 46.9521C30.3596 46.9777 30.2569 47.0291 30.1284 47.0548C30.0257 47.0805 29.923 47.1062 29.8459 47.1319C29.7175 47.1575 29.6147 47.1832 29.4863 47.2346C29.3836 47.2603 29.2808 47.286 29.1781 47.3117C29.0497 47.3373 28.9469 47.363 28.8185 47.3887C28.7158 47.4144 28.613 47.4144 28.5103 47.4401C28.3819 47.4658 28.2791 47.4914 28.1507 47.4914C28.048 47.5171 27.9709 47.5171 27.8682 47.5171C27.7141 47.5428 27.5599 47.5685 27.4315 47.5685C27.3288 47.5685 27.2517 47.5942 27.149 47.5942C26.9949 47.6199 26.8665 47.6199 26.7123 47.6199C26.6096 47.6199 26.5325 47.6199 26.4298 47.6456C26.2757 47.6456 26.1216 47.6456 25.9675 47.6712C25.8904 47.6712 25.7877 47.6712 25.7106 47.6712C25.5308 47.6712 25.3767 47.6712 25.1969 47.6712C25.1199 47.6712 25.0685 47.6712 24.9915 47.6712C24.9144 47.6712 24.8117 47.6712 24.7346 47.6456C24.6062 47.6456 24.4778 47.6456 24.3493 47.6199C24.2466 47.6199 24.1695 47.5942 24.0668 47.5942C23.9384 47.5942 23.8099 47.5685 23.7072 47.5685C23.6045 47.5685 23.5274 47.5428 23.4247 47.5428C23.2962 47.5171 23.1935 47.5171 23.0651 47.4914C22.9623 47.4658 22.8853 47.4658 22.7825 47.4401C22.6541 47.4144 22.5514 47.3887 22.423 47.3887C22.3202 47.363 22.2432 47.363 22.1404 47.3373C22.0377 47.3117 21.9093 47.286 21.8065 47.2603C21.7038 47.2346 21.6267 47.2089 21.524 47.1832C21.4212 47.1575 21.2928 47.1319 21.1901 47.1062C21.0873 47.0805 21.0103 47.0548 20.9075 47.0291C20.8048 47.0034 20.6764 46.9521 20.5736 46.9264C20.4709 46.9007 20.3938 46.875 20.2911 46.8236C20.1884 46.798 20.0599 46.7466 19.9572 46.6952C19.8545 46.6695 19.7774 46.6182 19.6747 46.5925C19.5719 46.5411 19.4692 46.5154 19.3408 46.464C19.2637 46.4384 19.161 46.387 19.0839 46.3613C18.9812 46.3099 18.8784 46.2586 18.7757 46.2072C18.6986 46.1558 18.5959 46.1301 18.5188 46.0788C18.4161 46.0274 18.3134 45.976 18.2106 45.9247C18.1336 45.8733 18.0565 45.8476 17.9538 45.7962C17.851 45.7449 17.7483 45.6678 17.6456 45.6164C17.5685 45.5651 17.4915 45.5394 17.4144 45.488C17.3117 45.411 17.2089 45.3596 17.1062 45.2825C17.0291 45.2312 16.9521 45.1798 16.9007 45.1541C16.7723 45.0771 16.6695 45 16.5668 44.923C16.5154 44.8716 16.4384 44.8459 16.387 44.7945" fill="url(#paint4_linear_3_25)"/>
<path d="M61.387 26.6353C66.6781 31.0531 66.6524 38.2192 61.3613 42.637L47.3116 54.3236C41.8921 58.8955 33.3647 58.5873 27.9966 54.2466L61.387 26.6353Z" fill="url(#paint5_linear_3_25)"/>
<path d="M13.6387 42.9452C8.29622 38.5274 8.3219 31.3613 13.6644 26.9435L27.8425 15.2569C33.2106 10.839 41.9178 10.8134 47.3373 15.1798L13.6387 42.9452Z" fill="url(#paint6_linear_3_25)"/>
<path d="M65.3425 35.0856C65.3425 35.1884 65.3168 35.2911 65.3168 35.3938C65.3168 35.4709 65.2911 35.5736 65.2911 35.6507C65.2911 35.7534 65.2654 35.8562 65.2398 35.9589C65.2398 36.036 65.2141 36.1387 65.2141 36.2157C65.1884 36.3185 65.1884 36.4212 65.1627 36.524C65.137 36.601 65.137 36.6781 65.1113 36.7551C65.0856 36.8579 65.06 36.9606 65.0343 37.0634C65.0086 37.1404 64.9829 37.2175 64.9829 37.2945C64.9572 37.3973 64.9059 37.5 64.8802 37.6284C64.8545 37.7055 64.8288 37.7825 64.8031 37.8339C64.7517 37.9623 64.7004 38.0651 64.6747 38.1935C64.649 38.2449 64.6233 38.3219 64.5976 38.3733C64.5206 38.5531 64.4435 38.7329 64.3665 38.9127C64.2894 39.0925 64.1867 39.2466 64.0839 39.4264C64.0069 39.5805 63.9041 39.7089 63.8271 39.863C63.8014 39.8887 63.7757 39.9401 63.75 39.9657C63.673 40.0942 63.5702 40.2226 63.4932 40.351C63.4932 40.3767 63.4675 40.3767 63.4675 40.4024C63.3648 40.5308 63.262 40.6592 63.1593 40.8133C63.0822 40.9161 63.0052 40.9931 62.9281 41.0959C62.8767 41.1729 62.8254 41.2243 62.7483 41.3014C62.6713 41.4041 62.5685 41.4812 62.4915 41.5839C62.4401 41.6353 62.3887 41.7123 62.3117 41.7637C62.2089 41.8664 62.1062 41.9692 62.0035 42.0719C61.9521 42.1233 61.9007 42.1746 61.8493 42.226C61.6952 42.3544 61.5668 42.4829 61.4127 42.6113L47.4658 54.2209C47.3117 54.3493 47.1319 54.4777 46.9778 54.6062C46.9264 54.6575 46.875 54.6832 46.798 54.7346C46.6952 54.8116 46.5668 54.8887 46.4641 54.9914C46.387 55.0428 46.3356 55.0942 46.2586 55.1199C46.1559 55.1969 46.0531 55.2483 45.9504 55.3253C45.8733 55.3767 45.7963 55.4281 45.7192 55.4538C45.6165 55.5051 45.5137 55.5822 45.411 55.6336C45.2826 55.7106 45.1541 55.762 45.0257 55.839C44.9487 55.8904 44.8716 55.9161 44.7945 55.9675C44.6404 56.0445 44.512 56.0959 44.3579 56.1729C44.3065 56.1986 44.2295 56.2243 44.1781 56.25C43.9726 56.3527 43.7672 56.4298 43.536 56.5068C43.5103 56.5325 43.4589 56.5325 43.4333 56.5582C43.2535 56.6353 43.0737 56.6866 42.8939 56.7637C42.7911 56.7894 42.7141 56.8151 42.6113 56.8407C42.4829 56.8664 42.3802 56.9178 42.2517 56.9435C42.149 56.9692 42.0463 56.9949 41.9692 57.0205C41.8408 57.0462 41.738 57.0719 41.6096 57.1233C41.5069 57.149 41.4041 57.1747 41.3014 57.2003C41.173 57.226 41.0702 57.2517 40.9418 57.2774C40.8391 57.3031 40.7363 57.3031 40.6336 57.3288C40.5052 57.3544 40.4024 57.3801 40.274 57.3801C40.1713 57.4058 40.0942 57.4058 39.9915 57.4058C39.8374 57.4315 39.6832 57.4572 39.5548 57.4572C39.4521 57.4572 39.375 57.4829 39.2723 57.4829C39.1182 57.5086 38.9898 57.5086 38.8356 57.5086C38.7329 57.5086 38.6559 57.5086 38.5531 57.5342C38.399 57.5342 38.2449 57.5342 38.0908 57.5599C38.0137 57.5599 37.911 57.5599 37.8339 57.5599C37.6541 57.5599 37.5 57.5599 37.3202 57.5599C37.2432 57.5599 37.1918 57.5599 37.1148 57.5599C37.0377 57.5599 36.9606 57.5599 36.8579 57.5342C36.7295 57.5342 36.6011 57.5086 36.4726 57.5086C36.3956 57.5086 36.2928 57.4829 36.2158 57.4829C36.0874 57.4829 35.9589 57.4572 35.8562 57.4572C35.7535 57.4572 35.6764 57.4315 35.5737 57.4315C35.4452 57.4058 35.3425 57.4058 35.2141 57.3801C35.1113 57.3544 35.0343 57.3544 34.9315 57.3288C34.8031 57.3031 34.7004 57.2774 34.5719 57.2774C34.4692 57.2517 34.3922 57.226 34.2894 57.226C34.1867 57.2003 34.0582 57.1747 33.9555 57.149C33.8528 57.1233 33.7757 57.0976 33.673 57.0719C33.5702 57.0462 33.4418 57.0205 33.3391 56.9949C33.2363 56.9692 33.1593 56.9435 33.0565 56.9178C32.9538 56.8921 32.8254 56.8407 32.7226 56.8151C32.6199 56.7894 32.5428 56.7637 32.4401 56.7123C32.3374 56.6866 32.2346 56.6353 32.1062 56.5839C32.0035 56.5582 31.9264 56.5068 31.8237 56.4812C31.7209 56.4298 31.6182 56.4041 31.4898 56.3527C31.4127 56.327 31.31 56.2757 31.2329 56.25C31.1302 56.1986 31.0274 56.1473 30.9247 56.0959C30.8476 56.0445 30.7449 56.0188 30.6678 55.9675C30.5651 55.9161 30.4624 55.8647 30.3596 55.8134C30.2826 55.762 30.2055 55.7363 30.1028 55.6849C30 55.6336 29.8973 55.5565 29.7945 55.5051C29.7175 55.4538 29.6404 55.4024 29.5634 55.3767C29.4606 55.2997 29.3579 55.2483 29.2552 55.1712C29.1781 55.1199 29.1011 55.0685 29.0497 55.0428C28.9213 54.9657 28.8185 54.8887 28.7158 54.786C28.6644 54.7346 28.5874 54.7089 28.536 54.6575C28.3562 54.5291 28.2021 54.4007 28.048 54.2723V59.7945C28.2021 59.9229 28.3819 60.0514 28.536 60.1798C28.5874 60.2312 28.6387 60.2568 28.7158 60.3082C28.8185 60.3853 28.9469 60.4623 29.0497 60.5651C29.1267 60.6164 29.2038 60.6678 29.2552 60.6935C29.3579 60.7705 29.4606 60.8219 29.5891 60.899C29.6661 60.9503 29.7432 61.0017 29.8202 61.0274C29.923 61.0788 30.0257 61.1558 30.1285 61.2072C30.2055 61.2586 30.2826 61.2842 30.3853 61.3356C30.488 61.387 30.5908 61.4383 30.6935 61.4897C30.7706 61.5411 30.8733 61.5668 30.9504 61.6181C31.0531 61.6695 31.1559 61.7209 31.2586 61.7723C31.3356 61.8236 31.4384 61.8493 31.5154 61.875C31.6182 61.9264 31.7209 61.952 31.8493 62.0034C31.9521 62.0291 32.0291 62.0805 32.1319 62.1062C32.2346 62.1575 32.3374 62.1832 32.4658 62.2346C32.5685 62.2603 32.6456 62.286 32.7483 62.3373C32.8511 62.363 32.9795 62.4144 33.0822 62.4401C33.185 62.4657 33.262 62.4914 33.3648 62.5171C33.4675 62.5428 33.5959 62.5685 33.6987 62.5942C33.8014 62.6199 33.8785 62.6455 33.9812 62.6712C34.0839 62.6969 34.2124 62.7226 34.3151 62.7483C34.4178 62.774 34.4949 62.7997 34.5976 62.7997C34.7261 62.8253 34.8288 62.851 34.9572 62.851C35.06 62.8767 35.137 62.8767 35.2398 62.9024C35.3682 62.9281 35.4709 62.9281 35.5993 62.9538C35.7021 62.9538 35.7791 62.9794 35.8819 62.9794C36.0103 63.0051 36.1387 63.0051 36.2415 63.0051C36.3185 63.0051 36.4213 63.0308 36.4983 63.0308C36.6267 63.0308 36.7552 63.0565 36.8836 63.0565C36.9606 63.0565 37.0377 63.0565 37.1404 63.0822H37.1661C37.2175 63.0822 37.2689 63.0822 37.3459 63.0822C37.5257 63.0822 37.6798 63.0822 37.8596 63.0822C37.9367 63.0822 38.0394 63.0822 38.1165 63.0822C38.2706 63.0822 38.4247 63.0822 38.5788 63.0565C38.6815 63.0565 38.7586 63.0565 38.8613 63.0308C39.0154 63.0308 39.1439 63.0051 39.298 63.0051C39.4007 63.0051 39.4778 62.9794 39.5805 62.9794C39.7346 62.9538 39.8887 62.9538 40.0172 62.9281C40.0685 62.9281 40.1456 62.9024 40.1969 62.9024C40.2226 62.9024 40.2483 62.9024 40.274 62.8767C40.4024 62.851 40.5052 62.8253 40.6336 62.8253C40.7363 62.7997 40.8391 62.7997 40.9418 62.774C41.0702 62.7483 41.173 62.7226 41.3014 62.6969C41.4041 62.6712 41.5069 62.6455 41.6096 62.6199C41.738 62.5942 41.8408 62.5685 41.9692 62.5171C42.0719 62.4914 42.1747 62.4657 42.2517 62.4401C42.3802 62.4144 42.4829 62.363 42.6113 62.3373C42.6884 62.3116 42.7654 62.286 42.8425 62.2603C42.8682 62.2603 42.8682 62.2603 42.8939 62.2346C43.0737 62.1832 43.2535 62.1062 43.4333 62.0291C43.4589 62.0034 43.5103 62.0034 43.536 61.9777C43.7415 61.9007 43.9726 61.7979 44.1781 61.7209C44.2295 61.6952 44.3065 61.6695 44.3579 61.6438C44.512 61.5668 44.6404 61.5154 44.7945 61.4383C44.8716 61.387 44.9487 61.3613 45.0257 61.3099C45.1541 61.2329 45.2826 61.1815 45.411 61.1044C45.4367 61.0788 45.4624 61.0788 45.488 61.0531C45.5651 61.0017 45.6422 60.976 45.7192 60.9247C45.7963 60.8733 45.8733 60.8476 45.9504 60.7962C46.0531 60.7192 46.1559 60.6678 46.2586 60.5907C46.3356 60.5394 46.387 60.488 46.4641 60.4623C46.5925 60.3853 46.6952 60.3082 46.798 60.2055C46.8493 60.1541 46.9007 60.1284 46.9778 60.077C47.1319 59.9743 47.2603 59.8459 47.3887 59.7431L47.4401 59.6918L61.31 48.1336V48.1592C61.4898 48.0051 61.6439 47.8767 61.8237 47.7226C61.875 47.6712 61.9264 47.6199 61.9778 47.5685C62.0805 47.4657 62.1833 47.363 62.286 47.2603C62.3374 47.2089 62.4144 47.1318 62.4658 47.0805C62.5428 46.9777 62.6456 46.9007 62.7226 46.7979C62.774 46.7209 62.8254 46.6695 62.9024 46.5925C62.9795 46.4897 63.0565 46.4127 63.1336 46.3099C63.1593 46.2842 63.1593 46.2586 63.185 46.2586C63.262 46.1558 63.3648 46.0274 63.4418 45.9247C63.4418 45.899 63.4675 45.899 63.4675 45.8733C63.5702 45.7449 63.6473 45.6164 63.7243 45.488C63.75 45.4623 63.7757 45.411 63.8014 45.3853C63.8785 45.2312 63.9812 45.1027 64.0582 44.9486C64.161 44.7688 64.238 44.6147 64.3408 44.4349C64.4178 44.2551 64.4949 44.0753 64.5719 43.8955C64.5976 43.8442 64.6233 43.7671 64.649 43.7157C64.7004 43.5873 64.7517 43.4846 64.7774 43.3562C64.8031 43.2791 64.8288 43.202 64.8545 43.1507C64.8802 43.0479 64.9315 42.9452 64.9572 42.8168C64.9829 42.7397 65.0086 42.6627 65.0086 42.5856C65.0343 42.4829 65.06 42.3801 65.0856 42.2774C65.1113 42.2003 65.1113 42.1233 65.137 42.0205C65.1627 41.9178 65.1884 41.8151 65.1884 41.7123C65.2141 41.6353 65.2141 41.5325 65.2141 41.4555C65.2398 41.3527 65.2398 41.25 65.2654 41.1473C65.2654 41.0702 65.2911 40.9675 65.2911 40.8904C65.2911 40.7877 65.3168 40.6849 65.3168 40.5822C65.3168 40.5565 65.3168 40.5308 65.3168 40.5051C65.3168 40.3767 65.3168 40.2483 65.3168 40.1199V34.5976C65.3425 34.7774 65.3425 34.9315 65.3425 35.0856Z" fill="url(#paint7_linear_3_25)"/>
</g>
<defs>
<linearGradient id="paint0_linear_3_25" x1="9.6574" y1="41.6178" x2="13.7355" y2="41.6178" gradientUnits="userSpaceOnUse">
<stop stop-color="#3C5CAB"/>
<stop offset="0.9995" stop-color="#003C90"/>
</linearGradient>
<linearGradient id="paint1_linear_3_25" x1="9.6574" y1="41.6178" x2="13.7355" y2="41.6178" gradientUnits="userSpaceOnUse">
<stop stop-color="#3C5CAB"/>
<stop offset="0.9995" stop-color="#003C90"/>
</linearGradient>
<linearGradient id="paint2_linear_3_25" x1="28.5434" y1="29.5596" x2="32.5462" y2="34.0051" gradientUnits="userSpaceOnUse">
<stop stop-color="#3C29FF"/>
<stop offset="0.9995" stop-color="#001790"/>
</linearGradient>
<linearGradient id="paint3_linear_3_25" x1="15.8876" y1="34.7562" x2="59.0777" y2="34.7562" gradientUnits="userSpaceOnUse">
<stop stop-color="#3FE1FF"/>
<stop offset="1" stop-color="#1700FF"/>
</linearGradient>
<linearGradient id="paint4_linear_3_25" x1="41.9775" y1="47.5594" x2="36.4015" y2="35.0354" gradientUnits="userSpaceOnUse">
<stop offset="0.000455261" stop-color="#2944DC"/>
<stop offset="0.9995" stop-color="#001790"/>
</linearGradient>
<linearGradient id="paint5_linear_3_25" x1="28.0035" y1="42.1413" x2="65.3479" y2="42.1413" gradientUnits="userSpaceOnUse">
<stop stop-color="#3FE1FF"/>
<stop offset="0.1175" stop-color="#3DD9FF"/>
<stop offset="1" stop-color="#0000FF"/>
</linearGradient>
<linearGradient id="paint6_linear_3_25" x1="10.7826" y1="40.0783" x2="42.1596" y2="9.77785" gradientUnits="userSpaceOnUse">
<stop stop-color="#3FE1FF"/>
<stop offset="1" stop-color="#1700FF"/>
</linearGradient>
<linearGradient id="paint7_linear_3_25" x1="33.9446" y1="41.5021" x2="60.0405" y2="53.6708" gradientUnits="userSpaceOnUse">
<stop stop-color="#3C5BFF"/>
<stop offset="0.9995" stop-color="#001790"/>
</linearGradient>
<clipPath id="clip0_3_25">
<rect width="75" height="75" fill="white"/>
</clipPath>
</defs>
</svg>
