<svg width="74" height="81" viewBox="0 0 74 81" fill="none" xmlns="http://www.w3.org/2000/svg">
<path d="M71.184 64.1529C69.369 65.4047 67.46 66.4061 65.426 66.5626C57.79 67.2198 47.9949 59.7091 41.7986 58.8954C38.2623 58.426 34.3505 59.9281 31.8156 62.4004C28.9052 65.2482 28.6549 69.5356 30.2822 73.1345C33.2239 79.6437 40.9224 81.4275 47.4316 80.4574C55.3179 79.2995 61.671 74.7305 66.959 69.0036C67.648 68.2734 69.067 66.646 71.216 64.1216L71.184 64.1529Z" fill="#58C5F3"/>
<path d="M0.0550548 47.2541C0.0862548 52.9184 2.33956 58.395 7.25276 61.5244C12.0409 64.56 18.3311 65.0607 23.4947 62.651C28.94 60.0849 32.9144 55.109 37.1079 50.9469C43.711 44.3437 50.0951 39.3679 60.297 39.3679C62.926 39.3679 65.742 39.8686 67.996 41.2455C70.75 42.9041 72.721 44.8444 73.347 47.7548C73.284 44.1246 72.189 39.6182 70.875 36.2697C66.744 25.8486 57.637 17.7433 47.0596 14.3009C44.6499 13.5185 39.455 12.8613 39.455 9.48149V1.56399C39.455 1.56399 39.5176 -0.345011 37.546 0.969389C31.6313 4.84989 26.5303 13.143 21.8987 15.8656C14.92 18.8699 8.94266 24.0648 4.96826 30.5428C1.99525 35.3309 0.0237548 41.4959 0.0550548 47.2541Z" fill="#58C5F3"/>
<path d="M36.5136 42.8423C34.2604 45.0642 31.9446 47.0358 29.5975 49.0074C27.7511 50.5721 25.8734 52.0742 23.9644 53.5764C22.7752 54.4839 19.4893 57.0188 18.7382 54.6091C17.7055 51.198 20.0526 46.6916 22.2745 44.2819C25.2788 40.9959 31.9446 37.4597 36.3258 40.1197C37.515 40.8395 37.4211 41.9661 36.5136 42.8736V42.8423Z" fill="white"/>
<path d="M35.8906 52.1674C37.5805 51.1347 39.3956 50.4775 41.2107 50.4775C48.0642 50.4775 56.2321 57.9256 61.74 59.1148C66.778 60.1788 72.537 56.7677 73.382 51.5415C73.726 49.3822 73.569 46.8786 72.255 45.0322C71.066 43.3423 69.47 41.9654 67.655 41.0265C65.401 39.8686 62.898 39.3679 60.363 39.3679C50.161 39.3679 43.9333 44.2186 37.1737 50.8843C37.1737 50.8843 37.1424 50.9156 35.8906 52.1361V52.1674Z" fill="#9DE2FF"/>
</svg>
