<svg width="160" height="160" viewBox="0 0 160 160" fill="none" xmlns="http://www.w3.org/2000/svg">
<g id="2_&#208;&#156;&#208;&#190;&#208;&#189;&#209;&#130;&#208;&#176;&#208;&#182;&#208;&#189;&#208;&#176;&#209;&#143; &#208;&#190;&#208;&#177;&#208;&#187;&#208;&#176;&#209;&#129;&#209;&#130;&#209;&#140; 2" clip-path="url(#clip0_85_4429)">
<g id="Group" opacity="0.9">
<g id="Group_2" style="mix-blend-mode:multiply" opacity="0.1">
<path id="Vector" d="M81.5903 160.313L81.3573 140.382L81.2257 120.451L81.1143 80.599L81.2257 40.7368L81.3573 20.8056L81.5903 0.874512L81.8232 20.8056L81.9549 40.7368L82.0562 80.599L81.9549 120.451L81.8131 140.382L81.5903 160.313Z" fill="white"/>
<path id="Vector_2" d="M85.3171 158.431L84.1524 139.456L83.0687 120.481L81.0736 82.5318L79.291 44.562L78.4808 25.5771L77.7617 6.58203L78.9366 25.5567L80.0101 44.5315L82.0154 82.4809L83.7878 120.451L84.6082 139.436L85.3171 158.431Z" fill="white"/>
<path id="Vector_3" d="M89.0542 156.539L86.9374 138.531L84.922 120.512L81.0329 84.4652L77.3666 48.3878L75.6043 30.3491L73.9434 12.29L76.0601 30.2982L78.0755 48.3166L81.9646 84.3635L85.6309 120.441L87.3932 138.49L89.0542 156.539Z" fill="white"/>
<path id="Vector_4" d="M92.7906 154.656L89.7319 137.615L86.7645 120.553L80.9916 86.3982L75.4314 52.2233L72.7272 35.1206L70.1143 17.9976L73.1729 35.0392L76.1404 52.1012L81.9132 86.2456L87.4734 120.431L90.1776 137.533L92.7906 154.656Z" fill="white"/>
<path id="Vector_5" d="M96.5184 152.764L92.5281 136.689L88.6187 120.583L80.962 88.3413L73.5079 56.0486L69.8517 39.8921L66.2969 23.7051L70.2974 39.7904L74.1966 55.8858L81.8634 88.1276L89.3074 120.42L92.9636 136.587L96.5184 152.764Z" fill="white"/>
<path id="Vector_6" d="M100.256 150.882L95.3232 135.763L90.472 120.624L80.9315 90.2848L71.5835 59.8845L66.9854 44.6641L62.4785 29.4131L67.4108 44.5318L72.262 59.6709L81.8025 90.0101L91.1505 120.41L95.7486 135.631L100.256 150.882Z" fill="white"/>
<path id="Vector_7" d="M103.993 149L98.1187 134.847L92.3357 120.654L80.9013 92.228L69.6594 63.72L64.1093 49.4356L58.6504 35.1206L64.5246 49.2728L70.3076 63.4555L81.742 91.8922L92.9839 120.4L98.534 134.685L103.993 149Z" fill="white"/>
<path id="Vector_8" d="M107.72 147.117L100.914 133.932L94.1889 120.695L80.8708 94.171L67.7451 67.5556L61.243 54.2071L54.832 40.8281L61.638 54.0138L68.3629 67.2402L81.681 93.7641L94.8068 120.38L101.309 133.728L107.72 147.117Z" fill="white"/>
<path id="Vector_9" d="M111.456 145.225L103.719 133.006L96.0517 120.736L80.8498 96.1142L65.82 71.3911L58.376 58.9888L51.0029 46.5356L58.7507 58.7548L66.4176 71.0248L81.6195 95.6461L96.6391 120.369L104.083 132.771L111.456 145.225Z" fill="white"/>
<path id="Vector_10" d="M115.194 143.343L106.515 132.09L97.9161 120.777L80.8303 98.0577L63.9067 75.2168L55.5107 63.7608L47.1855 52.2437L55.8651 63.4962L64.4637 74.8098L81.5494 97.5185L98.463 120.359L106.869 131.826L115.194 143.343Z" fill="white"/>
<path id="Vector_11" d="M118.922 141.46L109.32 131.164L99.7798 120.807L80.8103 100.001L62.0028 79.0522L52.6447 68.5322L43.3574 57.9409L52.9688 68.2371L62.5092 78.5944L81.4686 99.4005L100.286 120.349L109.644 130.869L118.922 141.46Z" fill="white"/>
<path id="Vector_12" d="M122.659 139.568L112.126 130.239L101.653 120.848L80.8 101.944L60.0885 82.8882L49.7885 73.3042L39.5391 63.6489L50.072 72.9786L60.5544 82.3795L81.3976 101.283L102.109 120.339L112.409 129.923L122.659 139.568Z" fill="white"/>
<path id="Vector_13" d="M126.396 137.686L114.931 129.323L103.527 120.878L80.7897 103.877L58.1843 86.7135L46.9221 78.0756L35.7207 69.3564L47.1854 77.7297L58.5894 86.1641L81.3164 103.165L103.922 120.329L115.184 128.977L126.396 137.686Z" fill="white"/>
<path id="Vector_14" d="M130.123 135.803L117.736 128.387L105.391 120.909L80.7798 105.81L56.2805 90.5388L44.0663 82.837L31.8926 75.064L44.2891 82.4707L56.635 89.9589L81.2457 105.057L105.745 120.329L117.959 128.03L130.123 135.803Z" fill="white"/>
<path id="Vector_15" d="M133.86 133.911L120.542 127.461L107.264 120.929L80.7696 107.733L54.3662 94.3539L41.2 87.6085L28.0742 80.7715L41.3924 87.2219L54.67 93.7537L81.1646 106.949L107.568 120.328L120.734 127.084L133.86 133.911Z" fill="white"/>
<path id="Vector_16" d="M137.598 132.029L123.348 126.535L109.139 120.949L80.7603 109.656L52.463 98.1797L38.3447 92.3703L24.2568 86.4795L38.4966 91.9735L52.706 97.5591L81.0843 108.852L109.382 120.329L123.51 126.138L137.598 132.029Z" fill="white"/>
<path id="Vector_17" d="M141.324 130.147L126.153 125.599L111.001 120.97L80.7494 111.579L50.5582 101.995L35.4778 97.1322L20.4277 92.1875L35.5993 96.7252L50.7506 101.365L81.0025 110.755L111.204 120.339L126.274 125.203L141.324 130.147Z" fill="white"/>
<path id="Vector_18" d="M145.061 128.255L128.958 124.663L112.875 120.99L80.7391 113.492L48.6438 105.8L32.6114 101.893L16.6094 97.895L32.7127 101.486L48.7958 105.159L80.9315 112.658L113.027 120.349L129.049 124.266L145.061 128.255Z" fill="white"/>
<path id="Vector_19" d="M148.799 126.373L131.764 123.727L114.739 121.001L80.719 115.405L46.7299 109.616L29.7556 106.645L12.7812 103.603L29.8163 106.238L46.8413 108.975L80.8608 114.571L114.85 120.36L131.834 123.32L148.799 126.373Z" fill="white"/>
<path id="Vector_20" d="M152.526 124.49L134.559 122.791L116.602 121.01L80.6987 117.317L44.8156 113.42L26.8892 111.406L8.96289 109.3L26.9297 110.999L44.8865 112.779L80.7898 116.483L116.673 120.369L134.609 122.384L152.526 124.49Z" fill="white"/>
<path id="Vector_21" d="M156.262 122.608L137.363 121.855L118.465 121.031L80.6776 119.23L42.9006 117.236L24.0223 116.168L5.13379 115.008L24.0425 115.751L42.931 116.585L80.7181 118.386L118.495 120.38L137.384 121.448L156.262 122.608Z" fill="white"/>
<path id="Vector_22" d="M160 120.716L140.159 120.919L120.329 121.041L80.6582 121.133L40.9873 121.041L21.1468 120.919L1.31641 120.716L21.1468 120.512L40.9873 120.4L80.6582 120.298L120.329 120.4L140.159 120.512L160 120.716Z" fill="white"/>
</g>
<path id="Vector_23" d="M80.2637 159.428L80.0409 139.497L79.9092 119.566L79.7979 79.7143L79.8991 39.8521L80.0409 19.9311L80.2637 0L80.4967 19.9311L80.6283 39.8521L80.7397 79.7143L80.6283 119.566L80.4967 139.497L80.2637 159.428Z" fill="white"/>
<path id="Vector_24" d="M84.0007 157.546L82.8259 138.571L81.7523 119.597L79.7571 81.6472L77.9746 43.6773L77.1543 24.6925L76.4453 5.70752L77.6201 24.6721L78.6937 43.6469L80.6889 81.5963L82.4714 119.566L83.2816 138.551L84.0007 157.546Z" fill="white"/>
<path id="Vector_25" d="M87.7377 155.664L85.621 137.656L83.5954 119.638L79.7165 83.5806L76.04 47.5133L74.2879 29.4644L72.627 11.4155L74.7437 29.4135L76.7591 47.4319L80.6482 83.489L84.3145 119.556L86.0768 137.605L87.7377 155.664Z" fill="white"/>
<path id="Vector_26" d="M91.464 153.772L88.4155 136.73L85.448 119.668L79.6752 85.5236L74.115 51.3386L71.4108 34.2359L68.7979 17.1128L71.8565 34.1646L74.8239 51.2267L80.5968 85.371L86.1469 119.546L88.8612 136.649L91.464 153.772Z" fill="white"/>
<path id="Vector_27" d="M95.202 151.89L91.2016 135.804L87.3023 119.699L79.6456 87.4672L72.1915 55.1746L68.5354 39.0079L64.9805 22.8208L68.9709 38.9061L72.8802 55.0117L80.5369 87.2535L87.991 119.536L91.6472 135.703L95.202 151.89Z" fill="white"/>
<path id="Vector_28" d="M98.9394 149.997L93.997 134.889L89.1559 119.739L79.6053 89.4L70.2674 58.9998L65.6593 43.7793L61.1523 28.5283L66.0948 43.647L70.9359 58.7963L80.4865 89.1254L89.8244 119.526L94.4224 134.746L98.9394 149.997Z" fill="white"/>
<path id="Vector_29" d="M102.666 148.115L96.8023 133.963L91.0092 119.78L79.5748 91.3432L68.343 62.8353L62.7929 48.5508L57.334 34.2358L63.2081 48.388L68.9911 62.5809L80.4255 91.0074L91.6573 119.515L97.2074 133.8L102.666 148.115Z" fill="white"/>
<path id="Vector_30" d="M106.403 146.232L99.5975 133.047L92.8726 119.82L79.5544 93.2863L66.4186 66.6708L59.9266 53.3325L53.5156 39.9434L60.3216 53.129L67.0465 66.3554L80.3646 92.8793L93.4904 119.505L99.9925 132.843L106.403 146.232Z" fill="white"/>
<path id="Vector_31" d="M110.14 144.351L102.392 132.121L94.7353 119.851L79.5334 95.24L64.5036 70.5067L57.0596 58.1045L49.6865 45.6514L57.4344 57.8705L65.091 70.1405L80.293 94.7619L95.3227 119.485L102.767 131.897L110.14 144.351Z" fill="white"/>
<path id="Vector_32" d="M113.868 142.458L105.198 131.205L96.5997 119.892L79.5139 97.1831L62.5903 74.3422L54.1943 62.8759L45.8691 51.3589L54.5386 62.6115L63.1473 73.9251L80.2229 96.6438L97.1466 119.475L105.543 130.941L113.868 142.458Z" fill="white"/>
<path id="Vector_33" d="M117.605 140.576L108.004 130.279L98.4634 119.932L79.4939 99.1161L60.6763 78.1777L51.3283 67.6475L42.041 57.0664L51.6524 67.3524L61.1928 77.7097L80.1522 98.5158L98.9698 119.464L108.318 129.994L117.605 140.576Z" fill="white"/>
<path id="Vector_34" d="M121.342 138.694L110.809 129.364L100.327 119.963L79.4836 101.06L58.7721 82.0035L48.4619 72.4195L38.2227 62.7744L48.7556 72.1041L59.2279 81.4948L80.0812 100.398L100.793 119.454L111.093 129.038L121.342 138.694Z" fill="white"/>
<path id="Vector_35" d="M125.069 136.801L113.615 128.438L102.201 119.993L79.4737 102.993L56.8683 85.8287L45.6061 77.1909L34.3945 68.4717L45.8593 76.845L57.2734 85.2895L80.0004 102.291L102.606 119.454L113.868 128.092L125.069 136.801Z" fill="white"/>
<path id="Vector_36" d="M128.806 134.919L116.42 127.512L104.074 120.024L79.4634 104.926L54.954 89.6545L42.7398 81.9629L30.5762 74.1797L42.9626 81.5966L55.3085 89.0746L79.9192 104.173L104.429 119.444L116.643 127.146L128.806 134.919Z" fill="white"/>
<path id="Vector_37" d="M132.543 133.037L119.225 126.576L105.948 120.044L79.4531 106.849L53.0498 93.4798L39.8835 86.7242L26.7578 79.8872L40.076 86.3376L53.3536 92.8796L79.838 106.075L106.241 119.444L119.418 126.2L132.543 133.037Z" fill="white"/>
<path id="Vector_38" d="M136.27 131.144L122.03 125.65L107.821 120.065L79.4422 108.771L51.145 97.295L37.0166 91.4856L22.9287 85.5947L37.1786 91.0888L51.388 96.6744L79.7663 107.968L108.064 119.454L122.182 125.264L136.27 131.144Z" fill="white"/>
<path id="Vector_39" d="M140.008 129.262L124.836 124.715L109.685 120.085L79.433 110.695L49.2316 101.111L34.1614 96.2474L19.1113 91.3027L34.2829 95.8506L49.4342 100.48L79.6862 109.871L109.877 119.455L124.958 124.318L140.008 129.262Z" fill="white"/>
<path id="Vector_40" d="M143.745 127.38L127.642 123.789L111.559 120.105L79.423 112.607L47.3278 104.926L31.2954 101.009L15.2832 97.0103L31.3967 100.602L47.4797 104.285L79.6155 111.783L111.701 119.465L127.733 123.382L143.745 127.38Z" fill="white"/>
<path id="Vector_41" d="M147.472 125.498L130.437 122.852L113.422 120.115L79.4026 114.52L45.4135 108.731L28.429 105.77L11.4648 102.718L28.4999 105.353L45.5249 108.09L79.5444 113.685L113.523 119.475L130.508 122.445L147.472 125.498Z" fill="white"/>
<path id="Vector_42" d="M151.21 123.605L133.243 121.916L115.286 120.136L79.3826 116.432L43.4995 112.546L25.5631 110.531L7.63672 108.425L25.6137 110.114L43.5704 111.895L79.4737 115.598L115.357 119.485L133.283 121.509L151.21 123.605Z" fill="white"/>
<path id="Vector_43" d="M154.946 121.723L136.047 120.981L117.148 120.146L79.3612 118.345L41.5842 116.351L22.6957 115.283L3.81738 114.133L22.716 114.876L41.6146 115.71L79.4017 117.511L117.179 119.505L136.067 120.574L154.946 121.723Z" fill="white"/>
<path id="Vector_44" d="M158.684 119.841L138.843 120.044L119.013 120.156L79.3418 120.248L39.6709 120.156L19.8304 120.044L0 119.841L19.8304 119.638L39.6709 119.515L79.3418 119.424L119.013 119.515L138.843 119.638L158.684 119.841Z" fill="white"/>
</g>
</g>
<defs>
<clipPath id="clip0_85_4429">
<rect width="160" height="160" fill="white"/>
</clipPath>
</defs>
</svg>
