<svg xmlns="http://www.w3.org/2000/svg" width="110" height="110" viewBox="0 0 110 110" fill="none">
  <path d="M3.96227 60.0566H5.94341V69.9623H3.96227V60.0566Z" fill="url(#paint0_linear_366_2536)"/>
  <path d="M9.90569 64.0189V66H0L8.66003e-08 64.0189H9.90569Z" fill="url(#paint1_linear_366_2536)"/>
  <path d="M3.96227 80.076H5.94341V89.9816H3.96227V80.076Z" fill="url(#paint2_linear_366_2536)"/>
  <path d="M9.90569 84.0382V86.0194H0L8.66003e-08 84.0382H9.90569Z" fill="url(#paint3_linear_366_2536)"/>
  <path d="M3.96227 100.095H5.94341V110.001H3.96227V100.095Z" fill="url(#paint4_linear_366_2536)"/>
  <path d="M9.90569 104.058V106.039H0L8.66003e-08 104.058H9.90569Z" fill="url(#paint5_linear_366_2536)"/>
  <path d="M3.96227 40.0372H5.94341V49.9429H3.96227V40.0372Z" fill="url(#paint6_linear_366_2536)"/>
  <path d="M9.90569 43.9995V45.9807L0 45.9807L8.66003e-08 43.9995H9.90569Z" fill="url(#paint7_linear_366_2536)"/>
  <path d="M3.96227 20.0179H5.94341V29.9236H3.96227V20.0179Z" fill="url(#paint8_linear_366_2536)"/>
  <path d="M9.90569 23.9802V25.9613H0L8.66003e-08 23.9802H9.90569Z" fill="url(#paint9_linear_366_2536)"/>
  <path d="M23.9811 60.0566H25.9623V69.9623H23.9811V60.0566Z" fill="url(#paint10_linear_366_2536)"/>
  <path d="M29.9245 64.0189V66H20.0189V64.0189H29.9245Z" fill="url(#paint11_linear_366_2536)"/>
  <path d="M23.9811 80.076H25.9623V89.9816H23.9811V80.076Z" fill="url(#paint12_linear_366_2536)"/>
  <path d="M29.9245 84.0382V86.0194H20.0189V84.0382H29.9245Z" fill="url(#paint13_linear_366_2536)"/>
  <path d="M23.9811 100.095H25.9623V110.001H23.9811V100.095Z" fill="url(#paint14_linear_366_2536)"/>
  <path d="M29.9245 104.058V106.039H20.0189V104.058H29.9245Z" fill="url(#paint15_linear_366_2536)"/>
  <path d="M23.9811 40.0372H25.9623V49.9429H23.9811V40.0372Z" fill="url(#paint16_linear_366_2536)"/>
  <path d="M29.9245 43.9995V45.9807L20.0189 45.9807V43.9995H29.9245Z" fill="url(#paint17_linear_366_2536)"/>
  <path d="M23.9811 20.0179H25.9623V29.9236H23.9811V20.0179Z" fill="url(#paint18_linear_366_2536)"/>
  <path d="M29.9245 23.9802V25.9613H20.0189V23.9802H29.9245Z" fill="url(#paint19_linear_366_2536)"/>
  <path d="M44 60.0566H45.9811V69.9623H44V60.0566Z" fill="url(#paint20_linear_366_2536)"/>
  <path d="M49.9434 64.0189V66H40.0377V64.0189H49.9434Z" fill="url(#paint21_linear_366_2536)"/>
  <path d="M44 80.076H45.9811V89.9816H44V80.076Z" fill="url(#paint22_linear_366_2536)"/>
  <path d="M49.9434 84.0382V86.0194H40.0377V84.0382H49.9434Z" fill="url(#paint23_linear_366_2536)"/>
  <path d="M44 100.095H45.9811V110.001H44V100.095Z" fill="url(#paint24_linear_366_2536)"/>
  <path d="M49.9434 104.058V106.039H40.0377V104.058H49.9434Z" fill="url(#paint25_linear_366_2536)"/>
  <path d="M44 40.0372H45.9811V49.9429H44V40.0372Z" fill="url(#paint26_linear_366_2536)"/>
  <path d="M49.9434 43.9995V45.9807L40.0377 45.9807V43.9995H49.9434Z" fill="url(#paint27_linear_366_2536)"/>
  <path d="M44 20.0179H45.9811V29.9236H44V20.0179Z" fill="url(#paint28_linear_366_2536)"/>
  <path d="M49.9434 23.9802V25.9613H40.0377V23.9802H49.9434Z" fill="url(#paint29_linear_366_2536)"/>
  <path d="M64.0189 60.0566H66V69.9623H64.0189V60.0566Z" fill="url(#paint30_linear_366_2536)"/>
  <path d="M69.9623 64.0189V66H60.0566V64.0189H69.9623Z" fill="url(#paint31_linear_366_2536)"/>
  <path d="M64.0189 80.076H66V89.9816H64.0189V80.076Z" fill="url(#paint32_linear_366_2536)"/>
  <path d="M69.9623 84.0382V86.0194H60.0566V84.0382H69.9623Z" fill="url(#paint33_linear_366_2536)"/>
  <path d="M64.0189 100.095H66V110.001H64.0189V100.095Z" fill="url(#paint34_linear_366_2536)"/>
  <path d="M69.9623 104.058V106.039H60.0566V104.058H69.9623Z" fill="url(#paint35_linear_366_2536)"/>
  <path d="M64.0189 40.0372H66V49.9429H64.0189V40.0372Z" fill="url(#paint36_linear_366_2536)"/>
  <path d="M69.9623 43.9995V45.9807L60.0566 45.9807V43.9995H69.9623Z" fill="url(#paint37_linear_366_2536)"/>
  <path d="M64.0189 20.0179H66V29.9236H64.0189V20.0179Z" fill="url(#paint38_linear_366_2536)"/>
  <path d="M69.9623 23.9802V25.9613H60.0566V23.9802H69.9623Z" fill="url(#paint39_linear_366_2536)"/>
  <path d="M64.0189 -0.00146484H66V9.90422H64.0189V-0.00146484Z" fill="url(#paint40_linear_366_2536)"/>
  <path d="M69.9623 3.96081V5.94195L60.0566 5.94195V3.96081L69.9623 3.96081Z" fill="url(#paint41_linear_366_2536)"/>
  <path d="M44 -0.00146484H45.9811V9.90422H44V-0.00146484Z" fill="url(#paint42_linear_366_2536)"/>
  <path d="M49.9434 3.96081V5.94195L40.0377 5.94195V3.96081L49.9434 3.96081Z" fill="url(#paint43_linear_366_2536)"/>
  <path d="M23.9811 -0.00146484H25.9623V9.90422H23.9811V-0.00146484Z" fill="url(#paint44_linear_366_2536)"/>
  <path d="M29.9245 3.96081V5.94195L20.0189 5.94195V3.96081L29.9245 3.96081Z" fill="url(#paint45_linear_366_2536)"/>
  <path d="M3.96227 -0.00146484H5.94341V9.90422H3.96227V-0.00146484Z" fill="url(#paint46_linear_366_2536)"/>
  <path d="M9.90569 3.96081V5.94195H0L8.65984e-08 3.96081L9.90569 3.96081Z" fill="url(#paint47_linear_366_2536)"/>
  <path d="M84.0377 60.0566H86.0189V69.9623H84.0377V60.0566Z" fill="url(#paint48_linear_366_2536)"/>
  <path d="M89.9811 64.0189V66H80.0754V64.0189H89.9811Z" fill="url(#paint49_linear_366_2536)"/>
  <path d="M84.0377 80.076H86.0189V89.9816H84.0377V80.076Z" fill="url(#paint50_linear_366_2536)"/>
  <path d="M89.9811 84.0382V86.0194H80.0754V84.0382H89.9811Z" fill="url(#paint51_linear_366_2536)"/>
  <path d="M84.0377 100.095H86.0189V110.001H84.0377V100.095Z" fill="url(#paint52_linear_366_2536)"/>
  <path d="M89.9811 104.058V106.039H80.0754V104.058H89.9811Z" fill="url(#paint53_linear_366_2536)"/>
  <path d="M84.0377 40.0372H86.0189V49.9429H84.0377V40.0372Z" fill="url(#paint54_linear_366_2536)"/>
  <path d="M89.9811 43.9995V45.9807L80.0754 45.9807V43.9995H89.9811Z" fill="url(#paint55_linear_366_2536)"/>
  <path d="M84.0377 20.0179H86.0189V29.9236H84.0377V20.0179Z" fill="url(#paint56_linear_366_2536)"/>
  <path d="M89.9811 23.9802V25.9613H80.0754V23.9802H89.9811Z" fill="url(#paint57_linear_366_2536)"/>
  <path d="M84.0377 -0.00146484H86.0189V9.90422H84.0377V-0.00146484Z" fill="url(#paint58_linear_366_2536)"/>
  <path d="M89.9811 3.96081V5.94195L80.0754 5.94195V3.96081L89.9811 3.96081Z" fill="url(#paint59_linear_366_2536)"/>
  <path d="M104.057 60.0566H106.038V69.9623H104.057V60.0566Z" fill="url(#paint60_linear_366_2536)"/>
  <path d="M110 64.0189V66H100.094V64.0189H110Z" fill="url(#paint61_linear_366_2536)"/>
  <path d="M104.057 80.076H106.038V89.9816H104.057V80.076Z" fill="url(#paint62_linear_366_2536)"/>
  <path d="M110 84.0382V86.0194H100.094V84.0382H110Z" fill="url(#paint63_linear_366_2536)"/>
  <path d="M104.057 100.095H106.038V110.001H104.057V100.095Z" fill="url(#paint64_linear_366_2536)"/>
  <path d="M110 104.058V106.039H100.094V104.058H110Z" fill="url(#paint65_linear_366_2536)"/>
  <path d="M104.057 40.0372H106.038V49.9429H104.057V40.0372Z" fill="url(#paint66_linear_366_2536)"/>
  <path d="M110 43.9995V45.9807L100.094 45.9807V43.9995H110Z" fill="url(#paint67_linear_366_2536)"/>
  <path d="M104.057 20.0179H106.038V29.9236H104.057V20.0179Z" fill="url(#paint68_linear_366_2536)"/>
  <path d="M110 23.9802V25.9613H100.094V23.9802H110Z" fill="url(#paint69_linear_366_2536)"/>
  <path d="M104.057 -0.00146484H106.038V9.90422H104.057V-0.00146484Z" fill="url(#paint70_linear_366_2536)"/>
  <path d="M110 3.96081V5.94195L100.094 5.94195V3.96081L110 3.96081Z" fill="url(#paint71_linear_366_2536)"/>
  <defs>
    <linearGradient id="paint0_linear_366_2536" x1="107.5" y1="114.5" x2="-3.22347e-06" y2="2.00035e-06" gradientUnits="userSpaceOnUse">
      <stop stop-color="white"/>
      <stop offset="1" stop-color="white" stop-opacity="0"/>
    </linearGradient>
    <linearGradient id="paint1_linear_366_2536" x1="107.5" y1="114.5" x2="-3.22347e-06" y2="2.00035e-06" gradientUnits="userSpaceOnUse">
      <stop stop-color="white"/>
      <stop offset="1" stop-color="white" stop-opacity="0"/>
    </linearGradient>
    <linearGradient id="paint2_linear_366_2536" x1="107.5" y1="114.5" x2="-3.22347e-06" y2="2.00035e-06" gradientUnits="userSpaceOnUse">
      <stop stop-color="white"/>
      <stop offset="1" stop-color="white" stop-opacity="0"/>
    </linearGradient>
    <linearGradient id="paint3_linear_366_2536" x1="107.5" y1="114.5" x2="-3.22347e-06" y2="2.00035e-06" gradientUnits="userSpaceOnUse">
      <stop stop-color="white"/>
      <stop offset="1" stop-color="white" stop-opacity="0"/>
    </linearGradient>
    <linearGradient id="paint4_linear_366_2536" x1="107.5" y1="114.5" x2="-3.22347e-06" y2="2.00035e-06" gradientUnits="userSpaceOnUse">
      <stop stop-color="white"/>
      <stop offset="1" stop-color="white" stop-opacity="0"/>
    </linearGradient>
    <linearGradient id="paint5_linear_366_2536" x1="107.5" y1="114.5" x2="-3.22347e-06" y2="2.00035e-06" gradientUnits="userSpaceOnUse">
      <stop stop-color="white"/>
      <stop offset="1" stop-color="white" stop-opacity="0"/>
    </linearGradient>
    <linearGradient id="paint6_linear_366_2536" x1="107.5" y1="114.5" x2="-3.22347e-06" y2="2.00035e-06" gradientUnits="userSpaceOnUse">
      <stop stop-color="white"/>
      <stop offset="1" stop-color="white" stop-opacity="0"/>
    </linearGradient>
    <linearGradient id="paint7_linear_366_2536" x1="107.5" y1="114.5" x2="-3.22347e-06" y2="2.00035e-06" gradientUnits="userSpaceOnUse">
      <stop stop-color="white"/>
      <stop offset="1" stop-color="white" stop-opacity="0"/>
    </linearGradient>
    <linearGradient id="paint8_linear_366_2536" x1="107.5" y1="114.5" x2="-3.22347e-06" y2="2.00035e-06" gradientUnits="userSpaceOnUse">
      <stop stop-color="white"/>
      <stop offset="1" stop-color="white" stop-opacity="0"/>
    </linearGradient>
    <linearGradient id="paint9_linear_366_2536" x1="107.5" y1="114.5" x2="-3.22347e-06" y2="2.00035e-06" gradientUnits="userSpaceOnUse">
      <stop stop-color="white"/>
      <stop offset="1" stop-color="white" stop-opacity="0"/>
    </linearGradient>
    <linearGradient id="paint10_linear_366_2536" x1="107.5" y1="114.5" x2="-3.22347e-06" y2="2.00035e-06" gradientUnits="userSpaceOnUse">
      <stop stop-color="white"/>
      <stop offset="1" stop-color="white" stop-opacity="0"/>
    </linearGradient>
    <linearGradient id="paint11_linear_366_2536" x1="107.5" y1="114.5" x2="-3.22347e-06" y2="2.00035e-06" gradientUnits="userSpaceOnUse">
      <stop stop-color="white"/>
      <stop offset="1" stop-color="white" stop-opacity="0"/>
    </linearGradient>
    <linearGradient id="paint12_linear_366_2536" x1="107.5" y1="114.5" x2="-3.22347e-06" y2="2.00035e-06" gradientUnits="userSpaceOnUse">
      <stop stop-color="white"/>
      <stop offset="1" stop-color="white" stop-opacity="0"/>
    </linearGradient>
    <linearGradient id="paint13_linear_366_2536" x1="107.5" y1="114.5" x2="-3.22347e-06" y2="2.00035e-06" gradientUnits="userSpaceOnUse">
      <stop stop-color="white"/>
      <stop offset="1" stop-color="white" stop-opacity="0"/>
    </linearGradient>
    <linearGradient id="paint14_linear_366_2536" x1="107.5" y1="114.5" x2="-3.22347e-06" y2="2.00035e-06" gradientUnits="userSpaceOnUse">
      <stop stop-color="white"/>
      <stop offset="1" stop-color="white" stop-opacity="0"/>
    </linearGradient>
    <linearGradient id="paint15_linear_366_2536" x1="107.5" y1="114.5" x2="-3.22347e-06" y2="2.00035e-06" gradientUnits="userSpaceOnUse">
      <stop stop-color="white"/>
      <stop offset="1" stop-color="white" stop-opacity="0"/>
    </linearGradient>
    <linearGradient id="paint16_linear_366_2536" x1="107.5" y1="114.5" x2="-3.22347e-06" y2="2.00035e-06" gradientUnits="userSpaceOnUse">
      <stop stop-color="white"/>
      <stop offset="1" stop-color="white" stop-opacity="0"/>
    </linearGradient>
    <linearGradient id="paint17_linear_366_2536" x1="107.5" y1="114.5" x2="-3.22347e-06" y2="2.00035e-06" gradientUnits="userSpaceOnUse">
      <stop stop-color="white"/>
      <stop offset="1" stop-color="white" stop-opacity="0"/>
    </linearGradient>
    <linearGradient id="paint18_linear_366_2536" x1="107.5" y1="114.5" x2="-3.22347e-06" y2="2.00035e-06" gradientUnits="userSpaceOnUse">
      <stop stop-color="white"/>
      <stop offset="1" stop-color="white" stop-opacity="0"/>
    </linearGradient>
    <linearGradient id="paint19_linear_366_2536" x1="107.5" y1="114.5" x2="-3.22347e-06" y2="2.00035e-06" gradientUnits="userSpaceOnUse">
      <stop stop-color="white"/>
      <stop offset="1" stop-color="white" stop-opacity="0"/>
    </linearGradient>
    <linearGradient id="paint20_linear_366_2536" x1="107.5" y1="114.5" x2="-3.22347e-06" y2="2.00035e-06" gradientUnits="userSpaceOnUse">
      <stop stop-color="white"/>
      <stop offset="1" stop-color="white" stop-opacity="0"/>
    </linearGradient>
    <linearGradient id="paint21_linear_366_2536" x1="107.5" y1="114.5" x2="-3.22347e-06" y2="2.00035e-06" gradientUnits="userSpaceOnUse">
      <stop stop-color="white"/>
      <stop offset="1" stop-color="white" stop-opacity="0"/>
    </linearGradient>
    <linearGradient id="paint22_linear_366_2536" x1="107.5" y1="114.5" x2="-3.22347e-06" y2="2.00035e-06" gradientUnits="userSpaceOnUse">
      <stop stop-color="white"/>
      <stop offset="1" stop-color="white" stop-opacity="0"/>
    </linearGradient>
    <linearGradient id="paint23_linear_366_2536" x1="107.5" y1="114.5" x2="-3.22347e-06" y2="2.00035e-06" gradientUnits="userSpaceOnUse">
      <stop stop-color="white"/>
      <stop offset="1" stop-color="white" stop-opacity="0"/>
    </linearGradient>
    <linearGradient id="paint24_linear_366_2536" x1="107.5" y1="114.5" x2="-3.22347e-06" y2="2.00035e-06" gradientUnits="userSpaceOnUse">
      <stop stop-color="white"/>
      <stop offset="1" stop-color="white" stop-opacity="0"/>
    </linearGradient>
    <linearGradient id="paint25_linear_366_2536" x1="107.5" y1="114.5" x2="-3.22347e-06" y2="2.00035e-06" gradientUnits="userSpaceOnUse">
      <stop stop-color="white"/>
      <stop offset="1" stop-color="white" stop-opacity="0"/>
    </linearGradient>
    <linearGradient id="paint26_linear_366_2536" x1="107.5" y1="114.5" x2="-3.22347e-06" y2="2.00035e-06" gradientUnits="userSpaceOnUse">
      <stop stop-color="white"/>
      <stop offset="1" stop-color="white" stop-opacity="0"/>
    </linearGradient>
    <linearGradient id="paint27_linear_366_2536" x1="107.5" y1="114.5" x2="-3.22347e-06" y2="2.00035e-06" gradientUnits="userSpaceOnUse">
      <stop stop-color="white"/>
      <stop offset="1" stop-color="white" stop-opacity="0"/>
    </linearGradient>
    <linearGradient id="paint28_linear_366_2536" x1="107.5" y1="114.5" x2="-3.22347e-06" y2="2.00035e-06" gradientUnits="userSpaceOnUse">
      <stop stop-color="white"/>
      <stop offset="1" stop-color="white" stop-opacity="0"/>
    </linearGradient>
    <linearGradient id="paint29_linear_366_2536" x1="107.5" y1="114.5" x2="-3.22347e-06" y2="2.00035e-06" gradientUnits="userSpaceOnUse">
      <stop stop-color="white"/>
      <stop offset="1" stop-color="white" stop-opacity="0"/>
    </linearGradient>
    <linearGradient id="paint30_linear_366_2536" x1="107.5" y1="114.5" x2="-3.22347e-06" y2="2.00035e-06" gradientUnits="userSpaceOnUse">
      <stop stop-color="white"/>
      <stop offset="1" stop-color="white" stop-opacity="0"/>
    </linearGradient>
    <linearGradient id="paint31_linear_366_2536" x1="107.5" y1="114.5" x2="-3.22347e-06" y2="2.00035e-06" gradientUnits="userSpaceOnUse">
      <stop stop-color="white"/>
      <stop offset="1" stop-color="white" stop-opacity="0"/>
    </linearGradient>
    <linearGradient id="paint32_linear_366_2536" x1="107.5" y1="114.5" x2="-3.22347e-06" y2="2.00035e-06" gradientUnits="userSpaceOnUse">
      <stop stop-color="white"/>
      <stop offset="1" stop-color="white" stop-opacity="0"/>
    </linearGradient>
    <linearGradient id="paint33_linear_366_2536" x1="107.5" y1="114.5" x2="-3.22347e-06" y2="2.00035e-06" gradientUnits="userSpaceOnUse">
      <stop stop-color="white"/>
      <stop offset="1" stop-color="white" stop-opacity="0"/>
    </linearGradient>
    <linearGradient id="paint34_linear_366_2536" x1="107.5" y1="114.5" x2="-3.22347e-06" y2="2.00035e-06" gradientUnits="userSpaceOnUse">
      <stop stop-color="white"/>
      <stop offset="1" stop-color="white" stop-opacity="0"/>
    </linearGradient>
    <linearGradient id="paint35_linear_366_2536" x1="107.5" y1="114.5" x2="-3.22347e-06" y2="2.00035e-06" gradientUnits="userSpaceOnUse">
      <stop stop-color="white"/>
      <stop offset="1" stop-color="white" stop-opacity="0"/>
    </linearGradient>
    <linearGradient id="paint36_linear_366_2536" x1="107.5" y1="114.5" x2="-3.22347e-06" y2="2.00035e-06" gradientUnits="userSpaceOnUse">
      <stop stop-color="white"/>
      <stop offset="1" stop-color="white" stop-opacity="0"/>
    </linearGradient>
    <linearGradient id="paint37_linear_366_2536" x1="107.5" y1="114.5" x2="-3.22347e-06" y2="2.00035e-06" gradientUnits="userSpaceOnUse">
      <stop stop-color="white"/>
      <stop offset="1" stop-color="white" stop-opacity="0"/>
    </linearGradient>
    <linearGradient id="paint38_linear_366_2536" x1="107.5" y1="114.5" x2="-3.22347e-06" y2="2.00035e-06" gradientUnits="userSpaceOnUse">
      <stop stop-color="white"/>
      <stop offset="1" stop-color="white" stop-opacity="0"/>
    </linearGradient>
    <linearGradient id="paint39_linear_366_2536" x1="107.5" y1="114.5" x2="-3.22347e-06" y2="2.00035e-06" gradientUnits="userSpaceOnUse">
      <stop stop-color="white"/>
      <stop offset="1" stop-color="white" stop-opacity="0"/>
    </linearGradient>
    <linearGradient id="paint40_linear_366_2536" x1="107.5" y1="114.5" x2="-3.22347e-06" y2="2.00035e-06" gradientUnits="userSpaceOnUse">
      <stop stop-color="white"/>
      <stop offset="1" stop-color="white" stop-opacity="0"/>
    </linearGradient>
    <linearGradient id="paint41_linear_366_2536" x1="107.5" y1="114.5" x2="-3.22347e-06" y2="2.00035e-06" gradientUnits="userSpaceOnUse">
      <stop stop-color="white"/>
      <stop offset="1" stop-color="white" stop-opacity="0"/>
    </linearGradient>
    <linearGradient id="paint42_linear_366_2536" x1="107.5" y1="114.5" x2="-3.22347e-06" y2="2.00035e-06" gradientUnits="userSpaceOnUse">
      <stop stop-color="white"/>
      <stop offset="1" stop-color="white" stop-opacity="0"/>
    </linearGradient>
    <linearGradient id="paint43_linear_366_2536" x1="107.5" y1="114.5" x2="-3.22347e-06" y2="2.00035e-06" gradientUnits="userSpaceOnUse">
      <stop stop-color="white"/>
      <stop offset="1" stop-color="white" stop-opacity="0"/>
    </linearGradient>
    <linearGradient id="paint44_linear_366_2536" x1="107.5" y1="114.5" x2="-3.22347e-06" y2="2.00035e-06" gradientUnits="userSpaceOnUse">
      <stop stop-color="white"/>
      <stop offset="1" stop-color="white" stop-opacity="0"/>
    </linearGradient>
    <linearGradient id="paint45_linear_366_2536" x1="107.5" y1="114.5" x2="-3.22347e-06" y2="2.00035e-06" gradientUnits="userSpaceOnUse">
      <stop stop-color="white"/>
      <stop offset="1" stop-color="white" stop-opacity="0"/>
    </linearGradient>
    <linearGradient id="paint46_linear_366_2536" x1="107.5" y1="114.5" x2="-3.22347e-06" y2="2.00035e-06" gradientUnits="userSpaceOnUse">
      <stop stop-color="white"/>
      <stop offset="1" stop-color="white" stop-opacity="0"/>
    </linearGradient>
    <linearGradient id="paint47_linear_366_2536" x1="107.5" y1="114.5" x2="-3.22347e-06" y2="2.00035e-06" gradientUnits="userSpaceOnUse">
      <stop stop-color="white"/>
      <stop offset="1" stop-color="white" stop-opacity="0"/>
    </linearGradient>
    <linearGradient id="paint48_linear_366_2536" x1="107.5" y1="114.5" x2="-3.22347e-06" y2="2.00035e-06" gradientUnits="userSpaceOnUse">
      <stop stop-color="white"/>
      <stop offset="1" stop-color="white" stop-opacity="0"/>
    </linearGradient>
    <linearGradient id="paint49_linear_366_2536" x1="107.5" y1="114.5" x2="-3.22347e-06" y2="2.00035e-06" gradientUnits="userSpaceOnUse">
      <stop stop-color="white"/>
      <stop offset="1" stop-color="white" stop-opacity="0"/>
    </linearGradient>
    <linearGradient id="paint50_linear_366_2536" x1="107.5" y1="114.5" x2="-3.22347e-06" y2="2.00035e-06" gradientUnits="userSpaceOnUse">
      <stop stop-color="white"/>
      <stop offset="1" stop-color="white" stop-opacity="0"/>
    </linearGradient>
    <linearGradient id="paint51_linear_366_2536" x1="107.5" y1="114.5" x2="-3.22347e-06" y2="2.00035e-06" gradientUnits="userSpaceOnUse">
      <stop stop-color="white"/>
      <stop offset="1" stop-color="white" stop-opacity="0"/>
    </linearGradient>
    <linearGradient id="paint52_linear_366_2536" x1="107.5" y1="114.5" x2="-3.22347e-06" y2="2.00035e-06" gradientUnits="userSpaceOnUse">
      <stop stop-color="white"/>
      <stop offset="1" stop-color="white" stop-opacity="0"/>
    </linearGradient>
    <linearGradient id="paint53_linear_366_2536" x1="107.5" y1="114.5" x2="-3.22347e-06" y2="2.00035e-06" gradientUnits="userSpaceOnUse">
      <stop stop-color="white"/>
      <stop offset="1" stop-color="white" stop-opacity="0"/>
    </linearGradient>
    <linearGradient id="paint54_linear_366_2536" x1="107.5" y1="114.5" x2="-3.22347e-06" y2="2.00035e-06" gradientUnits="userSpaceOnUse">
      <stop stop-color="white"/>
      <stop offset="1" stop-color="white" stop-opacity="0"/>
    </linearGradient>
    <linearGradient id="paint55_linear_366_2536" x1="107.5" y1="114.5" x2="-3.22347e-06" y2="2.00035e-06" gradientUnits="userSpaceOnUse">
      <stop stop-color="white"/>
      <stop offset="1" stop-color="white" stop-opacity="0"/>
    </linearGradient>
    <linearGradient id="paint56_linear_366_2536" x1="107.5" y1="114.5" x2="-3.22347e-06" y2="2.00035e-06" gradientUnits="userSpaceOnUse">
      <stop stop-color="white"/>
      <stop offset="1" stop-color="white" stop-opacity="0"/>
    </linearGradient>
    <linearGradient id="paint57_linear_366_2536" x1="107.5" y1="114.5" x2="-3.22347e-06" y2="2.00035e-06" gradientUnits="userSpaceOnUse">
      <stop stop-color="white"/>
      <stop offset="1" stop-color="white" stop-opacity="0"/>
    </linearGradient>
    <linearGradient id="paint58_linear_366_2536" x1="107.5" y1="114.5" x2="-3.22347e-06" y2="2.00035e-06" gradientUnits="userSpaceOnUse">
      <stop stop-color="white"/>
      <stop offset="1" stop-color="white" stop-opacity="0"/>
    </linearGradient>
    <linearGradient id="paint59_linear_366_2536" x1="107.5" y1="114.5" x2="-3.22347e-06" y2="2.00035e-06" gradientUnits="userSpaceOnUse">
      <stop stop-color="white"/>
      <stop offset="1" stop-color="white" stop-opacity="0"/>
    </linearGradient>
    <linearGradient id="paint60_linear_366_2536" x1="107.5" y1="114.5" x2="-3.22347e-06" y2="2.00035e-06" gradientUnits="userSpaceOnUse">
      <stop stop-color="white"/>
      <stop offset="1" stop-color="white" stop-opacity="0"/>
    </linearGradient>
    <linearGradient id="paint61_linear_366_2536" x1="107.5" y1="114.5" x2="-3.22347e-06" y2="2.00035e-06" gradientUnits="userSpaceOnUse">
      <stop stop-color="white"/>
      <stop offset="1" stop-color="white" stop-opacity="0"/>
    </linearGradient>
    <linearGradient id="paint62_linear_366_2536" x1="107.5" y1="114.5" x2="-3.22347e-06" y2="2.00035e-06" gradientUnits="userSpaceOnUse">
      <stop stop-color="white"/>
      <stop offset="1" stop-color="white" stop-opacity="0"/>
    </linearGradient>
    <linearGradient id="paint63_linear_366_2536" x1="107.5" y1="114.5" x2="-3.22347e-06" y2="2.00035e-06" gradientUnits="userSpaceOnUse">
      <stop stop-color="white"/>
      <stop offset="1" stop-color="white" stop-opacity="0"/>
    </linearGradient>
    <linearGradient id="paint64_linear_366_2536" x1="107.5" y1="114.5" x2="-3.22347e-06" y2="2.00035e-06" gradientUnits="userSpaceOnUse">
      <stop stop-color="white"/>
      <stop offset="1" stop-color="white" stop-opacity="0"/>
    </linearGradient>
    <linearGradient id="paint65_linear_366_2536" x1="107.5" y1="114.5" x2="-3.22347e-06" y2="2.00035e-06" gradientUnits="userSpaceOnUse">
      <stop stop-color="white"/>
      <stop offset="1" stop-color="white" stop-opacity="0"/>
    </linearGradient>
    <linearGradient id="paint66_linear_366_2536" x1="107.5" y1="114.5" x2="-3.22347e-06" y2="2.00035e-06" gradientUnits="userSpaceOnUse">
      <stop stop-color="white"/>
      <stop offset="1" stop-color="white" stop-opacity="0"/>
    </linearGradient>
    <linearGradient id="paint67_linear_366_2536" x1="107.5" y1="114.5" x2="-3.22347e-06" y2="2.00035e-06" gradientUnits="userSpaceOnUse">
      <stop stop-color="white"/>
      <stop offset="1" stop-color="white" stop-opacity="0"/>
    </linearGradient>
    <linearGradient id="paint68_linear_366_2536" x1="107.5" y1="114.5" x2="-3.22347e-06" y2="2.00035e-06" gradientUnits="userSpaceOnUse">
      <stop stop-color="white"/>
      <stop offset="1" stop-color="white" stop-opacity="0"/>
    </linearGradient>
    <linearGradient id="paint69_linear_366_2536" x1="107.5" y1="114.5" x2="-3.22347e-06" y2="2.00035e-06" gradientUnits="userSpaceOnUse">
      <stop stop-color="white"/>
      <stop offset="1" stop-color="white" stop-opacity="0"/>
    </linearGradient>
    <linearGradient id="paint70_linear_366_2536" x1="107.5" y1="114.5" x2="-3.22347e-06" y2="2.00035e-06" gradientUnits="userSpaceOnUse">
      <stop stop-color="white"/>
      <stop offset="1" stop-color="white" stop-opacity="0"/>
    </linearGradient>
    <linearGradient id="paint71_linear_366_2536" x1="107.5" y1="114.5" x2="-3.22347e-06" y2="2.00035e-06" gradientUnits="userSpaceOnUse">
      <stop stop-color="white"/>
      <stop offset="1" stop-color="white" stop-opacity="0"/>
    </linearGradient>
  </defs>
</svg>