<svg xmlns="http://www.w3.org/2000/svg" width="21" height="16" viewBox="0 0 21 16" fill="none">
  <path d="M17.0236 1.68555C15.7489 1.10065 14.3819 0.669722 12.9527 0.42291C12.9267 0.418147 12.9007 0.430051 12.8873 0.453859C12.7114 0.766538 12.5167 1.17445 12.3804 1.49507C10.8431 1.26493 9.31376 1.26493 7.80804 1.49507C7.67165 1.16733 7.46984 0.766538 7.29325 0.453859C7.27984 0.430845 7.25384 0.418941 7.22782 0.42291C5.79936 0.668933 4.43241 1.09986 3.15689 1.68555C3.14584 1.69031 3.13638 1.69826 3.1301 1.70857C0.537267 5.5822 -0.173018 9.36062 0.175424 13.0922C0.177 13.1105 0.187248 13.1279 0.201438 13.139C1.91211 14.3953 3.5692 15.158 5.19551 15.6635C5.22153 15.6714 5.24911 15.6619 5.26568 15.6405C5.65038 15.1151 5.99331 14.5612 6.28734 13.9787C6.30469 13.9445 6.28813 13.9041 6.25266 13.8906C5.70872 13.6842 5.19077 13.4327 4.69255 13.147C4.65314 13.1239 4.64999 13.0676 4.68624 13.0406C4.79108 12.962 4.89596 12.8803 4.99607 12.7977C5.01418 12.7827 5.03942 12.7795 5.06072 12.789C8.33384 14.2834 11.8774 14.2834 15.1119 12.789C15.1332 12.7787 15.1584 12.7819 15.1773 12.797C15.2775 12.8795 15.3823 12.962 15.488 13.0406C15.5242 13.0676 15.5218 13.1239 15.4824 13.147C14.9842 13.4382 14.4663 13.6842 13.9215 13.8898C13.8861 13.9033 13.8703 13.9445 13.8876 13.9787C14.188 14.5604 14.5309 15.1143 14.9085 15.6397C14.9243 15.6619 14.9527 15.6714 14.9787 15.6635C16.6129 15.158 18.27 14.3953 19.9806 13.139C19.9956 13.1279 20.0051 13.1112 20.0067 13.093C20.4237 8.77888 19.3082 5.03144 17.0496 1.70936C17.0441 1.69826 17.0347 1.69031 17.0236 1.68555ZM6.77613 10.8201C5.79069 10.8201 4.97872 9.91535 4.97872 8.80428C4.97872 7.69321 5.77494 6.78851 6.77613 6.78851C7.78517 6.78851 8.58928 7.70116 8.57351 8.80428C8.57351 9.91535 7.77728 10.8201 6.77613 10.8201ZM13.4217 10.8201C12.4363 10.8201 11.6244 9.91535 11.6244 8.80428C11.6244 7.69321 12.4205 6.78851 13.4217 6.78851C14.4308 6.78851 15.2349 7.70116 15.2191 8.80428C15.2191 9.91535 14.4308 10.8201 13.4217 10.8201Z" fill="white"/>
</svg>