<svg xmlns="http://www.w3.org/2000/svg" width="125" height="49" viewBox="0 0 125 49" fill="none">
  <g clip-path="url(#clip0_164_200)">
    <path d="M3.47722 9.58398H25.4808C27.2681 9.58398 28.7168 11.051 28.7168 12.8607V38.3162C28.7168 40.1259 27.268 41.5929 25.4808 41.5929H3.4772C1.69002 41.5929 0.241211 40.1259 0.241211 38.3162V12.8607C0.241211 11.051 1.69003 9.58398 3.47722 9.58398Z" fill="white"/>
    <path d="M3.91826 9.8318L19.4352 17.1429C20.348 17.573 20.9318 18.5001 20.9318 19.5197V45.898C20.9318 47.7949 19.0038 49.0637 17.2918 48.2936L1.77498 41.3126C0.839931 40.8919 0.237305 39.953 0.237305 38.9169V12.2085C0.237305 10.2919 2.20218 9.02323 3.91826 9.8318Z" fill="white" fill-opacity="0.6"/>
    <path d="M33.5233 0.478027L33.8474 1.35174C34.6107 3.41 36.2372 5.03282 38.3 5.79445L39.1756 6.11775L38.3 6.44105C36.2372 7.20269 34.6107 8.82551 33.8474 10.8838L33.5233 11.7575L33.1993 10.8838C32.436 8.82551 30.8095 7.20269 28.7467 6.44105L27.8711 6.11775L28.7467 5.79445C30.8095 5.03282 32.436 3.41 33.1993 1.35174L33.5233 0.478027Z" fill="white" fill-opacity="0.6"/>
    <path fill-rule="evenodd" clip-rule="evenodd" d="M91.7911 31.0679C91.8313 31.509 92.0222 31.91 92.3638 32.2711C92.7055 32.6118 92.8763 32.8826 92.8763 33.0831V33.2034C92.8763 33.4842 92.6652 33.6246 92.2433 33.6246H87.8118C87.3898 33.6246 87.1788 33.4842 87.1788 33.2034V33.0831C87.1788 32.9027 87.3596 32.642 87.7215 32.3011C88.1033 31.9402 88.2841 31.5391 88.264 31.098L87.9626 25.1424C87.8219 21.934 86.7668 20.3299 84.7974 20.3299C83.8528 20.3299 83.0891 20.6807 82.5063 21.3825C81.9234 22.0644 81.6321 22.9566 81.6321 24.0595V31.128C81.6321 31.5492 81.833 31.9402 82.235 32.3011C82.657 32.642 82.868 32.9027 82.868 33.0831V33.1734C82.868 33.4741 82.6469 33.6246 82.2048 33.6246H77.5323C77.1102 33.6246 76.8992 33.4741 76.8992 33.1734V33.0831C76.8992 32.9027 76.9998 32.7321 77.2007 32.5718C77.4017 32.3913 77.6026 32.1908 77.8035 31.9702C78.0045 31.7497 78.1051 31.4689 78.1051 31.128V15.1563C78.1051 14.7953 77.9946 14.4946 77.7735 14.254C77.5725 14.0133 77.3614 13.8228 77.1404 13.6824C76.9395 13.5221 76.8389 13.3616 76.8389 13.2012V13.1109C76.8389 12.8503 77.0098 12.6397 77.3514 12.4793L80.577 11.0656C81.2201 10.7849 81.5416 10.9453 81.5416 11.5469L81.5115 20.9013C82.4761 19.5578 83.8829 18.8861 85.7318 18.8861C87.2794 18.8861 88.5856 19.4074 89.6507 20.4502C90.7159 21.4929 91.3087 23.087 91.4293 25.2326L91.7911 31.0679ZM50.401 26.4636C50.379 24.5914 50.9379 22.9248 52.1743 21.5051C53.5726 19.9023 55.3404 19.0908 57.4877 19.0423C58.6528 19.0159 59.7579 19.1901 60.7912 19.7397C62.1195 20.4459 62.9552 21.4958 63.1776 23.0061C63.3602 24.2466 62.758 25.2116 61.5463 25.56C61.2353 25.6493 60.9237 25.7369 60.6121 25.8244C59.7224 26.0741 58.8324 26.3239 57.9574 26.6166C56.8755 26.9754 55.9114 27.617 55.1665 28.4739C54.9335 28.7421 54.887 29.0286 55.0365 29.3483C55.4322 30.184 56.1369 30.6886 56.9475 31.0606C58.7651 31.8982 61.0998 31.3583 62.3073 29.83C62.4095 29.7009 62.4963 29.56 62.5831 29.4191C62.6177 29.3628 62.6525 29.3064 62.6882 29.2508C62.8606 28.9833 63.1491 28.8983 63.4339 29.0331C63.6353 29.1279 63.7261 29.3341 63.6748 29.5758C63.3336 31.1831 62.3497 32.3094 60.9571 33.1205C59.9565 33.7033 58.871 33.9482 57.7085 33.9557C56.4818 33.963 55.3134 33.7633 54.2251 33.1908C52.4317 32.2466 51.3224 30.7556 50.7361 28.8548C50.6202 28.4635 50.5357 28.0637 50.4835 27.6592C50.4451 27.3843 50.4323 27.1052 50.4197 26.8262C50.4142 26.7053 50.4086 26.5842 50.401 26.4636ZM54.5047 27.6995C54.5618 27.6381 54.6105 27.5859 54.6605 27.5348C55.285 26.8953 55.9692 26.3217 56.77 25.9205C57.3329 25.6389 57.9174 25.3983 58.5017 25.1577C58.669 25.0888 58.8365 25.0199 59.0033 24.9501C59.62 24.6936 59.9145 24.1894 59.8618 23.5257C59.7957 22.6887 59.5025 21.9543 59.0155 21.268C57.9617 19.7803 55.8867 19.7892 54.8977 21.3143C54.4656 21.9812 54.2018 22.7192 54.055 23.4975C53.8104 24.7972 54.0305 26.0634 54.2594 27.3789C54.2877 27.5419 54.3162 27.7057 54.344 27.8704C54.4065 27.8048 54.4584 27.7491 54.5047 27.6995ZM113.355 32.8428C114.52 33.5446 116.038 33.8955 117.907 33.8955C119.816 33.8955 121.343 33.5045 122.489 32.7223C123.654 31.9203 124.237 30.9177 124.237 29.7146C124.237 28.6116 123.935 27.7294 123.332 27.0676C122.73 26.4059 121.996 25.9447 121.132 25.684C120.268 25.4233 119.404 25.1928 118.54 24.9922C117.696 24.7716 116.972 24.4508 116.369 24.0297C115.766 23.6086 115.465 23.0271 115.465 22.2851C115.465 21.6235 115.706 21.072 116.188 20.6309C116.671 20.1897 117.274 19.9691 117.997 19.9691C118.58 19.9691 119.062 20.0995 119.444 20.3601C119.846 20.6208 120.137 20.9416 120.318 21.3226C120.519 21.6836 120.7 22.0546 120.861 22.4355C121.042 22.7965 121.253 23.1073 121.494 23.368C121.755 23.6287 122.077 23.759 122.459 23.759C122.86 23.759 123.192 23.6387 123.454 23.398C123.714 23.1574 123.845 22.8466 123.845 22.4657C123.845 21.5432 123.282 20.721 122.157 19.9991C121.052 19.2573 119.605 18.8863 117.816 18.8863C116.088 18.8863 114.671 19.2973 113.566 20.1195C112.46 20.9216 111.908 21.9343 111.908 23.1574C111.908 24.2603 112.209 25.1526 112.812 25.8344C113.415 26.4962 114.148 26.9574 115.013 27.2181C115.877 27.4787 116.731 27.7093 117.575 27.9098C118.439 28.1103 119.173 28.4211 119.776 28.8423C120.379 29.2433 120.68 29.8148 120.68 30.5568C120.68 31.2986 120.419 31.8702 119.896 32.2712C119.394 32.6722 118.731 32.8728 117.907 32.8728C117.264 32.8728 116.721 32.7424 116.279 32.4818C115.857 32.2211 115.535 31.9103 115.314 31.5493C115.113 31.1683 114.932 30.7873 114.772 30.4064C114.611 30.0254 114.39 29.7046 114.108 29.4439C113.847 29.1832 113.515 29.0529 113.113 29.0529C112.651 29.0529 112.279 29.1731 111.998 29.4137C111.737 29.6545 111.606 29.9952 111.606 30.4365C111.606 31.3187 112.189 32.1209 113.355 32.8428ZM102.555 33.9255C100.083 33.9255 98.1031 33.1736 96.6159 31.6697C95.1288 30.1658 94.3852 28.361 94.3852 26.2556C94.3852 24.15 95.1087 22.3955 96.5557 20.9917C98.0027 19.5881 99.7712 18.8863 101.861 18.8863C104.192 18.8863 106.102 19.6282 107.589 21.112C109.076 22.5759 109.82 24.3705 109.82 26.4962C109.82 28.6017 109.146 30.3663 107.8 31.79C106.453 33.2137 104.705 33.9255 102.555 33.9255ZM103.007 32.7826C103.971 32.7826 104.755 32.3414 105.358 31.4591C105.961 30.5568 106.262 29.3135 106.262 27.7294C106.262 25.6039 105.8 23.789 104.876 22.2851C103.971 20.7812 102.836 20.0293 101.469 20.0293C100.384 20.0293 99.5199 20.4704 98.8768 21.3528C98.2538 22.215 97.9424 23.4582 97.9424 25.0825C97.9424 27.0475 98.4146 28.8222 99.3592 30.4064C100.324 31.9905 101.54 32.7826 103.007 32.7826ZM68.3659 32.6918C69.1297 33.5139 70.1646 33.925 71.4709 33.925C72.7571 33.925 73.782 33.524 74.5458 32.7219C75.3296 31.9197 75.7214 30.9773 75.7214 29.8944C75.7214 29.714 75.6511 29.5836 75.5104 29.5034C75.3898 29.4233 75.2491 29.4032 75.0883 29.4433C74.9276 29.4834 74.807 29.5836 74.7266 29.7441C74.5055 30.7868 73.7921 31.3082 72.5863 31.3082C72.0838 31.3082 71.6719 31.1177 71.3504 30.7367C71.0288 30.3357 70.868 29.7842 70.868 29.0824V20.6604H74.6663C75.028 20.6604 75.209 20.49 75.209 20.1491V19.7279C75.209 19.5676 75.1587 19.4372 75.0582 19.3369C74.9577 19.2367 74.827 19.1866 74.6663 19.1866H70.868L70.8378 16.2689C70.8378 15.8278 70.6469 15.6071 70.2651 15.6071H69.8129C69.4712 15.6071 69.2703 15.8278 69.21 16.2689C69.0894 17.1712 68.788 17.8832 68.3056 18.4045C67.8434 18.9259 67.2305 19.1866 66.4667 19.1866H65.5323C65.1907 19.1866 65.0198 19.367 65.0198 19.7279V20.1491C65.0198 20.49 65.1907 20.6604 65.5323 20.6604H67.2505V29.0522C67.2505 30.6364 67.6224 31.8497 68.3659 32.6918Z" fill="white"/>
  </g>
  <defs>
    <clipPath id="clip0_164_200">
      <rect width="124" height="49" fill="white" transform="translate(0.237305)"/>
    </clipPath>
  </defs>
</svg>