<svg xmlns="http://www.w3.org/2000/svg" width="21" height="20" viewBox="0 0 21 20" fill="none">
  <g clip-path="url(#clip0_146_38045)">
    <path fill-rule="evenodd" clip-rule="evenodd" d="M10.4233 0C4.889 0 0.415039 4.50694 0.415039 10.0826C0.415039 14.5396 3.28166 18.3123 7.25842 19.6476C7.75561 19.748 7.93774 19.4306 7.93774 19.1637C7.93774 18.93 7.92135 18.1288 7.92135 17.2939C5.13729 17.895 4.55753 16.092 4.55753 16.092C4.11012 14.9235 3.44719 14.6232 3.44719 14.6232C2.53596 14.0055 3.51356 14.0055 3.51356 14.0055C4.52434 14.0723 5.05473 15.0405 5.05473 15.0405C5.94936 16.5761 7.39096 16.1422 7.97092 15.8751C8.05369 15.224 8.31898 14.7733 8.60067 14.523C6.38018 14.2893 4.04395 13.4213 4.04395 9.54836C4.04395 8.44662 4.44138 7.54523 5.07112 6.8442C4.97176 6.59386 4.6237 5.5587 5.17068 4.17322C5.17068 4.17322 6.01573 3.90608 7.92114 5.20818C8.73692 4.98747 9.57821 4.8752 10.4233 4.87426C11.2684 4.87426 12.1298 4.99123 12.9253 5.20818C14.8309 3.90608 15.6759 4.17322 15.6759 4.17322C16.2229 5.5587 15.8747 6.59386 15.7753 6.8442C16.4216 7.54523 16.8027 8.44662 16.8027 9.54836C16.8027 13.4213 14.4664 14.2725 12.2294 14.523C12.594 14.8401 12.9087 15.441 12.9087 16.3926C12.9087 17.7446 12.8923 18.8298 12.8923 19.1635C12.8923 19.4306 13.0746 19.748 13.5716 19.6478C17.5484 18.3121 20.415 14.5396 20.415 10.0826C20.4314 4.50694 15.941 0 10.4233 0Z" fill="white"/>
  </g>
  <defs>
    <clipPath id="clip0_146_38045">
      <rect width="20" height="20" fill="white" transform="translate(0.415039)"/>
    </clipPath>
  </defs>
</svg>