<svg xmlns="http://www.w3.org/2000/svg" width="172" height="47" viewBox="0 0 172 47" fill="none">
  <g clip-path="url(#clip0_164_248)">
    <path fill-rule="evenodd" clip-rule="evenodd" d="M24.7416 7.91461C24.4257 7.99396 24.0694 8.17114 23.8235 8.37101C23.6699 8.49597 21.706 11.0726 16.0914 18.5161C11.9522 24.0039 8.47329 28.6048 8.36069 28.7404C7.63514 29.6137 7.60349 30.8021 8.28155 31.7114C8.3553 31.8103 9.96738 33.4305 11.8639 35.3117C15.2144 38.6351 15.3207 38.7362 15.6117 38.8761C16.1516 39.1358 16.7187 39.1988 17.2653 39.0598C17.6612 38.9591 17.8902 38.8384 18.2866 38.5215C18.4687 38.3758 19.4113 37.6638 20.3811 36.9392C21.3511 36.2144 22.9607 35.0107 23.958 34.2642C31.0456 28.9583 33.2709 27.2929 35.7115 25.4678C37.2342 24.3293 38.554 23.3158 38.6445 23.2158C38.9788 22.8464 39.2049 22.234 39.2049 21.6989C39.2049 21.2454 39.0458 20.735 38.789 20.3648C38.727 20.2756 35.9985 17.5341 32.7257 14.2729C26.3512 7.92082 26.5997 8.15427 26.0124 7.96682C25.678 7.86002 25.06 7.83463 24.7416 7.91461ZM25.319 10.5509C24.8977 10.6261 24.4325 10.8712 24.1633 11.1599C24.0858 11.2431 23.6516 11.7856 23.1983 12.3655C22.2373 13.5953 16.7503 20.5853 14.932 22.8963C14.2446 23.7698 13.6824 24.4951 13.6824 24.5084C13.6824 24.5393 14.3514 24.9678 14.7788 25.2109C15.2972 25.5056 16.3656 26.017 16.8828 26.2181C18.188 26.7253 18.986 26.8967 20.2991 26.9515C21.239 26.9908 21.8283 27.0717 22.5743 27.2646C23.932 27.6154 25.5206 28.3679 26.7311 29.2336C26.909 29.3607 27.0573 29.4408 27.0847 29.4247C27.2338 29.3359 36.0603 22.7259 36.1309 22.65C36.2818 22.4878 36.4974 22.0967 36.5769 21.8412C36.6882 21.4827 36.6824 20.8895 36.5642 20.5445C36.366 19.9666 36.591 20.2036 31.7063 15.43C30.378 14.1321 28.8231 12.6107 28.2507 12.0491C27.6778 11.487 27.1101 10.9648 26.9874 10.8872C26.5341 10.6006 25.8327 10.4592 25.319 10.5509Z" fill="white"/>
    <path d="M63.3383 30.9327C62.2967 30.9327 61.3159 30.7442 60.3959 30.3672C59.4896 29.9902 58.6982 29.4718 58.0218 28.812C57.3453 28.1387 56.811 27.3578 56.4187 26.4691C56.0398 25.5669 55.8506 24.5975 55.8506 23.5607C55.8506 22.5239 56.0468 21.5612 56.439 20.6725C56.8313 19.7838 57.3725 19.0096 58.0624 18.3499C58.7659 17.6766 59.5843 17.1583 60.5177 16.7946C61.4512 16.4177 62.4522 16.2292 63.521 16.2292C64.7521 16.2292 65.8682 16.4512 66.8691 16.8956C67.4319 17.142 67.9405 17.4404 68.3952 17.7903C69.0092 18.2632 68.9634 19.1537 68.4144 19.7001C67.7777 20.3338 66.7344 20.2306 65.9657 19.764C65.8442 19.6902 65.7192 19.6228 65.5908 19.5616C64.9685 19.2655 64.2651 19.1174 63.4804 19.1174C62.6416 19.1174 61.8908 19.3059 61.228 19.6829C60.565 20.0464 60.0442 20.5648 59.6655 21.238C59.3003 21.8978 59.1176 22.6721 59.1176 23.5607C59.1176 24.4494 59.3003 25.2303 59.6655 25.9036C60.0307 26.5769 60.5314 27.102 61.1671 27.4789C61.8029 27.856 62.5333 28.0445 63.3586 28.0445C64.1973 28.0445 64.9077 27.8897 65.4893 27.58C66.0846 27.2568 66.5377 26.7989 66.8489 26.2066C67.0536 25.8244 67.1938 25.3915 67.2695 24.9077C67.3292 24.5261 67.7692 24.2953 68.091 24.5109C68.491 24.7789 68.2949 25.4007 67.8127 25.3931L64.3928 25.339C63.6501 25.3273 63.0543 24.7247 63.0543 23.9855C63.0543 23.2377 63.6632 22.6317 64.4144 22.6317H70.1159C70.3737 22.6317 70.5826 22.8396 70.5826 23.0962C70.5826 24.8062 70.2714 26.2469 69.6491 27.4183C69.0405 28.5763 68.1882 29.4515 67.0923 30.044C66.0102 30.6365 64.7588 30.9327 63.3383 30.9327ZM73.7818 30.7106C72.9245 30.7106 72.2295 30.0188 72.2295 29.1654V17.5924C72.2295 16.7391 72.9245 16.0474 73.7818 16.0474C74.6392 16.0474 75.3342 16.7391 75.3342 17.5924V29.1654C75.3342 30.0188 74.6392 30.7106 73.7818 30.7106ZM81.6398 30.9125C80.7334 30.9125 79.9217 30.6903 79.2047 30.2461C78.5013 29.8016 77.94 29.1958 77.5206 28.4283C77.1147 27.6608 76.9118 26.7855 76.9118 25.8026C76.9118 24.8197 77.1147 23.9444 77.5206 23.1769C77.94 22.4094 78.5013 21.8036 79.2047 21.3592C79.9217 20.9149 80.7334 20.6928 81.6398 20.6928C82.3027 20.6928 82.8979 20.8207 83.4256 21.0765C83.9666 21.3323 84.4063 21.6891 84.7446 22.1468C85.0827 22.5912 85.2721 23.1028 85.3127 23.6819V27.9234C85.2721 28.5023 85.0827 29.0207 84.7446 29.4786C84.4198 29.9228 83.9869 30.273 83.4458 30.5287C82.9047 30.7846 82.3027 30.9125 81.6398 30.9125ZM82.2689 28.1254C82.9318 28.1254 83.4662 27.9098 83.8719 27.4789C84.2778 27.0346 84.4807 26.4759 84.4807 25.8026C84.4807 25.3449 84.386 24.9409 84.1966 24.5908C84.0208 24.2407 83.7637 23.9714 83.4256 23.7828C83.1008 23.5809 82.7221 23.4799 82.2891 23.4799C81.8563 23.4799 81.4708 23.5809 81.1325 23.7828C80.8079 23.9714 80.544 24.2407 80.3411 24.5908C80.1518 24.9409 80.057 25.3449 80.057 25.8026C80.057 26.2469 80.1518 26.6442 80.3411 26.9942C80.5305 27.3443 80.7943 27.6204 81.1325 27.8223C81.4708 28.0243 81.8495 28.1254 82.2689 28.1254ZM85.8808 30.7106C85.0404 30.7106 84.3591 30.0324 84.3591 29.1958V28.2976C84.3591 28.1427 84.374 27.9882 84.4038 27.836L84.5137 27.2752C84.7198 26.2226 84.7198 25.1402 84.5137 24.0876L84.3997 23.5058C84.3726 23.3677 84.3591 23.2273 84.3591 23.0865V22.4094C84.3591 21.5729 85.0404 20.8947 85.8808 20.8947C86.7214 20.8947 87.4027 21.5729 87.4027 22.4094V29.1958C87.4027 30.0324 86.7214 30.7106 85.8808 30.7106ZM93.1806 30.9529C92.5988 30.9529 92.0239 30.8788 91.4557 30.7307C90.9011 30.5827 90.3802 30.3739 89.8932 30.1046C89.7873 30.0414 89.6847 29.976 89.5855 29.9088C89.0314 29.5326 89.0472 28.7611 89.5188 28.2864C90.0212 27.7806 90.8462 27.8188 91.487 28.1336C91.5235 28.1516 91.5605 28.1689 91.5978 28.1858C92.0441 28.3743 92.5312 28.4686 93.0587 28.4686C93.424 28.4686 93.7013 28.4148 93.8907 28.3071C94.0937 28.1994 94.1951 28.0513 94.1951 27.8627C94.1951 27.6204 94.0734 27.4386 93.8298 27.3175C93.5999 27.1827 93.3022 27.0683 92.937 26.9741C92.5718 26.8663 92.1862 26.7519 91.7803 26.6307C91.3746 26.5095 90.989 26.3411 90.6238 26.1257C90.2584 25.9103 89.9608 25.6141 89.7308 25.2371C89.5008 24.8467 89.3859 24.3552 89.3859 23.7626C89.3859 23.1299 89.5482 22.5845 89.8729 22.1267C90.1976 21.6555 90.6575 21.2852 91.2528 21.0158C91.8479 20.7466 92.5446 20.6119 93.3429 20.6119C94.1816 20.6119 94.9526 20.7599 95.6561 21.0563C95.999 21.1914 96.3108 21.3589 96.5917 21.5587C97.114 21.9302 97.0627 22.6695 96.6113 23.1239L96.5646 23.171C96.065 23.6739 95.2451 23.5894 94.5807 23.3385C94.2018 23.1905 93.8298 23.1164 93.4646 23.1164C93.1129 23.1164 92.8491 23.1702 92.6732 23.278C92.4974 23.3722 92.4095 23.5136 92.4095 23.7021C92.4095 23.904 92.5244 24.0656 92.7545 24.1868C92.9844 24.308 93.2819 24.4157 93.6472 24.51C94.0125 24.6042 94.398 24.7187 94.8039 24.8534C95.2097 24.9879 95.5953 25.1697 95.9606 25.3987C96.3258 25.6276 96.6235 25.9372 96.8535 26.3277C97.0834 26.7048 97.1984 27.2029 97.1984 27.8223C97.1984 28.7783 96.833 29.539 96.1026 30.1046C95.3857 30.6702 94.4115 30.9529 93.1806 30.9529ZM102.475 30.9529C101.893 30.9529 101.318 30.8788 100.75 30.7307C100.195 30.5827 99.6742 30.3739 99.1872 30.1046C99.0812 30.0414 98.9786 29.976 98.8795 29.9088C98.3254 29.5326 98.3412 28.7611 98.8127 28.2864C99.3152 27.7806 100.14 27.8188 100.781 28.1336C100.817 28.1516 100.854 28.1689 100.892 28.1858C101.338 28.3743 101.825 28.4686 102.353 28.4686C102.718 28.4686 102.995 28.4148 103.185 28.3071C103.388 28.1994 103.489 28.0513 103.489 27.8627C103.489 27.6204 103.367 27.4386 103.124 27.3175C102.894 27.1827 102.596 27.0683 102.231 26.9741C101.866 26.8663 101.48 26.7519 101.074 26.6307C100.669 26.5095 100.283 26.3411 99.9176 26.1257C99.5524 25.9103 99.2548 25.6141 99.0247 25.2371C98.7948 24.8467 98.6799 24.3552 98.6799 23.7626C98.6799 23.1299 98.8422 22.5845 99.1668 22.1267C99.4915 21.6555 99.9515 21.2852 100.547 21.0158C101.142 20.7466 101.839 20.6119 102.637 20.6119C103.475 20.6119 104.247 20.7599 104.95 21.0563C105.293 21.1914 105.605 21.3589 105.886 21.5587C106.408 21.9302 106.357 22.6695 105.905 23.1239L105.859 23.171C105.359 23.6739 104.539 23.5894 103.875 23.3385C103.496 23.1905 103.124 23.1164 102.759 23.1164C102.407 23.1164 102.143 23.1702 101.967 23.278C101.791 23.3722 101.703 23.5136 101.703 23.7021C101.703 23.904 101.818 24.0656 102.048 24.1868C102.278 24.308 102.576 24.4157 102.941 24.51C103.306 24.6042 103.692 24.7187 104.098 24.8534C104.504 24.9879 104.889 25.1697 105.254 25.3987C105.62 25.6276 105.917 25.9372 106.147 26.3277C106.377 26.7048 106.492 27.2029 106.492 27.8223C106.492 28.7783 106.127 29.539 105.397 30.1046C104.68 30.6702 103.706 30.9529 102.475 30.9529ZM117.132 30.7106C116.396 30.7106 115.744 30.2376 115.518 29.54L111.92 18.3997C111.608 17.4367 112.33 16.4512 113.346 16.4512C114.005 16.4512 114.587 16.8796 114.78 17.5068L117.643 26.8271C117.733 27.1212 117.512 27.4183 117.204 27.4183C116.895 27.4183 116.675 27.1235 116.762 26.8301L119.517 17.6416C119.728 16.9353 120.381 16.4512 121.122 16.4512C121.862 16.4512 122.515 16.9353 122.727 17.6416L125.483 26.8393C125.57 27.1281 125.353 27.4183 125.05 27.4183C124.746 27.4183 124.529 27.1263 124.617 26.8371L127.466 17.5022C127.657 16.878 128.236 16.4512 128.891 16.4512C129.901 16.4512 130.617 17.4301 130.308 18.3866L126.705 29.5401C126.479 30.2376 125.828 30.7106 125.092 30.7106C124.343 30.7106 123.683 30.222 123.468 29.5087L120.692 20.3047C120.608 20.025 120.818 19.7435 121.111 19.7435C121.405 19.7435 121.615 20.025 121.531 20.3047L118.755 29.5087C118.541 30.222 117.881 30.7106 117.132 30.7106ZM135.223 30.9125C134.318 30.9125 133.507 30.6903 132.789 30.2461C132.085 29.8016 131.524 29.1958 131.104 28.4283C130.699 27.6608 130.496 26.7855 130.496 25.8026C130.496 24.8197 130.699 23.9444 131.104 23.1769C131.524 22.4094 132.085 21.8036 132.789 21.3592C133.507 20.9149 134.318 20.6928 135.223 20.6928C135.887 20.6928 136.482 20.8207 137.009 21.0765C137.55 21.3323 137.991 21.6891 138.329 22.1468C138.667 22.5912 138.856 23.1028 138.897 23.6819V27.9234C138.856 28.5023 138.667 29.0207 138.329 29.4786C138.003 29.9228 137.571 30.273 137.029 30.5287C136.489 30.7846 135.887 30.9125 135.223 30.9125ZM135.853 28.1254C136.515 28.1254 137.05 27.9098 137.456 27.4789C137.861 27.0346 138.065 26.4759 138.065 25.8026C138.065 25.3449 137.97 24.9409 137.78 24.5908C137.605 24.2407 137.347 23.9714 137.009 23.7828C136.685 23.5809 136.306 23.4799 135.874 23.4799C135.441 23.4799 135.055 23.5809 134.716 23.7828C134.392 23.9714 134.128 24.2407 133.925 24.5908C133.736 24.9409 133.642 25.3449 133.642 25.8026C133.642 26.2469 133.736 26.6442 133.925 26.9942C134.114 27.3443 134.378 27.6204 134.716 27.8223C135.055 28.0243 135.434 28.1254 135.853 28.1254ZM139.465 30.7106C138.625 30.7106 137.943 30.0325 137.943 29.1962V28.2974C137.943 28.1426 137.958 27.9882 137.988 27.8362L138.098 27.2752C138.304 26.2226 138.304 25.1403 138.098 24.0876L137.984 23.5056C137.957 23.3676 137.943 23.2274 137.943 23.0867V22.409C137.943 21.5727 138.625 20.8947 139.465 20.8947C140.305 20.8947 140.987 21.5727 140.987 22.409V29.1962C140.987 30.0325 140.305 30.7106 139.465 30.7106ZM144.726 30.7106C143.868 30.7106 143.173 30.0186 143.173 29.1652V17.5927C143.173 16.7392 143.868 16.0474 144.726 16.0474C145.583 16.0474 146.278 16.7392 146.278 17.5927V29.1652C146.278 30.0186 145.583 30.7106 144.726 30.7106ZM150.016 30.7106C149.159 30.7106 148.463 30.0186 148.463 29.1652V17.5927C148.463 16.7392 149.159 16.0474 150.016 16.0474C150.873 16.0474 151.569 16.7392 151.569 17.5927V29.1652C151.569 30.0186 150.873 30.7106 150.016 30.7106ZM158.625 30.9327C157.556 30.9327 156.603 30.7172 155.763 30.2864C154.938 29.842 154.29 29.2294 153.815 28.4484C153.343 27.6675 153.106 26.7855 153.106 25.8026C153.106 24.8197 153.336 23.9444 153.795 23.1769C154.269 22.3961 154.905 21.7833 155.703 21.339C156.501 20.8947 157.401 20.6725 158.402 20.6725C159.376 20.6725 160.235 20.8813 160.979 21.2986C161.723 21.7161 162.304 22.295 162.724 23.0357C163.157 23.7762 163.374 24.6244 163.374 25.5805C163.374 25.7554 163.36 25.944 163.332 26.146C163.304 26.5384 162.949 26.8132 162.553 26.8141L155.797 26.8301C155.207 26.8315 154.729 26.3563 154.729 25.7696C154.729 25.1849 155.204 24.7107 155.792 24.7089L160.872 24.6947C161.182 24.6939 161.304 25.0949 161.047 25.2662C160.841 25.4026 160.563 25.2592 160.53 25.0156C160.488 24.6974 160.414 24.4211 160.308 24.1868C160.147 23.8099 159.903 23.5271 159.579 23.3385C159.267 23.1365 158.882 23.0357 158.422 23.0357C157.934 23.0357 157.509 23.15 157.144 23.3788C156.791 23.5944 156.515 23.904 156.312 24.308C156.122 24.7119 156.028 25.2034 156.028 25.7825C156.028 26.3614 156.129 26.8597 156.332 27.277C156.549 27.6809 156.846 27.9974 157.225 28.2262C157.616 28.4417 158.076 28.5495 158.605 28.5495C159.092 28.5495 159.531 28.4686 159.924 28.3071C160.562 28.0228 161.376 27.9554 161.871 28.4471C162.318 28.8924 162.355 29.623 161.841 29.9901C161.551 30.197 161.236 30.3698 160.898 30.5086C160.208 30.7913 159.45 30.9327 158.625 30.9327ZM167.607 30.7106C166.75 30.7106 166.054 30.0188 166.054 29.1656V18.3799C166.054 17.5266 166.75 16.835 167.607 16.835C168.463 16.835 169.159 17.5266 169.159 18.3799V29.1656C169.159 30.0188 168.463 30.7106 167.607 30.7106ZM165.142 23.5203C164.412 23.5203 163.822 22.9325 163.822 22.2075C163.822 21.4825 164.412 20.8947 165.142 20.8947H170.072C170.801 20.8947 171.391 21.4825 171.391 22.2075C171.391 22.9325 170.801 23.5203 170.072 23.5203H165.142Z" fill="white"/>
    <path d="M47.028 23.5C47.028 36.2025 36.5881 46.5 23.7098 46.5C10.8315 46.5 0.391602 36.2025 0.391602 23.5C0.391602 10.7975 10.8315 0.5 23.7098 0.5C36.5881 0.5 47.028 10.7975 47.028 23.5ZM1.97623 23.5C1.97623 35.3393 11.7067 44.937 23.7098 44.937C35.7129 44.937 45.4433 35.3393 45.4433 23.5C45.4433 11.6607 35.7129 2.06301 23.7098 2.06301C11.7067 2.06301 1.97623 11.6607 1.97623 23.5Z" fill="white"/>
  </g>
  <defs>
    <clipPath id="clip0_164_248">
      <rect width="171" height="46" fill="white" transform="translate(0.391602 0.5)"/>
    </clipPath>
  </defs>
</svg>