<svg xmlns="http://www.w3.org/2000/svg" width="410" height="248" viewBox="0 0 410 248" fill="none">
  <path opacity="0.05" fill-rule="evenodd" clip-rule="evenodd" d="M150.997 39.155C162.64 51.6626 173.41 66.348 183.519 81.9258L184.264 83.069C187.887 88.5977 191.413 94.2689 194.855 100.008C198.334 105.756 201.71 111.601 205 117.441C208.291 111.6 211.668 105.754 215.148 100.005C218.585 94.2709 222.108 88.6049 225.728 83.0815L226.107 82.5001L226.488 81.9148C236.595 66.341 247.362 51.6596 259.003 39.155C280.603 15.9518 305.438 0 334.865 0C364.345 0 388.178 16.7618 404.557 40.515C420.926 64.2537 430 95.156 430 124C430 152.844 420.926 183.746 404.557 207.485C388.178 231.238 364.345 248 334.865 248C305.438 248 280.603 232.048 259.003 208.845C247.362 196.34 236.594 181.658 226.487 166.083L225.727 164.917C222.108 159.394 218.585 153.729 215.148 147.996C211.668 142.247 208.291 136.4 205 130.559C201.71 136.399 198.334 142.244 194.855 147.992C191.414 153.731 187.888 159.402 184.264 164.931L183.518 166.075C173.41 181.653 162.64 196.338 150.997 208.845C129.397 232.048 104.562 248 75.1349 248C45.6548 248 21.8221 231.238 5.44308 207.485C-10.9259 183.746 -20 152.844 -20 124C-20 95.156 -10.9259 64.2537 5.44308 40.515C21.8221 16.7618 45.6548 0 75.1349 0C104.562 0 129.397 15.9518 150.997 39.155ZM-16.0397 124C-16.0397 95.9135 -7.18363 65.808 8.7011 42.7717C24.5759 19.7497 47.3206 3.96913 75.1349 3.96913C78.2086 3.96913 81.2338 4.15254 84.2119 4.50971C82.9117 4.4437 81.6018 4.4102 80.2824 4.4102C51.9229 4.4102 29.0035 20.587 13.2581 43.4942C-2.47748 66.3873 -11.1993 96.1862 -11.1993 124C-11.1993 151.814 -2.47748 181.613 13.2581 204.506C29.0035 227.413 51.9229 243.59 80.2824 243.59C81.6018 243.59 82.9114 243.556 84.2116 243.49C81.2335 243.847 78.2086 244.031 75.1349 244.031C47.3206 244.031 24.5759 228.25 8.7011 205.228C-7.18363 182.192 -16.0397 152.087 -16.0397 124ZM80.2824 8.37933C83.2612 8.37933 86.1924 8.55947 89.0777 8.90997C87.8704 8.85049 86.6545 8.82039 85.43 8.82039C58.1908 8.82039 36.1847 24.4124 21.073 46.4735C5.97083 68.5212 -2.39858 97.2165 -2.39858 124C-2.39858 150.783 5.97083 179.479 21.073 201.526C36.1847 223.588 58.1908 239.18 85.43 239.18C86.6545 239.18 87.8705 239.15 89.0779 239.09C86.1925 239.441 83.2612 239.621 80.2824 239.621C53.5944 239.621 31.7631 224.431 16.5195 202.254C1.26623 180.063 -7.23901 151.059 -7.23901 124C-7.23901 96.941 1.26623 67.9372 16.5195 45.746C31.7631 23.5688 53.5944 8.37933 80.2824 8.37933ZM329.717 239.621C326.738 239.621 323.807 239.441 320.921 239.09C322.129 239.15 323.345 239.18 324.57 239.18C351.809 239.18 373.815 223.588 388.927 201.526C404.029 179.479 412.399 150.783 412.399 124C412.399 97.2165 404.029 68.5212 388.927 46.4735C373.815 24.4124 351.809 8.82039 324.57 8.82039C323.345 8.82039 322.13 8.85049 320.922 8.90997C323.808 8.55947 326.739 8.37933 329.717 8.37933C356.405 8.37933 378.237 23.5688 393.48 45.746C408.733 67.9372 417.239 96.941 417.239 124C417.239 151.059 408.733 180.063 393.48 202.254C378.237 224.431 356.405 239.621 329.717 239.621ZM329.717 4.4102C328.398 4.4102 327.089 4.4437 325.788 4.50971C328.767 4.15268 331.792 3.96913 334.865 3.96913C362.679 3.96913 385.424 19.7498 401.299 42.7717C417.184 65.808 426.04 95.9135 426.04 124C426.04 152.087 417.184 182.192 401.299 205.228C385.424 228.25 362.679 244.031 334.865 244.031C331.792 244.031 328.766 243.847 325.788 243.49C327.089 243.556 328.398 243.59 329.717 243.59C358.077 243.59 380.996 227.413 396.742 204.506C412.477 181.613 421.199 151.814 421.199 124C421.199 96.1862 412.477 66.3873 396.742 43.4942C380.996 20.587 358.077 4.4102 329.717 4.4102ZM85.43 12.7895C88.3138 12.7895 91.1512 12.9664 93.9438 13.3104C92.8294 13.2574 91.7073 13.2306 90.5775 13.2306C64.4583 13.2306 43.3654 28.2382 28.8879 49.4532C14.419 70.6553 6.40213 98.2471 6.40213 124C6.40213 149.753 14.419 177.345 28.8879 198.547C43.3654 219.762 64.4583 234.769 90.5775 234.769C91.7073 234.769 92.8295 234.743 93.9439 234.69C91.1512 235.034 88.3138 235.21 85.43 235.21C59.8687 235.21 38.9506 220.613 24.3381 199.28C9.71624 177.934 1.5617 150.032 1.5617 124C1.5617 97.9683 9.71624 70.0661 24.3381 48.72C38.9506 27.3874 59.8687 12.7895 85.43 12.7895ZM324.57 235.21C321.686 235.21 318.849 235.034 316.056 234.69C317.171 234.743 318.293 234.769 319.423 234.769C345.542 234.769 366.635 219.762 381.113 198.547C395.581 177.345 403.598 149.753 403.598 124C403.598 98.2471 395.581 70.6553 381.113 49.4532C366.635 28.2382 345.542 13.2306 319.423 13.2306C318.293 13.2306 317.171 13.2574 316.056 13.3104C318.849 12.9664 321.686 12.7895 324.57 12.7895C350.131 12.7895 371.05 27.3874 385.662 48.72C400.284 70.0661 408.438 97.9683 408.438 124C408.438 150.032 400.284 177.934 385.662 199.28C371.05 220.613 350.131 235.21 324.57 235.21ZM90.5775 17.1997C106.027 17.1997 120.085 22.5278 133.059 31.5637C130.703 30.3209 128.304 29.2063 125.86 28.2314C116.144 23.3648 105.729 20.5809 94.5075 20.5809C69.8942 20.5809 50.0191 34.5996 36.3811 54.4076C22.7531 74.2014 15.2028 99.958 15.2028 124C15.2028 148.042 22.7531 173.799 36.3811 193.592C50.0191 213.4 69.8942 227.419 94.5075 227.419C105.729 227.419 116.144 224.635 125.859 219.769C128.304 218.794 130.703 217.679 133.06 216.436C120.085 225.472 106.027 230.8 90.5775 230.8C66.1431 230.8 46.1383 216.794 32.1567 196.306C18.1662 175.805 10.3624 149.004 10.3624 124C10.3624 98.9955 18.1662 72.1949 32.1567 51.694C46.1383 31.2058 66.1431 17.1997 90.5775 17.1997ZM39.6408 56.6619C51.834 38.9522 68.8983 26.4498 89.6378 24.7485C71.4913 28.5034 56.6192 40.5503 45.823 56.4003C32.7249 75.6299 25.4704 100.649 25.4704 124C25.4704 147.351 32.7249 172.37 45.823 191.6C56.6192 207.45 71.4913 219.497 89.6378 223.252C68.8983 221.55 51.834 209.048 39.6408 191.338C26.4961 172.246 19.1631 147.286 19.1631 124C19.1631 100.714 26.4961 75.7535 39.6408 56.6619ZM319.423 230.8C303.974 230.8 289.915 225.472 276.941 216.436C279.297 217.679 281.696 218.793 284.14 219.768C293.856 224.635 304.271 227.419 315.493 227.419C340.106 227.419 359.981 213.4 373.619 193.592C387.247 173.799 394.797 148.042 394.797 124C394.797 99.958 387.247 74.2014 373.619 54.4076C359.981 34.5996 340.106 20.5809 315.493 20.5809C304.271 20.5809 293.856 23.3649 284.14 28.2318C281.696 29.2066 279.297 30.321 276.941 31.5637C289.915 22.5278 303.974 17.1997 319.423 17.1997C343.857 17.1997 363.862 31.2058 377.844 51.6938C391.834 72.1949 399.638 98.9955 399.638 124C399.638 149.004 391.834 175.805 377.844 196.306C363.862 216.794 343.857 230.8 319.423 230.8ZM370.359 191.338C358.166 209.048 341.102 221.55 320.363 223.252C338.509 219.497 353.381 207.45 364.177 191.6C377.275 172.37 384.53 147.351 384.53 124C384.53 100.649 377.275 75.6299 364.177 56.4003C353.381 40.5505 338.509 28.5035 320.363 24.7485C341.102 26.4501 358.166 38.9523 370.359 56.6619C383.504 75.7535 390.837 100.714 390.837 124C390.837 147.286 383.504 172.246 370.359 191.338ZM101.731 27.4902C104.327 27.4902 106.881 27.6576 109.392 27.9831C108.559 27.9486 107.721 27.9313 106.878 27.9313C84.3105 27.9313 66.1097 40.985 53.6373 59.3806C41.173 77.7645 34.2711 101.679 34.2711 124C34.2711 146.321 41.173 170.236 53.6373 188.619C66.1097 207.015 84.3105 220.069 106.878 220.069C107.721 220.069 108.559 220.051 109.392 220.017C106.881 220.342 104.327 220.51 101.731 220.51C79.732 220.51 61.7059 207.878 49.0939 189.362C36.4732 170.833 29.4307 146.605 29.4307 124C29.4307 101.395 36.4732 77.1668 49.0939 58.6383C61.7059 40.1222 79.732 27.4902 101.731 27.4902ZM308.27 220.51C305.673 220.51 303.12 220.342 300.608 220.017C301.441 220.051 302.279 220.069 303.122 220.069C325.689 220.069 343.89 207.015 356.363 188.619C368.827 170.236 375.729 146.321 375.729 124C375.729 101.679 368.827 77.7645 356.363 59.3806C343.89 40.9849 325.689 27.9313 303.122 27.9313C302.279 27.9313 301.441 27.9486 300.608 27.9831C303.12 27.6576 305.673 27.4902 308.27 27.4902C330.268 27.4902 348.294 40.1222 360.906 58.6383C373.527 77.1668 380.57 101.395 380.57 124C380.57 146.605 373.527 170.833 360.906 189.362C348.294 207.878 330.268 220.51 308.27 220.51ZM106.878 31.9004C109.547 31.9004 112.168 32.0877 114.743 32.4509C113.563 32.3782 112.371 32.3415 111.168 32.3415C89.54 32.3415 72.1002 44.8031 60.1534 62.3544C48.2149 79.8931 41.605 102.707 41.605 124C41.605 145.293 48.2149 168.107 60.1534 185.646C72.1002 203.197 89.54 215.659 111.168 215.659C111.804 215.659 112.437 215.648 113.067 215.628C113.628 215.61 114.187 215.583 114.743 215.549C112.168 215.912 109.547 216.1 106.878 216.1C86.0072 216.1 68.8945 204.06 56.9129 186.389C44.9235 168.705 38.2314 145.578 38.2314 124C38.2314 102.422 44.9235 79.2951 56.9129 61.6114C68.8945 43.9397 86.0072 31.9004 106.878 31.9004ZM303.122 216.1C300.453 216.1 297.831 215.912 295.256 215.549C296.437 215.622 297.629 215.659 298.832 215.659C320.46 215.659 337.9 203.197 349.847 185.646C361.785 168.107 368.395 145.293 368.395 124C368.395 102.707 361.785 79.8931 349.847 62.3543C337.9 44.8031 320.46 32.3415 298.832 32.3415C297.629 32.3415 296.437 32.3782 295.256 32.4509C297.831 32.0877 300.453 31.9004 303.122 31.9004C323.993 31.9004 341.105 43.9397 353.087 61.6114C365.077 79.2951 371.769 102.422 371.769 124C371.769 145.578 365.077 168.705 353.087 186.389C341.105 204.06 323.993 216.1 303.122 216.1ZM111.168 36.3106C113.755 36.3106 116.289 36.494 118.773 36.8496C117.678 36.7846 116.573 36.7517 115.458 36.7517C94.7698 36.7517 78.0911 48.6209 66.6696 65.3277C55.2569 82.0215 48.9388 103.734 48.9388 124C48.9388 144.266 55.2569 165.978 66.6696 182.672C78.0911 199.379 94.7698 211.248 115.458 211.248C116.573 211.248 117.679 211.215 118.773 211.15C116.289 211.506 113.755 211.689 111.168 211.689C91.2294 211.689 74.8778 200.234 63.4249 183.409C51.9634 166.571 45.5652 144.547 45.5652 124C45.5652 103.453 51.9634 81.4293 63.4249 64.5913C74.8778 47.7656 91.2294 36.3106 111.168 36.3106ZM298.832 211.689C296.246 211.689 293.712 211.506 291.229 211.151C292.323 211.215 293.428 211.248 294.543 211.248C315.23 211.248 331.909 199.379 343.331 182.672C354.743 165.978 361.061 144.266 361.061 124C361.061 103.734 354.743 82.0215 343.331 65.3277C331.909 48.6209 315.23 36.7517 294.543 36.7517C293.428 36.7517 292.323 36.7846 291.229 36.8495C293.713 36.494 296.246 36.3106 298.832 36.3106C318.771 36.3106 335.122 47.7656 346.575 64.5913C358.037 81.4293 364.435 103.453 364.435 124C364.435 144.547 358.037 166.571 346.575 183.409C335.122 200.234 318.771 211.689 298.832 211.689ZM115.458 40.7208C132.649 40.7208 147.389 49.1803 160.629 62.5023C175.594 80.2293 188.855 102.179 201.189 124C188.855 145.821 175.594 167.771 160.629 185.498C147.389 198.82 132.649 207.279 115.458 207.279C96.4512 207.279 80.8607 196.408 69.9365 180.429C59.0034 164.436 52.8993 143.516 52.8993 124C52.8993 104.484 59.0034 83.5637 69.9365 67.5712C80.8607 51.5921 96.4512 40.7208 115.458 40.7208ZM294.543 207.279C277.22 207.279 262.409 198.691 249.115 185.193C234.254 167.52 221.075 145.696 208.811 124C221.075 102.304 234.255 80.48 249.115 62.8064C262.409 49.3091 277.22 40.7208 294.543 40.7208C313.549 40.7208 329.139 51.5921 340.064 67.5712C350.997 83.5637 357.101 104.484 357.101 124C357.101 143.516 350.997 164.436 340.064 180.429C329.139 196.408 313.549 207.279 294.543 207.279Z" fill="white"/>
</svg>