<svg width="160" height="160" viewBox="0 0 160 160" fill="none" xmlns="http://www.w3.org/2000/svg">
<g id="2_&#208;&#156;&#208;&#190;&#208;&#189;&#209;&#130;&#208;&#176;&#208;&#182;&#208;&#189;&#208;&#176;&#209;&#143; &#208;&#190;&#208;&#177;&#208;&#187;&#208;&#176;&#209;&#129;&#209;&#130;&#209;&#140; 2">
<g id="Group" opacity="0.9">
<g id="Vector">
<path d="M80.1055 145.135C116.004 145.135 145.105 116.015 145.105 80.0947C145.105 44.1741 116.004 15.0547 80.1055 15.0547C44.207 15.0547 15.1055 44.1741 15.1055 80.0947C15.1055 116.015 44.207 145.135 80.1055 145.135Z" stroke="url(#paint0_radial_146_37008)" stroke-miterlimit="10"/>
<path d="M143.625 78.6947C143.693 81.8946 143.543 85.0953 143.175 88.2747C142.237 95.9484 139.79 103.361 135.975 110.085C133.504 114.342 130.642 118.359 127.425 122.085C124.223 125.852 120.568 129.21 116.545 132.085C111.711 135.526 106.366 138.185 100.705 139.965C96.7786 141.2 92.7333 142.021 88.6355 142.415C85.9768 142.669 83.3053 142.762 80.6355 142.695C76.9993 142.626 73.373 142.292 69.7855 141.695C67.7855 141.345 65.7155 140.915 63.7855 140.405C54.3501 138.056 45.631 133.439 38.3855 126.955C36.1612 124.904 34.0702 122.713 32.1255 120.395C29.7778 117.637 27.6386 114.709 25.7255 111.635C23.8292 108.574 22.1934 105.359 20.8355 102.025C19.6825 99.215 18.7628 96.3153 18.0855 93.3547C17.0623 88.8218 16.5988 84.1805 16.7055 79.5347C16.7726 75.8447 17.1371 72.1661 17.7955 68.5347C19.382 58.8458 23.1428 49.6421 28.7955 41.6147C32.7489 36.184 37.5822 31.4521 43.0955 27.6147C48.6029 23.778 54.6762 20.8257 61.0955 18.8647C67.3531 16.9656 73.8466 15.9557 80.3855 15.8647C90.9476 15.7087 101.375 18.2474 110.684 23.2411C119.992 28.2347 127.874 35.5186 133.585 44.4047C140.065 54.6747 143.542 66.552 143.625 78.6947Z" stroke="url(#paint1_radial_146_37008)" stroke-miterlimit="10"/>
<path d="M142.125 77.2947C142.26 80.422 142.203 83.5544 141.955 86.6747C141.254 94.278 138.925 101.641 135.125 108.265C132.642 112.463 129.855 116.474 126.785 120.265C123.827 124.07 120.377 127.466 116.525 130.365C111.817 133.878 106.526 136.536 100.895 138.215C97.0149 139.358 93.0214 140.076 88.9855 140.355C86.3707 140.495 83.7503 140.495 81.1355 140.355C77.5762 140.195 74.0297 139.821 70.5155 139.235C68.5155 138.908 66.5388 138.505 64.5855 138.025C55.2955 135.715 46.5855 131.625 39.7355 125.105C37.5924 123.053 35.5659 120.883 33.6655 118.605C31.3729 115.905 29.2489 113.066 27.3055 110.105C25.3927 107.178 23.7205 104.102 22.3055 100.905C21.1019 98.1958 20.1544 95.3802 19.4755 92.4947C18.4622 88.0568 18.0551 83.502 18.2655 78.9547C18.4114 75.3466 18.8192 71.7538 19.4855 68.2047C21.2555 58.4447 24.3855 49.4747 29.8855 41.6647C33.7266 36.2873 38.5024 31.6435 43.9855 27.9547C49.4533 24.2736 55.4576 21.4603 61.7855 19.6147C67.9662 17.814 74.3506 16.8059 80.7855 16.6147C91.0362 16.3035 101.193 18.6517 110.267 23.4305C119.341 28.2093 127.023 35.256 132.565 43.8847C138.665 53.5647 141.745 65.0547 142.125 77.2947Z" stroke="url(#paint2_radial_146_37008)" stroke-miterlimit="10"/>
<path d="M140.645 75.8947C140.846 78.9539 140.883 82.0216 140.755 85.0847C140.282 92.6142 138.064 99.9304 134.275 106.455C131.762 110.554 129.042 114.522 126.125 118.345C123.41 122.18 120.16 125.608 116.475 128.525C111.915 132.101 106.701 134.754 101.125 136.335C97.2902 137.401 93.3434 138.015 89.3655 138.165C86.8006 138.23 84.234 138.167 81.6755 137.975C78.1955 137.745 74.6755 137.325 71.3055 136.775C69.3055 136.445 67.3855 136.085 65.4755 135.645C56.3955 133.525 47.7155 129.795 41.1055 123.265C39.0455 121.265 37.1055 119.075 35.2555 116.825C33.0155 114.145 30.8555 111.415 28.9255 108.605C27.0341 105.805 25.3624 102.863 23.9255 99.8047C22.6781 97.1986 21.7029 94.4709 21.0155 91.6647C19.9912 87.3308 19.6204 82.8681 19.9155 78.4247C20.1157 74.9107 20.5433 71.4134 21.1955 67.9547C22.9755 58.3547 25.6355 49.5547 30.9755 41.8047C34.7122 36.4927 39.4303 31.9444 44.8755 28.4047C50.2947 24.8854 56.2197 22.2147 62.4455 20.4847C68.5144 18.7795 74.7581 17.7729 81.0555 17.4847C91.0429 17.0134 100.977 19.1975 109.845 23.8147C118.644 28.3472 126.081 35.1353 131.395 43.4847C137.345 52.8347 140.125 64.0347 140.645 75.8947Z" stroke="url(#paint3_radial_146_37008)" stroke-miterlimit="10"/>
<path d="M139.125 74.4847C139.335 77.5947 139.595 80.5347 139.515 83.4847C139.278 90.9358 137.173 98.208 133.395 104.635C130.855 108.885 128.055 112.635 125.485 116.465C123.014 120.309 119.981 123.761 116.485 126.705C112.046 130.363 106.868 133.017 101.305 134.485C97.5156 135.483 93.6146 135.997 89.6955 136.015C87.2055 136.015 84.6955 135.815 82.1655 135.585C78.7855 135.275 75.3855 134.835 72.0355 134.295C70.0955 133.985 68.1955 133.655 66.3255 133.295C57.4455 131.355 48.8055 128.005 42.4255 121.455C40.4255 119.455 38.6255 117.285 36.7855 115.075C34.6055 112.445 32.4455 109.815 30.5055 107.075C28.5904 104.411 26.8789 101.606 25.3855 98.6847C24.0851 96.1859 23.0784 93.545 22.3855 90.8147C21.3452 86.5649 21.0074 82.1736 21.3855 77.8147C21.6866 74.3598 22.1807 70.9244 22.8655 67.5247C24.6555 58.0947 26.8655 49.4647 32.0155 41.7647C35.6516 36.5177 40.3159 32.0643 45.7255 28.6747C51.1172 25.3293 56.9834 22.8176 63.1255 21.2247C69.0976 19.6217 75.2144 18.6168 81.3855 18.2247C91.0338 17.6046 100.672 19.5833 109.295 23.9547C117.892 28.2618 125.152 34.8306 130.295 42.9547C136.025 52.1147 138.395 63.0147 139.125 74.4847Z" stroke="url(#paint4_radial_146_37008)" stroke-miterlimit="10"/>
<path d="M137.665 73.0847C137.925 76.1447 138.315 78.9947 138.335 81.8947C138.331 89.2622 136.341 96.4923 132.575 102.825C130.015 107.045 127.245 110.705 124.875 114.575C122.644 118.447 119.801 121.932 116.455 124.895C112.135 128.623 106.996 131.278 101.455 132.645C97.7168 133.558 93.8724 133.965 90.0255 133.855C87.5955 133.795 85.1855 133.485 82.6755 133.195C79.3855 132.815 76.0655 132.335 72.7755 131.815C70.8855 131.525 69.0055 131.225 67.1755 130.815C58.5055 129.065 49.9055 126.085 43.7655 119.515C41.8855 117.515 40.1255 115.375 38.3355 113.205C36.2055 110.625 34.0355 108.085 32.0955 105.525C30.1642 102.992 28.426 100.318 26.8955 97.5247C25.5527 95.1419 24.5178 92.5982 23.8155 89.9547C22.7986 85.8091 22.5243 81.5161 23.0055 77.2747C23.3455 73.8847 24.0055 70.5548 24.6055 67.2248C26.4155 57.9548 28.1255 49.5047 33.1255 41.8747C36.6524 36.6912 41.2617 32.3344 46.6355 29.1048C51.9552 25.9051 57.7218 23.5155 63.7455 22.0147C69.6275 20.514 75.6253 19.5105 81.6755 19.0147C90.9982 18.2365 100.356 20.0244 108.735 24.1847C117.105 28.2461 124.169 34.572 129.125 42.4447C134.705 51.3947 136.735 61.9547 137.665 73.0847Z" stroke="url(#paint5_radial_146_37008)" stroke-miterlimit="10"/>
<path d="M136.175 71.6847C136.485 74.6847 137.015 77.4547 137.175 80.3047C137.422 87.5825 135.546 94.7749 131.775 101.005C129.195 105.195 126.465 108.765 124.295 112.685C122.306 116.575 119.661 120.093 116.475 123.085C112.304 126.87 107.233 129.524 101.745 130.795C98.0344 131.633 94.2224 131.936 90.4255 131.695C88.0355 131.555 85.6955 131.165 83.2355 130.805C80.0555 130.355 76.8155 129.805 73.5755 129.345C71.7255 129.055 69.8855 128.795 68.0955 128.465C59.6255 126.885 51.0955 124.295 45.1555 117.705C43.3655 115.705 41.6955 113.595 39.9455 111.455C37.8655 108.925 35.6955 106.455 33.7355 104.045C31.8034 101.645 30.0424 99.1117 28.4655 96.4647C27.0737 94.1816 26.01 91.7141 25.3055 89.1347C24.2908 85.0891 24.0633 80.8862 24.6355 76.7547C25.0455 73.4347 25.7155 70.1947 26.3655 66.9247C28.1955 57.8247 29.3655 49.5047 34.2755 41.9247C37.695 36.8058 42.2499 32.5452 47.5855 29.4747C52.8566 26.4398 58.5435 24.1926 64.4655 22.8047C70.2521 21.3845 76.1292 20.3622 82.0555 19.7447C91.043 18.822 100.11 20.4146 108.245 24.3447C116.401 28.1848 123.274 34.3002 128.035 41.9547C133.385 50.6747 135.065 60.9547 136.175 71.6847Z" stroke="url(#paint6_radial_146_37008)" stroke-miterlimit="10"/>
<path d="M134.685 70.2847C135.055 73.2847 135.685 75.9147 135.915 78.7047C136.417 85.8882 134.67 93.0497 130.915 99.1947C128.315 103.345 125.615 106.825 123.645 110.795C121.765 114.575 119.825 118.075 116.445 121.275C112.397 125.128 107.361 127.786 101.895 128.955C98.2228 129.711 94.4573 129.91 90.7255 129.545C88.3855 129.325 86.1055 128.835 83.7255 128.415C80.6455 127.885 77.4855 127.345 74.3155 126.865C72.4955 126.595 70.6955 126.365 68.9355 126.065C60.6755 124.675 52.1455 122.465 46.4755 115.855C44.7755 113.855 43.1955 111.765 41.4755 109.675C39.4755 107.185 37.2755 104.835 35.3055 102.525C33.3599 100.26 31.5724 97.8645 29.9555 95.3547C28.5193 93.1817 27.4265 90.8005 26.7155 88.2947C25.6983 84.3423 25.5178 80.2209 26.1855 76.1947C26.6555 72.9647 27.3955 69.8047 28.0455 66.5947C29.8855 57.6647 30.6155 49.5047 35.3255 41.9847C38.6449 36.9336 43.1446 32.7669 48.4355 29.8447C53.6583 26.9765 59.2653 24.8717 65.0855 23.5947C70.7779 22.2731 76.5358 21.2517 82.3355 20.5347C90.9871 19.4522 99.7684 20.8389 107.665 24.5347C115.629 28.1416 122.338 34.0391 126.935 41.4747C132.065 49.9547 133.405 59.9547 134.685 70.2847Z" stroke="url(#paint7_radial_146_37008)" stroke-miterlimit="10"/>
<path d="M133.205 68.8847C133.625 71.7847 134.395 74.3847 134.705 77.1147C135.437 84.2034 133.791 91.3343 130.025 97.3847C127.405 101.505 124.735 104.895 122.965 108.905C121.305 112.685 119.645 116.215 116.385 119.465C112.497 123.372 107.532 126.031 102.125 127.105C98.4983 127.795 94.783 127.889 91.1255 127.385C88.8355 127.085 86.6255 126.505 84.2655 126.035C81.2655 125.425 78.1955 124.845 75.0855 124.395C73.3055 124.135 71.5455 123.935 69.8155 123.675C61.8155 122.465 53.2655 120.675 47.8155 113.995C46.1955 111.995 44.6955 109.935 43.0355 107.885C41.0355 105.435 38.8855 103.195 36.8955 101.005C34.9427 98.8725 33.1321 96.6143 31.4755 94.2447C29.9846 92.186 28.852 89.8905 28.1255 87.4547C27.109 83.5938 26.9791 79.5529 27.7455 75.6347C28.2855 72.4947 29.0755 69.4147 29.7455 66.2747C31.5955 57.4947 31.8455 49.5047 36.3955 42.0447C39.6122 37.0552 44.0625 32.9804 49.3155 30.2147C54.4873 27.5087 60.0152 25.546 65.7355 24.3847C71.2055 23.1647 77.0355 22.1547 82.6455 21.3147C90.9655 20.0828 99.4643 21.2736 107.125 24.7447C114.877 28.1211 121.405 33.7971 125.825 41.0047C130.745 49.2247 131.755 58.9547 133.205 68.8847Z" stroke="url(#paint8_radial_146_37008)" stroke-miterlimit="10"/>
<path d="M131.715 67.4747C132.195 70.3347 133.085 72.8447 133.505 75.4747C134.479 82.4598 132.945 89.564 129.175 95.5247C126.545 99.6247 123.895 102.905 122.335 106.985C120.885 110.745 119.505 114.315 116.335 117.615C112.581 121.591 107.649 124.255 102.265 125.215C98.6725 125.84 94.9985 125.84 91.4055 125.215C89.1555 124.825 87.0155 124.215 84.7055 123.625C81.8255 122.955 78.8155 122.325 75.7655 121.895C74.0255 121.645 72.2955 121.485 70.6155 121.265C62.7655 120.265 54.3055 118.795 49.1155 112.125C47.5855 110.125 46.1755 108.125 44.5555 106.075C42.6255 103.675 40.4555 101.525 38.4555 99.4647C36.4939 97.4597 34.654 95.3392 32.9455 93.1147C31.4294 91.1634 30.2776 88.9548 29.5455 86.5947C28.5279 82.8248 28.4455 78.8636 29.3055 75.0547C29.9155 72.0547 30.7655 69.0547 31.4255 65.9247C33.2855 57.3147 33.0655 49.4847 37.4255 42.0847C40.5366 37.1599 44.9352 33.1796 50.1455 30.5747C55.2622 28.0284 60.7074 26.2044 66.3255 25.1547C71.7155 24.0247 77.4355 23.0347 82.9055 22.0747C90.8974 20.6968 99.1181 21.6983 106.545 24.9547C114.082 28.0947 120.429 33.5421 124.675 40.5147C129.425 48.5047 130.125 57.9547 131.715 67.4747Z" stroke="url(#paint9_radial_146_37008)" stroke-miterlimit="10"/>
<path d="M130.225 66.0747C130.765 68.8847 131.785 71.3047 132.295 73.9247C133.515 80.8027 132.086 87.8873 128.295 93.7547C125.655 97.8147 123.035 101.005 121.675 105.135C120.435 108.895 119.335 112.495 116.315 115.845C112.704 119.883 107.814 122.556 102.465 123.415C98.9047 123.956 95.2748 123.841 91.7555 123.075C89.5555 122.615 87.4755 121.855 85.2155 121.255C82.3548 120.473 79.4495 119.865 76.5155 119.435C74.8155 119.205 73.1255 119.075 71.5155 118.885C63.8755 118.025 55.4455 116.985 50.5155 110.295C49.0755 108.295 47.7455 106.295 46.1755 104.295C44.2777 102.052 42.2368 99.934 40.0655 97.9547C38.0958 96.0807 36.2328 94.0976 34.4855 92.0147C32.9225 90.179 31.7396 88.0512 31.0055 85.7547C29.985 82.0819 29.9505 78.2051 30.9055 74.5147C31.5755 71.5147 32.4855 68.6248 33.1555 65.6048C35.0255 57.1648 34.3255 49.4947 38.5555 42.1547C41.5766 37.2864 45.9422 33.3965 51.1255 30.9547C56.2089 28.5742 61.5911 26.8923 67.1255 25.9547C72.4155 24.9547 78.0455 23.9547 83.3555 22.8847C90.9892 21.3613 98.9038 22.1518 106.085 25.1547C113.409 28.0595 119.578 33.2868 123.645 40.0348C128.125 47.7848 128.465 56.8947 130.225 66.0747Z" stroke="url(#paint10_radial_146_37008)" stroke-miterlimit="10"/>
<path d="M128.735 64.6747C129.335 67.4347 130.475 69.7647 131.085 72.3347C131.814 75.6784 131.869 79.1338 131.248 82.499C130.626 85.8643 129.341 89.0719 127.465 91.9347C124.805 95.9347 122.205 99.0647 121.055 103.245C120.055 106.995 119.215 110.635 116.315 114.035C112.849 118.13 107.998 120.81 102.685 121.565C99.1589 122.041 95.5737 121.834 92.1255 120.955C89.9755 120.405 87.9555 119.565 85.7555 118.895C82.9875 118.036 80.1551 117.4 77.2855 116.995C75.6255 116.765 73.9755 116.675 72.3655 116.525C64.9255 115.845 56.5255 115.195 51.8255 108.525C50.4655 106.525 49.2255 104.525 47.6955 102.605C45.8716 100.411 43.8644 98.3775 41.6955 96.5247C39.693 94.7793 37.7931 92.9196 36.0055 90.9547C34.4017 89.2336 33.1875 87.1872 32.4455 84.9547C31.4027 81.3622 31.4027 77.5472 32.4455 73.9547C33.1855 71.0647 34.1555 68.2447 34.8255 65.2847C36.7055 57.0047 35.5355 49.5047 39.5955 42.2147C42.3055 37.3547 46.9755 33.6947 51.9255 31.3247C56.9395 29.1064 62.2256 27.5629 67.6455 26.7347C72.8555 25.7947 78.3855 24.8347 83.5455 23.6547C90.8346 21.9845 98.4596 22.574 105.405 25.3447C112.512 28.0239 118.504 33.0285 122.405 39.5447C126.785 47.0547 126.825 55.8847 128.735 64.6747Z" stroke="url(#paint11_radial_146_37008)" stroke-miterlimit="10"/>
<path d="M127.245 63.2747C127.905 65.9847 129.165 68.2747 129.875 70.7347C130.726 74.0143 130.875 77.4363 130.314 80.7775C129.752 84.1186 128.492 87.3037 126.615 90.1247C123.935 94.1247 121.355 97.1247 120.425 101.355C119.595 105.095 119.075 108.775 116.285 112.225C112.974 116.382 108.161 119.071 102.885 119.715C99.3803 120.097 95.834 119.757 92.4655 118.715C90.3655 118.085 88.4655 117.155 86.2655 116.425C83.5977 115.49 80.8444 114.82 78.0455 114.425C76.4155 114.215 74.8055 114.155 73.2255 114.035C65.9955 113.535 57.6255 113.285 53.1655 106.525C51.8955 104.595 50.7455 102.525 49.2555 100.675C47.4668 98.534 45.4555 96.5898 43.2555 94.8747C41.2545 93.2619 39.3385 91.5463 37.5155 89.7347C35.875 88.1382 34.6258 86.1839 33.8655 84.0247C32.8505 80.527 32.9167 76.8041 34.0555 73.3447C34.8555 70.5447 35.8955 67.8047 36.5655 64.9047C38.4555 56.7947 36.8055 49.4547 40.7155 42.2147C43.3055 37.4247 47.9455 33.8647 52.8355 31.6547C57.7255 29.4447 62.9255 28.3847 68.3355 27.4747C73.4555 26.6247 78.8755 25.6847 83.8855 24.3847C90.8321 22.5702 98.1712 22.9616 104.885 25.5047C111.775 27.9452 117.59 32.7264 121.315 39.0147C125.465 46.3347 125.195 54.8647 127.245 63.2747Z" stroke="url(#paint12_radial_146_37008)" stroke-miterlimit="10"/>
<path d="M125.755 61.8747C126.485 64.5347 127.855 66.6947 128.665 69.1447C129.64 72.3527 129.886 75.7379 129.384 79.0529C128.882 82.3679 127.646 85.5289 125.765 88.3047C123.065 92.3047 120.505 95.1647 119.765 99.4647C119.145 103.195 118.915 106.915 116.245 110.405C114.688 112.483 112.72 114.219 110.462 115.504C108.205 116.789 105.708 117.596 103.125 117.875C99.6546 118.201 96.1543 117.771 92.8655 116.615C90.8655 115.905 88.9355 114.885 86.8655 114.085C84.2906 113.079 81.605 112.384 78.8655 112.015C77.2755 111.815 75.7055 111.775 74.1555 111.705C67.1555 111.375 58.7955 111.525 54.5755 104.705C53.4249 102.723 52.1698 100.803 50.8155 98.9547C49.0661 96.8568 47.0489 94.9975 44.8155 93.4247C42.8155 91.8747 40.8655 90.4247 39.0055 88.6947C37.3305 87.2185 36.0488 85.3491 35.2755 83.2547C34.2595 79.8434 34.3752 76.1948 35.6055 72.8547C36.4755 70.1447 37.6055 67.4847 38.2455 64.6447C40.1455 56.7047 38.0255 49.5247 41.7655 42.3447C44.2355 37.6147 48.8555 34.1647 53.6955 32.0947C58.5355 30.0247 63.6955 29.0947 68.9555 28.3347C74.0921 27.6408 79.1767 26.6052 84.1755 25.2347C90.7737 23.2811 97.8215 23.4701 104.305 25.7747C110.977 27.9797 116.616 32.5412 120.165 38.6047C124.125 45.6147 123.575 53.8447 125.755 61.8747Z" stroke="url(#paint13_radial_146_37008)" stroke-miterlimit="10"/>
<path d="M124.265 60.4647C125.055 63.0747 126.545 65.1547 127.455 67.5447C128.549 70.6811 128.889 74.0308 128.448 77.3229C128.007 80.6151 126.796 83.7571 124.915 86.4947C122.195 90.4347 119.645 93.2247 119.155 97.5747C118.725 101.295 118.795 105.055 116.245 108.575C114.754 110.689 112.817 112.45 110.571 113.734C108.325 115.018 105.824 115.793 103.245 116.005C99.7979 116.271 96.3352 115.741 93.1255 114.455C91.1255 113.665 89.3055 112.565 87.2455 111.695C84.7785 110.618 82.1734 109.891 79.5055 109.535C77.9803 109.383 76.4482 109.309 74.9155 109.315C68.1055 109.155 59.7755 109.705 55.8155 102.885C54.7826 100.9 53.6201 98.9862 52.3355 97.1547C50.6437 95.1081 48.647 93.334 46.4155 91.8947C44.3555 90.4647 42.4155 89.1547 40.5255 87.5747C38.8172 86.2178 37.502 84.4296 36.7155 82.3947C35.6055 79.3947 35.9355 75.8347 37.1855 72.2947C38.2421 69.6761 39.1666 67.0061 39.9555 64.2947C41.8655 56.5047 39.2655 49.5047 42.8555 42.3747C45.1955 37.7047 49.7955 34.3747 54.5855 32.4347C59.3755 30.4947 64.4055 29.8047 69.5855 29.0947C74.6274 28.5033 79.6069 27.4659 84.4655 25.9947C90.7161 23.9094 97.4748 23.9094 103.725 25.9947C110.211 27.9339 115.716 32.2667 119.125 38.1147C122.825 44.8947 121.965 52.8247 124.265 60.4647Z" stroke="url(#paint14_radial_146_37008)" stroke-miterlimit="10"/>
<path d="M122.775 59.0647C123.635 61.6247 125.235 63.6147 126.245 65.9547C127.46 69.0117 127.897 72.3223 127.516 75.5896C127.136 78.8569 125.95 81.9786 124.065 84.6747C121.325 88.5847 118.785 91.2747 118.515 95.6747C118.285 99.3747 118.645 103.175 116.215 106.765C114.81 108.9 112.928 110.68 110.717 111.965C108.506 113.249 106.027 114.002 103.475 114.165C100.04 114.347 96.6104 113.703 93.4755 112.285C91.4755 111.405 89.7655 110.225 87.7655 109.285C85.3994 108.138 82.8633 107.381 80.2555 107.045C78.7665 106.905 77.2705 106.855 75.7755 106.895C69.1755 106.895 60.8655 107.895 57.1555 101.005C56.2142 99.036 55.1209 97.1436 53.8855 95.3447C52.2408 93.3393 50.2491 91.6458 48.0055 90.3447C45.9455 89.0447 43.9555 87.8847 42.0055 86.4347C40.2678 85.2018 38.9182 83.4984 38.1155 81.5247C36.9955 78.5947 37.3855 75.1547 38.7255 71.7047C39.8533 69.1846 40.8219 66.5962 41.6255 63.9547C43.5455 56.3347 40.4755 49.4947 43.8955 42.4247C46.1255 37.8147 50.7055 34.5748 55.4255 32.7948C60.1455 31.0148 65.1255 30.4847 70.2255 29.8747C75.1758 29.4019 80.0549 28.3584 84.7655 26.7647C90.6609 24.5259 97.1327 24.3079 103.165 26.1447C109.393 27.8712 114.685 31.9909 117.885 37.6048C121.505 44.1648 120.345 51.8047 122.775 59.0647Z" stroke="url(#paint15_radial_146_37008)" stroke-miterlimit="10"/>
<path d="M121.295 57.6647C122.215 60.1747 123.925 62.0847 125.035 64.3647C126.367 67.3405 126.899 70.6119 126.58 73.8562C126.26 77.1004 125.101 80.2053 123.215 82.8647C120.445 86.7347 117.925 89.3247 117.875 93.8047C117.875 97.4947 118.505 101.335 116.195 104.975C114.87 107.132 113.035 108.931 110.852 110.214C108.669 111.497 106.205 112.225 103.675 112.335C100.272 112.452 96.8957 111.698 93.8655 110.145C91.9555 109.145 90.2655 107.925 88.3155 106.915C86.0569 105.704 83.5968 104.915 81.0555 104.585C79.6019 104.465 78.1418 104.445 76.6855 104.525C70.2855 104.715 61.9955 106.065 58.5355 99.1747C57.7107 97.2225 56.7064 95.3511 55.5355 93.5847C53.9323 91.6257 51.9448 90.016 49.6955 88.8548C47.6155 87.6848 45.5955 86.6748 43.6955 85.3548C41.9228 84.2491 40.5279 82.631 39.6955 80.7147C38.5755 77.8847 39.0155 74.5347 40.4555 71.1747C41.6457 68.7482 42.6487 66.2342 43.4555 63.6547C45.3855 56.2047 41.8455 49.5247 45.0955 42.5147C47.2055 37.9647 51.7655 34.8247 56.4355 33.2047C61.1055 31.5847 65.9955 31.2047 71.0055 30.6947C75.8354 30.3236 80.5889 29.2732 85.1255 27.5747C90.6653 25.2053 96.8444 24.7823 102.655 26.3747C105.624 27.1133 108.41 28.4505 110.843 30.3042C113.276 32.1578 115.305 34.489 116.805 37.1547C120.185 43.4447 118.745 50.7747 121.295 57.6647Z" stroke="url(#paint16_radial_146_37008)" stroke-miterlimit="10"/>
<path d="M119.805 56.2647C120.805 58.7147 122.615 60.5447 123.805 62.7647C125.254 65.6548 125.883 68.8861 125.626 72.1084C125.368 75.3307 124.234 78.4211 122.345 81.0447C119.555 84.8847 117.035 87.3847 117.225 91.9147C117.375 95.5947 118.345 99.4747 116.155 103.165C114.913 105.344 113.127 107.164 110.971 108.447C108.815 109.73 106.364 110.432 103.855 110.485C100.474 110.514 97.1464 109.641 94.2155 107.955C92.3555 106.955 90.7255 105.575 88.8255 104.485C86.682 103.208 84.2996 102.385 81.8255 102.065C80.408 101.945 78.9829 101.945 77.5655 102.065C71.3755 102.415 63.1055 104.185 59.9055 97.2547C59.1561 95.3165 58.2042 93.4629 57.0655 91.7247C55.5026 89.81 53.5173 88.2834 51.2655 87.2647C49.1655 86.2647 47.1155 85.3647 45.1455 84.1647C43.3534 83.1924 41.9278 81.6614 41.0855 79.8047C39.9455 77.0847 40.4555 73.8047 41.9855 70.5547C43.2435 68.2456 44.2943 65.8295 45.1255 63.3347C47.0655 56.0447 43.0555 49.5347 46.1255 42.5747C48.1255 38.0847 52.6455 35.0547 57.2555 33.5747C61.8655 32.0947 66.6955 31.8947 71.5955 31.4847C76.3585 31.2349 81.0448 30.1799 85.4555 28.3647C90.6375 25.8565 96.5291 25.2239 102.125 26.5747C104.976 27.1958 107.661 28.4168 110.003 30.1566C112.344 31.8964 114.288 34.115 115.705 36.6647C118.865 42.7247 117.125 49.7447 119.805 56.2647Z" stroke="url(#paint17_radial_146_37008)" stroke-miterlimit="10"/>
<path d="M118.315 54.8547C119.385 57.2547 121.315 59.0047 122.615 61.1747C125.795 66.4147 125.425 73.9147 121.515 79.2347C118.705 83.0447 116.175 85.4447 116.605 90.0247C116.945 93.7047 118.225 97.6147 116.145 101.355C114.985 103.553 113.247 105.394 111.119 106.679C108.99 107.963 106.552 108.643 104.065 108.645C100.7 108.606 97.4107 107.633 94.5655 105.835C92.7455 104.715 91.1855 103.295 89.3455 102.145C87.3056 100.796 84.9819 99.9374 82.5555 99.6347C81.1721 99.5378 79.7826 99.5713 78.4055 99.7347C72.4055 100.265 64.1655 102.435 61.2255 95.4647C60.5712 93.5474 59.6918 91.7146 58.6055 90.0047C57.076 88.1334 55.0882 86.6899 52.8355 85.8147C50.7355 84.8947 48.6455 84.1947 46.6455 83.1247C44.8348 82.2752 43.3725 80.8271 42.5055 79.0247C41.3555 76.4147 41.9155 73.2347 43.5055 70.0247C44.8426 67.7911 45.9452 65.4252 46.7955 62.9647C48.7455 55.8447 44.2655 49.4947 47.1855 42.5947C49.1255 38.2047 53.6055 35.2747 58.1255 33.9547C62.6455 32.6347 67.4255 32.5947 72.2355 32.2847C76.8155 31.9847 81.6655 31.2847 85.7555 29.1547C90.5789 26.5183 96.1824 25.6819 101.565 26.7947C104.295 27.2949 106.879 28.3983 109.128 30.0246C111.378 31.6508 113.235 33.7588 114.565 36.1947C117.545 42.0047 115.555 48.7147 118.315 54.8547Z" stroke="url(#paint18_radial_146_37008)" stroke-miterlimit="10"/>
<path d="M116.825 53.4547C117.985 55.7947 119.995 57.4547 121.415 59.5747C123.089 62.2841 123.912 65.4329 123.778 68.6147C123.645 71.7965 122.56 74.8652 120.665 77.4247C117.835 81.1947 115.305 83.5047 115.965 88.1347C116.495 91.8047 118.085 95.7547 116.125 99.5447C115.052 101.763 113.363 103.626 111.26 104.912C109.158 106.197 106.729 106.851 104.265 106.795C100.91 106.688 97.6579 105.607 94.9055 103.685C93.1455 102.475 91.6455 100.985 89.9055 99.7547C87.9795 98.3437 85.7248 97.4487 83.3555 97.1547C82.0192 97.0795 80.6786 97.1432 79.3555 97.3447C73.5755 98.0347 65.3555 100.625 62.6455 93.6147C62.0951 91.7138 61.2876 89.897 60.2455 88.2147C58.7542 86.382 56.764 85.0205 54.5155 84.2947C52.3955 83.5047 50.2655 82.9647 48.2455 82.0147C46.421 81.2879 44.9193 79.9283 44.0155 78.1847C42.8655 75.6847 43.4855 72.5747 45.2055 69.5047C46.4555 67.2947 47.9255 65.1447 48.6255 62.6747C50.6255 55.6747 45.6255 49.5447 48.3855 42.6747C50.1455 38.3147 54.6255 35.4947 59.1355 34.3047C63.6455 33.1147 68.3055 33.3047 73.0055 33.0447C77.5055 32.8447 82.2655 32.1547 86.1955 29.9147C90.6289 27.1661 95.9072 26.1147 101.055 26.9547C106.265 27.8447 111.155 30.9547 113.485 35.6747C116.225 41.2747 113.975 47.6747 116.825 53.4547Z" stroke="url(#paint19_radial_146_37008)" stroke-miterlimit="10"/>
<path d="M115.335 52.0547C116.575 54.3347 118.685 55.9348 120.205 57.9848C121.994 60.5927 122.918 63.6962 122.848 66.8575C122.778 70.0188 121.717 73.0784 119.815 75.6048C116.965 79.3448 114.425 81.6047 115.335 86.2547C116.045 89.9147 117.945 93.8948 116.105 97.7348C115.117 99.97 113.478 101.855 111.401 103.143C109.324 104.431 106.907 105.063 104.465 104.955C101.12 104.774 97.9079 103.582 95.2555 101.535C93.5455 100.245 92.0955 98.6747 90.3655 97.3747C88.5586 95.9079 86.3754 94.9791 84.0655 94.6947C82.7465 94.6199 81.4232 94.7072 80.1255 94.9547C74.5555 95.8247 66.3055 98.8247 63.9055 91.7747C63.4442 89.8992 62.7061 88.1028 61.7155 86.4447C60.2557 84.6466 58.2579 83.3639 56.0155 82.7847C53.8855 82.1147 51.7255 81.7347 49.6755 80.9147C47.8407 80.3152 46.3008 79.0433 45.3655 77.3548C44.2055 74.9548 44.8755 71.9347 46.7055 68.9547C48.0055 66.8247 49.5355 64.7647 50.2355 62.3647C52.2355 55.5647 46.8055 49.5647 49.3855 42.7547C51.0255 38.4647 55.4755 35.7547 59.9255 34.7547C64.3755 33.7547 68.9255 34.0247 73.5755 33.9047C77.9755 33.7947 82.6655 33.1547 86.4155 30.7647C90.7155 28.0347 95.1655 26.5247 100.495 27.2447C105.495 27.9247 110.205 30.7647 112.365 35.2447C114.905 40.5547 112.395 46.6347 115.335 52.0547Z" stroke="url(#paint20_radial_146_37008)" stroke-miterlimit="10"/>
<path d="M113.845 50.6547C115.175 52.8747 117.375 54.3947 118.995 56.3947C120.9 58.8953 121.931 61.9516 121.931 65.0947C121.931 68.2378 120.9 71.2942 118.995 73.7947C116.125 77.5047 113.575 79.6347 114.725 84.3647C115.615 88.0347 117.825 92.0347 116.105 95.9247C115.205 98.1727 113.616 100.078 111.567 101.368C109.517 102.658 107.112 103.266 104.695 103.105C101.36 102.839 98.1911 101.535 95.6355 99.3747C93.9755 97.9947 92.6355 96.3747 90.9155 94.9747C89.2216 93.4546 87.1038 92.4881 84.8455 92.2047C83.5623 92.1513 82.2776 92.269 81.0255 92.5547C75.6655 93.5547 67.4155 96.9947 65.2855 89.9047C64.7455 88.1147 64.4155 86.1947 63.2855 84.6447C61.8529 82.8881 59.8503 81.6887 57.6255 81.2547C55.4855 80.7147 53.2855 80.4947 51.2055 79.7947C49.3658 79.3194 47.7881 78.137 46.8155 76.5047C45.6355 74.2147 46.3655 71.2747 48.2955 68.3947C49.6555 66.3447 51.2955 64.3947 51.9555 62.0247C53.9555 55.3947 48.0655 49.5547 50.4755 42.8047C52.0055 38.5647 56.4255 35.9547 60.8255 35.0647C65.2255 34.1747 69.7355 34.6547 74.2355 34.6347C78.5555 34.6347 83.1655 34.0447 86.7455 31.4947C90.7455 28.6647 94.8155 26.9147 99.9555 27.3947C104.725 27.8547 109.275 30.3947 111.255 34.7447C113.585 39.8347 110.815 45.5847 113.845 50.6547Z" stroke="url(#paint21_radial_146_37008)" stroke-miterlimit="10"/>
<path d="M48.2555 75.6547C48.9655 76.9747 50.4055 78.0347 52.7155 78.6547C54.8355 79.2347 57.0655 79.2847 59.2155 79.7147C61.4205 79.9942 63.435 81.1069 64.8455 82.8247C65.8955 84.3347 66.1355 86.2447 66.5955 88.0247C68.4555 95.1547 76.7055 91.3247 81.8655 90.1347C83.0692 89.8004 84.3169 89.652 85.5655 89.6947C87.7715 89.9774 89.8217 90.9831 91.3955 92.5547C93.0055 94.0147 94.3955 95.7347 95.9555 97.1847C98.41 99.4538 101.539 100.858 104.865 101.185C107.257 101.398 109.653 100.813 111.677 99.5211C113.701 98.2294 115.241 96.3037 116.055 94.0447C117.655 90.0947 115.135 86.0447 114.055 82.4047C112.655 77.6347 115.205 75.5847 118.055 71.9047C119.968 69.433 120.979 66.3815 120.919 63.2565C120.859 60.1316 119.732 57.1212 117.725 54.7247C116.005 52.7947 113.725 51.3347 112.295 49.1847C109.185 44.4547 112.205 39.0447 110.075 34.1847C108.285 30.1147 103.895 27.7547 99.3455 27.5147C94.4055 27.2547 90.6455 29.2847 87.0055 32.1947C83.6055 34.9047 79.0055 35.4247 74.8355 35.3447C70.4355 35.2647 65.9955 34.6247 61.6455 35.3447C57.2955 36.0647 52.9055 38.5947 51.4955 42.7747C49.2455 49.4647 55.6155 55.1447 53.6055 61.6047C52.9055 63.8847 51.2355 65.7747 49.8155 67.7447C47.8555 70.6147 47.0655 73.4847 48.2555 75.6547Z" stroke="url(#paint22_radial_146_37008)" stroke-miterlimit="10"/>
</g>
</g>
</g>
<defs>
<radialGradient id="paint0_radial_146_37008" cx="0" cy="0" r="1" gradientUnits="userSpaceOnUse" gradientTransform="translate(80 50.5) rotate(89.9361) scale(94.6348 94.5765)">
<stop stop-color="white"/>
<stop offset="1" stop-color="white" stop-opacity="0"/>
</radialGradient>
<radialGradient id="paint1_radial_146_37008" cx="0" cy="0" r="1" gradientUnits="userSpaceOnUse" gradientTransform="translate(80 50.5) rotate(89.9361) scale(94.6348 94.5765)">
<stop stop-color="white"/>
<stop offset="1" stop-color="white" stop-opacity="0"/>
</radialGradient>
<radialGradient id="paint2_radial_146_37008" cx="0" cy="0" r="1" gradientUnits="userSpaceOnUse" gradientTransform="translate(80 50.5) rotate(89.9361) scale(94.6348 94.5765)">
<stop stop-color="white"/>
<stop offset="1" stop-color="white" stop-opacity="0"/>
</radialGradient>
<radialGradient id="paint3_radial_146_37008" cx="0" cy="0" r="1" gradientUnits="userSpaceOnUse" gradientTransform="translate(80 50.5) rotate(89.9361) scale(94.6348 94.5765)">
<stop stop-color="white"/>
<stop offset="1" stop-color="white" stop-opacity="0"/>
</radialGradient>
<radialGradient id="paint4_radial_146_37008" cx="0" cy="0" r="1" gradientUnits="userSpaceOnUse" gradientTransform="translate(80 50.5) rotate(89.9361) scale(94.6348 94.5765)">
<stop stop-color="white"/>
<stop offset="1" stop-color="white" stop-opacity="0"/>
</radialGradient>
<radialGradient id="paint5_radial_146_37008" cx="0" cy="0" r="1" gradientUnits="userSpaceOnUse" gradientTransform="translate(80 50.5) rotate(89.9361) scale(94.6348 94.5765)">
<stop stop-color="white"/>
<stop offset="1" stop-color="white" stop-opacity="0"/>
</radialGradient>
<radialGradient id="paint6_radial_146_37008" cx="0" cy="0" r="1" gradientUnits="userSpaceOnUse" gradientTransform="translate(80 50.5) rotate(89.9361) scale(94.6348 94.5765)">
<stop stop-color="white"/>
<stop offset="1" stop-color="white" stop-opacity="0"/>
</radialGradient>
<radialGradient id="paint7_radial_146_37008" cx="0" cy="0" r="1" gradientUnits="userSpaceOnUse" gradientTransform="translate(80 50.5) rotate(89.9361) scale(94.6348 94.5765)">
<stop stop-color="white"/>
<stop offset="1" stop-color="white" stop-opacity="0"/>
</radialGradient>
<radialGradient id="paint8_radial_146_37008" cx="0" cy="0" r="1" gradientUnits="userSpaceOnUse" gradientTransform="translate(80 50.5) rotate(89.9361) scale(94.6348 94.5765)">
<stop stop-color="white"/>
<stop offset="1" stop-color="white" stop-opacity="0"/>
</radialGradient>
<radialGradient id="paint9_radial_146_37008" cx="0" cy="0" r="1" gradientUnits="userSpaceOnUse" gradientTransform="translate(80 50.5) rotate(89.9361) scale(94.6348 94.5765)">
<stop stop-color="white"/>
<stop offset="1" stop-color="white" stop-opacity="0"/>
</radialGradient>
<radialGradient id="paint10_radial_146_37008" cx="0" cy="0" r="1" gradientUnits="userSpaceOnUse" gradientTransform="translate(80 50.5) rotate(89.9361) scale(94.6348 94.5765)">
<stop stop-color="white"/>
<stop offset="1" stop-color="white" stop-opacity="0"/>
</radialGradient>
<radialGradient id="paint11_radial_146_37008" cx="0" cy="0" r="1" gradientUnits="userSpaceOnUse" gradientTransform="translate(80 50.5) rotate(89.9361) scale(94.6348 94.5765)">
<stop stop-color="white"/>
<stop offset="1" stop-color="white" stop-opacity="0"/>
</radialGradient>
<radialGradient id="paint12_radial_146_37008" cx="0" cy="0" r="1" gradientUnits="userSpaceOnUse" gradientTransform="translate(80 50.5) rotate(89.9361) scale(94.6348 94.5765)">
<stop stop-color="white"/>
<stop offset="1" stop-color="white" stop-opacity="0"/>
</radialGradient>
<radialGradient id="paint13_radial_146_37008" cx="0" cy="0" r="1" gradientUnits="userSpaceOnUse" gradientTransform="translate(80 50.5) rotate(89.9361) scale(94.6348 94.5765)">
<stop stop-color="white"/>
<stop offset="1" stop-color="white" stop-opacity="0"/>
</radialGradient>
<radialGradient id="paint14_radial_146_37008" cx="0" cy="0" r="1" gradientUnits="userSpaceOnUse" gradientTransform="translate(80 50.5) rotate(89.9361) scale(94.6348 94.5765)">
<stop stop-color="white"/>
<stop offset="1" stop-color="white" stop-opacity="0"/>
</radialGradient>
<radialGradient id="paint15_radial_146_37008" cx="0" cy="0" r="1" gradientUnits="userSpaceOnUse" gradientTransform="translate(80 50.5) rotate(89.9361) scale(94.6348 94.5765)">
<stop stop-color="white"/>
<stop offset="1" stop-color="white" stop-opacity="0"/>
</radialGradient>
<radialGradient id="paint16_radial_146_37008" cx="0" cy="0" r="1" gradientUnits="userSpaceOnUse" gradientTransform="translate(80 50.5) rotate(89.9361) scale(94.6348 94.5765)">
<stop stop-color="white"/>
<stop offset="1" stop-color="white" stop-opacity="0"/>
</radialGradient>
<radialGradient id="paint17_radial_146_37008" cx="0" cy="0" r="1" gradientUnits="userSpaceOnUse" gradientTransform="translate(80 50.5) rotate(89.9361) scale(94.6348 94.5765)">
<stop stop-color="white"/>
<stop offset="1" stop-color="white" stop-opacity="0"/>
</radialGradient>
<radialGradient id="paint18_radial_146_37008" cx="0" cy="0" r="1" gradientUnits="userSpaceOnUse" gradientTransform="translate(80 50.5) rotate(89.9361) scale(94.6348 94.5765)">
<stop stop-color="white"/>
<stop offset="1" stop-color="white" stop-opacity="0"/>
</radialGradient>
<radialGradient id="paint19_radial_146_37008" cx="0" cy="0" r="1" gradientUnits="userSpaceOnUse" gradientTransform="translate(80 50.5) rotate(89.9361) scale(94.6348 94.5765)">
<stop stop-color="white"/>
<stop offset="1" stop-color="white" stop-opacity="0"/>
</radialGradient>
<radialGradient id="paint20_radial_146_37008" cx="0" cy="0" r="1" gradientUnits="userSpaceOnUse" gradientTransform="translate(80 50.5) rotate(89.9361) scale(94.6348 94.5765)">
<stop stop-color="white"/>
<stop offset="1" stop-color="white" stop-opacity="0"/>
</radialGradient>
<radialGradient id="paint21_radial_146_37008" cx="0" cy="0" r="1" gradientUnits="userSpaceOnUse" gradientTransform="translate(80 50.5) rotate(89.9361) scale(94.6348 94.5765)">
<stop stop-color="white"/>
<stop offset="1" stop-color="white" stop-opacity="0"/>
</radialGradient>
<radialGradient id="paint22_radial_146_37008" cx="0" cy="0" r="1" gradientUnits="userSpaceOnUse" gradientTransform="translate(80 50.5) rotate(89.9361) scale(94.6348 94.5765)">
<stop stop-color="white"/>
<stop offset="1" stop-color="white" stop-opacity="0"/>
</radialGradient>
</defs>
</svg>
