<svg width="160" height="160" viewBox="0 0 160 160" fill="none" xmlns="http://www.w3.org/2000/svg">
<g id="2_&#208;&#156;&#208;&#190;&#208;&#189;&#209;&#130;&#208;&#176;&#208;&#182;&#208;&#189;&#208;&#176;&#209;&#143; &#208;&#190;&#208;&#177;&#208;&#187;&#208;&#176;&#209;&#129;&#209;&#130;&#209;&#140; 2">
<g id="Group" opacity="0.9">
<g id="Vector">
<path d="M125.681 125.696C136.64 114.738 125.116 85.4479 99.9427 60.2747C74.7695 35.1015 45.4793 23.5779 34.5212 34.536C23.5631 45.4941 35.0867 74.7843 60.2599 99.9575C85.4331 125.131 114.723 136.654 125.681 125.696Z" stroke="url(#paint0_linear_146_36969)" stroke-width="2" stroke-miterlimit="10"/>
<path d="M119.811 131.558C130.77 120.6 119.246 91.3093 94.0727 66.1361C68.8995 40.9629 39.6093 29.4393 28.6512 40.3974C17.6931 51.3556 29.2167 80.6458 54.3899 105.819C79.5631 130.992 108.853 142.516 119.811 131.558Z" stroke="url(#paint1_linear_146_36969)" stroke-width="2" stroke-miterlimit="10"/>
<path d="M128.621 122.748C139.58 111.79 128.056 82.5001 102.883 57.3269C77.7095 32.1537 48.4193 20.6301 37.4612 31.5882C26.5031 42.5463 38.0267 71.8365 63.1999 97.0097C88.3731 122.183 117.663 133.707 128.621 122.748Z" stroke="url(#paint2_linear_146_36969)" stroke-width="2" stroke-miterlimit="10"/>
<path d="M134.501 116.887C145.46 105.929 133.936 76.6387 108.763 51.4655C83.5895 26.2923 54.2993 14.7687 43.3412 25.7268C32.3831 36.6849 43.9067 65.9751 69.0799 91.1483C94.2531 116.322 123.543 127.845 134.501 116.887Z" stroke="url(#paint3_linear_146_36969)" stroke-width="2" stroke-miterlimit="10"/>
<path d="M137.431 113.939C148.39 102.981 136.866 73.6909 111.693 48.5177C86.5195 23.3445 57.2293 11.8209 46.2712 22.779C35.3131 33.7371 46.8367 63.0273 72.0099 88.2005C97.1831 113.374 126.473 124.897 137.431 113.939Z" stroke="url(#paint4_linear_146_36969)" stroke-width="2" stroke-miterlimit="10"/>
<path d="M131.561 119.825C142.52 108.867 130.996 79.5765 105.823 54.4033C80.6495 29.2301 51.3593 17.7065 40.4012 28.6646C29.4431 39.6227 40.9667 68.9129 66.1399 94.0861C91.3131 119.259 120.603 130.783 131.561 119.825Z" stroke="url(#paint5_linear_146_36969)" stroke-width="2" stroke-miterlimit="10"/>
<path d="M122.751 128.634C133.71 117.676 122.186 88.3857 97.0127 63.2125C71.8395 38.0393 42.5493 26.5157 31.5912 37.4738C20.6331 48.4319 32.1567 77.7221 57.3299 102.895C82.5031 128.069 111.793 139.592 122.751 128.634Z" stroke="url(#paint6_linear_146_36969)" stroke-width="2" stroke-miterlimit="10"/>
<path d="M111.001 140.381C121.96 129.423 110.436 100.133 85.2627 74.9595C60.0895 49.7863 30.7993 38.2627 19.8412 49.2208C8.8831 60.1789 20.4067 89.4691 45.5799 114.642C70.7531 139.816 100.043 151.339 111.001 140.381Z" stroke="url(#paint7_linear_146_36969)" stroke-width="2" stroke-miterlimit="10"/>
<path d="M116.871 134.505C127.83 123.547 116.306 94.2571 91.1327 69.0839C65.9595 43.9107 36.6693 32.3871 25.7112 43.3452C14.7531 54.3033 26.2767 83.5936 51.4499 108.767C76.6231 133.94 105.913 145.464 116.871 134.505Z" stroke="url(#paint8_linear_146_36969)" stroke-width="2" stroke-miterlimit="10"/>
<path d="M113.941 137.443C124.9 126.485 113.376 97.1949 88.2027 72.0217C63.0295 46.8485 33.7393 35.3249 22.7812 46.283C11.8231 57.2411 23.3467 86.5313 48.5199 111.705C73.6931 136.878 102.983 148.401 113.941 137.443Z" stroke="url(#paint9_linear_146_36969)" stroke-width="2" stroke-miterlimit="10"/>
<path d="M140.371 111.001C151.33 100.043 139.806 70.7531 114.633 45.5799C89.4595 20.4067 60.1693 8.8831 49.2112 19.8412C38.2531 30.7993 49.7767 60.0895 74.9499 85.2627C100.123 110.436 129.413 121.96 140.371 111.001Z" stroke="url(#paint10_linear_146_36969)" stroke-width="2" stroke-miterlimit="10"/>
</g>
</g>
</g>
<defs>
<linearGradient id="paint0_linear_146_36969" x1="80.1063" y1="15.6973" x2="80.1063" y2="144.525" gradientUnits="userSpaceOnUse">
<stop stop-color="white"/>
<stop offset="1" stop-color="white" stop-opacity="0"/>
</linearGradient>
<linearGradient id="paint1_linear_146_36969" x1="80.1063" y1="15.6973" x2="80.1063" y2="144.525" gradientUnits="userSpaceOnUse">
<stop stop-color="white"/>
<stop offset="1" stop-color="white" stop-opacity="0"/>
</linearGradient>
<linearGradient id="paint2_linear_146_36969" x1="80.1063" y1="15.6973" x2="80.1063" y2="144.525" gradientUnits="userSpaceOnUse">
<stop stop-color="white"/>
<stop offset="1" stop-color="white" stop-opacity="0"/>
</linearGradient>
<linearGradient id="paint3_linear_146_36969" x1="80.1063" y1="15.6973" x2="80.1063" y2="144.525" gradientUnits="userSpaceOnUse">
<stop stop-color="white"/>
<stop offset="1" stop-color="white" stop-opacity="0"/>
</linearGradient>
<linearGradient id="paint4_linear_146_36969" x1="80.1063" y1="15.6973" x2="80.1063" y2="144.525" gradientUnits="userSpaceOnUse">
<stop stop-color="white"/>
<stop offset="1" stop-color="white" stop-opacity="0"/>
</linearGradient>
<linearGradient id="paint5_linear_146_36969" x1="80.1063" y1="15.6973" x2="80.1063" y2="144.525" gradientUnits="userSpaceOnUse">
<stop stop-color="white"/>
<stop offset="1" stop-color="white" stop-opacity="0"/>
</linearGradient>
<linearGradient id="paint6_linear_146_36969" x1="80.1063" y1="15.6973" x2="80.1063" y2="144.525" gradientUnits="userSpaceOnUse">
<stop stop-color="white"/>
<stop offset="1" stop-color="white" stop-opacity="0"/>
</linearGradient>
<linearGradient id="paint7_linear_146_36969" x1="80.1063" y1="15.6973" x2="80.1063" y2="144.525" gradientUnits="userSpaceOnUse">
<stop stop-color="white"/>
<stop offset="1" stop-color="white" stop-opacity="0"/>
</linearGradient>
<linearGradient id="paint8_linear_146_36969" x1="80.1063" y1="15.6973" x2="80.1063" y2="144.525" gradientUnits="userSpaceOnUse">
<stop stop-color="white"/>
<stop offset="1" stop-color="white" stop-opacity="0"/>
</linearGradient>
<linearGradient id="paint9_linear_146_36969" x1="80.1063" y1="15.6973" x2="80.1063" y2="144.525" gradientUnits="userSpaceOnUse">
<stop stop-color="white"/>
<stop offset="1" stop-color="white" stop-opacity="0"/>
</linearGradient>
<linearGradient id="paint10_linear_146_36969" x1="80.1063" y1="15.6973" x2="80.1063" y2="144.525" gradientUnits="userSpaceOnUse">
<stop stop-color="white"/>
<stop offset="1" stop-color="white" stop-opacity="0"/>
</linearGradient>
</defs>
</svg>
