<svg xmlns="http://www.w3.org/2000/svg" width="114" height="35" viewBox="0 0 114 35" fill="none">
  <g clip-path="url(#clip0_164_266)">
    <mask id="mask0_164_266" style="mask-type:luminance" maskUnits="userSpaceOnUse" x="0" y="0" width="35" height="35">
      <path d="M34.374 0.405762H0.256836V34.523H34.374V0.405762Z" fill="white"/>
    </mask>
    <g mask="url(#mask0_164_266)">
      <path fill-rule="evenodd" clip-rule="evenodd" d="M17.3154 34.5234C29.092 34.5234 34.374 29.2414 34.374 17.4648C34.374 5.68837 29.092 0.40625 17.3154 0.40625C5.53896 0.40625 0.256836 5.68837 0.256836 17.4648C0.256836 29.2414 5.53896 34.5234 17.3154 34.5234ZM14.1127 7.63936H18.8584V15.4597H15.916V10.1568H13.2802L14.1127 7.63936ZM17.317 27.2897C20.306 27.2897 22.7291 24.8665 22.7291 21.8775C22.7291 18.8884 20.306 16.4654 17.317 16.4654C14.3279 16.4654 11.9048 18.8884 11.9048 21.8775C11.9048 24.8665 14.3279 27.2897 17.317 27.2897ZM17.3169 24.8326C18.949 24.8326 20.272 23.5096 20.272 21.8775C20.272 20.2454 18.949 18.9224 17.3169 18.9224C15.6849 18.9224 14.3618 20.2454 14.3618 21.8775C14.3618 23.5096 15.6849 24.8326 17.3169 24.8326Z" fill="white"/>
    </g>
    <path d="M47.772 25.4001C51.9319 25.4001 54.9918 22.2801 54.9918 18.0001C54.9918 13.7201 51.9319 10.6001 47.772 10.6001C43.6121 10.6001 40.5518 13.7201 40.5518 18.0001C40.5518 22.2801 43.6121 25.4001 47.772 25.4001ZM43.1921 18.0001C43.1921 15.0401 45.132 12.9001 47.772 12.9001C50.432 12.9001 52.3519 15.0401 52.3519 18.0001C52.3519 20.9201 50.432 23.0801 47.772 23.0801C45.132 23.0801 43.1921 20.9201 43.1921 18.0001Z" fill="white"/>
    <path d="M56.9404 25.0002H59.4207V19.6202C59.4207 17.7602 60.2206 16.7002 61.6406 16.7002C62.9604 16.7002 63.7005 17.6202 63.7005 19.1802V25.0002H66.1804V18.8002C66.1804 16.3202 64.7206 14.7002 62.5404 14.7002C60.9206 14.7002 59.8006 15.6002 59.3605 17.0802L59.4207 14.9402H56.9404V25.0002Z" fill="white"/>
    <path d="M73.0111 25.3601C75.4512 25.3601 77.2913 23.9001 77.6912 22.0401L75.5712 21.7201C75.231 22.7401 74.2313 23.4201 73.0311 23.4201C71.5112 23.4201 70.4112 22.2801 70.331 20.7201H77.8713C78.311 17.5801 76.4513 14.5801 72.9713 14.5801C69.9912 14.5801 67.8311 16.8401 67.8311 19.9601C67.8311 23.1001 69.9912 25.3601 73.0111 25.3601ZM70.3511 18.8601C70.5312 17.4201 71.591 16.4401 72.9713 16.4401C74.4512 16.4401 75.4713 17.5201 75.4713 18.8601H70.3511Z" fill="white"/>
    <path d="M79.7764 25H82.3164V20.8L84.5364 18.42L88.8964 25H91.8565L86.1963 16.66L91.4565 11H88.2766L82.3164 17.52V11H79.7764V25Z" fill="white"/>
    <path d="M97.3665 25.3601C99.8063 25.3601 101.646 23.9001 102.046 22.0401L99.9266 21.7201C99.5865 22.7401 98.5864 23.4201 97.3866 23.4201C95.8666 23.4201 94.7663 22.2801 94.6865 20.7201H102.226C102.666 17.5801 100.806 14.5801 97.3264 14.5801C94.3463 14.5801 92.1865 16.8401 92.1865 19.9601C92.1865 23.1001 94.3463 25.3601 97.3665 25.3601ZM94.7065 18.8601C94.8866 17.4201 95.9465 16.4401 97.3264 16.4401C98.8066 16.4401 99.8264 17.5201 99.8264 18.8601H94.7065Z" fill="white"/>
    <path d="M105.048 28.7999H107.608L113.547 14.9399H110.988L108.128 21.8799L105.268 14.9399H102.647L106.827 24.72L105.048 28.7999Z" fill="white"/>
  </g>
  <defs>
    <clipPath id="clip0_164_266">
      <rect width="113.75" height="35" fill="white" transform="translate(0.256836)"/>
    </clipPath>
  </defs>
</svg>