<svg width="40" height="41" viewBox="0 0 40 41" fill="none" xmlns="http://www.w3.org/2000/svg">
<path id="Vector" d="M19.9999 0.25293C8.95432 0.25293 0 9.16641 0 20.162C0 31.1575 8.95432 40.071 19.9999 40.071C31.0455 40.071 40 31.1575 40 20.162C40 9.16641 31.0457 0.25293 19.9999 0.25293ZM19.9999 32.7801C18.5443 30.1306 16.7163 27.7015 14.5712 25.5661C12.4261 23.4307 9.98581 21.611 7.32419 20.162C9.98581 18.7129 12.4261 16.8932 14.5712 14.7578C16.7163 12.6224 18.5443 10.1933 19.9999 7.54382C21.4556 10.1933 23.2836 12.6225 25.4288 14.7578C27.5739 16.8931 30.0141 18.7129 32.6757 20.162C27.3253 23.075 22.9262 27.454 19.9999 32.7801Z" fill="white"/>
</svg>
