<svg width="116" height="49" viewBox="0 0 116 49" fill="none" xmlns="http://www.w3.org/2000/svg">
<path d="M38.5442 33.1038C35.6084 33.1038 32.8987 30.1635 31.4988 28.3548C30.0981 30.1635 27.3884 33.1038 24.4525 33.1038C21.5167 33.1038 18.807 30.1635 17.407 28.3548C16.0973 30.1635 13.3876 33.1038 10.4517 33.1038C10.3029 33.1051 10.1553 33.0768 10.0176 33.0205C9.87981 32.9641 9.75468 32.8808 9.64951 32.7755C9.54434 32.6702 9.46123 32.545 9.40505 32.4072C9.34887 32.2693 9.32075 32.1217 9.32233 31.9729C9.32233 31.3402 9.81903 30.842 10.4517 30.842C12.8 30.842 15.6908 27.0872 16.5038 25.7759C16.7293 25.4596 17.0907 25.2334 17.4521 25.2334C17.8136 25.2334 18.2201 25.4145 18.4004 25.7759C19.2135 27.0879 22.1035 30.842 24.4525 30.842C26.8015 30.842 29.6916 27.0872 30.5046 25.7759C30.7308 25.4596 31.0922 25.2334 31.4529 25.2334C31.8595 25.2334 32.2216 25.4145 32.402 25.7759C33.215 27.0879 36.1051 30.842 38.4541 30.842C39.086 30.842 39.5827 31.3402 39.5827 31.9729C39.5827 32.6063 39.1762 33.1038 38.5442 33.1038Z" fill="white"/>
<path d="M38.5442 39.527C35.6084 39.527 32.8987 36.5875 31.4988 34.7781C30.0981 36.5875 27.3884 39.5278 24.4525 39.5278C21.5167 39.5278 18.807 36.5875 17.4071 34.7781C16.0973 36.5875 13.3876 39.5278 10.4517 39.5278C10.3029 39.5292 10.1552 39.5008 10.0174 39.4444C9.87959 39.388 9.75444 39.3047 9.64925 39.1993C9.54407 39.0939 9.46098 38.9686 9.40484 38.8307C9.34871 38.6928 9.32066 38.545 9.32234 38.3961C9.32234 37.7627 9.81904 37.2653 10.4517 37.2653C12.8 37.2653 15.6908 33.5104 16.5038 32.1985C16.7293 31.8821 17.0907 31.6559 17.4521 31.6559C17.8136 31.6559 18.2201 31.837 18.4005 32.1985C19.2135 33.5104 22.1036 37.2653 24.4525 37.2653C26.8015 37.2653 29.6916 33.5104 30.5046 32.1985C30.7308 31.8821 31.0922 31.6559 31.4529 31.6559C31.8595 31.6559 32.2216 31.837 32.402 32.1985C33.215 33.5104 36.1051 37.2653 38.4541 37.2653C39.086 37.2653 39.5827 37.7627 39.5827 38.3961C39.5827 39.0289 39.1762 39.527 38.5442 39.527ZM11.219 27.9477C10.6772 27.9477 10.2256 27.5855 10.0903 27.043C9.9543 26.1382 9.86413 25.2335 9.86413 24.3739C9.86413 16.2766 16.4129 9.71751 24.4976 9.71751C32.5831 9.67316 39.1319 16.2766 39.1319 24.3747C39.1319 25.2794 39.0417 26.139 38.9064 26.9986C38.8867 27.1473 38.8362 27.2902 38.7579 27.4181C38.6797 27.546 38.5755 27.6561 38.4521 27.7413C38.3287 27.8266 38.1889 27.885 38.0415 27.9129C37.8942 27.9408 37.7427 27.9375 37.5967 27.9033C36.964 27.8124 36.5574 27.224 36.6934 26.5913C36.8287 25.867 36.8738 25.0983 36.8738 24.3739C36.8738 17.5443 31.3184 11.98 24.4984 11.98C17.6791 11.98 12.1237 17.4992 12.1237 24.3747C12.1237 25.1434 12.2139 25.9121 12.3491 26.6364C12.4393 27.2699 12.0779 27.8575 11.4459 27.9484H11.2197L11.219 27.9477Z" fill="white"/>
<path d="M66.6472 33.5783C65.1896 33.5783 63.9331 33.3438 62.8776 32.8747C61.8389 32.3888 60.8839 31.66 60.0127 30.6883L62.576 28.1501C63.1457 28.8035 63.7739 29.3145 64.4608 29.6831C65.1645 30.0349 65.9771 30.2108 66.8985 30.2108C67.7362 30.2108 68.3812 30.06 68.8336 29.7585C69.3027 29.4569 69.5373 29.038 69.5373 28.5019C69.5373 28.0161 69.3865 27.6223 69.0849 27.3208C68.7833 27.0192 68.3812 26.7595 67.8786 26.5417C67.3928 26.3239 66.8483 26.1145 66.2451 25.9135C65.6587 25.7124 65.0724 25.4862 64.486 25.2349C63.8996 24.9669 63.3551 24.6402 62.8525 24.2548C62.3666 23.8527 61.9729 23.3585 61.6713 22.7721C61.3698 22.169 61.219 21.415 61.219 20.5103C61.219 19.4213 61.4787 18.4831 61.998 17.6957C62.5341 16.9083 63.2713 16.3135 64.2095 15.9114C65.1477 15.4926 66.2284 15.2831 67.4514 15.2831C68.6912 15.2831 69.8221 15.5009 70.8441 15.9365C71.8828 16.3721 72.7372 16.9669 73.4074 17.7208L70.8441 20.259C70.3079 19.7062 69.7634 19.2957 69.2106 19.0276C68.6744 18.7596 68.0629 18.6255 67.376 18.6255C66.6891 18.6255 66.1446 18.7596 65.7425 19.0276C65.3404 19.2789 65.1394 19.6475 65.1394 20.1334C65.1394 20.5857 65.2902 20.9543 65.5917 21.2391C65.8933 21.5072 66.287 21.7417 66.7729 21.9428C67.2755 22.1438 67.82 22.3449 68.4064 22.5459C69.0095 22.747 69.6043 22.9815 70.1907 23.2496C70.777 23.5177 71.3132 23.8611 71.799 24.28C72.3016 24.682 72.7037 25.2014 73.0053 25.8381C73.3069 26.458 73.4577 27.2286 73.4577 28.1501C73.4577 29.8422 72.8545 31.1742 71.6482 32.1459C70.442 33.1009 68.775 33.5783 66.6472 33.5783Z" fill="white"/>
<path d="M80.6039 33.5783C79.4814 33.5783 78.4845 33.3522 77.6133 32.8998C76.7589 32.4307 76.0887 31.7941 75.6028 30.9899C75.117 30.1689 74.874 29.2307 74.874 28.1752V21.0883H78.7191V28.125C78.7191 28.5438 78.7861 28.904 78.9201 29.2056C79.0709 29.5072 79.2887 29.7417 79.5735 29.9092C79.8583 30.0768 80.2018 30.1606 80.6039 30.1606C81.1735 30.1606 81.6258 29.9846 81.9609 29.6328C82.296 29.2642 82.4635 28.7616 82.4635 28.125V21.0883H86.3085V28.1501C86.3085 29.2223 86.0656 30.1689 85.5798 30.9899C85.0939 31.7941 84.4237 32.4307 83.5693 32.8998C82.7148 33.3522 81.7264 33.5783 80.6039 33.5783Z" fill="white"/>
<path d="M88.2792 33.3019V21.0883H92.1242V33.3019H88.2792ZM90.2143 19.4046C89.6111 19.4046 89.1085 19.2035 88.7064 18.8014C88.3211 18.3826 88.1284 17.88 88.1284 17.2936C88.1284 16.6905 88.3211 16.1878 88.7064 15.7858C89.1085 15.3837 89.6111 15.1826 90.2143 15.1826C90.8174 15.1826 91.3116 15.3837 91.697 15.7858C92.0823 16.1878 92.275 16.6905 92.275 17.2936C92.275 17.88 92.0823 18.3826 91.697 18.8014C91.3116 19.2035 90.8174 19.4046 90.2143 19.4046Z" fill="white"/>
<path d="M100.42 33.5783C99.0962 33.5783 97.915 33.3103 96.8763 32.7742C95.8543 32.2213 95.0501 31.459 94.4637 30.4873C93.8774 29.5155 93.5842 28.4182 93.5842 27.1951C93.5842 25.9721 93.869 24.8831 94.4386 23.9281C95.025 22.9564 95.8124 22.1941 96.8009 21.6412C97.7894 21.0883 98.9035 20.8119 100.143 20.8119C101.35 20.8119 102.413 21.0716 103.335 21.591C104.256 22.1103 104.977 22.8307 105.496 23.7522C106.032 24.6737 106.3 25.7292 106.3 26.9187C106.3 27.1365 106.284 27.371 106.25 27.6223C106.233 27.8569 106.191 28.1333 106.124 28.4517L95.5946 28.4768V25.8381L104.491 25.8129L102.832 26.9187C102.816 26.215 102.707 25.637 102.506 25.1847C102.305 24.7156 102.003 24.3637 101.601 24.1292C101.216 23.8779 100.738 23.7522 100.168 23.7522C99.5653 23.7522 99.0376 23.8946 98.5852 24.1794C98.1496 24.4475 97.8061 24.8328 97.5548 25.3354C97.3203 25.8381 97.203 26.4496 97.203 27.17C97.203 27.8904 97.3287 28.5103 97.58 29.0297C97.848 29.5323 98.2166 29.926 98.6857 30.2108C99.1716 30.4789 99.7412 30.6129 100.395 30.6129C100.998 30.6129 101.542 30.5124 102.028 30.3113C102.514 30.0935 102.941 29.7752 103.31 29.3564L105.421 31.4674C104.818 32.171 104.089 32.6988 103.234 33.0506C102.38 33.4024 101.442 33.5783 100.42 33.5783Z" fill="white"/>
<path d="M109.177 33.3019V16.0371H113.022V33.3019H109.177ZM106.412 24.3553V21.0883H115.786V24.3553H106.412Z" fill="white"/>
</svg>
