<svg xmlns="http://www.w3.org/2000/svg" width="21" height="20" viewBox="0 0 21 20" fill="none">
  <g clip-path="url(#clip0_146_38047)">
    <path fill-rule="evenodd" clip-rule="evenodd" d="M20.708 10C20.708 15.5228 16.2309 20 10.708 20C5.18516 20 0.708008 15.5228 0.708008 10C0.708008 4.47715 5.18516 0 10.708 0C16.2309 0 20.708 4.47715 20.708 10ZM11.0664 7.38244C10.0937 7.787 8.14979 8.62433 5.23459 9.89444C4.7612 10.0827 4.51322 10.2668 4.49065 10.4469C4.4525 10.7512 4.8336 10.8711 5.35257 11.0343C5.42316 11.0565 5.4963 11.0795 5.57129 11.1038C6.08187 11.2698 6.7687 11.464 7.12575 11.4717C7.44963 11.4787 7.81111 11.3452 8.21021 11.0711C10.934 9.2325 12.34 8.30317 12.4283 8.28314C12.4905 8.26901 12.5768 8.25123 12.6353 8.3032C12.6938 8.35518 12.688 8.4536 12.6818 8.48C12.6441 8.64095 11.1481 10.0317 10.3739 10.7515C10.1326 10.9759 9.9614 11.135 9.92641 11.1714C9.84801 11.2528 9.76811 11.3298 9.69133 11.4038C9.21698 11.8611 8.86127 12.204 9.71102 12.764C10.1194 13.0331 10.4461 13.2556 10.7721 13.4776C11.1282 13.7201 11.4832 13.9619 11.9427 14.2631C12.0597 14.3398 12.1715 14.4195 12.2804 14.4971C12.6947 14.7925 13.067 15.0578 13.5268 15.0155C13.794 14.9909 14.0701 14.7397 14.2102 13.9903C14.5415 12.2193 15.1927 8.38205 15.3432 6.80081C15.3564 6.66227 15.3398 6.48498 15.3265 6.40715C15.3131 6.32931 15.2853 6.21842 15.1841 6.13633C15.0643 6.03911 14.8794 6.01861 14.7966 6.02007C14.4205 6.0267 13.8435 6.22735 11.0664 7.38244Z" fill="white"/>
  </g>
  <defs>
    <clipPath id="clip0_146_38047">
      <rect width="20" height="20" fill="white" transform="translate(0.708008)"/>
    </clipPath>
  </defs>
</svg>