<svg width="20" height="20" viewBox="0 0 20 20" fill="none" xmlns="http://www.w3.org/2000/svg">
<g clip-path="url(#clip0_322_97)">
<path fill-rule="evenodd" clip-rule="evenodd" d="M16 12C16 16.4183 12.4183 20 8 20C3.58172 20 0 16.4183 0 12C0 7.58172 3.58172 4 8 4C12.4183 4 16 7.58172 16 12ZM8.28668 9.90595C7.50857 10.2296 5.95342 10.8995 3.62126 11.9155C3.24256 12.0661 3.04417 12.2135 3.02611 12.3575C2.99559 12.601 3.30047 12.6969 3.71565 12.8274C3.77212 12.8452 3.83064 12.8636 3.89062 12.8831C4.29909 13.0158 4.84855 13.1712 5.13419 13.1774C5.3933 13.183 5.68249 13.0761 6.00176 12.8569C8.18077 11.386 9.30559 10.6425 9.37621 10.6265C9.42603 10.6152 9.49507 10.601 9.54184 10.6426C9.58862 10.6841 9.58402 10.7629 9.57907 10.784C9.54886 10.9128 8.35208 12.0254 7.73275 12.6012C7.53967 12.7807 7.40272 12.908 7.37472 12.9371C7.312 13.0022 7.24809 13.0638 7.18665 13.1231C6.80718 13.4889 6.52261 13.7632 7.20241 14.2112C7.52909 14.4265 7.79051 14.6045 8.05131 14.7821C8.33612 14.9761 8.62019 15.1695 8.98774 15.4104C9.08139 15.4718 9.17082 15.5356 9.25793 15.5977C9.58938 15.834 9.88717 16.0463 10.2551 16.0124C10.4688 15.9928 10.6896 15.7917 10.8018 15.1922C11.0668 13.7754 11.5878 10.7056 11.7081 9.44065C11.7187 9.32982 11.7054 9.18798 11.6948 9.12572C11.6841 9.06345 11.6618 8.97474 11.5809 8.90907C11.4851 8.83129 11.3371 8.81489 11.2709 8.81606C10.97 8.82136 10.5084 8.98188 8.28668 9.90595Z" fill="white"/>
<path d="M14 2.5C14 1.11929 15.1193 0 16.5 0H17.5C18.8807 0 20 1.11929 20 2.5C20 3.88071 18.8807 5 17.5 5H15L14 6V2.5Z" fill="white"/>
</g>
<defs>
<clipPath id="clip0_322_97">
<rect width="20" height="20" fill="white"/>
</clipPath>
</defs>
</svg>
