<svg width="20" height="20" viewBox="0 0 20 20" fill="none" xmlns="http://www.w3.org/2000/svg">
<g clip-path="url(#clip0_322_108)">
<path fill-rule="evenodd" clip-rule="evenodd" d="M16 12C16 16.4183 12.4183 20 8 20C3.58172 20 0 16.4183 0 12C0 7.58172 3.58172 4 8 4C12.4183 4 16 7.58172 16 12ZM8.28668 9.90595C7.50857 10.2296 5.95342 10.8995 3.62126 11.9155C3.24256 12.0661 3.04417 12.2135 3.02611 12.3575C2.99559 12.601 3.30047 12.6969 3.71565 12.8274C3.77212 12.8452 3.83064 12.8636 3.89062 12.8831C4.29909 13.0158 4.84855 13.1712 5.13419 13.1774C5.3933 13.183 5.68249 13.0761 6.00176 12.8569C8.18077 11.386 9.30559 10.6425 9.37621 10.6265C9.42603 10.6152 9.49507 10.601 9.54184 10.6426C9.58862 10.6841 9.58402 10.7629 9.57907 10.784C9.54886 10.9128 8.35208 12.0254 7.73275 12.6012C7.53967 12.7807 7.40272 12.908 7.37472 12.9371C7.312 13.0022 7.24809 13.0638 7.18665 13.1231C6.80718 13.4889 6.52261 13.7632 7.20241 14.2112C7.52909 14.4265 7.79051 14.6045 8.05131 14.7821C8.33612 14.9761 8.62019 15.1695 8.98774 15.4104C9.08139 15.4718 9.17082 15.5356 9.25793 15.5977C9.58938 15.834 9.88717 16.0463 10.2551 16.0124C10.4688 15.9928 10.6896 15.7917 10.8018 15.1922C11.0668 13.7754 11.5878 10.7056 11.7081 9.44065C11.7187 9.32982 11.7054 9.18798 11.6948 9.12572C11.6841 9.06345 11.6618 8.97474 11.5809 8.90907C11.4851 8.83129 11.3371 8.81489 11.2709 8.81606C10.97 8.82136 10.5084 8.98188 8.28668 9.90595Z" fill="white"/>
<g clip-path="url(#clip1_322_108)">
<path d="M11 0H20V9H11V0Z" fill="#E30A17"/>
<path d="M16.1375 4.5L18.1727 3.8388L16.9148 5.56995V3.43005L18.1727 5.1612L16.1375 4.5ZM16.2763 5.70315C16.0156 6.11509 15.6282 6.43122 15.1724 6.60398C14.7165 6.77673 14.2169 6.79677 13.7487 6.66107C13.2805 6.52537 12.869 6.24127 12.5761 5.85153C12.2833 5.46179 12.125 4.98749 12.125 4.5C12.125 4.01251 12.2833 3.53821 12.5761 3.14847C12.869 2.75873 13.2805 2.47464 13.7487 2.33893C14.2169 2.20323 14.7165 2.22327 15.1724 2.39602C15.6282 2.56878 16.0156 2.88491 16.2763 3.29685C16.0329 3.02597 15.713 2.83531 15.3589 2.75004C15.0049 2.66477 14.6333 2.6889 14.2932 2.81925C13.9532 2.94959 13.6606 3.18003 13.4543 3.48011C13.2479 3.7802 13.1375 4.13582 13.1375 4.5C13.1375 4.86419 13.2479 5.2198 13.4543 5.51989C13.6606 5.81997 13.9532 6.05041 14.2932 6.18076C14.6333 6.3111 15.0049 6.33524 15.3589 6.24996C15.713 6.16469 16.0329 5.97403 16.2763 5.70315Z" fill="white"/>
</g>
</g>
<defs>
<clipPath id="clip0_322_108">
<rect width="20" height="20" fill="white"/>
</clipPath>
<clipPath id="clip1_322_108">
<rect x="11" width="9" height="9" rx="4.5" fill="white"/>
</clipPath>
</defs>
</svg>
