<svg xmlns="http://www.w3.org/2000/svg" width="200" height="35" viewBox="0 0 200 35" fill="none">
  <g clip-path="url(#clip0_164_137)">
    <path d="M64.6924 10.7448L60.1318 23.5419C60.1109 23.6037 60.0698 23.6568 60.015 23.6927C59.9602 23.7287 59.8948 23.7453 59.8293 23.7402H59.4838C59.4181 23.7428 59.353 23.7252 59.2979 23.6895C59.2428 23.6541 59.1999 23.6024 59.1755 23.5419L55.7565 14.5668L52.3433 23.5419C52.3206 23.6026 52.279 23.6544 52.2245 23.6902C52.1702 23.7258 52.1058 23.7432 52.0406 23.7402H51.6895C51.6243 23.7439 51.5595 23.7265 51.505 23.6908C51.4505 23.655 51.4091 23.6029 51.3869 23.5419L46.8264 10.7493C46.7564 10.551 46.8321 10.4277 47.0263 10.4277H48.4377C48.5042 10.4211 48.571 10.4371 48.6269 10.4732C48.683 10.5092 48.725 10.5632 48.746 10.6261L51.9966 20.3148L55.3015 11.4418C55.3253 11.3807 55.3678 11.3286 55.4233 11.293C55.4786 11.2574 55.5439 11.24 55.6098 11.2435H55.9067C55.9719 11.2402 56.0363 11.2577 56.0908 11.2933C56.1453 11.329 56.1867 11.381 56.2093 11.4418L59.6124 20.3148L62.7875 10.6261C62.8084 10.5632 62.8505 10.5092 62.9066 10.4732C62.9625 10.4371 63.0293 10.4211 63.0958 10.4277H64.4857C64.6855 10.4277 64.7612 10.551 64.6912 10.7448" fill="white"/>
    <path d="M84.5407 16.9775C84.528 18.2955 84.1226 19.5802 83.3754 20.67C82.6283 21.7598 81.5729 22.6057 80.3423 23.1015C79.1115 23.5971 77.7604 23.7203 76.4593 23.4555C75.1583 23.1907 73.9652 22.5497 73.0305 21.6131C72.0958 20.6768 71.4612 19.4867 71.2068 18.193C70.9522 16.8995 71.0892 15.56 71.6004 14.3435C72.1115 13.1269 72.974 12.0877 74.0793 11.3567C75.1845 10.6257 76.483 10.2356 77.8112 10.2355C78.7038 10.2231 79.5898 10.3894 80.4163 10.7246C81.2427 11.0599 81.9924 11.557 82.6206 12.1865C83.2489 12.8159 83.7427 13.5646 84.0726 14.3878C84.4026 15.211 84.5618 16.0917 84.5407 16.9775ZM82.6743 16.9775C82.6743 13.8748 80.635 11.7381 77.8112 11.7381C74.9873 11.7381 72.9482 13.8748 72.9482 16.9775C72.9482 20.08 74.9873 22.2169 77.8112 22.2169C80.635 22.2169 82.6743 20.08 82.6743 16.9775Z" fill="white"/>
    <path d="M102.361 22.9955C102.404 23.0449 102.431 23.1061 102.438 23.171C102.445 23.2359 102.433 23.3014 102.401 23.359C102.37 23.4165 102.322 23.4633 102.264 23.4932C102.206 23.5231 102.139 23.5348 102.074 23.5266H100.803C100.761 23.5253 100.721 23.514 100.685 23.4935C100.649 23.4729 100.619 23.444 100.597 23.409L97.4065 18.6312H93.9773V23.2589C93.9765 23.3299 93.9475 23.3978 93.8969 23.448C93.8464 23.4983 93.778 23.5269 93.7064 23.5277H92.4643C92.3928 23.5266 92.3248 23.4978 92.2744 23.4477C92.2239 23.3975 92.1953 23.3297 92.1943 23.2589V10.6971C92.1956 10.6264 92.2244 10.5588 92.2747 10.5086C92.3251 10.4585 92.393 10.4297 92.4643 10.4282H97.3488C100.768 10.4282 102.456 12.2109 102.456 14.5292C102.477 15.4504 102.165 16.3486 101.576 17.0614C100.988 17.7743 100.162 18.2549 99.248 18.4161L102.361 22.9955ZM96.9999 17.1286C99.6883 17.1286 100.592 16.0227 100.592 14.5303C100.592 13.0378 99.6883 11.9319 96.9999 11.9319H93.9761V17.1286H96.9999Z" fill="white"/>
    <path d="M123.368 10.2175H123.773C123.809 10.2152 123.846 10.2205 123.88 10.2332C123.914 10.2459 123.944 10.2657 123.97 10.2911C123.996 10.3166 124.016 10.3471 124.028 10.3808C124.041 10.4145 124.047 10.4505 124.044 10.4864V23.2598C124.047 23.2958 124.041 23.3317 124.028 23.3655C124.016 23.3992 123.996 23.4297 123.97 23.4551C123.944 23.4805 123.914 23.5004 123.88 23.513C123.846 23.5258 123.809 23.531 123.773 23.5288H122.531C122.495 23.531 122.459 23.5258 122.425 23.513C122.391 23.5004 122.36 23.4805 122.334 23.4551C122.309 23.4297 122.289 23.3992 122.276 23.3655C122.263 23.3317 122.258 23.2958 122.26 23.2598V14.1918L117.256 21.3797C117.24 21.4152 117.213 21.4454 117.18 21.4665C117.147 21.4876 117.109 21.4988 117.069 21.4988C117.03 21.4988 116.991 21.4876 116.958 21.4665C116.925 21.4454 116.899 21.4152 116.882 21.3797L111.879 14.1918V23.2587C111.882 23.2947 111.876 23.3306 111.863 23.3644C111.851 23.3981 111.831 23.4286 111.805 23.454C111.779 23.4794 111.749 23.4992 111.715 23.5119C111.681 23.5246 111.644 23.5299 111.608 23.5277H110.366C110.33 23.5299 110.294 23.5246 110.26 23.5119C110.226 23.4992 110.195 23.4794 110.169 23.454C110.144 23.4286 110.124 23.3981 110.111 23.3644C110.098 23.3306 110.093 23.2947 110.095 23.2587V10.4853C110.093 10.4494 110.098 10.4134 110.111 10.3797C110.124 10.346 110.144 10.3154 110.169 10.29C110.195 10.2645 110.226 10.2448 110.26 10.2321C110.294 10.2194 110.33 10.214 110.366 10.2163H110.767C110.834 10.2166 110.901 10.2334 110.96 10.2653C111.019 10.2972 111.069 10.3431 111.106 10.399L117.067 18.6603L123.034 10.399C123.069 10.3434 123.117 10.2974 123.175 10.2655C123.232 10.2336 123.297 10.2167 123.363 10.2163" fill="white"/>
    <path d="M144.118 10.6971V23.2578C144.116 23.3288 144.087 23.3964 144.037 23.4465C143.986 23.4967 143.918 23.5255 143.847 23.5266H142.605C142.533 23.5255 142.465 23.4967 142.414 23.4465C142.364 23.3964 142.335 23.3288 142.334 23.2578V17.5354H134.117V23.2578C134.116 23.3288 134.087 23.3964 134.036 23.4465C133.986 23.4967 133.918 23.5255 133.846 23.5266H132.604C132.532 23.5255 132.464 23.4967 132.414 23.4465C132.363 23.3964 132.334 23.3288 132.333 23.2578V10.6971C132.334 10.6262 132.363 10.5584 132.414 10.5083C132.464 10.4581 132.532 10.4294 132.604 10.4282H133.846C133.918 10.4294 133.986 10.4581 134.036 10.5083C134.087 10.5584 134.116 10.6262 134.117 10.6971V16.0329H142.334V10.6971C142.335 10.6262 142.364 10.5584 142.414 10.5083C142.465 10.4581 142.533 10.4294 142.605 10.4282H143.847C143.918 10.4294 143.986 10.4581 144.037 10.5083C144.087 10.5584 144.116 10.6262 144.118 10.6971Z" fill="white"/>
    <path d="M165.232 16.9775C165.219 18.2955 164.813 19.5802 164.067 20.67C163.32 21.7598 162.264 22.6057 161.034 23.1015C159.803 23.5971 158.452 23.7203 157.151 23.4555C155.85 23.1907 154.657 22.5497 153.722 21.6131C152.787 20.6768 152.153 19.4867 151.898 18.193C151.644 16.8995 151.781 15.56 152.292 14.3435C152.803 13.1269 153.665 12.0877 154.771 11.3567C155.876 10.6257 157.174 10.2356 158.503 10.2355C159.395 10.2231 160.281 10.3894 161.107 10.7246C161.933 11.0599 162.684 11.557 163.313 12.1865C163.941 12.8159 164.434 13.5646 164.764 14.3878C165.094 15.211 165.253 16.0917 165.232 16.9775ZM163.365 16.9775C163.365 13.8748 161.326 11.7381 158.503 11.7381C155.679 11.7381 153.64 13.8748 153.64 16.9775C153.64 20.08 155.679 22.2169 158.503 22.2169C161.326 22.2169 163.365 20.08 163.365 16.9775Z" fill="white"/>
    <path d="M182.23 22.2919V23.2578C182.233 23.2936 182.227 23.3297 182.214 23.3633C182.201 23.397 182.182 23.4275 182.156 23.4529C182.131 23.4785 182.099 23.4982 182.065 23.511C182.032 23.5236 181.995 23.529 181.96 23.5266H173.159C173.087 23.5255 173.02 23.4967 172.969 23.4465C172.917 23.3964 172.889 23.3288 172.889 23.2578V10.6971C172.889 10.6262 172.917 10.5584 172.969 10.5083C173.02 10.4581 173.087 10.4294 173.159 10.4282H174.401C174.472 10.4297 174.54 10.4585 174.591 10.5086C174.64 10.5588 174.669 10.6264 174.671 10.6971V22.0231H181.963C181.998 22.0207 182.035 22.0261 182.069 22.0387C182.104 22.0515 182.134 22.0712 182.16 22.0966C182.185 22.1221 182.204 22.1527 182.217 22.1864C182.23 22.2199 182.236 22.2559 182.233 22.2919" fill="white"/>
    <path d="M199.375 22.2905V23.2563C199.378 23.2922 199.372 23.3282 199.359 23.3619C199.346 23.3956 199.327 23.4262 199.302 23.4516C199.276 23.477 199.244 23.4968 199.211 23.5094C199.177 23.5222 199.14 23.5275 199.105 23.5252H189.601C189.529 23.5241 189.462 23.4954 189.411 23.4452C189.359 23.395 189.331 23.3272 189.329 23.2563V10.6957C189.331 10.6247 189.359 10.557 189.411 10.5068C189.462 10.4566 189.529 10.4279 189.601 10.4268H198.889C198.925 10.4245 198.961 10.4299 198.995 10.4426C199.028 10.4553 199.06 10.475 199.086 10.5004C199.112 10.5259 199.131 10.5565 199.143 10.5901C199.156 10.6238 199.163 10.6598 199.159 10.6957V11.6616C199.163 11.6975 199.156 11.7335 199.143 11.7671C199.131 11.8008 199.112 11.8314 199.086 11.8568C199.06 11.8823 199.028 11.902 198.995 11.9147C198.961 11.9274 198.925 11.9328 198.889 11.9305H191.111V16.0314H198.023C198.06 16.0292 198.095 16.0344 198.129 16.0467C198.162 16.0592 198.193 16.0784 198.218 16.1033C198.244 16.1281 198.263 16.158 198.277 16.1911C198.29 16.224 198.295 16.2593 198.293 16.2948V17.2662C198.296 17.302 198.29 17.3378 198.277 17.3712C198.264 17.4046 198.245 17.4349 198.22 17.4603C198.194 17.4856 198.164 17.5052 198.13 17.518C198.097 17.5307 198.06 17.5361 198.023 17.534H191.111V22.0215H199.105C199.142 22.0193 199.179 22.0246 199.212 22.0373C199.246 22.05 199.276 22.0698 199.302 22.0952C199.327 22.1206 199.348 22.1513 199.361 22.1849C199.374 22.2186 199.378 22.2545 199.377 22.2905" fill="white"/>
    <path d="M17.3816 34.8757C12.7752 34.8726 8.35827 33.0426 5.09969 29.7869C1.84111 26.5313 0.00708107 22.116 0 17.5098C0.00708007 12.9033 1.84102 8.48772 5.09953 5.23171C8.35805 1.9757 12.775 0.145137 17.3816 0.141602C21.988 0.145137 26.4049 1.9757 29.6634 5.23171C32.9219 8.48772 34.7558 12.9033 34.763 17.5098C34.7558 22.116 32.9219 26.5313 29.6634 29.7869C26.4047 33.0426 21.9878 34.8726 17.3816 34.8757ZM17.3816 1.47864C13.1295 1.48159 9.05221 3.17111 6.04431 6.1765C3.03642 9.1819 1.34353 13.2577 1.33704 17.5098C1.34117 21.7623 3.0334 25.8393 6.04186 28.8448C9.05033 31.8503 13.1289 33.5386 17.3816 33.5386C21.634 33.5386 25.7127 31.8503 28.7211 28.8448C31.7297 25.8393 33.4218 21.7623 33.426 17.5098C33.4194 13.2577 31.7265 9.1819 28.7187 6.1765C25.7108 3.17111 21.6335 1.48159 17.3816 1.47864Z" fill="white"/>
    <path d="M19.5786 32.1287C15.7623 32.1256 12.1031 30.6091 9.40353 27.9117C6.70398 25.2142 5.18461 21.5561 5.17871 17.7398C5.18461 13.9236 6.70398 10.2655 9.40353 7.56803C12.1031 4.87057 15.7623 3.35403 19.5786 3.35107C23.3949 3.35403 27.054 4.87057 29.7537 7.56803C32.4531 10.2655 33.9725 13.9236 33.9784 17.7398C33.9725 21.5561 32.4531 25.2142 29.7537 27.9117C27.054 30.6091 23.3949 32.1256 19.5786 32.1287ZM19.5786 4.38952C16.038 4.39246 12.643 5.79968 10.1386 8.30247C7.63413 10.8052 6.22467 14.1992 6.21936 17.7398C6.22526 21.2801 7.63501 24.6735 10.1394 27.1758C12.6438 29.6782 16.0383 31.0851 19.5786 31.0879C23.1188 31.0851 26.5134 29.6782 29.0177 27.1758C31.5222 24.6735 32.932 21.2801 32.9379 17.7398C32.932 14.1996 31.5222 10.8062 29.0177 8.30388C26.5134 5.80159 23.1188 4.3947 19.5786 4.39176V4.38952Z" fill="white"/>
    <path d="M21.7768 29.3823C18.7506 29.3799 15.8491 28.1774 13.7085 26.0385C11.5679 23.8996 10.3631 20.9989 10.3584 17.9728C10.3631 14.9468 11.5679 12.0462 13.7085 9.90727C15.8491 7.76837 18.7506 6.56584 21.7768 6.56348C24.8029 6.56525 27.7049 7.76759 29.8455 9.90662C31.9862 12.0457 33.1909 14.9466 33.1949 17.9728C33.1903 20.9989 31.9854 23.8996 29.8448 26.0385C27.7042 28.1774 24.8027 29.3799 21.7768 29.3823ZM21.7768 7.30552C18.9474 7.3073 16.2341 8.43145 14.2325 10.4313C12.231 12.4312 11.1046 15.1434 11.1004 17.9728C11.1051 20.8019 12.2319 23.5135 14.2333 25.513C16.2348 27.5123 18.9477 28.6363 21.7768 28.638C24.6057 28.6363 27.3186 27.5123 29.3201 25.513C31.3215 23.5135 32.4482 20.8019 32.453 17.9728C32.4489 15.1434 31.3223 12.4312 29.3208 10.4313C27.3192 8.43145 24.6062 7.3073 21.7768 7.30552Z" fill="white"/>
    <path d="M23.9738 26.6352C21.7379 26.6335 19.594 25.7449 18.0124 24.1646C16.4309 22.5842 15.5406 20.441 15.5371 18.2052C15.5401 15.969 16.4299 13.8252 18.0116 12.2444C19.5934 10.6635 21.7376 9.77472 23.9738 9.77295C26.2101 9.77472 28.3542 10.6635 29.9359 12.2444C31.5176 13.8252 32.4075 15.969 32.4105 18.2052C32.4069 20.441 31.5168 22.5842 29.9351 24.1646C28.3536 25.7449 26.2096 26.6335 23.9738 26.6352ZM23.9738 10.2186C21.8557 10.2204 19.8249 11.0622 18.3268 12.5595C16.8287 14.0568 15.9858 16.0871 15.9828 18.2052C15.9863 20.3228 16.8296 22.3526 18.3276 23.8495C19.8256 25.3462 21.8562 26.1878 23.9738 26.1895C26.0914 26.1878 28.122 25.3462 29.62 23.8495C31.1179 22.3526 31.9613 20.3228 31.9648 18.2052C31.9618 16.0871 31.1189 14.0568 29.6208 12.5595C28.1228 11.0622 26.0918 10.2204 23.9738 10.2186Z" fill="white"/>
  </g>
  <defs>
    <clipPath id="clip0_164_137">
      <rect width="199.452" height="35" fill="white"/>
    </clipPath>
  </defs>
</svg>