<svg width="160" height="160" viewBox="0 0 160 160" fill="none" xmlns="http://www.w3.org/2000/svg">
<g id="2_&#208;&#156;&#208;&#190;&#208;&#189;&#209;&#130;&#208;&#176;&#208;&#182;&#208;&#189;&#208;&#176;&#209;&#143; &#208;&#190;&#208;&#177;&#208;&#187;&#208;&#176;&#209;&#129;&#209;&#130;&#209;&#140; 2">
<g id="Group" opacity="0.9">
<path id="Vector" d="M80.0771 45.9553C90.7748 45.9553 99.4471 37.2786 99.4471 26.5753C99.4471 15.872 90.7748 7.19531 80.0771 7.19531C69.3793 7.19531 60.707 15.872 60.707 26.5753C60.707 37.2786 69.3793 45.9553 80.0771 45.9553Z" stroke="white" stroke-width="0.6" stroke-miterlimit="10"/>
<path id="Vector_2" d="M100.648 29.7912C100.684 18.4308 91.5079 9.19242 80.153 9.15674C68.7981 9.12107 59.5642 18.3016 59.5285 29.662C59.4928 41.0225 68.6688 50.2609 80.0238 50.2965C91.3787 50.3322 100.613 41.1517 100.648 29.7912Z" stroke="white" stroke-width="0.6" stroke-miterlimit="10"/>
<path id="Vector_3" d="M80.1069 54.8114C92.213 54.7903 102.01 44.9503 101.989 32.8332C101.967 20.7161 92.1364 10.9103 80.0303 10.9315C67.9243 10.9526 58.1275 20.7926 58.1486 32.9097C58.1698 45.0268 68.0009 54.8325 80.1069 54.8114Z" stroke="white" stroke-width="0.6" stroke-miterlimit="10"/>
<path id="Vector_4" d="M80.1386 59.4265C93.0786 59.3994 103.547 48.8785 103.519 35.9275C103.492 22.9764 92.9803 12.4995 80.0403 12.5266C67.1003 12.5537 56.6323 23.0746 56.6595 36.0256C56.6866 48.9767 67.1985 59.4536 80.1386 59.4265Z" stroke="white" stroke-width="0.6" stroke-miterlimit="10"/>
<path id="Vector_5" d="M80.0766 64.2152C93.9169 64.2152 105.137 52.9865 105.137 39.1352C105.137 25.2839 93.9169 14.0552 80.0766 14.0552C66.2363 14.0552 55.0166 25.2839 55.0166 39.1352C55.0166 52.9865 66.2363 64.2152 80.0766 64.2152Z" stroke="white" stroke-width="0.6" stroke-miterlimit="10"/>
<path id="Vector_6" d="M80.0769 69.0751C94.8671 69.0751 106.857 57.0763 106.857 42.2751C106.857 27.4739 94.8671 15.4751 80.0769 15.4751C65.2867 15.4751 53.2969 27.4739 53.2969 42.2751C53.2969 57.0763 65.2867 69.0751 80.0769 69.0751Z" stroke="white" stroke-width="0.6" stroke-miterlimit="10"/>
<path id="Vector_7" d="M80.0773 74.0354C95.8672 74.0354 108.667 61.2263 108.667 45.4254C108.667 29.6246 95.8672 16.8154 80.0773 16.8154C64.2875 16.8154 51.4873 29.6246 51.4873 45.4254C51.4873 61.2263 64.2875 74.0354 80.0773 74.0354Z" stroke="white" stroke-width="0.6" stroke-miterlimit="10"/>
<path id="Vector_8" d="M109.947 48.0551C109.947 31.2215 96.3099 17.5752 79.4873 17.5752C62.6647 17.5752 49.0273 31.2215 49.0273 48.0551C49.0273 64.8888 62.6647 78.5352 79.4873 78.5352C96.3099 78.5352 109.947 64.8888 109.947 48.0551Z" stroke="white" stroke-width="0.6" stroke-miterlimit="10"/>
<path id="Vector_9" d="M108.127 67.8151C104.939 73.3702 100.176 77.8556 94.4395 80.7042C88.703 83.5529 82.2509 84.6368 75.8985 83.8192C69.5461 83.0015 63.5788 80.3189 58.7507 76.1105C53.9227 71.902 50.4507 66.3566 48.7736 60.1753C47.0966 53.994 47.2898 47.4542 49.3288 41.3827C51.3677 35.3111 55.161 29.9804 60.229 26.0643C65.2971 22.1481 71.4124 19.8225 77.802 19.3812C84.1915 18.9399 90.5685 20.4029 96.1268 23.5851C99.8234 25.697 103.067 28.5175 105.672 31.8851C108.276 35.2526 110.191 39.1011 111.305 43.2098C112.42 47.3186 112.713 51.607 112.168 55.8292C111.622 60.0514 110.249 64.1245 108.127 67.8151Z" stroke="white" stroke-width="0.6" stroke-miterlimit="10"/>
<path id="Vector_10" d="M80.0766 89.2151C99.0476 89.2151 114.427 73.8271 114.427 54.8451C114.427 35.8631 99.0476 20.4751 80.0766 20.4751C61.1056 20.4751 45.7266 35.8631 45.7266 54.8451C45.7266 73.8271 61.1056 89.2151 80.0766 89.2151Z" stroke="white" stroke-width="0.6" stroke-miterlimit="10"/>
<path id="Vector_11" d="M80.0766 94.3655C100.152 94.3655 116.427 78.0776 116.427 57.9855C116.427 37.8934 100.152 21.6055 80.0766 21.6055C60.001 21.6055 43.7266 37.8934 43.7266 57.9855C43.7266 78.0776 60.001 94.3655 80.0766 94.3655Z" stroke="white" stroke-width="0.6" stroke-miterlimit="10"/>
<path id="Vector_12" d="M80.0765 99.5451C101.279 99.5451 118.467 82.3439 118.467 61.1251C118.467 39.9063 101.279 22.7051 80.0765 22.7051C58.8743 22.7051 41.6865 39.9063 41.6865 61.1251C41.6865 82.3439 58.8743 99.5451 80.0765 99.5451Z" stroke="white" stroke-width="0.6" stroke-miterlimit="10"/>
<path id="Vector_13" d="M80.0772 104.755C102.423 104.755 120.537 86.6274 120.537 64.2654C120.537 41.9034 102.423 23.7754 80.0772 23.7754C57.7318 23.7754 39.6172 41.9034 39.6172 64.2654C39.6172 86.6274 57.7318 104.755 80.0772 104.755Z" stroke="white" stroke-width="0.6" stroke-miterlimit="10"/>
<path id="Vector_14" d="M80.0771 109.995C103.571 109.995 122.617 90.9317 122.617 67.4154C122.617 43.8992 103.571 24.8354 80.0771 24.8354C56.5829 24.8354 37.5371 43.8992 37.5371 67.4154C37.5371 90.9317 56.5829 109.995 80.0771 109.995Z" stroke="white" stroke-width="0.6" stroke-miterlimit="10"/>
<path id="Vector_15" d="M80.0768 115.235C104.736 115.235 124.727 95.2316 124.727 70.5555C124.727 45.8794 104.736 25.8755 80.0768 25.8755C55.4173 25.8755 35.4268 45.8794 35.4268 70.5555C35.4268 95.2316 55.4173 115.235 80.0768 115.235Z" stroke="white" stroke-width="0.6" stroke-miterlimit="10"/>
<path id="Vector_16" d="M80.0767 120.505C105.907 120.505 126.847 99.5477 126.847 73.6953C126.847 47.8428 105.907 26.8853 80.0767 26.8853C54.2463 26.8853 33.3066 47.8428 33.3066 73.6953C33.3066 99.5477 54.2463 120.505 80.0767 120.505Z" stroke="white" stroke-width="0.6" stroke-miterlimit="10"/>
<path id="Vector_17" d="M80.077 125.785C107.089 125.785 128.987 103.87 128.987 76.8353C128.987 49.8009 107.089 27.8853 80.077 27.8853C53.0648 27.8853 31.167 49.8009 31.167 76.8353C31.167 103.87 53.0648 125.785 80.077 125.785Z" stroke="white" stroke-width="0.6" stroke-miterlimit="10"/>
<path id="Vector_18" d="M80.0768 131.075C108.282 131.075 131.147 108.197 131.147 79.9755C131.147 51.7537 108.282 28.8755 80.0768 28.8755C51.8717 28.8755 29.0068 51.7537 29.0068 79.9755C29.0068 108.197 51.8717 131.075 80.0768 131.075Z" stroke="white" stroke-width="0.6" stroke-miterlimit="10"/>
<path id="Vector_19" d="M80.0767 136.385C109.475 136.385 133.307 112.535 133.307 83.1152C133.307 53.695 109.475 29.8452 80.0767 29.8452C50.6786 29.8452 26.8467 53.695 26.8467 83.1152C26.8467 112.535 50.6786 136.385 80.0767 136.385Z" stroke="white" stroke-width="0.6" stroke-miterlimit="10"/>
<path id="Vector_20" d="M80.0768 141.695C110.673 141.695 135.477 116.874 135.477 86.2554C135.477 55.6368 110.673 30.8154 80.0768 30.8154C49.4802 30.8154 24.6768 55.6368 24.6768 86.2554C24.6768 116.874 49.4802 141.695 80.0768 141.695Z" stroke="white" stroke-width="0.6" stroke-miterlimit="10"/>
<path id="Vector_21" d="M80.0773 147.035C111.883 147.035 137.667 121.234 137.667 89.4054C137.667 57.5772 111.883 31.7754 80.0773 31.7754C48.2712 31.7754 22.4873 57.5772 22.4873 89.4054C22.4873 121.234 48.2712 147.035 80.0773 147.035Z" stroke="white" stroke-width="0.6" stroke-miterlimit="10"/>
<path id="Vector_22" d="M80.0769 152.365C113.092 152.365 139.857 125.583 139.857 92.5451C139.857 59.5074 113.092 32.7251 80.0769 32.7251C47.0613 32.7251 20.2969 59.5074 20.2969 92.5451C20.2969 125.583 47.0613 152.365 80.0769 152.365Z" stroke="white" stroke-width="0.6" stroke-miterlimit="10"/>
</g>
</g>
</svg>
