<svg xmlns="http://www.w3.org/2000/svg" width="122" height="35" viewBox="0 0 122 35" fill="none">
  <path fill-rule="evenodd" clip-rule="evenodd" d="M19.1039 1.47677L19.1677 1.51359C20.6084 2.34556 23.0847 3.77549 24.7227 4.72928C30.5476 8.07214 30.6894 8.16249 31.0115 8.73038C31.2564 9.16921 31.295 9.44026 31.295 10.5631C31.295 11.2859 31.2435 11.97 31.1791 12.0991C31.1017 12.2152 29.7486 13.08 28.1506 13.9964C26.5526 14.9127 25.2897 15.7 25.3412 15.7388C25.3928 15.7904 26.5784 16.4874 27.9831 17.2876C29.7486 18.3072 30.6507 18.9009 30.8827 19.2107L31.2306 19.6624L31.2693 22.5665C31.295 24.3347 31.2564 25.6512 31.1791 25.9222C31.1702 25.9517 31.1622 25.9798 31.1546 26.0068L31.1541 26.0085L31.154 26.0086C31.1392 26.061 31.1255 26.1094 31.1084 26.1566C30.9018 26.7294 30.2092 27.1264 21.1099 32.342C20.723 32.5638 20.3208 32.7943 19.9029 33.0339C19.6267 33.1923 19.3698 33.3406 19.13 33.479C17.2504 34.5643 16.4233 35.0417 15.6254 34.9972C14.9985 34.9621 14.3895 34.6048 13.3022 33.9669C13.116 33.8576 12.9158 33.7402 12.6991 33.6147C11.3717 32.8403 10.2248 32.1433 10.1474 32.04C10.0701 31.9497 10.0443 31.769 10.083 31.6399C10.1345 31.498 11.4232 30.6719 13.2145 29.6394C14.9027 28.6714 17.4157 27.2258 18.7946 26.4256C20.1735 25.6254 22.0808 24.5283 23.0216 23.9991C23.9623 23.457 24.7484 22.9537 24.7613 22.8891C24.7871 22.7213 19.2199 19.4688 18.9106 19.4688C18.7173 19.4688 10.1088 24.3605 4.45136 27.6776C4.03897 27.9228 3.58793 28.1164 3.44617 28.1164C3.08533 28.1164 1.17806 26.9806 0.817221 26.5418C0.391948 26.0384 0.237305 25.406 0.237305 24.154C0.237305 23.2376 0.275964 23.0569 0.533705 22.7859C0.68835 22.6052 4.59312 20.2949 9.19379 17.649L11.1382 16.5323C21.2599 10.7198 21.6356 10.504 21.6117 10.3509C21.61 10.3402 21.6064 10.3299 21.604 10.3179C21.5782 10.2147 20.3153 9.41444 18.7946 8.53678C16.7198 7.33645 15.9466 6.94925 15.7017 7.00087C15.5213 7.02669 14.8254 7.37517 14.1553 7.76237C12.9439 8.45934 10.0057 10.1501 4.06475 13.5704C2.38944 14.5384 0.920317 15.3387 0.817221 15.3387C0.727012 15.3387 0.54659 15.2483 0.443494 15.1322C0.263075 14.9644 0.237305 14.5255 0.237305 12.3314C0.237305 9.54351 0.327514 8.97561 0.817221 8.3819C0.99764 8.17539 2.28634 7.34936 3.67814 6.54914C5.03184 5.77796 8.00129 4.07181 10.4065 2.68983L10.6758 2.53513C11.1186 2.28027 11.5215 2.04611 11.89 1.83199L11.8906 1.83167L11.8937 1.82982L11.8944 1.82945L11.8945 1.82935C14.2032 0.487779 15.1563 -0.0661102 16.0595 0.00623792C16.6945 0.0571095 17.3048 0.417597 18.3442 1.03157L18.3444 1.03168L18.3445 1.03174L18.3448 1.03193C18.5751 1.16797 18.8265 1.31646 19.1039 1.47677ZM47.1719 8.64003C48.7312 8.97561 50.007 9.89199 50.6256 11.144C50.9091 11.7119 50.9478 11.9571 50.9478 13.209C50.9478 14.8869 50.7416 15.4032 49.7106 16.3841L49.0791 16.9907L49.4271 17.0682C50.2776 17.2876 51.6308 18.5525 52.0818 19.585C52.636 20.837 52.4684 22.8891 51.7081 24.1927C51.3344 24.8252 50.3421 25.6512 49.556 25.9739C48.3575 26.4643 47.275 26.5676 43.2284 26.5676C41.0763 26.5676 39.2206 26.5288 39.1046 26.4901C38.9242 26.4127 38.8984 25.5092 38.8984 17.5328C38.8984 10.5502 38.937 8.64003 39.0659 8.58841C39.3881 8.44643 46.5017 8.49806 47.1719 8.64003ZM56.399 8.7562C57.0176 9.1434 57.3268 9.72421 57.3268 10.5631C57.3268 11.8151 56.5407 12.6282 55.3294 12.6282C54.4917 12.6282 53.8989 12.3056 53.5252 11.6602C52.8551 10.5373 53.3061 9.13049 54.4917 8.60132C54.917 8.42062 55.9737 8.49806 56.399 8.7562ZM71.8119 8.83364C71.8505 8.9498 71.8892 10.5502 71.8892 12.4088V15.7904L72.5722 15.0676C72.933 14.6804 74.4279 13.0671 75.8713 11.4924L78.5131 8.62713L80.575 8.65294C82.0313 8.67876 82.6499 8.73038 82.6499 8.83364C82.6499 8.97561 80.923 10.9116 77.3791 14.6933C76.4899 15.6484 75.7553 16.4745 75.7553 16.5261C75.7553 16.5906 77.3533 18.7719 79.2992 21.3919C81.2709 24.0507 82.8432 26.2836 82.8432 26.4385C82.8432 26.6966 82.7916 26.6966 80.8843 26.6708L78.9126 26.6321L76.2708 23.1215C75.2936 21.8224 74.4093 20.6337 73.906 19.9571L73.9055 19.9565L73.9031 19.9532C73.658 19.6237 73.5038 19.4166 73.4743 19.3785C73.3454 19.172 73.2552 19.2107 72.6109 19.856L71.8892 20.553V23.4054C71.8892 25.4963 71.8505 26.3223 71.7217 26.4772C71.5799 26.6708 71.3479 26.6966 69.7628 26.6708L67.9586 26.6321L67.92 17.7909C67.9071 12.9251 67.92 8.87236 67.9586 8.78201C67.9973 8.66585 68.4999 8.62713 69.8788 8.62713C71.451 8.62713 71.7474 8.65294 71.8119 8.83364ZM64.3889 10.2018C64.492 10.305 64.5436 10.9245 64.5436 12.1378V13.9189H65.6132C66.2704 13.9189 66.7473 13.9834 66.8375 14.0738C67.0179 14.2545 67.0437 16.6035 66.8632 16.8875L66.8616 16.8902C66.8343 16.9368 66.8131 16.9728 66.7843 17.0008C66.6866 17.0959 66.5002 17.0996 65.6818 17.1158L65.4843 17.1198L64.5436 17.1456V21.6501C64.5436 24.1282 64.5049 26.2449 64.4663 26.3611C64.3503 26.6708 60.7419 26.6708 60.6259 26.3611C60.5873 26.2449 60.5486 24.1282 60.5486 21.6501V17.1456L59.6852 17.1327C59.1955 17.1198 58.7573 17.1198 58.7058 17.1327C58.6542 17.1456 58.4867 17.094 58.3578 17.0165C58.1258 16.8875 58.1001 16.7326 58.1001 15.4806C58.1001 15.4128 58.1 15.3479 58.0998 15.2858C58.0986 14.5782 58.0981 14.236 58.2685 14.0709C58.4281 13.9164 58.7377 13.9171 59.3372 13.9186C59.3986 13.9188 59.4629 13.9189 59.5305 13.9189H60.5486V12.1894C60.5486 11.2343 60.5873 10.3695 60.6259 10.2534C60.6904 10.0727 60.9739 10.0469 62.4688 10.0469C63.6673 10.0469 64.2858 10.0985 64.3889 10.2018ZM89.2867 13.8028C91.3099 14.2674 92.9466 15.8678 93.5909 18.0491C93.81 18.759 93.8873 20.7595 93.7198 21.1854C93.5652 21.6114 92.8048 21.6759 89.0547 21.6372L88.7438 21.6342C86.3369 21.6112 85.4843 21.6031 85.4046 21.8476C85.3608 21.9818 85.5495 22.1919 85.8418 22.5174L85.8974 22.5794C86.5675 23.328 87.0701 23.5087 88.449 23.5216C89.4671 23.5345 89.712 23.4828 90.4078 23.1602C90.846 22.9666 91.2584 22.8117 91.3357 22.8375C91.6192 22.9537 93.0239 24.2831 93.0239 24.4509C93.0239 24.5541 92.8048 24.851 92.5471 25.0962C91.3099 26.232 89.4027 26.9031 87.7402 26.7741C85.7814 26.6192 84.5443 26.0771 83.2813 24.8122C82.0055 23.5345 81.4385 22.1147 81.4256 20.1787C81.4256 17.236 83.1267 14.8611 85.8587 13.9705C86.8639 13.6479 88.2944 13.5704 89.2867 13.8028ZM102.767 13.8415C104.365 14.2674 105.718 15.3903 106.478 16.9004C107.032 18.0104 107.238 18.9784 107.174 20.1916C107.17 20.2717 107.168 20.3473 107.166 20.4185C107.153 20.7885 107.145 21.0419 107.024 21.2166C106.76 21.5966 105.962 21.6045 103.429 21.6296C103.197 21.6319 102.951 21.6343 102.689 21.6372L98.6942 21.6759L98.9519 22.1664C99.287 22.8246 99.7381 23.1731 100.614 23.4183C101.581 23.7023 102.831 23.599 103.707 23.1602C104.068 22.9795 104.468 22.8246 104.584 22.8246C104.88 22.8246 106.298 24.2443 106.298 24.5283C106.298 24.851 105.305 25.6512 104.3 26.1287C101.297 27.5743 97.5215 26.5159 95.7431 23.741C93.4105 20.1142 95.3565 14.9773 99.4803 13.8673C100.37 13.6221 101.916 13.6091 102.767 13.8415ZM117.007 13.9189C120.718 15.0547 122.458 19.5205 120.705 23.3667C120.525 23.741 120.061 24.4121 119.661 24.8381C117.819 26.8386 114.906 27.3678 112.793 26.1029C112.393 25.8577 112.058 25.6641 112.045 25.6641C112.045 25.6641 112.045 26.9031 112.071 28.4132C112.11 30.6977 112.084 31.2011 111.929 31.3302C111.8 31.4334 111.208 31.4721 109.957 31.4463L108.166 31.4076V13.9834L109.803 13.9447C109.933 13.9419 110.054 13.939 110.165 13.9362C110.95 13.9168 111.269 13.9089 111.425 14.0647C111.531 14.1715 111.561 14.3551 111.611 14.6644C111.616 14.6951 111.621 14.7269 111.627 14.7601L111.631 14.7901L111.637 14.8217L111.641 14.8495C111.643 14.8576 111.644 14.8658 111.646 14.874C111.723 15.3387 111.736 15.3516 111.903 15.1192C112.174 14.732 113.076 14.1512 113.811 13.906C114.7 13.5962 115.989 13.5962 117.007 13.9189ZM57.198 15.4032C57.2366 16.1776 57.2366 19.0042 57.198 21.663L57.1335 26.503H53.3963L53.3576 20.3723C53.3448 17.0036 53.3576 14.1641 53.3963 14.0738C53.435 13.9447 53.8989 13.9189 55.2907 13.9447L57.1335 13.9834L57.198 15.4032ZM43.0222 15.4677L44.414 15.4548C45.1744 15.4548 45.9862 15.3903 46.2311 15.2999C47.4683 14.8611 47.6229 12.8735 46.4631 12.3314C46.128 12.1636 45.6512 12.112 44.5171 12.112H43.0222V15.4677ZM43.0222 22.9795V18.7977L44.9295 18.8493C46.6564 18.888 46.8755 18.9138 47.4038 19.2107C48.0868 19.5979 48.3188 20.0109 48.3317 20.8886C48.3317 21.6759 48.0224 22.2567 47.4038 22.631C47.0172 22.8504 46.6821 22.8891 44.994 22.9279L43.0222 22.9795ZM86.9412 17.1456C86.168 17.3779 85.6268 17.9458 85.369 18.7848L85.2788 19.0816H87.7918C89.2738 19.0816 90.3176 19.03 90.3176 18.9655C90.3176 18.6944 90.0341 18.1007 89.7635 17.8039C89.1578 17.1456 87.9078 16.8488 86.9412 17.1456ZM98.8746 18.333C99.1324 17.8297 99.6221 17.4037 100.202 17.1972C100.872 16.952 102.045 17.0424 102.612 17.4037C103.063 17.6748 103.488 18.2427 103.656 18.7848L103.733 19.0816L101.084 19.0816C99.3697 19.0818 98.79 19.0818 98.7007 18.8722C98.655 18.7652 98.7372 18.6034 98.8613 18.3592L98.8746 18.333ZM113.978 17.365C112.883 17.649 112.097 18.8364 112.097 20.2045C112.097 21.663 112.78 22.6826 113.991 23.0311C115.963 23.599 117.793 22.0631 117.599 20.0109C117.458 18.333 116.311 17.2489 114.739 17.2876C114.455 17.3005 114.107 17.3392 113.978 17.365Z" fill="white"/>
</svg>