<svg xmlns="http://www.w3.org/2000/svg" width="130" height="35" viewBox="0 0 130 35" fill="none">
  <path d="M14.9686 27.1571L21.5238 24.933C21.992 24.816 22.2261 24.2307 22.1091 23.7625L16.7245 10.5351C16.6074 10.0669 16.6074 9.59863 16.9586 9.36452L24.8014 1.40468C25.3866 0.936452 25.0355 0 24.3331 0H8.64756C8.41344 0 8.17933 0.117056 8.06227 0.351169L0.687713 8.66218C-0.248739 9.83274 -0.131682 11.3545 0.921826 12.408L14.0322 26.923C14.2663 27.1571 14.6174 27.2742 14.9686 27.1571Z" fill="white"/>
  <path d="M23.7457 19.6657C24.78 19.6657 25.6186 18.8272 25.6186 17.7928C25.6186 16.7584 24.78 15.9199 23.7457 15.9199C22.7113 15.9199 21.8728 16.7584 21.8728 17.7928C21.8728 18.8272 22.7113 19.6657 23.7457 19.6657Z" fill="white"/>
  <path d="M23.7463 28.2108C23.6293 27.9767 23.3952 27.8596 23.161 27.9767L12.9771 30.786C12.5089 31.0202 12.626 31.6054 12.9771 31.6054H18.0106C18.1276 31.6054 18.2447 31.6054 18.3617 31.7225L21.1711 34.883C21.2881 35.0001 21.4052 35.0001 21.5223 35.0001H25.8533C26.2045 35.0001 26.4386 34.6489 26.3216 34.4148L23.7463 28.2108Z" fill="white"/>
  <path d="M49.5019 0.351275C49.2678 0.117162 49.0337 0.000105472 48.7995 0.000105472H33.231C32.5287 0.000105472 32.1775 0.936557 32.7628 1.40478L40.6056 9.36462C40.9568 9.71579 41.0738 10.184 40.8397 10.5352L35.5722 23.7626C35.3381 24.2308 35.5722 24.8161 36.1574 24.9331L42.7126 27.1572C43.0638 27.2743 43.415 27.1572 43.6491 26.9231L56.6423 12.4081C57.6958 11.3546 57.8129 9.83285 56.8764 8.66228L49.5019 0.351275Z" fill="white"/>
  <path d="M33.8144 19.6657C34.8488 19.6657 35.6873 18.8272 35.6873 17.7928C35.6873 16.7584 34.8488 15.9199 33.8144 15.9199C32.7801 15.9199 31.9415 16.7584 31.9415 17.7928C31.9415 18.8272 32.7801 19.6657 33.8144 19.6657Z" fill="white"/>
  <path d="M44.5848 30.7859L34.2838 27.8595C34.0497 27.7425 33.8156 27.8595 33.6985 28.0936L31.2403 34.2976C31.1233 34.6488 31.3574 34.8829 31.7085 34.8829H36.0396C36.1567 34.8829 36.2737 34.8829 36.3908 34.7658L39.2002 31.6053C39.3172 31.4883 39.4343 31.4883 39.5513 31.4883H44.5848C44.9359 31.6053 44.9359 31.02 44.5848 30.7859Z" fill="white"/>
  <path d="M83.7998 25.0101V8.00684H94.4601V10.2153H86.3652V15.396H93.9038V17.5961H86.3652V22.8017H94.5597V25.0101H83.7998Z" fill="white"/>
  <path d="M97.8869 25.0101V8.00684H100.452V22.8017H108.157V25.0101H97.8869Z" fill="white"/>
  <path d="M111.084 25.0101V8.00684H113.649V22.8017H121.354V25.0101H111.084Z" fill="white"/>
  <path d="M126.846 8.00684V25.0101H124.28V8.00684H126.846Z" fill="white"/>
</svg>