<svg xmlns="http://www.w3.org/2000/svg" width="149" height="33" viewBox="0 0 149 33" fill="none">
  <mask id="mask0_164_322" style="mask-type:luminance" maskUnits="userSpaceOnUse" x="0" y="0" width="149" height="33">
    <path d="M148.839 0.710938H0.00683594V32.2888H148.839V0.710938Z" fill="white"/>
  </mask>
  <g mask="url(#mask0_164_322)">
    <path d="M23.6909 16.4928H7.90625C7.90625 12.1574 11.4553 8.59473 15.8058 8.59473C20.1562 8.59473 23.7053 12.1431 23.7053 16.4928H23.6909Z" fill="white"/>
    <path d="M15.7916 0.710938C7.07635 0.710938 0.00683594 7.77911 0.00683594 16.4927C0.00683594 25.2063 7.07635 32.2745 15.7916 32.2745C24.5069 32.2745 31.5764 25.2063 31.5764 16.4927C31.5764 7.77911 24.5211 0.710938 15.7916 0.710938ZM15.7916 28.3398C9.2802 28.3398 3.9423 23.0172 3.9423 16.4927C3.9423 9.96825 9.2802 4.65995 15.7916 4.65995C22.303 4.65995 27.6409 9.98256 27.6409 16.507C27.6409 23.0316 22.3172 28.3541 15.7916 28.3541V28.3398Z" fill="white"/>
    <path d="M46.5168 12.2005H50.6956V16.1066H46.5168V28.297H41.7799V16.1066H39.4902V12.2005H41.7799V11.4851C41.7799 9.31027 42.3667 7.62192 43.5545 6.43435C44.7423 5.24678 46.3594 4.66016 48.4059 4.66016C49.5078 4.66016 50.3807 4.81754 51.0533 5.17525V9.23873C50.5381 8.96687 49.9085 8.80949 49.2359 8.80949C48.4917 8.80949 47.8191 9.00981 47.3039 9.43905C46.7887 9.83966 46.5168 10.5408 46.5168 11.528V12.2005Z" fill="white"/>
    <path d="M67.6687 24.477C66.9961 25.822 66.0086 26.8522 64.7492 27.5962C63.49 28.3402 61.9443 28.7408 60.2127 28.7408C58.9534 28.7408 57.8085 28.5405 56.7352 28.1113C55.7049 27.7107 54.8032 27.124 54.0448 26.38C53.3007 25.636 52.6997 24.7203 52.2702 23.6901C51.841 22.6599 51.6406 21.5153 51.6406 20.2561C51.6406 18.997 51.841 17.9239 52.2702 16.8651C52.6997 15.835 53.3007 14.9336 54.0448 14.1752C54.789 13.4312 55.6619 12.8303 56.6922 12.401C57.7227 11.9718 58.8245 11.7715 60.0124 11.7715C61.2002 11.7715 62.345 11.9718 63.3611 12.401C64.3915 12.8303 65.2501 13.4312 65.9656 14.1752C66.6812 14.9193 67.225 15.835 67.6687 16.8938C68.0693 17.9525 68.2554 19.0972 68.2554 20.3707V21.0861C68.2554 21.2864 68.2554 21.4437 68.2125 21.5582H56.3631C56.4061 22.0304 56.5206 22.4596 56.7638 22.8602C57.0071 23.2608 57.279 23.6042 57.6369 23.8904C57.9946 24.1623 58.381 24.4054 58.8675 24.5629C59.2968 24.7203 59.7692 24.8062 60.2843 24.8062C61.1859 24.8062 61.9014 24.6487 62.4166 24.2911C62.9318 23.9333 63.404 23.4611 63.7617 22.8746L67.7832 24.4914H67.6687V24.477ZM63.5614 18.482C63.447 17.6091 63.0892 16.9081 62.4166 16.3501C61.744 15.792 60.9569 15.5202 59.9695 15.5202C59.4973 15.5202 59.0678 15.6061 58.6242 15.7634C58.2235 15.9208 57.8372 16.164 57.5223 16.4359C57.2075 16.7078 56.9355 17.0226 56.7352 17.3802C56.5349 17.738 56.4205 18.0956 56.3345 18.482H63.5614Z" fill="white"/>
    <path d="M85.8305 28.3391L82.4818 18.4666L79.1331 28.3391H75.1403L69.459 12.1997H74.3103L77.43 21.9434L80.7501 12.1997H84.2706L87.5907 21.9434L90.7819 12.1997H95.5188L89.7945 28.3391H85.8447H85.8305Z" fill="white"/>
    <path d="M96.7337 20.2561C96.7337 19.0257 96.934 17.9239 97.3633 16.8651C97.7926 15.835 98.3937 14.9336 99.1379 14.1752C99.8821 13.4312 100.798 12.8303 101.857 12.401C102.916 11.9718 104.061 11.7715 105.334 11.7715C106.05 11.7715 106.722 11.8573 107.424 12.0147C108.139 12.1721 108.769 12.444 109.356 12.7588V17.2229C108.254 16.4359 107.066 16.0353 105.835 16.0353C105.206 16.0353 104.605 16.1498 104.104 16.3501C103.588 16.5504 103.116 16.8651 102.716 17.2229C102.315 17.5805 102 18.0527 101.814 18.5678C101.571 19.0829 101.499 19.6266 101.499 20.2705C101.499 20.9144 101.614 21.4581 101.814 21.9731C102.014 22.4882 102.329 22.9174 102.716 23.3181C103.116 23.6758 103.588 23.9906 104.104 24.1909C104.619 24.3912 105.206 24.5056 105.835 24.5056C106.465 24.5056 107.095 24.3912 107.696 24.1479C108.282 23.9047 108.884 23.6328 109.356 23.2466V27.7393C108.683 28.0969 108.01 28.3688 107.309 28.5263C106.594 28.6836 105.893 28.7694 105.22 28.7694C103.989 28.7694 102.844 28.5691 101.785 28.1399C100.755 27.7393 99.8534 27.1526 99.0663 26.4086C98.3222 25.6646 97.7211 24.7918 97.2917 23.7187C96.8624 22.6599 96.6621 21.5153 96.6621 20.2419L96.7479 20.2847L96.7337 20.2561Z" fill="white"/>
    <path d="M117.528 28.3401H112.748V5.49023H117.528V14.2467C118.043 13.4598 118.673 12.8589 119.46 12.4296C120.247 12.0004 121.191 11.7572 122.308 11.7572C124.168 11.7572 125.628 12.3438 126.644 13.5313C127.674 14.7189 128.218 16.3357 128.218 18.3532V28.2973H123.438V19.4119C123.438 18.3818 123.195 17.5519 122.694 16.9653C122.179 16.3786 121.463 16.0926 120.562 16.0926C119.66 16.0926 118.859 16.4072 118.315 17.0797C117.757 17.7523 117.485 18.6251 117.485 19.7267V28.2973L117.528 28.3401Z" fill="white"/>
    <path d="M148.839 12.2001V28.3396H144.188V26.1647C143.63 26.9946 142.886 27.6241 141.941 28.0533C141.04 28.4827 140.009 28.7259 138.936 28.7259C137.863 28.7259 136.847 28.4827 135.903 28.0533C135.001 27.6241 134.171 27.0232 133.498 26.2792C132.826 25.5352 132.267 24.6195 131.882 23.5892C131.48 22.5591 131.294 21.4573 131.294 20.2412C131.294 19.025 131.495 17.9519 131.882 16.9218C132.281 15.8916 132.826 14.9902 133.498 14.2318C134.171 13.4878 135.001 12.8869 135.903 12.4576C136.805 12.0284 137.835 11.7852 138.936 11.7852C140.039 11.7852 140.982 11.9855 141.941 12.4147C142.843 12.8153 143.602 13.4448 144.188 14.2748V12.1858H148.839V12.2001ZM136.046 20.2555C136.046 20.8422 136.16 21.4001 136.361 21.8723C136.604 22.3874 136.876 22.8166 137.233 23.1744C137.591 23.532 138.02 23.8469 138.536 24.0758C139.051 24.319 139.566 24.3906 140.153 24.3906C140.739 24.3906 141.298 24.2761 141.77 24.0758C142.286 23.8755 142.714 23.5606 143.072 23.1744C143.43 22.7738 143.745 22.3445 143.945 21.8723C144.188 21.3572 144.26 20.8135 144.26 20.2555C144.26 19.6974 144.145 19.1109 143.945 18.6387C143.745 18.1236 143.43 17.6944 143.072 17.3366C142.714 16.936 142.286 16.6642 141.77 16.4353C141.255 16.192 140.739 16.1205 140.153 16.1205C139.566 16.1205 139.007 16.235 138.536 16.4353C138.02 16.6356 137.591 16.9504 137.233 17.3366C136.876 17.7372 136.561 18.1666 136.361 18.6387C136.16 19.1539 136.046 19.6974 136.046 20.2555Z" fill="white"/>
  </g>
</svg>