<svg xmlns="http://www.w3.org/2000/svg" width="193" height="35" viewBox="0 0 193 35" fill="none">
  <path d="M12.3561 0.95527C11.7458 1.48598 10.6844 2.41471 10.0475 2.99849L8.85342 4.08643L9.62294 4.61714C10.0475 4.93556 11.3212 5.89083 12.4887 6.7665C13.6298 7.64216 14.7708 8.46476 14.9831 8.62397C15.275 8.83625 15.673 8.5709 16.6813 7.45641C17.3978 6.66036 17.9816 5.91737 17.9816 5.81123C17.9816 5.73162 17.3978 4.90903 16.6813 4.00683C15.9383 3.10463 15.0096 1.83093 14.6116 1.16755C14.2135 0.530706 13.789 0 13.6828 0C13.6032 0 12.9929 0.424565 12.3561 0.95527Z" fill="white"/>
  <path d="M20.4494 2.91888L18.3 5.83776L20.9535 8.96893L23.3152 7.16453C24.6154 6.15619 26.1014 5.09478 26.6055 4.77635C27.1363 4.45793 27.4812 4.08643 27.4016 3.95376C27.1363 3.55573 23.0233 8.87498e-07 22.811 8.87498e-07C22.7049 8.87498e-07 21.6434 1.32677 20.4494 2.91888Z" fill="white"/>
  <path d="M48.8421 4.3252C48.7891 4.43134 48.9748 4.96205 49.2667 5.46622C49.7974 6.36842 49.8239 6.71338 49.8239 18.7339V31.0462H52.9816C54.733 31.0462 56.2189 30.9401 56.2986 30.834C56.3782 30.7013 55.7148 30.2767 54.8656 29.8521C53.0347 28.9765 52.159 28.1539 51.4957 26.6679C51.0711 25.7392 51.018 24.6247 50.965 16.9825L50.9119 8.35857L54.9983 16.6641C57.2538 21.2282 59.1909 24.9166 59.3236 24.837C59.4563 24.7574 61.1545 20.8832 63.1181 16.1865C65.0817 11.5163 66.7269 7.69519 66.8065 7.69519C66.8861 7.69519 66.9392 12.4981 66.9392 18.3889V29.0561L65.4267 29.7991C64.5776 30.1971 63.8876 30.6482 63.8876 30.7809C63.8876 30.9401 65.2675 31.0462 67.2046 31.0462H70.5215V18.4685C70.5215 6.31535 70.548 5.89079 71.0522 5.2274C71.3441 4.85591 71.5829 4.45788 71.5829 4.3252C71.5829 4.21906 70.548 4.13946 69.2743 4.16599L66.9392 4.19253L63.755 11.9143C62.0036 16.1599 60.5177 19.6361 60.4115 19.6361C60.3319 19.6361 58.5806 16.1599 56.5374 11.9143L52.7694 4.19253L50.8854 4.13946C49.8239 4.13946 48.9217 4.21906 48.8421 4.3252Z" fill="white"/>
  <path d="M95.7299 4.32521C95.7299 4.43135 96.3933 4.82938 97.1893 5.22741L98.6488 5.94386V29.2153L97.0567 29.9052C96.2075 30.2767 95.5442 30.7013 95.6238 30.8074C95.8095 31.1258 105.203 31.1258 105.389 30.8074C105.468 30.7013 104.805 30.2767 103.956 29.9052L102.364 29.2153V18.0439H105.442L108.732 23.3775C110.563 26.323 112.076 28.8173 112.129 28.9499C112.182 29.0826 111.545 29.4807 110.749 29.8256C109.926 30.1971 109.263 30.6217 109.263 30.7543C109.263 30.9401 110.616 31.0462 113.243 31.0462C115.446 31.0462 117.223 30.9401 117.223 30.8074C117.223 30.6747 115.446 27.7293 113.243 24.2797C111.067 20.8302 109.263 17.9113 109.263 17.8051C109.263 17.699 110.006 17.2479 110.908 16.8233C112.792 15.9211 114.941 13.9575 115.499 12.6307C115.95 11.5428 116.029 9.10156 115.605 8.04015C114.968 6.34189 113.137 5.06819 110.59 4.53749C108.944 4.19253 95.7299 4.00678 95.7299 4.32521ZM108.228 5.30701C109.634 5.70504 110.882 6.63378 111.439 7.72172C112.58 9.92415 112.261 13.3472 110.775 15.0455C109.449 16.558 108.201 17.0356 105.097 17.1948L102.364 17.3275V5.04166H104.832C106.158 5.04166 107.697 5.17433 108.228 5.30701Z" fill="white"/>
  <path d="M118.55 8.62392C118.55 11.1978 118.656 13.0022 118.789 12.8696C118.922 12.7104 119.293 11.7551 119.612 10.7467C120.514 7.934 121.628 5.65197 122.212 5.33354C122.531 5.17433 123.539 5.04166 124.494 5.04166H126.246V29.2153L124.653 29.9052C123.778 30.2767 123.061 30.7013 123.061 30.8074C123.061 31.1258 132.8 31.1258 132.986 30.8074C133.065 30.7013 132.402 30.2767 131.553 29.9052L129.96 29.2153V5.04166H131.712C134.445 5.04166 134.525 5.12126 136.196 9.81801C136.727 11.3571 137.284 12.7104 137.417 12.8696C137.55 13.0022 137.656 11.2509 137.656 8.62392V4.11292H118.55V8.62392Z" fill="white"/>
  <path d="M158.221 4.19252C158.168 4.24559 158.3 4.77629 158.512 5.36007C158.725 5.94385 158.884 6.60723 158.884 6.81951C158.884 7.05833 157.557 10.8263 155.939 15.2312C154.293 19.6095 152.356 24.9166 151.587 26.9863C150.817 29.0561 150.26 30.8339 150.34 30.9135C150.605 31.1789 157.026 31.0462 157.026 30.7809C157.026 30.6482 156.682 30.3563 156.257 30.144C155.859 29.9317 155.142 29.3214 154.665 28.7907C153.975 27.9681 153.842 27.6497 153.842 26.4291C153.842 25.633 154.081 24.2001 154.373 23.2449L154.93 21.4935L159.494 21.5466L164.058 21.6262L165.305 25.2085C165.995 27.1721 166.553 28.8703 166.553 28.9499C166.579 29.0295 165.863 29.4276 164.987 29.8521C164.138 30.2502 163.475 30.7013 163.554 30.8339C163.74 31.1258 170.825 31.0993 170.825 30.7809C170.825 30.6482 169.153 25.4207 167.083 19.185C165.04 12.9492 163.103 7.00526 162.785 6.02345L162.174 4.19252L160.237 4.16598C159.176 4.13945 158.274 4.16598 158.221 4.19252ZM161.644 14.1432C162.652 17.2213 163.528 19.981 163.607 20.2198C163.713 20.6709 163.395 20.6975 159.574 20.6975C156.575 20.6975 155.434 20.6179 155.434 20.379C155.434 19.9279 159.521 8.49123 159.68 8.49123C159.76 8.49123 160.635 11.0386 161.644 14.1432Z" fill="white"/>
  <path d="M172.682 4.35177C172.682 4.45791 173.054 5.01515 173.478 5.57239L174.274 6.58074V31.0463H177.591C179.581 31.0463 180.908 30.9401 180.908 30.7809C180.908 30.6482 180.218 30.1706 179.396 29.746C177.591 28.8438 176.61 27.8886 175.946 26.4026C175.522 25.4739 175.468 24.3328 175.389 16.8499C175.336 8.67702 175.336 8.38513 175.787 8.96891C176.052 9.28733 179.422 14.4352 183.296 20.4322C190.169 31.0197 190.355 31.2851 191.204 31.3116H192.053V4.27217L188.736 4.19256C186.374 4.13949 185.419 4.19256 185.419 4.40484C185.419 4.59059 185.685 4.77634 186.03 4.88248C187.171 5.14783 189.161 6.68688 189.798 7.82789C190.222 8.51781 190.567 9.65883 190.726 10.906C191.071 13.5861 191.071 25.2085 190.726 25.2085C190.594 25.2085 190.461 25.1289 190.461 24.9962C190.461 24.8901 187.436 20.1668 183.748 14.5148L177.061 4.19256L174.858 4.16602C173.664 4.13949 172.682 4.2191 172.682 4.35177Z" fill="white"/>
  <path d="M82.1173 5.54582L82.5419 6.84605L81.454 9.87107C80.8437 11.5163 78.8535 16.8764 77.0491 21.7589C75.2447 26.6414 73.8118 30.7278 73.8914 30.8339C74.0506 31.1524 80.6048 31.0993 80.6048 30.8074C80.6048 30.6482 80.1272 30.2767 79.5434 29.9583C77.4206 28.7642 76.943 26.8006 77.8982 23.351L78.4024 21.6262H87.6367L88.8838 25.2085C89.5738 27.1721 90.131 28.8703 90.131 28.9499C90.1575 29.0295 89.4411 29.4276 88.5654 29.8521C87.6898 30.2767 86.9733 30.7013 86.9733 30.8339C86.9733 30.9401 88.645 31.0462 90.6882 31.0462C92.7315 31.0462 94.4032 30.9666 94.4032 30.8339C94.4032 30.7278 92.4661 24.7308 90.0779 17.5132L85.7527 4.37827L81.7193 4.21905L82.1173 5.54582ZM85.3546 14.5944C86.3895 17.7255 87.2387 20.379 87.2387 20.5117C87.2387 20.6179 85.3281 20.6975 83.0195 20.6975H78.7739L80.3926 16.1069C81.2682 13.6125 82.2235 10.8529 82.5154 10.0037C82.8073 9.15462 83.1522 8.54431 83.2584 8.67698C83.3645 8.78312 84.3198 11.4632 85.3546 14.5944Z" fill="white"/>
  <path d="M140.787 5.09473L142.432 5.89079V29.2153L140.84 29.9052C139.964 30.2767 139.248 30.7013 139.248 30.8074C139.248 31.1258 148.986 31.1258 149.172 30.8074C149.252 30.6747 148.615 30.2767 147.739 29.8787L146.147 29.1888L146.2 17.4867L146.28 5.78465L147.66 5.20087C148.429 4.88245 149.119 4.53749 149.225 4.43135C149.331 4.32521 147.102 4.2456 144.263 4.27214L139.115 4.29867L140.787 5.09473Z" fill="white"/>
  <path d="M2.98914 10.11C1.9808 11.304 1.05206 12.392 0.945919 12.5777C0.839778 12.7635 1.84812 13.7187 3.70559 15.0986C6.99597 17.5664 6.49179 17.5398 8.74729 15.417L9.7291 14.5148L8.32273 12.7635C7.55321 11.8082 6.46526 10.3222 5.90802 9.4731C5.35078 8.65051 4.89968 7.96059 4.87314 7.96059C4.84661 7.96059 4.02401 8.9424 2.98914 10.11Z" fill="white"/>
  <path d="M31.2492 8.19932C31.2492 8.35853 30.2674 9.7649 29.0999 11.3305C27.9058 12.8961 26.8974 14.3024 26.8444 14.4616C26.6852 14.8862 29.604 17.3009 30.0021 17.0621C30.2409 16.9029 35.0968 13.3206 35.7337 12.843C35.8664 12.7369 31.7799 8.11971 31.4615 8.01357C31.3554 7.9605 31.2492 8.04011 31.2492 8.19932Z" fill="white"/>
  <path d="M12.5684 11.9143L9.94139 14.5413L12.2234 17.301L15.1158 14.4087L18.0081 11.5429L16.814 10.4018C16.1506 9.79153 15.5138 9.28736 15.4077 9.28736C15.275 9.28736 14.0013 10.4814 12.5684 11.9143Z" fill="white"/>
  <path d="M19.4941 10.4283L18.2469 11.5428L23.9786 17.2744L26.4729 14.6209L23.7663 11.9408C22.2538 10.4814 20.9801 9.28727 20.9005 9.28727C20.8209 9.3138 20.2106 9.81797 19.4941 10.4283Z" fill="white"/>
  <path d="M3.65251 19.6892C2.11347 20.8833 0.839774 21.9181 0.786704 21.9977C0.760168 22.0774 1.66237 23.2184 2.77685 24.5186L4.82007 26.8802L5.2181 26.2434C5.45691 25.8984 6.5714 24.3859 7.68588 22.8999L9.72909 20.1933L8.19005 18.8666C7.34092 18.1236 6.59793 17.5133 6.54486 17.5398C6.49179 17.5398 5.19156 18.5216 3.65251 19.6892Z" fill="white"/>
  <path d="M11.1089 18.8665L9.94139 20.2198L12.5684 22.8468C14.0013 24.2797 15.3015 25.4738 15.4607 25.4738C15.6199 25.4738 16.2568 24.9697 16.8671 24.3328L17.9816 23.1918L15.1158 20.3525L12.25 17.4867L11.1089 18.8665Z" fill="white"/>
  <path d="M18.2204 23.2714L19.5472 24.3859C20.2902 25.0227 20.9005 25.633 20.9005 25.7392C20.9005 25.8718 20.3167 26.6414 19.6003 27.464L18.3 28.9499L20.4228 31.7892C21.5904 33.3548 22.6253 34.655 22.7314 34.7081C22.811 34.7346 23.952 33.8324 25.2523 32.718C27.3486 30.9136 27.5608 30.6482 27.1363 30.4094C25.9953 29.7195 21.325 26.1107 21.2454 25.8188C21.1658 25.633 22.3334 24.3063 23.7928 22.8468L26.4729 20.2198L25.2257 18.84L23.952 17.4867L18.2204 23.2714Z" fill="white"/>
  <path d="M28.2772 18.7338C27.5077 19.4237 26.8178 20.0871 26.7913 20.2198C26.7382 20.326 27.1628 21.0159 27.7465 21.7058C28.3303 22.3957 29.3917 23.8286 30.1347 24.89L31.4615 26.8006L32.7617 25.3677C33.5047 24.5716 34.46 23.4571 34.9111 22.8999L35.7337 21.865L34.9376 21.3874C34.513 21.122 33.2924 20.2463 32.231 19.3972C31.1961 18.5746 30.1878 17.8051 30.002 17.699C29.8163 17.5663 29.1264 18.0174 28.2772 18.7338Z" fill="white"/>
  <path d="M13.8421 27.0394C13.1256 27.5967 11.6662 28.6581 10.6048 29.4011L8.69424 30.7278L10.4721 32.373C11.4804 33.2752 12.5949 34.2305 12.9664 34.4958L13.6298 35L15.3015 32.6914C16.2037 31.4177 17.1855 30.0644 17.504 29.6664L18.0612 28.95L16.814 27.464C16.1241 26.6679 15.4607 26.0045 15.3546 26.0045C15.2219 26.0045 14.5585 26.4556 13.8421 27.0394Z" fill="white"/>
</svg>