<svg xmlns="http://www.w3.org/2000/svg" width="140" height="35" viewBox="0 0 140 35" fill="none">
  <path d="M12.8475 6.51169C6.60723 10.0881 1.25488 13.1713 0.934236 13.3933C0.391602 13.8126 0.391602 13.8373 0.391602 20.7928C0.391602 27.1318 0.440932 27.7978 0.835575 28.1431C1.6002 28.7844 12.6255 35 13.0202 35C13.8588 35 13.9575 34.408 14.0068 28.3897L14.0808 22.4207L19.2605 25.3806C22.1217 27.0085 24.6375 28.3404 24.8595 28.3404C25.0815 28.3404 25.3528 28.1924 25.4761 28.0197C25.5748 27.8718 25.7228 25.0353 25.7968 21.7548L25.9201 15.7858L31.0998 18.7456C35.5889 21.3355 36.3288 21.6808 36.8221 21.4588L37.3894 21.1875V14.3306C37.3894 9.22486 37.3154 7.37497 37.0934 7.07898C36.6248 6.51169 25.1061 -0.0245956 24.6128 6.96282e-05C24.3909 0.0247348 19.0878 2.93523 12.8475 6.51169ZM29.6199 4.68646C32.2837 6.2157 34.4049 7.47363 34.3803 7.49829C34.1583 7.67095 24.7608 13.048 24.6622 13.048C24.3415 13.048 14.9687 7.52296 15.0921 7.39963C15.3387 7.15298 24.4155 1.97329 24.6375 1.94862C24.7362 1.94862 26.9807 3.18188 29.6199 4.68646ZM17.7312 11.2721C20.2718 12.7273 22.3683 14.0099 22.3683 14.1332C22.393 14.2566 20.2718 15.5638 17.6819 17.0684L12.9709 19.7816L8.2598 17.0684C5.66996 15.5885 3.54875 14.2812 3.54875 14.1579C3.57341 13.9359 12.6255 8.60823 12.9709 8.60823C13.0449 8.60823 15.1907 9.79216 17.7312 11.2721ZM35.3669 16.5998L35.2929 19.1896L30.9025 16.6984C27.992 15.0458 26.6107 14.1332 26.8327 14.0099C27.0054 13.9112 28.9786 12.7766 31.2231 11.4694L35.2929 9.1262L35.3669 11.5681C35.3915 12.9 35.3915 15.1692 35.3669 16.5998ZM7.32253 18.647L11.9843 21.3108V26.9345C11.9843 30.0423 11.9103 32.5088 11.8116 32.4595C11.6883 32.3855 9.54239 31.1522 7.00188 29.697L2.36482 27.0578V21.5328C2.36482 18.499 2.43881 16.0078 2.51281 16.0078C2.61147 16.0078 4.75734 17.1917 7.32253 18.647ZM23.8236 20.7682C23.8236 23.4074 23.7496 25.6026 23.6756 25.6766C23.6016 25.7505 21.6037 24.7146 19.2112 23.358C16.2267 21.6315 14.9934 20.8175 15.2154 20.6695C18.7425 18.573 23.2809 16.0325 23.5276 16.0325C23.7496 16.0078 23.8236 17.1177 23.8236 20.7682Z" fill="white"/>
  <path d="M110.645 27.6004H113.358V24.0486C113.358 19.7076 113.457 19.1649 114.468 18.0797C115.109 17.4137 115.455 17.241 116.17 17.241C118.415 17.241 118.785 18.1043 118.785 23.5307V27.6004H121.498V23.062C121.498 20.3489 121.374 18.203 121.226 17.7097C120.265 14.8732 116.787 14.1332 114.444 16.3038L113.358 17.315V9.34818H110.645V27.6004Z" fill="white"/>
  <path d="M125.346 9.86618C123.693 11.1734 125.617 13.3933 127.368 12.16C128.059 11.6914 128.083 10.5075 127.417 9.84152C126.776 9.20022 126.16 9.22489 125.346 9.86618Z" fill="white"/>
  <path d="M49.4754 27.6004H51.9419V13.4179L54.6798 20.2009C56.1843 23.9253 57.4669 27.1318 57.5409 27.2798C57.6149 27.4524 58.0836 27.6004 58.6015 27.6004H59.5388L62.252 20.7435C63.7566 16.9944 65.0145 13.7386 65.0885 13.5413C65.1625 13.3439 65.2365 16.4271 65.2365 20.3735L65.2611 27.6004H67.9743V10.3348H64.1019L61.6847 16.3038C60.3528 19.6089 59.1442 22.6181 58.9715 23.0374L58.6509 23.7773L58.3795 23.0374C58.2069 22.6181 57.023 19.6089 55.7404 16.3038L53.3725 10.3348H49.4754V27.6004Z" fill="white"/>
  <path d="M75.1272 15.4899C72.3893 16.4518 70.9834 18.943 71.2547 22.3221C71.5261 25.9479 74.3379 28.1431 78.161 27.7485C81.3921 27.4278 83.3654 25.3806 83.686 22.1001C83.8587 20.2009 83.316 18.129 82.3788 16.9944C80.8742 15.2432 77.717 14.5772 75.1272 15.4899ZM79.0736 17.5617C81.2195 18.647 81.6635 22.9881 79.8136 24.764C78.827 25.7259 76.8537 25.8986 75.6698 25.134C73.3513 23.7034 73.3759 19.1403 75.6945 17.7344C76.5824 17.1671 78.161 17.0931 79.0736 17.5617Z" fill="white"/>
  <path d="M91.1842 15.5638C90.7156 15.8845 90.1483 16.5258 89.9016 16.9944L89.433 17.8577V15.2678H86.7198V27.6004H89.433V23.95C89.433 20.9162 89.5316 20.1515 89.9016 19.2883C90.5182 17.9563 91.3569 17.4137 92.6395 17.537L93.6507 17.6357L93.5767 16.3778C93.5027 15.1938 93.4781 15.1445 92.7628 15.0705C92.2941 15.0212 91.7022 15.2185 91.1842 15.5638Z" fill="white"/>
  <path d="M100.902 15.4651C100.335 15.7364 99.5951 16.3037 99.2251 16.7231L98.5591 17.537V15.2678H95.846V33.2734H98.5591V25.7752L99.3731 26.5398C101.174 28.291 103.714 28.2664 105.712 26.4658C107.167 25.1586 107.759 23.358 107.636 20.6448C107.537 18.8196 107.439 18.351 106.797 17.3397C106.403 16.6984 105.712 15.9584 105.293 15.6871C104.109 14.9965 102.111 14.8978 100.902 15.4651ZM103.862 17.981C105.441 19.4609 105.293 23.136 103.616 24.8132C102.95 25.4792 102.604 25.6272 101.79 25.6272C99.5211 25.6272 98.5591 24.4679 98.5591 21.6808C98.5591 19.5596 99.0031 18.4003 100.088 17.7343C101.174 17.0437 102.999 17.167 103.862 17.981Z" fill="white"/>
  <path d="M133.534 15.3911C130.723 16.3038 129.785 19.0909 131.685 20.9408C132.104 21.3355 133.164 21.9521 134.077 22.2974C135.927 23.0127 136.494 23.358 136.544 23.9006C136.667 24.8626 136.494 25.1832 135.631 25.5532C134.521 25.9972 132.918 25.8492 131.561 25.1339L130.624 24.6406V25.8739C130.624 27.3044 130.871 27.4771 133.189 27.7484C135.261 27.9951 137.234 27.4524 138.319 26.3672C139.158 25.5285 139.257 25.3066 139.257 24.1966C139.257 22.4207 138.393 21.4834 135.804 20.4475C134.694 20.0035 133.707 19.4362 133.559 19.1649C132.646 17.463 135.68 16.4024 138.048 17.6357L138.763 18.0057V16.7724C138.763 15.3665 138.64 15.2925 136.297 15.1198C135.286 15.0705 134.274 15.1692 133.534 15.3911Z" fill="white"/>
  <path d="M124.951 27.6004H127.664V15.2678H124.951V27.6004Z" fill="white"/>
</svg>