<svg xmlns="http://www.w3.org/2000/svg" width="97" height="29" viewBox="0 0 97 29" fill="none">
  <path d="M28.3877 0.100098H0.868414C0.6987 0.100098 0.535929 0.16747 0.415972 0.287556C0.295886 0.407513 0.228516 0.570283 0.228516 0.740126V28.2594C0.228516 28.4291 0.295886 28.5919 0.415972 28.7119C0.535929 28.832 0.6987 28.8993 0.868414 28.8993H28.3877C28.5576 28.8993 28.7203 28.832 28.8403 28.7119C28.9604 28.5919 29.0277 28.4291 29.0277 28.2594V0.740126C29.0277 0.570283 28.9604 0.407513 28.8403 0.287556C28.7203 0.16747 28.5576 0.100098 28.3877 0.100098ZM19.428 18.6596C19.428 18.8294 19.3606 18.9921 19.2405 19.1122C19.1205 19.2322 18.9578 19.2997 18.7881 19.2997H10.4682C10.2985 19.2997 10.1357 19.2322 10.0156 19.1122C9.89567 18.9921 9.8283 18.8294 9.8283 18.6596V10.3398C9.8283 10.1701 9.89567 10.0073 10.0156 9.88734C10.1357 9.76725 10.2985 9.69988 10.4682 9.69988H18.7881C18.9578 9.69988 19.1205 9.76725 19.2405 9.88734C19.3606 10.0073 19.428 10.1701 19.428 10.3398V18.6596Z" fill="white"/>
  <path d="M86.0027 9.70117H77.683C77.3296 9.70117 77.043 9.98763 77.043 10.3411V18.6609C77.043 19.0144 77.3296 19.301 77.683 19.301H86.0027C86.3562 19.301 86.6427 19.0144 86.6427 18.6609V10.3411C86.6427 9.98763 86.3562 9.70117 86.0027 9.70117Z" fill="white"/>
  <path d="M76.3982 0.101074H68.0785C67.7251 0.101074 67.4385 0.387531 67.4385 0.741102V9.06083C67.4385 9.41427 67.7251 9.70086 68.0785 9.70086H76.3982C76.7518 9.70086 77.0383 9.41427 77.0383 9.06083V0.741102C77.0383 0.387531 76.7518 0.101074 76.3982 0.101074Z" fill="white"/>
  <path d="M95.5976 0.101074H87.2777C86.9243 0.101074 86.6377 0.387531 86.6377 0.741102V9.06083C86.6377 9.41427 86.9243 9.70086 87.2777 9.70086H95.5976C95.951 9.70086 96.2375 9.41427 96.2375 9.06083V0.741102C96.2375 0.387531 95.951 0.101074 95.5976 0.101074Z" fill="white"/>
  <path d="M76.3982 19.3003H68.0785C67.7251 19.3003 67.4385 19.5867 67.4385 19.9402V28.2601C67.4385 28.6135 67.7251 28.9001 68.0785 28.9001H76.3982C76.7518 28.9001 77.0383 28.6135 77.0383 28.2601V19.9402C77.0383 19.5867 76.7518 19.3003 76.3982 19.3003Z" fill="white"/>
  <path d="M95.5976 19.3003H87.2777C86.9243 19.3003 86.6377 19.5867 86.6377 19.9402V28.2601C86.6377 28.6135 86.9243 28.9001 87.2777 28.9001H95.5976C95.951 28.9001 96.2375 28.6135 96.2375 28.2601V19.9402C96.2375 19.5867 95.951 19.3003 95.5976 19.3003Z" fill="white"/>
  <path d="M61.9871 0.101074H53.6674C53.3139 0.101074 53.0273 0.387531 53.0273 0.741102V9.06083C53.0273 9.41427 53.3139 9.70086 53.6674 9.70086H61.9871C62.3405 9.70086 62.6271 9.41427 62.6271 9.06083V0.741102C62.6271 0.387531 62.3405 0.101074 61.9871 0.101074Z" fill="white"/>
  <path d="M61.9871 19.3003H53.6674C53.3139 19.3003 53.0273 19.5867 53.0273 19.9402V28.2601C53.0273 28.6135 53.3139 28.9001 53.6674 28.9001H61.9871C62.3405 28.9001 62.6271 28.6135 62.6271 28.2601V19.9402C62.6271 19.5867 62.3405 19.3003 61.9871 19.3003Z" fill="white"/>
  <path d="M53.0277 10.3326C53.0277 10.1629 52.9602 10.0001 52.8402 9.88014C52.7201 9.76005 52.5574 9.69268 52.3877 9.69268H43.4279V0.740126C43.4279 0.570283 43.3604 0.407513 43.2405 0.287556C43.1204 0.16747 42.9576 0.100098 42.7879 0.100098H34.4682C34.2983 0.100098 34.1355 0.16747 34.0156 0.287556C33.8955 0.407513 33.8281 0.570283 33.8281 0.740126V28.245C33.8281 28.4147 33.8955 28.5775 34.0156 28.6975C34.1355 28.8176 34.2983 28.8849 34.4682 28.8849H42.7879C42.9576 28.8849 43.1204 28.8176 43.2405 28.6975C43.3604 28.5775 43.4279 28.4147 43.4279 28.245V19.2925H52.3877C52.5574 19.2925 52.7201 19.225 52.8402 19.105C52.9602 18.9849 53.0277 18.8222 53.0277 18.6524V10.3326Z" fill="white"/>
</svg>