<svg xmlns="http://www.w3.org/2000/svg" width="71" height="35" viewBox="0 0 71 35" fill="none">
  <path d="M46.5681 14.3155C46.4444 13.2714 45.943 12.4608 45.0638 11.8838C44.1845 11.3068 43.106 11.0183 41.8283 11.0183C40.8941 11.0183 40.0767 11.1694 39.376 11.4717C38.6823 11.7739 38.1396 12.1895 37.748 12.7184C37.3634 13.2474 37.171 13.8484 37.171 14.5216C37.171 15.0849 37.305 15.5692 37.5729 15.9744C37.8476 16.3729 38.198 16.706 38.6239 16.9739C39.0498 17.2349 39.4962 17.4513 39.9634 17.623C40.4305 17.7879 40.8598 17.9219 41.2513 18.0249L43.3945 18.6019C43.9441 18.7462 44.5554 18.9454 45.2286 19.1995C45.9086 19.4537 46.5578 19.8006 47.176 20.2403C47.8011 20.673 48.3164 21.2294 48.7216 21.9095C49.1269 22.5894 49.3295 23.4241 49.3295 24.4132C49.3295 25.5536 49.0307 26.5839 48.4331 27.5044C47.8423 28.4249 46.9768 29.1564 45.8365 29.6991C44.7031 30.2418 43.3258 30.5132 41.7047 30.5132C40.1935 30.5132 38.8849 30.2692 37.779 29.7816C36.6799 29.2938 35.8144 28.6138 35.1824 27.7414C34.5573 26.869 34.2035 25.8558 34.1211 24.7018H36.7589C36.8276 25.4986 37.0955 26.1581 37.5626 26.6801C38.0365 27.1952 38.6342 27.58 39.3554 27.8341C40.0836 28.0814 40.8667 28.2051 41.7047 28.2051C42.6801 28.2051 43.556 28.0471 44.3322 27.7311C45.1084 27.4083 45.7231 26.9617 46.1766 26.3916C46.6299 25.8146 46.8566 25.1414 46.8566 24.372C46.8566 23.6714 46.6609 23.1012 46.2692 22.6616C45.8777 22.2219 45.3625 21.8648 44.7237 21.59C44.0849 21.3153 43.3945 21.0748 42.6527 20.8687L40.0561 20.1269C38.4075 19.6529 37.1023 18.9763 36.1406 18.097C35.1789 17.2178 34.6981 16.0672 34.6981 14.6453C34.6981 13.4637 35.0175 12.4334 35.6564 11.5541C36.3021 10.668 37.1676 9.98105 38.2529 9.49334C39.3451 8.99876 40.5644 8.75146 41.9108 8.75146C43.2709 8.75146 44.4799 8.99533 45.5377 9.48303C46.5956 9.96388 47.4336 10.6233 48.0518 11.4614C48.6769 12.2994 49.0066 13.2508 49.041 14.3155H46.5681Z" fill="white"/>
  <path d="M61.4341 23.6713V14.3154H63.8658V30.1421H61.4341V27.4631H61.2692C60.8983 28.2668 60.3213 28.9503 59.5382 29.5135C58.755 30.0699 57.7659 30.3482 56.5706 30.3482C55.5815 30.3482 54.7022 30.1317 53.9329 29.699C53.1636 29.2594 52.5591 28.5999 52.1194 27.7207C51.6798 26.8346 51.46 25.7183 51.46 24.3719V14.3154H53.8917V24.2071C53.8917 25.3611 54.2146 26.2816 54.8602 26.9685C55.5128 27.6554 56.344 27.9989 57.3538 27.9989C57.9583 27.9989 58.573 27.8443 59.1982 27.5352C59.8301 27.2261 60.359 26.7521 60.7849 26.1133C61.2177 25.4744 61.4341 24.6605 61.4341 23.6713Z" fill="white"/>
  <path d="M66.5787 30.1425V14.3159H69.0103V30.1425H66.5787ZM67.815 11.6781C67.3411 11.6781 66.9323 11.5167 66.589 11.1938C66.2524 10.8709 66.084 10.4828 66.084 10.0295C66.084 9.5761 66.2524 9.18799 66.589 8.86514C66.9323 8.54229 67.3411 8.38086 67.815 8.38086C68.2891 8.38086 68.6943 8.54229 69.0309 8.86514C69.3744 9.18799 69.5461 9.5761 69.5461 10.0295C69.5461 10.4828 69.3744 10.8709 69.0309 11.1938C68.6943 11.5167 68.2891 11.6781 67.815 11.6781Z" fill="white"/>
  <path fill-rule="evenodd" clip-rule="evenodd" d="M46.4064 14.495L46.3875 14.3349C46.2701 13.344 45.7982 12.5812 44.9637 12.0335C44.1199 11.4797 43.0778 11.1977 41.8278 11.1977C40.913 11.1977 40.121 11.3457 39.4476 11.6361C38.779 11.9275 38.2636 12.3244 37.8937 12.8238C37.5326 13.3206 37.3518 13.8839 37.3518 14.5197C37.3518 15.0525 37.478 15.5002 37.7226 15.871C37.9825 16.2475 38.314 16.563 38.719 16.8179C39.1341 17.0723 39.5692 17.2831 40.0243 17.4505C40.4873 17.6139 40.9114 17.7462 41.2969 17.8476L41.2979 17.8479L43.44 18.4246C43.4399 18.4246 43.4402 18.4246 43.44 18.4246C43.9968 18.5708 44.6145 18.7722 45.2919 19.0279C45.9868 19.2877 46.6495 19.6418 47.2796 20.0898C47.9265 20.5379 48.459 21.1136 48.8768 21.8147C49.3026 22.529 49.5103 23.3975 49.5103 24.4114C49.5103 25.585 49.2022 26.6498 48.585 27.6007C47.9734 28.5536 47.08 29.3059 45.9143 29.8608C44.7504 30.418 43.3448 30.6926 41.7041 30.6926C40.1738 30.6926 38.8392 30.4457 37.7052 29.9455C36.5804 29.4464 35.6878 28.7471 35.035 27.8458C34.3889 26.9441 34.0243 25.8975 33.9397 24.7128L33.9258 24.5185H36.9247L36.939 24.6843C37.0048 25.4473 37.2596 26.0677 37.6964 26.5564C38.1481 27.0471 38.7192 27.4158 39.4142 27.6608C40.1217 27.901 40.8846 28.0218 41.7041 28.0218C42.6596 28.0218 43.5113 27.8671 44.2624 27.5616C45.0144 27.2487 45.6025 26.8195 46.0339 26.2771C46.4606 25.7338 46.6748 25.1007 46.6748 24.3701C46.6748 23.705 46.4898 23.1806 46.1333 22.7803C45.7623 22.3638 45.2704 22.0209 44.6515 21.7547C44.021 21.4835 43.3384 21.2457 42.6036 21.0415L42.6023 21.0413L40.0057 20.2994C38.3384 19.8199 37.0055 19.1321 36.0177 18.2289C35.0148 17.312 34.5162 16.111 34.5162 14.6433C34.5162 13.4271 34.8458 12.3586 35.5091 11.4456C36.1749 10.5319 37.0663 9.82562 38.1778 9.32612C39.2962 8.81972 40.5413 8.5682 41.9102 8.5682C43.292 8.5682 44.5274 8.81599 45.6126 9.31622C46.695 9.80827 47.5584 10.486 48.197 11.3514C48.8445 12.2197 49.1862 13.2069 49.2217 14.3078L49.2277 14.495H46.4064ZM48.0513 11.4594C47.4331 10.6214 46.595 9.96196 45.5372 9.48112C44.4793 8.99341 43.2703 8.74955 41.9102 8.74955C40.5639 8.74955 39.3446 8.99684 38.2524 9.49143C37.167 9.97913 36.3015 10.6661 35.6558 11.5522C35.017 12.4314 34.6976 13.4618 34.6976 14.6433C34.6976 16.0653 35.1784 17.2159 36.1401 18.0951C37.1018 18.9744 38.4069 19.651 40.0555 20.1249L42.6521 20.8668C43.394 21.0729 44.0844 21.3134 44.7232 21.5881C45.362 21.8629 45.8771 22.2201 46.2688 22.6597C46.6603 23.0994 46.8561 23.6695 46.8561 24.3701C46.8561 25.1395 46.6294 25.8126 46.176 26.3896C45.7227 26.9599 45.1078 27.4063 44.3316 27.7292C43.5554 28.0451 42.6796 28.2031 41.7041 28.2031C40.8661 28.2031 40.083 28.0795 39.3549 27.8322C38.6336 27.5781 38.036 27.1934 37.562 26.6782C37.0949 26.1561 36.827 25.4967 36.7583 24.6998H34.1205C34.1249 24.7607 34.13 24.8212 34.1358 24.8812C34.241 25.9603 34.5897 26.9131 35.1818 27.7395C35.8138 28.6119 36.6793 29.2919 37.7784 29.7797C38.8843 30.2674 40.1929 30.5112 41.7041 30.5112C43.3253 30.5112 44.7026 30.2398 45.836 29.6972C46.9762 29.1545 47.8418 28.4229 48.4325 27.5024C49.0302 26.582 49.3289 25.5517 49.3289 24.4114C49.3289 23.4222 49.1263 22.5876 48.7211 21.9075C48.3158 21.2274 47.8006 20.671 47.1755 20.2383C46.5572 19.7987 45.9081 19.4518 45.2281 19.1976C44.5548 18.9435 43.9435 18.7443 43.394 18.6L41.2508 18.023C40.8592 17.9199 40.4299 17.786 39.9628 17.6212C39.4957 17.4494 39.0492 17.233 38.6233 16.972C38.1974 16.7041 37.8471 16.3709 37.5723 15.9725C37.3044 15.5672 37.1705 15.083 37.1705 14.5197C37.1705 13.8465 37.3628 13.2455 37.7475 12.7165C38.139 12.1876 38.6817 11.772 39.3755 11.4698C40.0761 11.1675 40.8936 11.0164 41.8278 11.0164C43.1054 11.0164 44.1839 11.3049 45.0632 11.8819C45.9425 12.4589 46.444 13.2695 46.5675 14.3136H49.0405C49.0385 14.2528 49.0356 14.1923 49.0317 14.1323C48.9675 13.1406 48.6407 12.2496 48.0513 11.4594ZM61.2525 14.1323H64.0468V30.3216H61.2525V27.8926C60.8704 28.5744 60.3329 29.1632 59.6438 29.6589L59.6429 29.6596C58.8224 30.2426 57.794 30.5277 56.5704 30.5277C55.5539 30.5277 54.6434 30.3051 53.8437 29.8552L53.8427 29.8546C53.0388 29.3954 52.4108 28.7076 51.9569 27.7999C51.5013 26.8814 51.2783 25.7349 51.2783 24.3701V14.1323H54.0728V24.2053C54.0728 25.3238 54.3846 26.1961 54.9917 26.8421C55.6075 27.4902 56.3899 27.8157 57.3535 27.8157C57.9261 27.8157 58.5135 27.6695 59.1175 27.3708C59.718 27.0771 60.224 26.6255 60.6337 26.0109L60.6345 26.0098C61.0419 25.4084 61.2525 24.6325 61.2525 23.6695V14.1323ZM54.86 26.9667C54.2142 26.2798 53.8914 25.3593 53.8914 24.2053V14.3136H51.4597V24.3701C51.4597 25.7165 51.6795 26.8328 52.1191 27.7189C52.5587 28.5981 53.1633 29.2576 53.9326 29.6972C54.702 30.13 55.5812 30.3464 56.5704 30.3464C57.7657 30.3464 58.7548 30.0681 59.5378 29.5117C60.3095 28.9567 60.881 28.285 61.2525 27.4966C61.258 27.4849 61.2634 27.4731 61.2689 27.4613H61.4338V30.1403H63.8655V14.3136H61.4338V23.6695C61.4338 24.6586 61.2175 25.4726 60.7846 26.1115C60.3588 26.7503 59.8298 27.2243 59.1979 27.5334C58.5727 27.8425 57.958 27.9971 57.3535 27.9971C56.3437 27.9971 55.5125 27.6536 54.86 26.9667ZM66.3971 30.3216V14.1323H69.1914V30.3216H66.3971ZM66.4644 11.3237L66.4632 11.3224C66.0921 10.9665 65.9025 10.5316 65.9025 10.0272C65.9025 9.52287 66.0921 9.08797 66.4632 8.73202L66.4644 8.73075C66.8418 8.3761 67.295 8.19727 67.8149 8.19727C68.3345 8.19727 68.7847 8.37601 69.1556 8.73146C69.5334 9.08693 69.7272 9.52195 69.7272 10.0272C69.7272 10.5325 69.5334 10.9676 69.1556 11.323C68.7847 11.6785 68.3345 11.8572 67.8149 11.8572C67.295 11.8572 66.8418 11.6783 66.4644 11.3237ZM69.0307 11.1916C69.3741 10.8687 69.5459 10.4806 69.5459 10.0272C69.5459 9.57385 69.3741 9.18574 69.0307 8.86289C68.6941 8.54004 68.2888 8.37861 67.8149 8.37861C67.3409 8.37861 66.9322 8.54004 66.5887 8.86289C66.2521 9.18574 66.0838 9.57385 66.0838 10.0272C66.0838 10.4806 66.2521 10.8687 66.5887 11.1916C66.9322 11.5144 67.3409 11.6758 67.8149 11.6758C68.2888 11.6758 68.6941 11.5144 69.0307 11.1916ZM66.5784 30.1403H69.0101V14.3136H66.5784V30.1403Z" fill="white"/>
  <path fill-rule="evenodd" clip-rule="evenodd" d="M22.1476 14.5971L22.147 14.5987C23.5749 16.3891 24.4282 18.6568 24.4282 21.1233C24.4282 23.6264 23.5493 25.9248 22.0829 27.7274L21.9567 27.8826L21.9232 27.6853C21.8947 27.5176 21.8613 27.3482 21.8224 27.1775C21.0886 23.953 18.6975 21.188 14.762 18.9493C12.1045 17.4416 10.5834 15.6262 10.184 13.5636C9.92606 12.2298 10.1178 10.8901 10.4884 9.74254C10.8589 8.59545 11.41 7.63435 11.8782 7.05571L13.4094 5.1834C13.6779 4.85512 14.1802 4.85512 14.4488 5.1834L22.1476 14.5971ZM24.569 12.727L14.3084 0.179669C14.1124 -0.0598895 13.7457 -0.0598897 13.5497 0.179669L3.28862 12.7264L3.25551 12.7685C1.36728 15.1116 0.237305 18.0893 0.237305 21.3308C0.237305 28.88 6.36715 35 13.929 35C21.4909 35 27.6207 28.88 27.6207 21.3308C27.6207 18.0894 26.4907 15.1116 24.6026 12.7685L24.569 12.727ZM5.74379 14.5568L6.66199 13.434L6.68973 13.6412C6.7117 13.8053 6.73834 13.9702 6.76994 14.1359C7.36378 17.2517 9.48516 19.8498 13.0319 21.8619C16.1149 23.6164 17.9099 25.6342 18.4271 27.8471C18.6428 28.7706 18.6813 29.6792 18.5879 30.4736L18.5821 30.5227L18.5376 30.5445C17.1461 31.2243 15.5819 31.6058 13.9287 31.6058C8.13012 31.6058 3.42919 26.9128 3.42919 21.1233C3.42919 18.6376 4.29578 16.3536 5.74379 14.5568Z" fill="white"/>
</svg>