<svg xmlns="http://www.w3.org/2000/svg" width="21" height="20" viewBox="0 0 21 20" fill="none">
  <g clip-path="url(#clip0_146_38053)">
    <path d="M10.5068 1.80078C13.1787 1.80078 13.4951 1.8125 14.5459 1.85937C15.5225 1.90234 16.0498 2.06641 16.4014 2.20313C16.8662 2.38281 17.2021 2.60156 17.5498 2.94922C17.9014 3.30078 18.1162 3.63281 18.2959 4.09766C18.4326 4.44922 18.5967 4.98047 18.6397 5.95313C18.6865 7.00781 18.6982 7.32422 18.6982 9.99219C18.6982 12.6641 18.6865 12.9805 18.6397 14.0313C18.5967 15.0078 18.4326 15.5352 18.2959 15.8867C18.1162 16.3516 17.8975 16.6875 17.5498 17.0352C17.1982 17.3867 16.8662 17.6016 16.4014 17.7813C16.0498 17.918 15.5186 18.082 14.5459 18.125C13.4912 18.1719 13.1748 18.1836 10.5068 18.1836C7.83496 18.1836 7.51856 18.1719 6.46777 18.125C5.49121 18.082 4.96387 17.918 4.61231 17.7813C4.14746 17.6016 3.81152 17.3828 3.46387 17.0352C3.1123 16.6836 2.89746 16.3516 2.71777 15.8867C2.58105 15.5352 2.41699 15.0039 2.37402 14.0313C2.32715 12.9766 2.31543 12.6602 2.31543 9.99219C2.31543 7.32031 2.32715 7.00391 2.37402 5.95313C2.41699 4.97656 2.58105 4.44922 2.71777 4.09766C2.89746 3.63281 3.11621 3.29688 3.46387 2.94922C3.81543 2.59766 4.14746 2.38281 4.61231 2.20313C4.96387 2.06641 5.49512 1.90234 6.46777 1.85937C7.51856 1.8125 7.83496 1.80078 10.5068 1.80078ZM10.5068 0C7.79199 0 7.45215 0.0117187 6.38574 0.0585938C5.32324 0.105469 4.59277 0.277344 3.95996 0.523437C3.2998 0.78125 2.74121 1.12109 2.18652 1.67969C1.62793 2.23438 1.28809 2.79297 1.03027 3.44922C0.78418 4.08594 0.612305 4.8125 0.56543 5.875C0.518555 6.94531 0.506836 7.28516 0.506836 10C0.506836 12.7148 0.518555 13.0547 0.56543 14.1211C0.612305 15.1836 0.78418 15.9141 1.03027 16.5469C1.28809 17.207 1.62793 17.7656 2.18652 18.3203C2.74121 18.875 3.29981 19.2188 3.95606 19.4727C4.59277 19.7188 5.31934 19.8906 6.38184 19.9375C7.44824 19.9844 7.78809 19.9961 10.5029 19.9961C13.2178 19.9961 13.5576 19.9844 14.624 19.9375C15.6865 19.8906 16.417 19.7188 17.0498 19.4727C17.7061 19.2188 18.2646 18.875 18.8193 18.3203C19.374 17.7656 19.7178 17.207 19.9717 16.5508C20.2178 15.9141 20.3897 15.1875 20.4365 14.125C20.4834 13.0586 20.4951 12.7188 20.4951 10.0039C20.4951 7.28906 20.4834 6.94922 20.4365 5.88281C20.3897 4.82031 20.2178 4.08984 19.9717 3.45703C19.7256 2.79297 19.3857 2.23438 18.8272 1.67969C18.2725 1.125 17.7139 0.78125 17.0576 0.527344C16.4209 0.28125 15.6943 0.109375 14.6318 0.0625C13.5615 0.0117188 13.2217 0 10.5068 0Z" fill="white"/>
    <path d="M10.5068 4.86328C7.6709 4.86328 5.37012 7.16406 5.37012 10C5.37012 12.8359 7.6709 15.1367 10.5068 15.1367C13.3428 15.1367 15.6436 12.8359 15.6436 10C15.6436 7.16406 13.3428 4.86328 10.5068 4.86328ZM10.5068 13.332C8.66699 13.332 7.1748 11.8398 7.1748 10C7.1748 8.16016 8.66699 6.66797 10.5068 6.66797C12.3467 6.66797 13.8389 8.16016 13.8389 10C13.8389 11.8398 12.3467 13.332 10.5068 13.332Z" fill="white"/>
    <path d="M17.0459 4.66016C17.0459 5.32422 16.5068 5.85938 15.8467 5.85938C15.1826 5.85938 14.6475 5.32031 14.6475 4.66016C14.6475 3.99609 15.1865 3.46094 15.8467 3.46094C16.5068 3.46094 17.0459 4 17.0459 4.66016Z" fill="white"/>
  </g>
  <defs>
    <clipPath id="clip0_146_38053">
      <rect width="20" height="20" fill="white" transform="translate(0.506836)"/>
    </clipPath>
  </defs>
</svg>