<svg xmlns="http://www.w3.org/2000/svg" width="21" height="20" viewBox="0 0 21 20" fill="none">
  <path d="M19.3193 0H2.27637C1.45996 0 0.799805 0.644531 0.799805 1.44141V18.5547C0.799805 19.3516 1.45996 20 2.27637 20H19.3193C20.1357 20 20.7998 19.3516 20.7998 18.5586V1.44141C20.7998 0.644531 20.1357 0 19.3193 0ZM6.7334 17.043H3.76465V7.49609H6.7334V17.043ZM5.24902 6.19531C4.2959 6.19531 3.52637 5.42578 3.52637 4.47656C3.52637 3.52734 4.2959 2.75781 5.24902 2.75781C6.19824 2.75781 6.96777 3.52734 6.96777 4.47656C6.96777 5.42187 6.19824 6.19531 5.24902 6.19531ZM17.8428 17.043H14.8779V12.4023C14.8779 11.2969 14.8584 9.87109 13.335 9.87109C11.792 9.87109 11.5576 11.0781 11.5576 12.3242V17.043H8.59668V7.49609H11.4404V8.80078H11.4795C11.874 8.05078 12.8428 7.25781 14.2842 7.25781C17.2881 7.25781 17.8428 9.23438 17.8428 11.8047V17.043V17.043Z" fill="white"/>
</svg>