<svg xmlns="http://www.w3.org/2000/svg" width="20" height="20" viewBox="0 0 20 20" fill="none">
  <path d="M20.0003 9.85616C20.0003 12.5056 19.5562 14.6547 19.0083 14.6547C18.4604 14.6547 18.0166 12.5062 18.0166 9.85616C18.0166 7.20615 18.4606 5.05762 19.0083 5.05762C19.556 5.05762 20.0003 7.20596 20.0003 9.85616Z" fill="white"/>
  <path d="M17.4688 9.85646C17.4688 12.8142 16.2061 15.2129 14.6485 15.2129C13.0908 15.2129 11.8281 12.8142 11.8281 9.85646C11.8281 6.8987 13.0906 4.5 14.6483 4.5C16.2059 4.5 17.4686 6.89793 17.4686 9.85646" fill="white"/>
  <path d="M11.2812 9.85674C11.2812 12.999 8.75578 15.5463 5.6407 15.5463C2.52561 15.5463 0 12.9984 0 9.85674C0 6.71505 2.52542 4.16699 5.6407 4.16699C8.75598 4.16699 11.2812 6.71448 11.2812 9.85674Z" fill="white"/>
</svg>