<svg width="20" height="20" viewBox="0 0 20 20" fill="none" xmlns="http://www.w3.org/2000/svg">
<g clip-path="url(#clip0_322_100)">
<path fill-rule="evenodd" clip-rule="evenodd" d="M16 12C16 16.4183 12.4183 20 8 20C3.58172 20 0 16.4183 0 12C0 7.58172 3.58172 4 8 4C12.4183 4 16 7.58172 16 12ZM8.28668 9.90595C7.50857 10.2296 5.95342 10.8995 3.62126 11.9155C3.24256 12.0661 3.04417 12.2135 3.02611 12.3575C2.99559 12.601 3.30047 12.6969 3.71565 12.8274C3.77212 12.8452 3.83064 12.8636 3.89062 12.8831C4.29909 13.0158 4.84855 13.1712 5.13419 13.1774C5.3933 13.183 5.68249 13.0761 6.00176 12.8569C8.18077 11.386 9.30559 10.6425 9.37621 10.6265C9.42603 10.6152 9.49507 10.601 9.54184 10.6426C9.58862 10.6841 9.58402 10.7629 9.57907 10.784C9.54886 10.9128 8.35208 12.0254 7.73275 12.6012C7.53967 12.7807 7.40272 12.908 7.37472 12.9371C7.312 13.0022 7.24809 13.0638 7.18665 13.1231C6.80718 13.4889 6.52261 13.7632 7.20241 14.2112C7.52909 14.4265 7.79051 14.6045 8.05131 14.7821C8.33612 14.9761 8.62019 15.1695 8.98774 15.4104C9.08139 15.4718 9.17082 15.5356 9.25793 15.5977C9.58938 15.834 9.88717 16.0463 10.2551 16.0124C10.4688 15.9928 10.6896 15.7917 10.8018 15.1922C11.0668 13.7754 11.5878 10.7056 11.7081 9.44065C11.7187 9.32982 11.7054 9.18798 11.6948 9.12572C11.6841 9.06345 11.6618 8.97474 11.5809 8.90907C11.4851 8.83129 11.3371 8.81489 11.2709 8.81606C10.97 8.82136 10.5084 8.98188 8.28668 9.90595Z" fill="white"/>
<g clip-path="url(#clip1_322_100)">
<path d="M11 0H20V9H11V0Z" fill="#0073CF"/>
<path d="M14.1 7.28795V4.85116C13.5505 4.68354 13.0355 4.41862 12.5796 4.06902C12.5574 4.05205 12.539 4.03061 12.5255 4.00608C12.5121 3.98155 12.504 3.95447 12.5017 3.9266C12.4993 3.89873 12.5029 3.87068 12.5121 3.84427C12.5213 3.81786 12.5359 3.79367 12.5551 3.77326C12.5742 3.75286 12.5974 3.73669 12.6231 3.72581C12.6489 3.71492 12.6767 3.70956 12.7046 3.71007C12.7326 3.71058 12.7601 3.71694 12.7855 3.72876C12.8108 3.74058 12.8334 3.75758 12.8518 3.77867C13.2527 4.23644 13.7655 4.58245 14.34 4.78295V7.28795H14.1ZM14.42 7.28795V4.72581C13.7444 4.50235 13.1547 4.07486 12.7321 3.50224C12.7119 3.47501 12.6976 3.4438 12.6903 3.41065C12.683 3.37751 12.6828 3.3432 12.6897 3.30997C12.6966 3.27675 12.7105 3.24537 12.7305 3.21791C12.7504 3.19045 12.776 3.16753 12.8054 3.15067C12.8349 3.13381 12.8676 3.12338 12.9013 3.12009C12.9351 3.11679 12.9692 3.12069 13.0014 3.13154C13.0335 3.14239 13.063 3.15993 13.0879 3.18301C13.1128 3.2061 13.1325 3.23419 13.1457 3.26545C13.2858 3.59337 13.4929 3.88841 13.7537 4.13165C14.0144 4.37489 14.3231 4.56096 14.66 4.67795V7.28795H14.42ZM14.74 7.28795V4.62045C14.3211 4.48555 13.9456 4.24162 13.6522 3.91368C13.3587 3.58575 13.1578 3.18562 13.07 2.75438C13.0602 2.70585 13.061 2.65577 13.0723 2.60756C13.0836 2.55936 13.1052 2.51417 13.1356 2.47508C13.166 2.43599 13.2045 2.40393 13.2484 2.38108C13.2923 2.35823 13.3407 2.34513 13.3901 2.34269C13.4396 2.34025 13.489 2.34851 13.5349 2.36691C13.5809 2.38532 13.6224 2.41344 13.6565 2.44934C13.6906 2.48524 13.7165 2.52808 13.7325 2.57493C13.7486 2.62178 13.7543 2.67154 13.7493 2.72081C13.7079 3.12534 13.8079 3.53171 14.0323 3.87085C14.2566 4.20999 14.5915 4.46098 14.98 4.58116V7.28795H14.74ZM15.06 7.28795V4.52116C14.7685 4.44206 14.5037 4.28583 14.2935 4.0689C14.0832 3.85198 13.9354 3.58239 13.8655 3.28852C13.7956 2.99465 13.8063 2.68737 13.8963 2.39904C13.9863 2.1107 14.1524 1.85197 14.3771 1.65009C14.4183 1.61314 14.4667 1.58514 14.5193 1.56786C14.5719 1.55058 14.6275 1.54439 14.6825 1.54969C14.7376 1.55499 14.791 1.57166 14.8393 1.59865C14.8876 1.62563 14.9298 1.66235 14.9632 1.70648C14.9966 1.7506 15.0205 1.80118 15.0333 1.855C15.0462 1.90883 15.0477 1.96473 15.0378 2.01918C15.028 2.07363 15.0069 2.12544 14.976 2.17133C14.9451 2.21723 14.905 2.25621 14.8582 2.28581C14.653 2.41568 14.4921 2.60474 14.3966 2.828C14.3012 3.05127 14.2757 3.29824 14.3236 3.53629C14.3714 3.77435 14.4904 3.99228 14.6647 4.1613C14.8391 4.33032 15.0606 4.44247 15.3 4.48295V7.28795H15.06Z" fill="white"/>
<path d="M16.9 7.28795V4.85116C17.4495 4.68354 17.9645 4.41862 18.4204 4.06902C18.4426 4.05205 18.461 4.03061 18.4745 4.00608C18.4879 3.98155 18.496 3.95447 18.4983 3.9266C18.5007 3.89873 18.4971 3.87068 18.4879 3.84427C18.4787 3.81786 18.4641 3.79367 18.4449 3.77326C18.4258 3.75286 18.4026 3.73669 18.3769 3.72581C18.3511 3.71492 18.3233 3.70956 18.2954 3.71007C18.2674 3.71058 18.2399 3.71694 18.2145 3.72876C18.1892 3.74058 18.1666 3.75758 18.1482 3.77867C17.7473 4.23644 17.2345 4.58245 16.66 4.78295V7.28795H16.9ZM16.58 7.28795V4.72581C17.2556 4.50235 17.8453 4.07486 18.2679 3.50224C18.2881 3.47501 18.3024 3.4438 18.3097 3.41065C18.317 3.37751 18.3172 3.3432 18.3103 3.30997C18.3034 3.27675 18.2895 3.24537 18.2695 3.21791C18.2496 3.19045 18.224 3.16753 18.1946 3.15067C18.1651 3.13381 18.1324 3.12338 18.0987 3.12009C18.0649 3.11679 18.0308 3.12069 17.9986 3.13154C17.9665 3.14239 17.937 3.15993 17.9121 3.18301C17.8872 3.2061 17.8675 3.23419 17.8543 3.26545C17.7142 3.59337 17.5071 3.88841 17.2463 4.13165C16.9856 4.37489 16.6769 4.56096 16.34 4.67795V7.28795H16.58ZM16.26 7.28795V4.62045C16.6789 4.48555 17.0544 4.24162 17.3478 3.91368C17.6413 3.58575 17.8422 3.18562 17.93 2.75438C17.9398 2.70585 17.939 2.65577 17.9277 2.60756C17.9164 2.55936 17.8948 2.51417 17.8644 2.47508C17.834 2.43599 17.7955 2.40393 17.7516 2.38108C17.7077 2.35823 17.6593 2.34513 17.6099 2.34269C17.5604 2.34025 17.511 2.34851 17.4651 2.36691C17.4191 2.38532 17.3776 2.41344 17.3435 2.44934C17.3094 2.48524 17.2835 2.52808 17.2675 2.57493C17.2514 2.62178 17.2457 2.67154 17.2507 2.72081C17.2921 3.12534 17.1921 3.53171 16.9677 3.87085C16.7434 4.20999 16.4085 4.46098 16.02 4.58116V7.28795H16.26ZM15.94 7.28795V4.52116C16.2315 4.44206 16.4963 4.28583 16.7065 4.0689C16.9168 3.85198 17.0646 3.58239 17.1345 3.28852C17.2044 2.99465 17.1937 2.68737 17.1037 2.39904C17.0137 2.1107 16.8476 1.85197 16.6229 1.65009C16.5817 1.61314 16.5333 1.58514 16.4807 1.56786C16.4281 1.55058 16.3725 1.54439 16.3175 1.54969C16.2624 1.55499 16.209 1.57166 16.1607 1.59865C16.1124 1.62563 16.0702 1.66235 16.0368 1.70648C16.0034 1.7506 15.9795 1.80118 15.9667 1.855C15.9538 1.90883 15.9523 1.96473 15.9622 2.01918C15.972 2.07363 15.9931 2.12544 16.024 2.17133C16.0549 2.21723 16.095 2.25621 16.1418 2.28581C16.347 2.41568 16.5079 2.60474 16.6034 2.828C16.6988 3.05127 16.7243 3.29824 16.6764 3.53629C16.6286 3.77435 16.5096 3.99228 16.3353 4.1613C16.1609 4.33032 15.9394 4.44247 15.7 4.48295V7.28795H15.94Z" fill="white"/>
<path d="M15.3799 4.49414C15.4597 4.50216 15.5401 4.50216 15.6199 4.49414V7.28843H15.3799V4.49414Z" fill="white"/>
<path d="M15.4995 3.78031C15.7646 3.78031 15.9795 3.56541 15.9795 3.30031C15.9795 3.03522 15.7646 2.82031 15.4995 2.82031C15.2344 2.82031 15.0195 3.03522 15.0195 3.30031C15.0195 3.56541 15.2344 3.78031 15.4995 3.78031Z" fill="#FECB00"/>
</g>
</g>
<defs>
<clipPath id="clip0_322_100">
<rect width="20" height="20" fill="white"/>
</clipPath>
<clipPath id="clip1_322_100">
<rect x="11" width="9" height="9" rx="4.5" fill="white"/>
</clipPath>
</defs>
</svg>
