<svg width="76" height="76" viewBox="0 0 76 76" fill="none" xmlns="http://www.w3.org/2000/svg">
<circle cx="38" cy="38" r="38" fill="#192231"/>
<path d="M52.0518 29.0568H47.3619L46.5774 28.8843L45.933 28.3989L44.0308 26.2207L43.5253 25.8461L42.9131 25.7135L42.3008 25.8461L41.7954 26.2207L40.1649 28.0878L39.2159 28.8022L38.061 29.0568H12.3938C11.6538 31.2079 11.1855 33.4454 11 35.7159H35.2296L35.84 35.5881L36.3516 35.2269L38.6133 32.8353L39.1061 32.493L39.6915 32.373L40.3927 32.5068L40.9012 32.8798L42.8035 35.058L43.4476 35.5441L44.2324 35.7159H64C63.8187 33.4448 63.3503 31.2068 62.6062 29.0568H52.0518ZM25.657 49.7186L26.2668 49.5894L26.779 49.2296L29.0319 46.838L29.5256 46.4978L30.1102 46.3757L30.8201 46.5095L31.3287 46.8825L33.2221 49.0607L33.8673 49.5445L34.651 49.7186H61.4491C62.4701 47.5897 63.207 45.3324 63.6406 43.0062H37.912L37.1338 42.8351L36.4919 42.3572L34.5896 40.179L34.0833 39.7989L33.4676 39.6633L32.8552 39.7975L32.3543 40.179L30.7238 42.046L29.769 42.7559L28.6111 43.0062H11.3594C11.7887 45.3381 12.5227 47.6014 13.5422 49.7364L25.657 49.7186ZM44.6707 21.7754L45.2853 21.6479L45.8015 21.2864L48.0544 18.9038L48.5459 18.5559L49.1326 18.4326L49.8414 18.5667L50.3424 18.9482L52.2446 21.1264L52.8915 21.6038L53.6735 21.7754H58.7666C56.2888 18.4294 53.0775 15.7139 49.3864 13.8438C45.6954 11.9736 41.626 11 37.5 11C33.374 11 29.3046 11.9736 25.6136 13.8438C21.9226 15.7139 18.7112 18.4294 16.2334 21.7754H44.6707ZM34.4319 56.3866H27.4628L26.6824 56.2138L26.0427 55.7287L24.1492 53.5505L23.6415 53.1754L23.0271 53.0427L22.4128 53.1754L21.9051 53.5505L20.2658 55.453L19.3172 56.1683L18.1619 56.4221C20.6498 59.1287 23.5551 61.287 26.9008 62.7627C30.2465 64.2384 33.8559 65 37.5044 65C41.1528 65 44.7622 64.2384 48.108 62.7627C51.4537 61.287 54.4642 59.1287 56.952 56.4221L34.4319 56.3866Z" fill="white"/>
</svg>
