<svg width="58" height="58" viewBox="0 0 58 58" fill="none" xmlns="http://www.w3.org/2000/svg">
<circle cx="29" cy="29" r="28" fill="white"/>
<path d="M29 1L35.9373 8.08333L18.4687 25.5L11.5313 18.5833L29 1Z" fill="#F0B90B" stroke="#F0B90B"/>
<path d="M39.5313 11.5L46.4687 18.5833L18.4687 46.5L11.5313 39.5833L39.5313 11.5Z" fill="#F0B90B" stroke="#F0B90B"/>
<path d="M7.93731 22L14.8746 29.0833L7.93731 36L1 29.0833L7.93731 22Z" fill="#F0B90B" stroke="#F0B90B"/>
<path d="M50.0627 22L57 29.0833L29 57L22.0627 50.0833L50.0627 22Z" fill="#F0B90B" stroke="#F0B90B"/>
<rect x="10" y="35" width="38" height="22" rx="8" fill="#E5E7EB"/>
<path d="M11.429 46.424C11.429 45.5227 11.624 44.721 12.014 44.019C12.404 43.3083 12.9457 42.758 13.639 42.368C14.341 41.9693 15.134 41.77 16.018 41.77C17.1013 41.77 18.0287 42.056 18.8 42.628C19.5713 43.2 20.087 43.98 20.347 44.968H17.903C17.721 44.5867 17.461 44.2963 17.123 44.097C16.7937 43.8977 16.4167 43.798 15.992 43.798C15.3073 43.798 14.7527 44.0363 14.328 44.513C13.9033 44.9897 13.691 45.6267 13.691 46.424C13.691 47.2213 13.9033 47.8583 14.328 48.335C14.7527 48.8117 15.3073 49.05 15.992 49.05C16.4167 49.05 16.7937 48.9503 17.123 48.751C17.461 48.5517 17.721 48.2613 17.903 47.88H20.347C20.087 48.868 19.5713 49.648 18.8 50.22C18.0287 50.7833 17.1013 51.065 16.018 51.065C15.134 51.065 14.341 50.87 13.639 50.48C12.9457 50.0813 12.404 49.531 12.014 48.829C11.624 48.127 11.429 47.3253 11.429 46.424ZM28.5463 47.256C28.5463 47.464 28.5333 47.6807 28.5073 47.906H23.4763C23.511 48.3567 23.654 48.7033 23.9053 48.946C24.1653 49.18 24.4817 49.297 24.8543 49.297C25.409 49.297 25.7947 49.063 26.0113 48.595H28.3773C28.256 49.0717 28.035 49.5007 27.7143 49.882C27.4023 50.2633 27.008 50.5623 26.5313 50.779C26.0547 50.9957 25.5217 51.104 24.9323 51.104C24.2217 51.104 23.589 50.9523 23.0343 50.649C22.4797 50.3457 22.0463 49.9123 21.7343 49.349C21.4223 48.7857 21.2663 48.127 21.2663 47.373C21.2663 46.619 21.418 45.9603 21.7213 45.397C22.0333 44.8337 22.4667 44.4003 23.0213 44.097C23.576 43.7937 24.213 43.642 24.9323 43.642C25.6343 43.642 26.2583 43.7893 26.8043 44.084C27.3503 44.3787 27.775 44.799 28.0783 45.345C28.3903 45.891 28.5463 46.528 28.5463 47.256ZM26.2713 46.671C26.2713 46.2897 26.1413 45.9863 25.8813 45.761C25.6213 45.5357 25.2963 45.423 24.9063 45.423C24.5337 45.423 24.2173 45.5313 23.9573 45.748C23.706 45.9647 23.55 46.2723 23.4893 46.671H26.2713ZM31.9421 41.38V51H29.7191V41.38H31.9421ZM40.3911 47.256C40.3911 47.464 40.3781 47.6807 40.3521 47.906H35.3211C35.3557 48.3567 35.4987 48.7033 35.7501 48.946C36.0101 49.18 36.3264 49.297 36.6991 49.297C37.2537 49.297 37.6394 49.063 37.8561 48.595H40.2221C40.1007 49.0717 39.8797 49.5007 39.5591 49.882C39.2471 50.2633 38.8527 50.5623 38.3761 50.779C37.8994 50.9957 37.3664 51.104 36.7771 51.104C36.0664 51.104 35.4337 50.9523 34.8791 50.649C34.3244 50.3457 33.8911 49.9123 33.5791 49.349C33.2671 48.7857 33.1111 48.127 33.1111 47.373C33.1111 46.619 33.2627 45.9603 33.5661 45.397C33.8781 44.8337 34.3114 44.4003 34.8661 44.097C35.4207 43.7937 36.0577 43.642 36.7771 43.642C37.4791 43.642 38.1031 43.7893 38.6491 44.084C39.1951 44.3787 39.6197 44.799 39.9231 45.345C40.2351 45.891 40.3911 46.528 40.3911 47.256ZM38.1161 46.671C38.1161 46.2897 37.9861 45.9863 37.7261 45.761C37.4661 45.5357 37.1411 45.423 36.7511 45.423C36.3784 45.423 36.0621 45.5313 35.8021 45.748C35.5507 45.9647 35.3947 46.2723 35.3341 46.671H38.1161ZM43.7868 44.955C44.0468 44.5563 44.3718 44.2443 44.7618 44.019C45.1518 43.785 45.5851 43.668 46.0618 43.668V46.021H45.4508C44.8961 46.021 44.4801 46.1423 44.2028 46.385C43.9255 46.619 43.7868 47.035 43.7868 47.633V51H41.5638V43.746H43.7868V44.955Z" fill="#343434"/>
</svg>
