<svg width="56" height="56" viewBox="0 0 56 56" fill="none" xmlns="http://www.w3.org/2000/svg">
<g clip-path="url(#clip0_900_1640)">
<path d="M28 0C43.4654 0 56 12.5371 56 28C56 43.4654 43.4654 56 28 56C12.5371 56 0 43.4641 0 28C0 12.5371 12.5371 0 28 0Z" fill="#F5AC37"/>
<path d="M29.032 29.977H39.6715C39.8983 29.977 40.0054 29.977 40.0218 29.6796C40.1087 28.5972 40.1087 27.5086 40.0218 26.425C40.0218 26.2146 39.9172 26.1276 39.6891 26.1276H18.5146C18.2525 26.1276 18.182 26.2146 18.182 26.4603V29.575C18.182 29.977 18.182 29.977 18.6016 29.977H29.032V29.977ZM38.8336 22.4874C38.8638 22.4081 38.8638 22.3211 38.8336 22.243C38.6559 21.8562 38.4455 21.487 38.2011 21.1405C37.8331 20.5483 37.3997 20.0027 36.9058 19.5126C36.6727 19.2165 36.403 18.9506 36.1006 18.725C34.5861 17.4361 32.7855 16.5238 30.8502 16.0652C29.8736 15.8459 28.8757 15.7413 27.8753 15.7502H18.4781C18.216 15.7502 18.1807 15.8547 18.1807 16.0828V22.2947C18.1807 22.5567 18.1807 22.6273 18.5134 22.6273H38.7076C38.7076 22.6273 38.8827 22.592 38.918 22.4874H38.8323H38.8336ZM38.8336 33.6171C38.5362 33.5844 38.2363 33.5844 37.939 33.6171H18.5323C18.2702 33.6171 18.182 33.6171 18.182 33.9674V40.0407C18.182 40.3204 18.182 40.391 18.5323 40.391H27.4922C27.9206 40.4237 28.349 40.3935 28.7686 40.304C30.0689 40.2108 31.3479 39.9285 32.5675 39.4636C33.0111 39.3099 33.4395 39.1095 33.8439 38.8689H33.9662C36.0666 37.7764 37.7727 36.0603 38.8487 33.9536C38.8487 33.9536 38.9709 33.689 38.8336 33.6197V33.6171ZM14.6653 43.5397V43.4352V39.3578V37.9755V33.8628C14.6653 33.6348 14.6653 33.6008 14.3856 33.6008H10.5879C10.3775 33.6008 10.2905 33.6008 10.2905 33.321V29.9959H14.3503C14.5771 29.9959 14.6653 29.9959 14.6653 29.6985V26.4086C14.6653 26.1982 14.6653 26.1465 14.3856 26.1465H10.5879C10.3775 26.1465 10.2905 26.1465 10.2905 25.8668V22.7873C10.2905 22.5945 10.2905 22.5429 10.5703 22.5429H14.3326C14.5947 22.5429 14.6653 22.5429 14.6653 22.2102V12.7778C14.6653 12.4981 14.6653 12.4275 15.0156 12.4275H28.1399C29.0924 12.4653 30.0387 12.5699 30.9749 12.7425C32.904 13.0991 34.7574 13.7883 36.4522 14.7724C37.5761 15.4339 38.6106 16.2327 39.5316 17.1526C40.2246 17.872 40.8496 18.6507 41.404 19.4798C41.9546 20.3202 42.412 21.2186 42.7711 22.1573C42.8152 22.4018 43.0496 22.5668 43.294 22.5252H46.4264C46.8284 22.5252 46.8284 22.5252 46.846 22.9108V25.7811C46.846 26.0608 46.7414 26.1314 46.4604 26.1314H44.045C43.8006 26.1314 43.73 26.1314 43.7476 26.4464C43.8434 27.5124 43.8434 28.5821 43.7476 29.6481C43.7476 29.9455 43.7476 29.9807 44.0815 29.9807H46.8447C46.967 30.1382 46.8447 30.2957 46.8447 30.4545C46.8624 30.6574 46.8624 30.8628 46.8447 31.0656V33.1837C46.8447 33.4811 46.7578 33.5693 46.4945 33.5693H43.1869C42.9564 33.5252 42.7321 33.6726 42.6791 33.9019C41.8916 35.9494 40.6316 37.7853 39.0037 39.257C38.409 39.7925 37.784 40.2965 37.1313 40.7614C36.4307 41.1646 35.7491 41.5842 35.0309 41.9168C33.7091 42.5116 32.3231 42.95 30.9006 43.2285C29.5498 43.4704 28.1802 43.5801 26.8055 43.5612H14.6603V43.5435L14.6653 43.5397Z" fill="#FEFEFD"/>
<rect x="9" y="34" width="38" height="22" rx="8" fill="#E5E7EB"/>
<path d="M10.429 45.424C10.429 44.5227 10.624 43.721 11.014 43.019C11.404 42.3083 11.9457 41.758 12.639 41.368C13.341 40.9693 14.134 40.77 15.018 40.77C16.1013 40.77 17.0287 41.056 17.8 41.628C18.5713 42.2 19.087 42.98 19.347 43.968H16.903C16.721 43.5867 16.461 43.2963 16.123 43.097C15.7937 42.8977 15.4167 42.798 14.992 42.798C14.3073 42.798 13.7527 43.0363 13.328 43.513C12.9033 43.9897 12.691 44.6267 12.691 45.424C12.691 46.2213 12.9033 46.8583 13.328 47.335C13.7527 47.8117 14.3073 48.05 14.992 48.05C15.4167 48.05 15.7937 47.9503 16.123 47.751C16.461 47.5517 16.721 47.2613 16.903 46.88H19.347C19.087 47.868 18.5713 48.648 17.8 49.22C17.0287 49.7833 16.1013 50.065 15.018 50.065C14.134 50.065 13.341 49.87 12.639 49.48C11.9457 49.0813 11.404 48.531 11.014 47.829C10.624 47.127 10.429 46.3253 10.429 45.424ZM27.5463 46.256C27.5463 46.464 27.5333 46.6807 27.5073 46.906H22.4763C22.511 47.3567 22.654 47.7033 22.9053 47.946C23.1653 48.18 23.4817 48.297 23.8543 48.297C24.409 48.297 24.7947 48.063 25.0113 47.595H27.3773C27.256 48.0717 27.035 48.5007 26.7143 48.882C26.4023 49.2633 26.008 49.5623 25.5313 49.779C25.0547 49.9957 24.5217 50.104 23.9323 50.104C23.2217 50.104 22.589 49.9523 22.0343 49.649C21.4797 49.3457 21.0463 48.9123 20.7343 48.349C20.4223 47.7857 20.2663 47.127 20.2663 46.373C20.2663 45.619 20.418 44.9603 20.7213 44.397C21.0333 43.8337 21.4667 43.4003 22.0213 43.097C22.576 42.7937 23.213 42.642 23.9323 42.642C24.6343 42.642 25.2583 42.7893 25.8043 43.084C26.3503 43.3787 26.775 43.799 27.0783 44.345C27.3903 44.891 27.5463 45.528 27.5463 46.256ZM25.2713 45.671C25.2713 45.2897 25.1413 44.9863 24.8813 44.761C24.6213 44.5357 24.2963 44.423 23.9063 44.423C23.5337 44.423 23.2173 44.5313 22.9573 44.748C22.706 44.9647 22.55 45.2723 22.4893 45.671H25.2713ZM30.9421 40.38V50H28.7191V40.38H30.9421ZM39.3911 46.256C39.3911 46.464 39.3781 46.6807 39.3521 46.906H34.3211C34.3557 47.3567 34.4987 47.7033 34.7501 47.946C35.0101 48.18 35.3264 48.297 35.6991 48.297C36.2537 48.297 36.6394 48.063 36.8561 47.595H39.2221C39.1007 48.0717 38.8797 48.5007 38.5591 48.882C38.2471 49.2633 37.8527 49.5623 37.3761 49.779C36.8994 49.9957 36.3664 50.104 35.7771 50.104C35.0664 50.104 34.4337 49.9523 33.8791 49.649C33.3244 49.3457 32.8911 48.9123 32.5791 48.349C32.2671 47.7857 32.1111 47.127 32.1111 46.373C32.1111 45.619 32.2627 44.9603 32.5661 44.397C32.8781 43.8337 33.3114 43.4003 33.8661 43.097C34.4207 42.7937 35.0577 42.642 35.7771 42.642C36.4791 42.642 37.1031 42.7893 37.6491 43.084C38.1951 43.3787 38.6197 43.799 38.9231 44.345C39.2351 44.891 39.3911 45.528 39.3911 46.256ZM37.1161 45.671C37.1161 45.2897 36.9861 44.9863 36.7261 44.761C36.4661 44.5357 36.1411 44.423 35.7511 44.423C35.3784 44.423 35.0621 44.5313 34.8021 44.748C34.5507 44.9647 34.3947 45.2723 34.3341 45.671H37.1161ZM42.7868 43.955C43.0468 43.5563 43.3718 43.2443 43.7618 43.019C44.1518 42.785 44.5851 42.668 45.0618 42.668V45.021H44.4508C43.8961 45.021 43.4801 45.1423 43.2028 45.385C42.9255 45.619 42.7868 46.035 42.7868 46.633V50H40.5638V42.746H42.7868V43.955Z" fill="#343434"/>
</g>
<defs>
<clipPath id="clip0_900_1640">
<rect width="56" height="56" fill="white"/>
</clipPath>
</defs>
</svg>
