<svg xmlns="http://www.w3.org/2000/svg" width="32" height="32" viewBox="0 0 103 103" fill="none"><path fill-rule="evenodd" clip-rule="evenodd" d="M22.9502 10.2643C22.5477 11.0133 21.7426 13.105 21.4397 14.1883C19.8648 19.8224 21.3755 26.3702 25.3503 31.1377L26.0965 32.0326L29.0759 59.395C30.7146 74.4442 32.1004 87.0127 32.1552 87.3248C32.2101 87.637 32.5069 88.4128 32.8147 89.0488C33.7536 90.9892 35.6743 92.4326 37.855 92.8365C38.4057 92.9387 44.2607 93 53.4499 93C69.2309 93 69.0815 93.0071 70.744 92.1786C71.5853 91.7592 72.7659 90.7069 73.3908 89.8198C74.4169 88.3626 74.3583 88.7945 77.6089 58.7058C79.2949 43.0991 80.7113 30.1293 80.7562 29.8841L80.8379 29.4382H74.7298H68.6217L70.0594 23.3172L71.4971 17.1961L76.8355 17.1533L82.1739 17.1105V15.3214V13.5324L76.3237 13.5805L70.4735 13.6289L69.6896 14.0791C68.3996 14.82 68.257 15.2002 66.5758 22.3848C65.7412 25.9521 65.0208 28.9983 64.9748 29.1545C64.8966 29.4201 64.331 29.4382 56.1173 29.4382H47.3432L47.8958 28.2627C49.2297 25.4256 49.7438 22.8705 49.5976 19.8049C49.4849 17.445 48.9596 15.2967 48.0125 13.3219C47.3963 12.0372 47.3135 11.9395 46.7527 11.8368C46.4226 11.7762 45.5753 11.7771 44.87 11.8389C41.8951 12.0992 39.2387 12.9005 37.0063 14.2115C36.2609 14.6491 35.6172 15.0071 35.5757 15.0071C35.5342 15.0071 35.0793 14.6549 34.565 14.2244C31.8855 11.9824 28.6739 10.6017 25.0825 10.1479C23.35 9.92899 23.1236 9.94131 22.9502 10.2643ZM29.0508 14.9374C34.2926 17.3454 37.5575 22.8873 36.9578 28.3587L36.8395 29.4382H32.706H28.5725L27.8458 28.5334C26.3627 26.6874 25.0461 23.6969 24.575 21.104C24.2245 19.1754 24.5275 15.9596 25.2289 14.1641L25.3996 13.7266L26.6103 14.0495C27.2762 14.227 28.3744 14.6266 29.0508 14.9374ZM45.336 16.2336C45.8631 17.7536 46.0442 19.2551 45.9532 21.3526C45.8324 24.1368 45.13 26.2444 43.5466 28.5743L42.9596 29.4382H41.7155H40.4714L40.5838 28.0853C40.8135 25.3186 40.1057 22.0793 38.6842 19.3927C37.7435 17.6149 37.6859 17.7879 39.5213 16.878C40.8349 16.2266 41.9147 15.8571 43.3385 15.572C44.9161 15.2562 45.0074 15.2865 45.336 16.2336ZM64.0436 33.2082C64.0019 33.3197 63.5292 35.2898 62.9933 37.5861L62.0188 41.7614H46.4015H30.784L30.4209 38.3969C30.2212 36.5464 30.0106 34.5764 29.953 34.0189L29.8481 33.0055H46.9838C60.6221 33.0055 64.104 33.0468 64.0436 33.2082ZM76.7001 33.2892C76.7016 33.4454 76.5023 35.4155 76.2571 37.6672L75.8112 41.7614H70.7594H65.7075L65.8225 41.3155C66.0379 40.4795 67.7351 33.185 67.7351 33.095C67.7351 33.0458 69.7515 33.0055 72.2161 33.0055C76.372 33.0055 76.6973 33.0261 76.7001 33.2892ZM75.3682 45.6124C75.3649 46.5115 70.8778 86.8446 70.7425 87.1922C70.4824 87.8606 69.5393 88.809 68.8153 89.1303C68.1877 89.4089 67.3092 89.4256 53.2963 89.4256C39.1597 89.4256 38.4097 89.411 37.7616 89.1235C36.9434 88.7605 36.2588 88.0939 35.9194 87.3302C35.7541 86.9584 34.9181 79.8526 33.4489 66.3321C32.2275 55.0924 31.2271 45.7686 31.2256 45.6124C31.2233 45.3436 32.3839 45.3287 53.2963 45.3287C74.208 45.3287 75.3694 45.3436 75.3682 45.6124ZM52.0091 52.9911L47.1556 57.7351L52.011 62.4767L56.8666 67.2186L61.7604 62.4352L66.6542 57.6519L61.8434 52.9496C59.1974 50.3633 56.9943 48.2473 56.9475 48.2473C56.9007 48.2473 54.6784 50.382 52.0091 52.9911ZM59.2716 60.0009L56.9475 62.2716L54.584 59.9625L52.2205 57.6533L54.5403 55.3825L56.8602 53.1116L59.228 55.4209L61.5959 57.7302L59.2716 60.0009ZM42.5086 78.8121V85.8655H49.7281H56.9475V78.8121V71.7587H49.7281H42.5086V78.8121ZM53.2963 78.8964V82.4667L49.6866 82.4231L46.0769 82.3793L46.0319 79.0597C46.007 77.2339 46.0234 75.6468 46.0681 75.533C46.1306 75.3739 46.9769 75.3259 49.7229 75.3259H53.2963V78.8964Z" fill="url(#paint0_linear_131_1710)"></path><defs><linearGradient id="paint0_linear_131_1710" x1="20.6216" y1="48.6705" x2="82.1739" y2="48.6705" gradientUnits="userSpaceOnUse"><stop stop-color="#296D38"></stop><stop offset="1" stop-color="#3FA78E"></stop></linearGradient></defs></svg>