<?xml version="1.0" encoding="UTF-8"?>
<!-- Created with Inkscape (http://www.inkscape.org/) -->
<svg width="1024mm" height="1024mm" version="1.1" viewBox="0 0 1024 1024" xmlns="http://www.w3.org/2000/svg">
 <g>
  <path d="m1024 512c0 282.72-228.7 512.57-511.43 512.57-282.72 0-512.57-229.85-512.57-512.57 0-282.72 229.85-512.57 512.57-512.57 282.72 0 511.43 229.85 511.43 512.57z" fill="#0245f5"/>
  <path d="m778.06 744.15c16.09-18.388 31.03-37.926 42.523-59.762l-71.255-35.627c-10.343 17.239-24.135 33.329-37.926 47.12-20.687 18.388-41.374 29.881-63.21 32.18-42.523 5.7464-71.255-6.8956-114.93-34.478-44.822-28.732-95.389-62.061-167.79-52.867-43.672 5.7465-83.897 28.732-119.52 68.956-16.09 18.388-29.881 37.926-42.523 59.762l72.404 35.627c10.343-17.239 22.985-33.329 37.926-47.12 19.538-18.388 40.224-29.881 63.21-32.18 5.7463-1.1494 11.493-1.1494 18.388-1.1494 32.18 0 58.613 12.642 95.389 35.628 41.374 27.582 94.24 60.911 167.79 51.717 44.822-5.7463 85.046-28.732 119.52-67.807zm0-213.76c16.09-18.388 31.03-39.075 42.523-59.762l-71.255-36.777c-10.343 18.388-24.135 33.329-37.926 48.269-20.687 18.388-41.374 28.732-63.21 32.18-42.523 4.5971-71.255-8.0449-114.93-35.627-44.822-28.732-95.389-60.911-167.79-51.717-43.672 5.7463-83.897 28.732-119.52 67.807-16.09 18.388-29.881 39.075-42.523 59.762l72.404 36.777c10.343-18.388 22.985-33.329 37.926-48.269 19.538-18.388 40.224-28.732 63.21-31.03 5.7463-1.1494 11.493-1.1494 18.388-1.1494 32.18 0 58.613 12.642 95.389 35.627 41.374 26.433 94.24 59.762 167.79 50.568 44.822-5.7464 85.046-27.583 119.52-66.658zm0-214.91c16.09-18.388 31.03-37.926 42.523-59.762l-71.255-35.627c-10.343 17.239-24.135 33.329-37.926 47.12-20.687 18.388-41.374 29.881-63.21 32.18-42.523 5.7463-71.255-6.8955-114.93-34.478-44.822-28.732-95.389-62.061-167.79-52.867-43.672 5.7464-83.897 28.732-119.52 68.956-16.09 18.388-29.881 37.926-42.523 59.762l72.404 35.627c10.343-17.239 22.985-33.329 37.926-47.12 19.538-18.388 40.224-29.881 63.21-32.18 5.7463-1.1493 11.493-1.1493 18.388-1.1493 32.18 0 58.613 12.642 95.389 35.627 41.374 27.583 94.24 60.911 167.79 51.717 44.822-5.7463 85.046-28.732 119.52-67.807z" fill="#fff"/>
 </g>
</svg>
