<svg width="30" height="30" viewBox="0 0 30 30" fill="none" xmlns="http://www.w3.org/2000/svg">
<circle cx="15" cy="15" r="15" fill="#2E98F1"/>
<path d="M21.0525 21.527C19.8373 23.6153 17.5833 25 15 25C12.4167 25 10.1627 23.6153 8.96542 21.5604L8.9475 21.527C8.35183 20.5309 8 19.3329 8 18.0543C8 16.7757 8.35183 15.5777 8.96556 14.5488L8.94748 14.5816L14.2708 5.41838C14.4172 5.1668 14.6888 5 15 5C15.3112 5 15.5828 5.1668 15.727 5.41436L15.7292 5.41838L21.0525 14.5816C21.6482 15.5777 22 16.7757 22 18.0543C22 19.3329 21.6482 20.5309 21.0344 21.5598L21.0525 21.527H21.0525ZM16.4996 9.77775L15.3646 7.824C15.2914 7.69822 15.1556 7.6148 15 7.6148C14.8444 7.6148 14.7086 7.6982 14.6365 7.82199L14.6354 7.824L10.269 15.34C9.80371 16.1178 9.52886 17.0533 9.52886 18.0518C9.52886 18.6707 9.63447 19.2654 9.82896 19.8195L9.81733 19.7814C9.87969 19.4987 9.95659 19.2549 10.0521 19.0203L10.0407 19.0521C10.6438 17.5394 12.0075 16.3721 14.0948 15.5825C15.5297 15.0415 16.4457 14.2459 16.8179 13.2175C17.2973 11.8924 16.7966 10.4471 16.4996 9.77775ZM18.4349 13.1092L18.4295 13.1395C18.3846 13.348 18.3255 13.5512 18.2636 13.7159C17.7363 15.1855 16.5174 16.2898 14.6411 16.9971C12.9811 17.6255 11.9148 18.498 11.4719 19.5909L11.4805 19.565C11.3271 19.9713 11.2433 20.4108 11.2433 20.8695C11.2433 21.3615 11.3397 21.8314 11.5058 22.2366L11.4976 22.23C12.4432 23.0121 13.6642 23.4834 14.9973 23.4834C17.0172 23.4834 18.7798 22.4013 19.731 20.7691L19.7169 20.7947C20.1966 19.9904 20.4717 19.054 20.4717 18.0545C20.4717 17.0551 20.1966 16.1187 19.731 15.34L18.435 13.1092H18.4349Z" fill="white"/>
</svg>
