<svg width="200" height="200" fill="none" xmlns="http://www.w3.org/2000/svg"><mask id="suipad-logo2_svg__a" maskUnits="userSpaceOnUse" x="52" y="53" width="96" height="58" style="mask-type: luminance;"><path d="M52.692 53.681h94.4v56.786h-94.4V53.681Z" fill="#fff"></path></mask><g mask="url(#suipad-logo2_svg__a)"><path d="m140.615 72.708-12.523-12.512c-.007-.008-.015-.013-.023-.021-.009-.008-.017-.019-.027-.03a21.995 21.995 0 0 0-15.65-6.476c-4.538 0-8.865 1.36-12.523 3.877a21.995 21.995 0 0 0-12.521-3.877c-5.913 0-11.473 2.3-15.652 6.477L59.173 72.658A21.976 21.976 0 0 0 52.692 88.3a21.97 21.97 0 0 0 6.48 15.64 22.003 22.003 0 0 0 15.653 6.479c4.537 0 8.865-1.361 12.523-3.879a21.987 21.987 0 0 0 12.52 3.879c4.534 0 8.857-1.357 12.513-3.871a21.973 21.973 0 0 0 12.581 3.921 22.009 22.009 0 0 0 15.653-6.477 21.976 21.976 0 0 0 6.483-15.642 21.975 21.975 0 0 0-6.483-15.642ZM80.55 100.275c-4.935 2.35-11.033 1.49-15.115-2.59-5.177-5.175-5.177-13.593 0-18.768v-.002l12.523-12.513a13.198 13.198 0 0 1 9.392-3.888c2.015 0 3.963.446 5.727 1.292l-8.858 8.85c-3.434 3.431-5.596 7.792-6.26 12.513a22.245 22.245 0 0 0-.222 3.129c0 4.204 1.171 8.227 3.35 11.704-.179.098-.36.188-.537.273Zm28.71-2.59a13.194 13.194 0 0 1-9.391 3.888 13.195 13.195 0 0 1-9.392-3.888c-5.177-5.175-5.177-13.593 0-18.768l9.392-9.386 9.391 9.386c5.18 5.175 5.18 13.593 0 18.768Zm25.092.05c-4.1 4.096-10.233 4.948-15.179 2.559a16.541 16.541 0 0 1-.531-.271 21.95 21.95 0 0 0 3.362-11.721c0-1.058-.077-2.1-.221-3.13-.664-4.72-2.829-9.08-6.262-12.512l-8.804-8.795-.05-.05c4.935-2.35 11.033-1.49 15.114 2.59.009.007.015.016.025.026l.025.023 12.463 12.454.058.059a13.184 13.184 0 0 1 3.892 9.385c0 3.546-1.382 6.875-3.892 9.383Z" fill="#4EC3C9"></path></g><path d="M68.54 135.874c3.248 0 5.936-1.636 5.936-5.019 0-3.517-3.002-4.256-5.377-4.861-1.68-.404-3.023-.739-3.023-1.837 0-1.029 1.098-1.5 2.195-1.5 1.275 0 2.396.627 2.396 1.994h3.338c0-3.138-2.038-5.063-5.644-5.063-3.473 0-5.69 1.702-5.69 4.704 0 3.382 2.867 4.077 5.242 4.659 1.702.381 3.136.716 3.136 1.95 0 1.164-1.255 1.835-2.532 1.835-1.39 0-2.643-.74-2.643-2.24h-3.428c0 3.361 2.488 5.378 6.094 5.378ZM82.047 135.917c3.428 0 5.69-2.196 5.69-5.464v-6.99h-3.27v6.631c0 1.702-.897 2.732-2.42 2.732-1.502 0-2.42-1.009-2.42-2.732v-6.631h-3.27v6.99c0 3.268 2.284 5.464 5.69 5.464ZM90.268 121.851h3.248v-3.025h-3.248v3.025Zm0 13.708h3.269v-12.096h-3.269v12.096ZM102.474 119.88h-6.025v15.679h3.384v-4.883h2.641c3.159 0 5.534-2.307 5.534-5.398 0-3.092-2.396-5.398-5.534-5.398Zm-.156 7.66h-2.485v-4.502h2.485c1.344 0 2.263.94 2.263 2.24 0 1.298-.919 2.262-2.263 2.262ZM119.568 123.463l-.338 1.142c-1.052-.919-2.419-1.477-3.987-1.477-3.628 0-6.338 2.731-6.338 6.383s2.71 6.407 6.338 6.407c1.545 0 2.889-.538 3.92-1.457l.292 1.098h2.552v-12.096h-2.439Zm-4.057 9.363c-1.904 0-3.291-1.433-3.291-3.315 0-1.904 1.387-3.314 3.291-3.314s3.294 1.41 3.294 3.314c0 1.904-1.39 3.315-3.294 3.315ZM133.588 119.117v5.017c-.939-.648-2.06-1.006-3.314-1.006-3.673 0-6.361 2.731-6.361 6.406 0 3.65 2.688 6.406 6.361 6.406a5.801 5.801 0 0 0 3.785-1.366l.381 1.008h2.419v-16.465h-3.271Zm-3.046 13.732c-1.904 0-3.291-1.434-3.291-3.315 0-1.904 1.387-3.317 3.291-3.317s3.294 1.413 3.294 3.317c0 1.881-1.39 3.315-3.294 3.315Z" fill="#4EC3C9"></path></svg>