<svg width="80" height="80" viewBox="0 0 80 80" fill="none" xmlns="http://www.w3.org/2000/svg">
<rect width="80" height="80" rx="40" fill="black"/>
<path fill-rule="evenodd" clip-rule="evenodd" d="M12.2528 48.9271C10.7886 45.902 10 42.5432 10 39.8569C10 37.1681 10.8208 33.8488 12.3249 30.8746C13.828 27.9023 16.0335 25.2354 18.8326 23.8998C21.6517 22.5546 25.0294 22.581 28.802 24.9189C32.4847 27.2012 36.5459 31.685 40.8768 39.2468C45.2346 31.6858 49.2634 27.2025 52.8815 24.9202C56.5886 22.5818 59.8716 22.5528 62.5929 23.9018C65.292 25.2397 67.391 27.9095 68.8126 30.8805C70.2357 33.8547 71 37.1718 71 39.8569C71 42.5405 70.252 45.8977 68.8494 48.9225C67.4485 51.9437 65.3743 54.6763 62.6909 56.0569C59.9836 57.4499 56.7059 57.441 52.9861 55.0707C49.3551 52.7569 45.2945 48.191 40.875 40.4671C36.4231 48.1924 32.3002 52.7587 28.5936 55.0722C24.7974 57.4416 21.4325 57.4484 18.642 56.0587C15.8734 54.68 13.7157 51.9495 12.2528 48.9271ZM40.5282 39.8564C36.0302 47.7308 31.9082 52.2887 28.275 54.5564C24.6354 56.828 21.4922 56.8006 18.9101 55.5147C16.3062 54.2179 14.2269 51.6179 12.7959 48.6614C11.3662 45.7077 10.604 42.4393 10.604 39.8569C10.604 37.2769 11.3959 34.0513 12.8633 31.1497C14.3316 28.246 16.4561 25.7059 19.0916 24.4483C21.7071 23.2002 24.8683 23.1944 28.4851 25.4358C32.0942 27.6724 36.1539 32.1476 40.5282 39.8564ZM41.2237 39.8574C45.6909 47.7326 49.7513 52.2906 53.3094 54.5579C56.8729 56.8285 59.9229 56.7991 62.4157 55.5165C64.9324 54.2216 66.9306 51.6236 68.302 48.666C69.6717 45.712 70.396 42.442 70.396 39.8569C70.396 37.2732 69.6568 34.0455 68.2683 31.1437C66.8784 28.2388 64.8581 25.7016 62.3258 24.4463C59.8157 23.202 56.7552 23.1936 53.2025 25.4345C49.6566 27.6712 45.628 32.1472 41.2237 39.8574Z" fill="white"/>
<path fill-rule="evenodd" clip-rule="evenodd" d="M13.3716 48.6069C11.9654 45.6905 11.2079 42.4524 11.2079 39.8621C11.2079 37.2693 11.9964 34.0692 13.4409 31.2018C14.8844 28.3365 17.0033 25.7641 19.6937 24.4755C22.4044 23.1771 25.6518 23.2033 29.2767 25.4582C32.8115 27.6571 36.7077 31.9742 40.8617 39.2504C45.0415 31.975 48.9066 27.6584 52.3794 25.4595C55.9415 23.2041 59.0979 23.1753 61.7149 24.4775C64.3095 25.7685 66.326 28.3437 67.6912 31.2078C69.0579 34.075 69.7921 37.273 69.7921 39.8621C69.7921 42.4497 69.0736 45.6862 67.7266 48.6023C66.3812 51.5147 64.3886 54.1505 61.8092 55.4827C59.2056 56.8273 56.054 56.8179 52.4797 54.5317C48.9946 52.3024 45.0989 47.9062 40.86 40.4739C36.5899 47.9076 32.6344 52.3042 29.0766 54.5332C25.429 56.8185 22.1939 56.8258 19.5106 55.4845C16.8494 54.1542 14.7765 51.5204 13.3716 48.6069ZM40.5134 39.8616C36.1969 47.446 32.2418 51.8347 28.7572 54.0179C25.2664 56.2049 22.2538 56.1777 19.7795 54.9408C17.2831 53.6929 15.2883 51.1899 13.9151 48.3421C12.5432 45.497 11.8119 42.3489 11.8119 39.8621C11.8119 37.3777 12.5717 34.271 13.9797 31.4761C15.3888 28.6791 17.4268 26.2338 19.9535 25.0236C22.46 23.823 25.4901 23.8167 28.9589 25.9745C32.4204 28.1278 36.3156 32.4369 40.5134 39.8616ZM41.2083 39.8626C45.4954 47.4477 49.3913 51.8366 52.804 54.0194C56.2216 56.2055 59.1447 56.1762 61.5332 54.9426C63.9459 53.6965 65.8627 51.1957 67.1788 48.3466C68.4932 45.5012 69.1881 42.3516 69.1881 39.8621C69.1881 37.374 68.4788 34.2651 67.1465 31.4701C65.8127 28.6719 63.8746 26.2295 61.447 25.0216C59.0419 23.8248 56.1086 23.8158 52.7013 25.9732C49.3003 28.1266 45.435 32.4365 41.2083 39.8626Z" fill="white"/>
<path fill-rule="evenodd" clip-rule="evenodd" d="M14.4915 47.8253C13.1427 45.0718 12.4158 42.0138 12.4158 39.5663C12.4158 37.1163 13.1725 34.0941 14.558 31.3868C15.9427 28.6811 17.9754 26.2515 20.5569 25.0343C23.1576 23.8081 26.2725 23.8331 29.7491 25.962C33.1364 28.0363 36.8686 32.1064 40.8467 38.962C44.8493 32.1072 48.5517 28.0376 51.8796 25.9633C55.2959 23.8339 58.3238 23.8063 60.8349 25.0363C63.3246 26.2558 65.2592 28.6883 66.5687 31.3928C67.8796 34.1 68.5842 37.1201 68.5842 39.5663C68.5842 42.0111 67.8947 45.0674 66.6028 47.8207C65.3123 50.5707 63.4006 53.0604 60.9254 54.3189C58.4271 55.5891 55.4038 55.5798 51.9756 53.4212C48.6358 51.3182 44.9042 47.1735 40.8449 40.1708C36.7558 47.1749 32.9669 51.32 29.5574 53.4227C26.0591 55.5803 22.9558 55.5876 20.3812 54.3207C17.8277 53.0641 15.8391 50.5764 14.4915 47.8253ZM40.497 39.5658C36.3635 46.7132 32.5769 50.8482 29.2416 52.9052C25.899 54.9667 23.015 54.9407 20.6468 53.7753C18.2576 52.5996 16.3481 50.2413 15.0333 47.5571C13.7197 44.8753 13.0198 41.9086 13.0198 39.5663C13.0198 37.2265 13.7469 34.2989 15.0951 31.6645C16.4442 29.0284 18.395 26.7243 20.8134 25.584C23.2124 24.4528 26.1134 24.4465 29.4349 26.4806C32.748 28.5094 36.4772 32.5691 40.497 39.5658ZM41.1946 39.5669C45.3 46.715 49.03 50.85 52.2962 52.9067C55.5687 54.9672 58.367 54.9392 60.6528 53.7771C62.9616 52.6032 64.7964 50.247 66.0565 47.5617C67.3151 44.8796 67.9802 41.9113 67.9802 39.5663C67.9802 37.2227 67.3014 34.293 66.0257 31.6585C64.7487 29.0212 62.8935 26.72 60.5703 25.5821C58.2685 24.4546 55.4604 24.4457 52.1978 26.4793C48.9427 28.5082 45.2421 32.5688 41.1946 39.5669Z" fill="white"/>
<path fill-rule="evenodd" clip-rule="evenodd" d="M15.6103 47.5051C14.3195 44.8604 13.6238 41.9231 13.6238 39.5715C13.6238 37.2175 14.3481 34.3144 15.6741 31.714C16.9991 29.1153 18.9452 26.7802 21.418 25.61C23.9103 24.4306 26.8949 24.4553 30.2238 26.5013C33.4632 28.4922 37.0304 32.3957 40.8317 38.9657C44.6562 32.3965 48.1949 28.4935 51.3775 26.5026C54.6487 24.4562 57.5502 24.4288 59.9569 25.612C62.342 26.7845 64.1941 29.1225 65.4473 31.72C66.7019 34.3203 67.3762 37.2213 67.3762 39.5715C67.3762 41.9203 66.7164 44.856 65.4799 47.5005C64.2451 50.1416 62.4149 52.5346 60.0436 53.7446C57.649 54.9665 54.7519 54.9567 51.4693 52.8822C48.2753 50.8638 44.7086 46.8887 40.8299 40.1775C36.9225 46.89 33.301 50.8655 30.0405 52.8837C26.6907 54.9572 23.7172 54.965 21.2498 53.7464C18.8037 52.5383 16.8999 50.1474 15.6103 47.5051ZM40.4823 39.571C36.5301 46.4283 32.9105 50.3942 29.7238 52.3667C26.5301 54.3436 23.7765 54.3179 21.5161 53.2015C19.2344 52.0746 17.4096 49.8133 16.1525 47.2377C14.8967 44.6646 14.2277 41.8182 14.2277 39.5715C14.2277 37.3273 14.9227 34.5186 16.2115 31.9909C17.5013 29.4615 19.3657 27.2523 21.6753 26.1593C23.9653 25.0756 26.7351 25.0688 29.9088 27.0193C33.0742 28.9648 36.6389 32.8584 40.4823 39.571ZM41.1793 39.5721C45.1045 46.4301 48.67 50.396 51.7908 52.3682C54.9174 54.3442 57.5887 54.3164 59.7702 53.2032C61.975 52.0782 63.7285 49.8191 64.9333 47.2423C66.1365 44.6689 66.7723 41.8209 66.7723 39.5715C66.7723 37.3235 66.1234 34.5127 64.9039 31.9849C63.683 29.4543 61.9101 27.248 59.6916 26.1574C57.4946 25.0774 54.8139 25.068 51.6966 27.0181C48.5865 28.9636 45.0491 32.8581 41.1793 39.5721Z" fill="white"/>
<path fill-rule="evenodd" clip-rule="evenodd" d="M16.7291 47.7921C15.4963 45.2561 14.8317 42.4394 14.8317 40.1839C14.8317 37.9259 15.5236 35.142 16.7901 32.6484C18.0556 30.1567 19.9149 27.9161 22.2791 26.7928C24.6631 25.6602 27.5172 25.6848 30.6985 27.6477C33.79 29.5553 37.1922 33.292 40.8166 39.5764C44.4631 33.2928 47.8381 29.5565 50.8753 27.649C54.0015 25.6856 56.7765 25.6584 59.0789 26.7948C61.3595 27.9204 63.1291 30.1639 64.3259 32.6544C65.5241 35.1478 66.1683 37.9297 66.1683 40.1839C66.1683 42.4367 65.538 45.2517 64.3571 47.7875C63.1778 50.3197 61.4292 52.6159 59.1619 53.7775C56.871 54.9511 54.1 54.9407 50.9629 52.9504C47.9147 51.0164 44.513 47.211 40.8148 40.7915C37.0893 47.2124 33.6353 51.0181 30.5236 52.9519C27.3224 54.9413 24.4786 54.9496 22.1183 53.7793C19.7796 52.6196 17.9607 50.3255 16.7291 47.7921ZM40.4676 40.1834C36.6968 46.7506 33.2442 50.5474 30.206 52.4355C27.1611 54.3277 24.5381 54.3022 22.3855 53.2348C20.2113 52.1567 18.4711 49.9926 17.2718 47.5255C16.0737 45.061 15.4356 42.335 15.4356 40.1839C15.4356 38.0352 16.0985 35.3453 17.328 32.9245C18.5585 30.5017 20.3364 28.3874 22.5372 27.3418C24.7183 26.3055 27.3569 26.2982 30.3826 28.1652C33.4004 30.0273 36.8006 33.7548 40.4676 40.1834ZM41.1639 40.1844C44.909 46.7524 48.31 50.5492 51.2853 52.437C54.2662 54.3282 56.8105 54.3006 58.8877 53.2365C60.9884 52.1603 62.6606 49.9983 63.8101 47.53C64.9579 45.0653 65.5644 42.3377 65.5644 40.1839C65.5644 38.0315 64.9455 35.3394 63.7821 32.9185C62.6172 30.4946 60.9266 28.3831 58.8128 27.3398C56.7208 26.3073 54.1673 26.2973 51.1953 28.1639C48.2303 30.0261 44.8561 33.7545 41.1639 40.1844Z" fill="white"/>
<path fill-rule="evenodd" clip-rule="evenodd" d="M61.5636 46.8914C62.6008 44.6439 63.1485 42.157 63.1485 40.1943C63.1485 38.233 62.5895 35.7786 61.5384 33.5712C60.4857 31.3605 58.9595 29.4388 57.055 28.4903C55.1731 27.5529 52.8743 27.5418 50.193 29.2413C47.5179 30.9368 44.4701 34.3329 41.1331 40.1948C44.518 46.1828 47.5901 49.6415 50.2745 51.3602C52.9638 53.0821 55.254 53.0548 57.1224 52.0889C59.0151 51.1104 60.5247 49.1426 61.5636 46.8914ZM40.7848 40.8057C44.1217 46.6416 47.1936 50.1074 49.9501 51.8723C52.7961 53.6945 55.315 53.7061 57.3986 52.6288C59.458 51.5642 61.0434 49.4614 62.1115 47.1469C63.1813 44.8288 63.7525 42.255 63.7525 40.1943C63.7525 38.1321 63.1687 35.5887 62.0831 33.309C60.9991 31.0326 59.3946 28.978 57.3232 27.9463C55.2292 26.9033 52.707 26.9302 49.8709 28.7277C47.1244 30.4684 44.0768 33.8711 40.7865 39.583C37.5159 33.8703 34.4436 30.4671 31.6481 28.7264C28.7621 26.9293 26.1685 26.9051 24.0012 27.9443C21.8542 28.9737 20.1684 31.0254 19.022 33.3031C17.8747 35.5828 17.2475 38.1284 17.2475 40.1943C17.2475 42.2577 17.8499 44.8331 18.9667 47.1515C20.0822 49.4671 21.7313 51.5678 23.8553 52.6307C26.0014 53.7045 28.5858 53.6951 31.4899 51.8738C34.3038 50.1091 37.4229 46.643 40.7848 40.8057ZM40.4383 40.1938C37.1241 34.3333 34.0528 30.9379 31.3301 29.2425C28.6002 27.5427 26.2241 27.5511 24.2612 28.4923C22.2779 29.4432 20.6729 31.3677 19.561 33.5771C18.4501 35.7844 17.8515 38.2367 17.8515 40.1943C17.8515 42.1543 18.4277 44.6397 19.5103 46.8869C20.5942 49.1369 22.1652 51.1068 24.1244 52.0871C26.0614 53.0564 28.423 53.0816 31.1702 51.3587C33.9114 49.6396 37.0302 46.181 40.4383 40.1938Z" fill="white"/>
<path fill-rule="evenodd" clip-rule="evenodd" d="M17.8479 47.4718C16.6731 45.0446 16.0396 42.3486 16.0396 40.1891C16.0396 38.0271 16.6991 35.3624 17.9061 32.9757C19.112 30.591 20.8846 28.4449 23.1402 27.3685C25.4158 26.2827 28.1396 26.307 31.1733 28.187C34.1168 30.0112 37.354 33.5812 40.8016 39.5798C44.27 33.582 47.4813 30.0124 50.3731 28.1883C53.3543 26.3079 56.0029 26.2809 58.201 27.3705C60.377 28.4492 62.0641 30.5982 63.2045 32.9817C64.3464 35.3682 64.9604 38.0309 64.9604 40.1891C64.9604 42.3458 64.3596 45.0403 63.2343 47.4672C62.1106 49.8906 60.4436 52.0901 58.2802 53.2032C56.093 54.3286 53.448 54.3176 50.4565 52.4114C47.5542 50.5619 44.3174 46.9263 40.7998 40.7985C37.2561 46.9277 33.9695 50.5637 31.0067 52.4129C27.9541 54.3182 25.24 54.3271 22.9868 53.205C20.7555 52.0937 19.0215 49.8963 17.8479 47.4718ZM40.4529 40.1886C36.8635 46.4658 33.5778 50.0935 30.6881 51.8971C27.7921 53.7046 25.2998 53.6793 23.2549 52.6609C21.1882 51.6317 19.5326 49.5647 18.391 47.2062C17.2507 44.8503 16.6436 42.2446 16.6436 40.1891C16.6436 38.136 17.2743 35.5649 18.4445 33.2508C19.6157 30.9348 21.3071 28.9153 23.3992 27.917C25.4712 26.9283 27.9785 26.9204 30.8563 28.7039C33.7266 30.4826 36.9623 34.0441 40.4529 40.1886ZM41.1485 40.1896C44.7135 46.4676 47.95 50.0953 50.7799 51.8986C53.615 53.7052 56.0323 53.6778 58.0051 52.6627C60.0018 51.6354 61.5927 49.5704 62.6869 47.2107C63.7794 44.8546 64.3564 42.2473 64.3564 40.1891C64.3564 38.1322 63.7675 35.559 62.6602 33.2449C61.5515 30.9276 59.9431 28.911 57.9339 27.9151C55.947 26.9301 53.5208 26.9196 50.6941 28.7026C47.8741 30.4815 44.6631 34.0437 41.1485 40.1896Z" fill="white"/>
<path fill-rule="evenodd" clip-rule="evenodd" d="M61.0032 46.5693C62.0121 44.4309 62.5446 42.0652 62.5446 40.1995C62.5446 38.3352 62.0012 36.0006 60.9787 33.9004C59.9549 31.7975 58.4707 29.9694 56.6182 29.067C54.7867 28.1747 52.549 28.1642 49.9396 29.7819C47.3381 31.3946 44.3737 34.6245 41.1275 40.2C44.4204 45.8956 47.4084 49.185 50.019 50.8199C52.6362 52.4589 54.8655 52.4331 56.6838 51.5136C58.5247 50.5827 59.9928 48.7109 61.0032 46.5693ZM40.7773 40.8008C44.0251 46.3545 47.0155 49.6542 49.6997 51.3352C52.4721 53.0715 54.9253 53.0824 56.9552 52.056C58.9623 51.041 60.5078 49.0361 61.5489 46.8295C62.5915 44.6197 63.1485 42.1656 63.1485 40.1995C63.1485 38.232 62.5792 35.8066 61.5212 33.6335C60.4645 31.463 58.9004 29.5041 56.8816 28.5206C54.8419 27.5269 52.3854 27.5523 49.6226 29.2651C46.9483 30.923 43.9814 34.1626 40.779 39.5984C37.5956 34.1618 34.6048 30.9217 31.8827 29.2638C29.0713 27.5515 26.5454 27.5286 24.4343 28.5187C22.3421 29.4999 20.6988 31.4558 19.5814 33.6275C18.4632 35.8007 17.8515 38.2281 17.8515 40.1995C17.8515 42.1683 18.4389 44.624 19.5274 46.8341C20.6147 49.0419 22.2222 51.0447 24.2921 52.0578C26.3827 53.081 28.8997 53.072 31.7287 51.3367C34.4687 49.656 37.5051 46.3559 40.7773 40.8008ZM40.4288 40.199C37.2048 34.6249 34.2176 31.3958 31.5697 29.7831C28.913 28.165 26.6 28.173 24.6896 29.0689C22.7603 29.9737 21.1993 31.8046 20.1178 33.9064C19.0372 36.0066 18.4554 38.339 18.4554 40.1995C18.4554 42.0625 19.0156 44.4265 20.0686 46.5647C21.1228 48.7052 22.6507 50.5791 24.5565 51.5119C26.4416 52.4345 28.7405 52.4584 31.4141 50.8184C34.0799 49.1832 37.1134 45.8938 40.4288 40.199Z" fill="white"/>
<path fill-rule="evenodd" clip-rule="evenodd" d="M59.8799 46.25C60.8335 44.2202 61.3366 41.9749 61.3366 40.2047C61.3366 38.4359 60.8232 36.2202 59.8569 34.2268C58.8891 32.2305 57.4871 30.4973 55.7394 29.6422C54.0129 28.7975 51.9025 28.7864 49.4384 30.3206C46.9819 31.85 44.1807 34.9138 41.1121 40.2052C44.2249 45.6108 47.0485 48.7311 49.5136 50.2815C51.9849 51.8359 54.0873 51.8102 55.8012 50.9398C57.538 50.0578 58.9248 48.283 59.8799 46.25ZM40.7622 40.8077C43.8295 46.0698 46.6549 49.1998 49.1933 50.7962C51.8202 52.4484 54.1473 52.4599 56.0735 51.4817C57.9767 50.5152 59.4405 48.607 60.426 46.5092C61.4131 44.4082 61.9406 42.0748 61.9406 40.2047C61.9406 38.3332 61.4014 36.027 60.3998 33.9608C59.3995 31.8973 57.9179 30.0329 56.0037 29.0963C54.0682 28.1493 51.7382 28.1746 49.1204 29.8044C46.5915 31.3789 43.7883 34.4518 40.764 39.6019C37.7574 34.451 34.9315 31.3776 32.3574 29.8031C29.6937 28.1738 27.2982 28.1511 25.2953 29.0944C23.3117 30.0286 21.7552 31.8901 20.6974 33.9548C19.6387 36.0211 19.0594 38.3294 19.0594 40.2047C19.0594 42.0775 19.6157 44.4125 20.6462 46.5138C21.6755 48.6128 23.1981 50.5188 25.1606 51.4835C27.1441 52.4584 29.5314 52.4489 32.2118 50.7977C34.8029 49.2015 37.6719 46.0711 40.7622 40.8077ZM40.4142 40.2042C37.3665 34.9141 34.5438 31.8512 32.0435 30.3218C29.5347 28.7873 27.353 28.7958 25.5516 29.6442C23.731 30.5016 22.2565 32.2377 21.2343 34.2328C20.213 36.2261 19.6634 38.4397 19.6634 40.2047C19.6634 41.9721 20.1926 44.2159 21.1879 46.2454C22.1843 48.2773 23.6277 50.0541 25.4259 50.938C27.2032 51.8117 29.3715 51.8354 31.8962 50.28C34.4136 48.7292 37.28 45.609 40.4142 40.2042Z" fill="white"/>
</svg>
