<svg width="300" height="300" viewBox="0 0 300 300" fill="none" xmlns="http://www.w3.org/2000/svg">
<g clip-path="url(#clip0_497_753)">
<path d="M150 300C232.843 300 300 232.843 300 150C300 67.1572 232.843 -0.000244141 150 -0.000244141C67.1572 -0.000244141 -0.000244141 67.1572 -0.000244141 150C-0.000244141 232.843 67.1572 300 150 300Z" fill="url(#paint0_linear_497_753)"/>
<path d="M207.067 211.354C195.609 230.984 174.357 244 150 244C125.643 244 104.391 230.984 93.1025 211.668L92.9336 211.354C87.3172 201.99 84 190.73 84 178.71C84 166.691 87.3172 155.431 93.1039 145.759L92.9334 146.067L143.124 59.9328C144.505 57.5679 147.065 56 150 56C152.934 56 155.495 57.5679 156.855 59.8949L156.875 59.9328L207.066 146.067C212.683 155.431 216 166.691 216 178.71C216 190.73 212.683 201.99 206.896 211.662L207.067 211.354H207.067ZM164.139 100.911L153.438 82.5456C152.747 81.3633 151.467 80.5791 150 80.5791C148.533 80.5791 147.253 81.3631 146.573 82.5267L146.562 82.5456L105.394 153.196C101.006 160.508 98.415 169.301 98.415 178.687C98.415 184.505 99.4108 190.095 101.245 195.303L101.135 194.945C101.723 192.288 102.448 189.996 103.349 187.791L103.241 188.09C108.928 173.87 121.785 162.898 141.465 155.475C154.995 150.39 163.631 142.912 167.14 133.244C171.66 120.789 166.939 107.203 164.139 100.911V100.911ZM182.387 132.226L182.335 132.512C181.912 134.471 181.355 136.381 180.771 137.929C175.8 151.744 164.307 162.124 146.616 168.773C130.965 174.68 120.911 182.882 116.735 193.155L116.816 192.911C115.37 196.73 114.58 200.861 114.58 205.173C114.58 209.798 115.488 214.215 117.055 218.024L116.978 217.962C125.893 225.314 137.405 229.744 149.974 229.744C169.02 229.744 185.639 219.573 194.606 204.229L194.473 204.47C198.997 196.91 201.59 188.108 201.59 178.713C201.59 169.318 198.997 160.515 194.606 153.196L182.387 132.226H182.387Z" fill="white"/>
</g>
<defs>
<linearGradient id="paint0_linear_497_753" x1="252.632" y1="43.4209" x2="39.4735" y2="272.369" gradientUnits="userSpaceOnUse">
<stop stop-color="#2E88F1"/>
<stop offset="1" stop-color="#2EF1DA"/>
</linearGradient>
<clipPath id="clip0_497_753">
<rect width="300" height="300" fill="white"/>
</clipPath>
</defs>
</svg>
