<svg width="56" height="56" viewBox="0 0 56 56" fill="none" xmlns="http://www.w3.org/2000/svg">
<circle cx="28" cy="28" r="28" fill="url(#paint0_linear_962_1583)"/>
<path d="M37.1401 22.1425H34.0756L33.563 22.0295L33.1419 21.7116L31.8989 20.2849L31.5687 20.0396L31.1686 19.9527L30.7686 20.0396L30.4383 20.2849L29.3729 21.5078L28.7528 21.9757L27.9982 22.1425H11.2265C10.743 23.5514 10.437 25.0169 10.3158 26.504H26.148L26.5469 26.4203L26.8812 26.1837L28.359 24.6173L28.681 24.3931L29.0636 24.3145L29.5218 24.4021L29.854 24.6464L31.097 26.0731L31.5179 26.3915L32.0307 26.504H44.9474C44.8289 25.0165 44.5228 23.5506 44.0366 22.1425H37.1401ZM19.893 35.6753L20.2915 35.5907L20.6262 35.3551L22.0983 33.7887L22.4209 33.5658L22.8029 33.4859L23.2668 33.5735L23.5991 33.8178L24.8363 35.2444L25.2579 35.5613L25.77 35.6753H43.2805C43.9477 34.281 44.4292 32.8025 44.7125 31.2789H27.9008L27.3923 31.1668L26.9729 30.8538L25.7299 29.4272L25.399 29.1782L24.9967 29.0894L24.5966 29.1773L24.2692 29.4272L23.2038 30.65L22.5799 31.115L21.8234 31.2789H10.5506C10.8311 32.8062 11.3108 34.2886 11.9769 35.687L19.893 35.6753ZM32.3171 17.3734L32.7187 17.2899L33.056 17.0531L34.5281 15.4925L34.8492 15.2647L35.2327 15.1839L35.6958 15.2718L36.0231 15.5216L37.2661 16.9483L37.6888 17.261L38.1998 17.3734H41.5277C39.9087 15.1818 37.8103 13.4033 35.3985 12.1784C32.9867 10.9535 30.3276 10.3158 27.6316 10.3158C24.9355 10.3158 22.2765 10.9535 19.8647 12.1784C17.4529 13.4033 15.3545 15.1818 13.7354 17.3734H32.3171ZM25.6268 40.0427H21.073L20.5631 39.9295L20.1451 39.6117L18.9078 38.1851L18.576 37.9394L18.1746 37.8525L17.7732 37.9394L17.4415 38.1851L16.3703 39.4312L15.7504 39.8997L14.9956 40.0659C16.6212 41.8387 18.5196 43.2523 20.7058 44.2188C22.892 45.1854 25.2505 45.6842 27.6344 45.6842C30.0184 45.6842 32.3769 45.1854 34.5631 44.2188C36.7493 43.2523 38.7164 41.8387 40.342 40.0659L25.6268 40.0427Z" fill="white"/>
<defs>
<linearGradient id="paint0_linear_962_1583" x1="47.1579" y1="8.10526" x2="7.36842" y2="50.8421" gradientUnits="userSpaceOnUse">
<stop stop-color="#FF9FCC"/>
<stop offset="1" stop-color="#FF278E"/>
</linearGradient>
</defs>
</svg>
