<svg width="107" height="107" viewBox="0 0 107 107" fill="none" xmlns="http://www.w3.org/2000/svg">
<circle cx="53.5" cy="53.5" r="53.5" fill="#1A1724"/>
<path d="M81.9231 35H28.0769C23.6162 35 20 38.6563 20 43.1667V75.8333C20 80.3437 23.6162 84 28.0769 84H81.9231C86.3838 84 90 80.3437 90 75.8333V43.1667C90 38.6563 86.3838 35 81.9231 35Z" stroke="white" stroke-width="1.5" stroke-linejoin="round"/>
<path d="M81 32.7766V27.9844C80.9996 26.8091 80.7266 25.6483 80.2004 24.5849C79.6743 23.5215 78.908 22.5817 77.9561 21.8326C77.0043 21.0834 75.8905 20.5434 74.6941 20.251C73.4977 19.9587 72.2482 19.9212 71.0348 20.1412L26.8225 27.3215C24.9026 27.6697 23.1705 28.6444 21.925 30.0777C20.6795 31.511 19.9987 33.3129 20 35.1727V43" stroke="white" stroke-width="1.5" stroke-linejoin="round"/>
<path d="M50.228 62.748H54.908C54.332 57.78 62.216 57.132 62.216 51.876C62.216 47.088 58.4 44.64 53.18 44.64C49.328 44.64 46.16 46.404 43.856 49.068L46.808 51.768C48.572 49.932 50.372 48.924 52.568 48.924C55.412 48.924 57.14 50.148 57.14 52.344C57.14 55.836 49.472 57.096 50.228 62.748ZM52.604 72.36C54.404 72.36 55.772 71.028 55.772 69.156C55.772 67.284 54.404 65.988 52.604 65.988C50.768 65.988 49.4 67.284 49.4 69.156C49.4 71.028 50.732 72.36 52.604 72.36Z" fill="white"/>
</svg>
