<svg width="480" height="480" viewBox="0 0 480 480" fill="none" xmlns="http://www.w3.org/2000/svg">
<g clip-path="url(#clip0_3234_283)">
<path d="M470 240C470 367.025 367.025 470 240 470C112.975 470 10 367.025 10 240C10 112.975 112.975 10 240 10C367.025 10 470 112.975 470 240Z" fill="url(#paint0_linear_3234_283)"/>
<path d="M480 240C480 372.548 372.548 480 240 480C107.452 480 0 372.548 0 240C0 107.452 107.452 0 240 0C372.548 0 480 107.452 480 240ZM40.08 240C40.08 350.413 129.587 439.92 240 439.92C350.413 439.92 439.92 350.413 439.92 240C439.92 129.587 350.413 40.08 240 40.08C129.587 40.08 40.08 129.587 40.08 240Z" fill="url(#paint1_linear_3234_283)"/>
<path fill-rule="evenodd" clip-rule="evenodd" d="M260 102C260 100.895 259.105 100 258 100H222C220.896 100 220 100.895 220 102V127.591C220 128.558 219.307 129.384 218.359 129.573C212.655 130.705 207.329 132.298 202.38 134.352C191.46 138.824 182.984 145.584 176.952 154.632C170.92 163.576 167.904 174.808 167.904 188.328C167.904 200.288 170.556 210.532 175.86 219.06C181.164 227.484 188.6 234.712 198.168 240.744C207.736 246.672 218.916 251.924 231.708 256.5C243.46 260.66 252.82 264.508 259.788 268.044C266.756 271.58 271.748 275.272 274.764 279.12C277.78 282.968 279.288 287.544 279.288 292.848C279.288 297.944 277.884 302.364 275.076 306.108C272.268 309.852 268.212 312.712 262.908 314.688C257.708 316.664 251.312 317.652 243.72 317.652C235.088 317.652 227.548 316.3 221.1 313.596C214.756 310.892 209.712 306.836 205.968 301.428C202.607 296.339 200.532 290.142 199.742 282.837C199.63 281.798 198.765 280.992 197.72 280.992H162.65C161.516 280.992 160.607 281.937 160.67 283.07C161.528 298.37 165.292 311.145 171.96 321.396C178.928 332.004 188.392 339.908 200.352 345.108C205.963 347.527 211.968 349.383 218.367 350.677C219.312 350.868 220 351.693 220 352.657V378C220 379.105 220.896 380 222 380H258C259.105 380 260 379.105 260 378V353.524C260 352.522 260.743 351.676 261.734 351.529C269.645 350.351 276.901 348.419 283.5 345.732C295.252 340.948 304.3 333.876 310.644 324.516C317.092 315.052 320.264 303.508 320.16 289.884C320.056 279.484 318.132 270.904 314.388 264.144C310.644 257.28 305.496 251.612 298.944 247.14C292.496 242.564 285.008 238.56 276.48 235.128C267.952 231.592 258.904 227.952 249.336 224.208C238 219.632 229.368 215.472 223.44 211.728C217.512 207.984 213.456 204.188 211.272 200.34C209.192 196.492 208.152 192.176 208.152 187.392C208.152 179.28 211.012 173.196 216.732 169.14C222.452 164.98 230.252 162.9 240.132 162.9C247.308 162.9 253.236 163.992 257.916 166.176C262.7 168.36 266.392 171.636 268.992 176.004C271.346 179.864 272.89 184.619 273.624 190.268C273.757 191.289 274.614 192.072 275.644 192.072H310.628C311.808 192.072 312.732 191.055 312.601 189.882C311.124 176.7 307.872 165.574 302.844 156.504C297.54 146.936 289.844 139.708 279.756 134.82C274.495 132.271 268.47 130.387 261.681 129.167C260.714 128.993 260 128.159 260 127.177V102Z" fill="white"/>
</g>
<defs>
<linearGradient id="paint0_linear_3234_283" x1="240" y1="10" x2="240" y2="470" gradientUnits="userSpaceOnUse">
<stop offset="0.09375" stop-color="#00A9F2"/>
<stop offset="0.927083" stop-color="#00CDFF"/>
</linearGradient>
<linearGradient id="paint1_linear_3234_283" x1="240" y1="0" x2="240" y2="480" gradientUnits="userSpaceOnUse">
<stop stop-color="#00C8FF"/>
<stop offset="1" stop-color="#00A0EC"/>
</linearGradient>
<clipPath id="clip0_3234_283">
<rect width="480" height="480" fill="white"/>
</clipPath>
</defs>
</svg>
