<svg width="56" height="56" viewBox="0 0 56 56" fill="none" xmlns="http://www.w3.org/2000/svg">
<g clip-path="url(#clip0_900_1644)">
<path d="M28 56C43.5168 56 56 43.5168 56 28C56 12.4832 43.5168 0 28 0C12.4832 0 0 12.4832 0 28C0 43.5168 12.4832 56 28 56Z" fill="#2775CA"/>
<path d="M35.7 32.4332C35.7 28.35 33.25 26.95 28.35 26.3668C24.85 25.9 24.15 24.9668 24.15 23.3332C24.15 21.6997 25.3168 20.65 27.65 20.65C29.75 20.65 30.9168 21.35 31.5 23.1C31.6168 23.45 31.9668 23.6832 32.3168 23.6832H34.1833C34.65 23.6832 35 23.3332 35 22.8668V22.75C34.5333 20.1832 32.4333 18.2 29.75 17.9668V15.1668C29.75 14.7 29.4 14.35 28.8168 14.2332H27.0668C26.6 14.2332 26.25 14.5832 26.1333 15.1668V17.85C22.6333 18.3168 20.4168 20.65 20.4168 23.5668C20.4168 27.4168 22.75 28.9332 27.65 29.5168C30.9168 30.1 31.9668 30.8 31.9668 32.6668C31.9668 34.5335 30.3333 35.8168 28.1168 35.8168C25.0833 35.8168 24.0333 34.5332 23.6833 32.7832C23.5668 32.3168 23.2168 32.0832 22.8668 32.0832H20.8833C20.4168 32.0832 20.0668 32.4332 20.0668 32.9V33.0168C20.5333 35.9332 22.4 38.0332 26.25 38.6168V41.4168C26.25 41.8832 26.6 42.2332 27.1833 42.35H28.9333C29.4 42.35 29.75 42 29.8668 41.4168V38.6168C33.3668 38.0332 35.7 35.5832 35.7 32.4332V32.4332Z" fill="white"/>
<path d="M22.05 44.6832C12.95 41.4168 8.28323 31.2668 11.6667 22.2832C13.4167 17.3832 17.2667 13.65 22.05 11.9C22.5167 11.6668 22.75 11.3168 22.75 10.7332V9.1C22.75 8.63324 22.5167 8.28324 22.05 8.16676C21.9332 8.16676 21.7 8.16676 21.5832 8.28324C10.5 11.7832 4.43323 23.5668 7.93323 34.65C10.0332 41.1832 15.05 46.2 21.5832 48.3C22.05 48.5332 22.5167 48.3 22.6332 47.8332C22.75 47.7168 22.75 47.6 22.75 47.3668V45.7332C22.75 45.3832 22.4 44.9168 22.05 44.6832ZM34.4167 8.28324C33.95 8.05 33.4832 8.28324 33.3667 8.75C33.25 8.86676 33.25 8.98324 33.25 9.21676V10.85C33.25 11.3168 33.6 11.7832 33.95 12.0168C43.05 15.2832 47.7167 25.4332 44.3332 34.4168C42.5832 39.3168 38.7332 43.05 33.95 44.8C33.4832 45.0332 33.25 45.3832 33.25 45.9668V47.6C33.25 48.0668 33.4832 48.4168 33.95 48.5332C34.0667 48.5332 34.3 48.5332 34.4167 48.4168C45.5 44.9168 51.5668 33.1332 48.0668 22.05C45.9667 15.4 40.8332 10.3832 34.4167 8.28324V8.28324Z" fill="white"/>
<rect x="9" y="34" width="38" height="22" rx="8" fill="#E5E7EB"/>
<path d="M10.429 45.424C10.429 44.5227 10.624 43.721 11.014 43.019C11.404 42.3083 11.9457 41.758 12.639 41.368C13.341 40.9693 14.134 40.77 15.018 40.77C16.1013 40.77 17.0287 41.056 17.8 41.628C18.5713 42.2 19.087 42.98 19.347 43.968H16.903C16.721 43.5867 16.461 43.2963 16.123 43.097C15.7937 42.8977 15.4167 42.798 14.992 42.798C14.3073 42.798 13.7527 43.0363 13.328 43.513C12.9033 43.9897 12.691 44.6267 12.691 45.424C12.691 46.2213 12.9033 46.8583 13.328 47.335C13.7527 47.8117 14.3073 48.05 14.992 48.05C15.4167 48.05 15.7937 47.9503 16.123 47.751C16.461 47.5517 16.721 47.2613 16.903 46.88H19.347C19.087 47.868 18.5713 48.648 17.8 49.22C17.0287 49.7833 16.1013 50.065 15.018 50.065C14.134 50.065 13.341 49.87 12.639 49.48C11.9457 49.0813 11.404 48.531 11.014 47.829C10.624 47.127 10.429 46.3253 10.429 45.424ZM27.5463 46.256C27.5463 46.464 27.5333 46.6807 27.5073 46.906H22.4763C22.511 47.3567 22.654 47.7033 22.9053 47.946C23.1653 48.18 23.4817 48.297 23.8543 48.297C24.409 48.297 24.7947 48.063 25.0113 47.595H27.3773C27.256 48.0717 27.035 48.5007 26.7143 48.882C26.4023 49.2633 26.008 49.5623 25.5313 49.779C25.0547 49.9957 24.5217 50.104 23.9323 50.104C23.2217 50.104 22.589 49.9523 22.0343 49.649C21.4797 49.3457 21.0463 48.9123 20.7343 48.349C20.4223 47.7857 20.2663 47.127 20.2663 46.373C20.2663 45.619 20.418 44.9603 20.7213 44.397C21.0333 43.8337 21.4667 43.4003 22.0213 43.097C22.576 42.7937 23.213 42.642 23.9323 42.642C24.6343 42.642 25.2583 42.7893 25.8043 43.084C26.3503 43.3787 26.775 43.799 27.0783 44.345C27.3903 44.891 27.5463 45.528 27.5463 46.256ZM25.2713 45.671C25.2713 45.2897 25.1413 44.9863 24.8813 44.761C24.6213 44.5357 24.2963 44.423 23.9063 44.423C23.5337 44.423 23.2173 44.5313 22.9573 44.748C22.706 44.9647 22.55 45.2723 22.4893 45.671H25.2713ZM30.9421 40.38V50H28.7191V40.38H30.9421ZM39.3911 46.256C39.3911 46.464 39.3781 46.6807 39.3521 46.906H34.3211C34.3557 47.3567 34.4987 47.7033 34.7501 47.946C35.0101 48.18 35.3264 48.297 35.6991 48.297C36.2537 48.297 36.6394 48.063 36.8561 47.595H39.2221C39.1007 48.0717 38.8797 48.5007 38.5591 48.882C38.2471 49.2633 37.8527 49.5623 37.3761 49.779C36.8994 49.9957 36.3664 50.104 35.7771 50.104C35.0664 50.104 34.4337 49.9523 33.8791 49.649C33.3244 49.3457 32.8911 48.9123 32.5791 48.349C32.2671 47.7857 32.1111 47.127 32.1111 46.373C32.1111 45.619 32.2627 44.9603 32.5661 44.397C32.8781 43.8337 33.3114 43.4003 33.8661 43.097C34.4207 42.7937 35.0577 42.642 35.7771 42.642C36.4791 42.642 37.1031 42.7893 37.6491 43.084C38.1951 43.3787 38.6197 43.799 38.9231 44.345C39.2351 44.891 39.3911 45.528 39.3911 46.256ZM37.1161 45.671C37.1161 45.2897 36.9861 44.9863 36.7261 44.761C36.4661 44.5357 36.1411 44.423 35.7511 44.423C35.3784 44.423 35.0621 44.5313 34.8021 44.748C34.5507 44.9647 34.3947 45.2723 34.3341 45.671H37.1161ZM42.7868 43.955C43.0468 43.5563 43.3718 43.2443 43.7618 43.019C44.1518 42.785 44.5851 42.668 45.0618 42.668V45.021H44.4508C43.8961 45.021 43.4801 45.1423 43.2028 45.385C42.9255 45.619 42.7868 46.035 42.7868 46.633V50H40.5638V42.746H42.7868V43.955Z" fill="#343434"/>
</g>
<defs>
<clipPath id="clip0_900_1644">
<rect width="56" height="56" fill="white"/>
</clipPath>
</defs>
</svg>
