<svg width="56" height="56" viewBox="0 0 56 56" fill="none" xmlns="http://www.w3.org/2000/svg">
<g clip-path="url(#clip0_906_1646)">
<path d="M45.6621 11.7525L44.1245 13.2901C47.7935 17.3024 49.8281 22.5426 49.8281 27.9795C49.8281 33.4164 47.7935 38.6565 44.1245 42.6689L45.6621 44.2065C49.7424 39.7806 52.0078 33.9813 52.0078 27.9616C52.0078 21.9418 49.7424 16.1425 45.6621 11.7166V11.7525Z" fill="#5A5564"/>
<path d="M13.326 11.8858C17.3383 8.21677 22.5784 6.18211 28.0154 6.18211C33.4523 6.18211 38.6924 8.21677 42.7047 11.8858L44.2423 10.3482C39.8165 6.26783 34.0172 4.00248 27.9974 4.00248C21.9777 4.00248 16.1784 6.26783 11.7525 10.3482L13.326 11.8858Z" fill="#5A5564"/>
<path d="M11.8858 42.6842C8.22111 38.6728 6.18913 33.4359 6.18913 28.0026C6.18913 22.5692 8.22111 17.3323 11.8858 13.3209L10.3481 11.7833C6.26783 16.2091 4.00247 22.0084 4.00247 28.0282C4.00247 34.0479 6.26783 39.8472 10.3481 44.2731L11.8858 42.6842Z" fill="#5A5564"/>
<path d="M42.6842 44.104C38.6719 47.773 33.4318 49.8076 27.9949 49.8076C22.5579 49.8076 17.3178 47.773 13.3055 44.104L11.7679 45.6416C16.1938 49.7219 21.9931 51.9873 28.0128 51.9873C34.0326 51.9873 39.8319 49.7219 44.2577 45.6416L42.6842 44.104Z" fill="#5A5564"/>
<path d="M37.7075 22.8695C37.4 19.661 34.6323 18.5847 31.1316 18.2566V13.8385H28.4254V18.1746C27.713 18.1746 26.9852 18.1746 26.2625 18.1746V13.8385H23.5768V18.2874H18.0875V21.1832C18.0875 21.1832 20.0864 21.1474 20.0556 21.1832C20.4161 21.1436 20.7778 21.2454 21.0646 21.4672C21.3515 21.689 21.541 22.0135 21.5933 22.3723V34.5502C21.5856 34.6768 21.5526 34.8005 21.4962 34.9141C21.4399 35.0276 21.3613 35.1287 21.2652 35.2114C21.1709 35.2957 21.0606 35.36 20.9408 35.4005C20.821 35.441 20.6943 35.4569 20.5682 35.4472C20.6041 35.4779 18.6 35.4472 18.6 35.4472L18.0875 38.6813H23.5255V43.2019H26.2317V38.7479H28.3947V43.1814H31.106V38.7121C35.6778 38.4353 38.8658 37.3077 39.2656 33.028C39.5885 29.5837 37.9689 28.0461 35.3806 27.426C36.9541 26.652 37.9279 25.2169 37.7075 22.8695ZM33.9147 32.495C33.9147 35.8572 28.1538 35.4728 26.3189 35.4728V29.5069C28.1538 29.512 33.9147 28.9841 33.9147 32.495ZM32.659 24.0893C32.659 27.1646 27.8514 26.7904 26.324 26.7904V21.3677C27.8514 21.3677 32.659 20.886 32.659 24.0893Z" fill="#F09242"/>
<path d="M27.9949 56C22.4574 55.999 17.0446 54.3561 12.4408 51.279C7.83703 48.2019 4.24899 43.8289 2.13037 38.7128C0.011756 33.5966 -0.542305 27.9672 0.538244 22.5362C1.61879 17.1052 4.28543 12.1166 8.20099 8.201C12.1166 4.28544 17.1052 1.6188 22.5362 0.538252C27.9672 -0.542298 33.5966 0.0117637 38.7128 2.13038C43.8289 4.249 48.2019 7.83704 51.279 12.4408C54.3561 17.0446 55.999 22.4574 56 27.9949C56.0007 31.6727 55.2767 35.3147 53.8696 38.7128C52.4624 42.1108 50.3996 45.1983 47.799 47.799C45.1983 50.3996 42.1108 52.4624 38.7128 53.8696C35.3147 55.2767 31.6727 56.0007 27.9949 56V56ZM27.9949 2.18341C22.8932 2.18746 17.9072 3.70386 13.6671 6.54094C9.42706 9.37803 6.12324 13.4084 4.17325 18.1227C2.22326 22.8371 1.71464 28.0237 2.71167 33.027C3.70869 38.0303 6.16662 42.6257 9.77477 46.2324C13.3829 49.8392 17.9793 52.2953 22.983 53.2903C27.9868 54.2853 33.1731 53.7747 37.8867 51.8228C42.6002 49.8709 46.6293 46.5655 49.4647 42.3243C52.3001 38.0831 53.8145 33.0965 53.8166 27.9949C53.8179 24.604 53.1509 21.2461 51.8535 18.1133C50.5562 14.9804 48.6541 12.134 46.2559 9.73677C43.8578 7.33956 41.0106 5.43856 37.8772 4.1425C34.7438 2.84643 31.3857 2.18071 27.9949 2.18341V2.18341Z" fill="#282138"/>
<rect x="9" y="34" width="38" height="22" rx="8" fill="#E5E7EB"/>
<path d="M10.429 45.424C10.429 44.5227 10.624 43.721 11.014 43.019C11.404 42.3083 11.9457 41.758 12.639 41.368C13.341 40.9693 14.134 40.77 15.018 40.77C16.1013 40.77 17.0287 41.056 17.8 41.628C18.5713 42.2 19.087 42.98 19.347 43.968H16.903C16.721 43.5867 16.461 43.2963 16.123 43.097C15.7937 42.8977 15.4167 42.798 14.992 42.798C14.3073 42.798 13.7527 43.0363 13.328 43.513C12.9033 43.9897 12.691 44.6267 12.691 45.424C12.691 46.2213 12.9033 46.8583 13.328 47.335C13.7527 47.8117 14.3073 48.05 14.992 48.05C15.4167 48.05 15.7937 47.9503 16.123 47.751C16.461 47.5517 16.721 47.2613 16.903 46.88H19.347C19.087 47.868 18.5713 48.648 17.8 49.22C17.0287 49.7833 16.1013 50.065 15.018 50.065C14.134 50.065 13.341 49.87 12.639 49.48C11.9457 49.0813 11.404 48.531 11.014 47.829C10.624 47.127 10.429 46.3253 10.429 45.424ZM27.5463 46.256C27.5463 46.464 27.5333 46.6807 27.5073 46.906H22.4763C22.511 47.3567 22.654 47.7033 22.9053 47.946C23.1653 48.18 23.4817 48.297 23.8543 48.297C24.409 48.297 24.7947 48.063 25.0113 47.595H27.3773C27.256 48.0717 27.035 48.5007 26.7143 48.882C26.4023 49.2633 26.008 49.5623 25.5313 49.779C25.0547 49.9957 24.5217 50.104 23.9323 50.104C23.2217 50.104 22.589 49.9523 22.0343 49.649C21.4797 49.3457 21.0463 48.9123 20.7343 48.349C20.4223 47.7857 20.2663 47.127 20.2663 46.373C20.2663 45.619 20.418 44.9603 20.7213 44.397C21.0333 43.8337 21.4667 43.4003 22.0213 43.097C22.576 42.7937 23.213 42.642 23.9323 42.642C24.6343 42.642 25.2583 42.7893 25.8043 43.084C26.3503 43.3787 26.775 43.799 27.0783 44.345C27.3903 44.891 27.5463 45.528 27.5463 46.256ZM25.2713 45.671C25.2713 45.2897 25.1413 44.9863 24.8813 44.761C24.6213 44.5357 24.2963 44.423 23.9063 44.423C23.5337 44.423 23.2173 44.5313 22.9573 44.748C22.706 44.9647 22.55 45.2723 22.4893 45.671H25.2713ZM30.9421 40.38V50H28.7191V40.38H30.9421ZM39.3911 46.256C39.3911 46.464 39.3781 46.6807 39.3521 46.906H34.3211C34.3557 47.3567 34.4987 47.7033 34.7501 47.946C35.0101 48.18 35.3264 48.297 35.6991 48.297C36.2537 48.297 36.6394 48.063 36.8561 47.595H39.2221C39.1007 48.0717 38.8797 48.5007 38.5591 48.882C38.2471 49.2633 37.8527 49.5623 37.3761 49.779C36.8994 49.9957 36.3664 50.104 35.7771 50.104C35.0664 50.104 34.4337 49.9523 33.8791 49.649C33.3244 49.3457 32.8911 48.9123 32.5791 48.349C32.2671 47.7857 32.1111 47.127 32.1111 46.373C32.1111 45.619 32.2627 44.9603 32.5661 44.397C32.8781 43.8337 33.3114 43.4003 33.8661 43.097C34.4207 42.7937 35.0577 42.642 35.7771 42.642C36.4791 42.642 37.1031 42.7893 37.6491 43.084C38.1951 43.3787 38.6197 43.799 38.9231 44.345C39.2351 44.891 39.3911 45.528 39.3911 46.256ZM37.1161 45.671C37.1161 45.2897 36.9861 44.9863 36.7261 44.761C36.4661 44.5357 36.1411 44.423 35.7511 44.423C35.3784 44.423 35.0621 44.5313 34.8021 44.748C34.5507 44.9647 34.3947 45.2723 34.3341 45.671H37.1161ZM42.7868 43.955C43.0468 43.5563 43.3718 43.2443 43.7618 43.019C44.1518 42.785 44.5851 42.668 45.0618 42.668V45.021H44.4508C43.8961 45.021 43.4801 45.1423 43.2028 45.385C42.9255 45.619 42.7868 46.035 42.7868 46.633V50H40.5638V42.746H42.7868V43.955Z" fill="#343434"/>
</g>
<defs>
<clipPath id="clip0_906_1646">
<rect width="56" height="56" fill="white"/>
</clipPath>
</defs>
</svg>
