<svg width="56" height="56" viewBox="0 0 56 56" fill="none" xmlns="http://www.w3.org/2000/svg">
<path d="M28.1881 0L27.8124 1.27616V38.3042L28.1881 38.6791L45.3758 28.5193L28.1881 0Z" fill="#343434"/>
<path d="M28.1881 0L11 28.5193L28.1881 38.6791V20.7067V0Z" fill="#8C8C8C"/>
<path d="M28.1881 41.9333L27.9764 42.1915V55.3814L28.1881 55.9996L45.3863 31.7787L28.1881 41.9333Z" fill="#3C3C3B"/>
<path d="M28.1881 55.9996V41.9333L11 31.7787L28.1881 55.9996Z" fill="#8C8C8C"/>
<path d="M28.1881 38.6791L45.3758 28.5193L28.1881 20.7067V38.6791Z" fill="#141414"/>
<path d="M11 28.5193L28.1881 38.6791V20.7067L11 28.5193Z" fill="#393939"/>
<rect x="9" y="34" width="38" height="22" rx="8" fill="#E5E7EB"/>
<path d="M10.429 45.424C10.429 44.5227 10.624 43.721 11.014 43.019C11.404 42.3083 11.9457 41.758 12.639 41.368C13.341 40.9693 14.134 40.77 15.018 40.77C16.1013 40.77 17.0287 41.056 17.8 41.628C18.5713 42.2 19.087 42.98 19.347 43.968H16.903C16.721 43.5867 16.461 43.2963 16.123 43.097C15.7937 42.8977 15.4167 42.798 14.992 42.798C14.3073 42.798 13.7527 43.0363 13.328 43.513C12.9033 43.9897 12.691 44.6267 12.691 45.424C12.691 46.2213 12.9033 46.8583 13.328 47.335C13.7527 47.8117 14.3073 48.05 14.992 48.05C15.4167 48.05 15.7937 47.9503 16.123 47.751C16.461 47.5517 16.721 47.2613 16.903 46.88H19.347C19.087 47.868 18.5713 48.648 17.8 49.22C17.0287 49.7833 16.1013 50.065 15.018 50.065C14.134 50.065 13.341 49.87 12.639 49.48C11.9457 49.0813 11.404 48.531 11.014 47.829C10.624 47.127 10.429 46.3253 10.429 45.424ZM27.5463 46.256C27.5463 46.464 27.5333 46.6807 27.5073 46.906H22.4763C22.511 47.3567 22.654 47.7033 22.9053 47.946C23.1653 48.18 23.4817 48.297 23.8543 48.297C24.409 48.297 24.7947 48.063 25.0113 47.595H27.3773C27.256 48.0717 27.035 48.5007 26.7143 48.882C26.4023 49.2633 26.008 49.5623 25.5313 49.779C25.0547 49.9957 24.5217 50.104 23.9323 50.104C23.2217 50.104 22.589 49.9523 22.0343 49.649C21.4797 49.3457 21.0463 48.9123 20.7343 48.349C20.4223 47.7857 20.2663 47.127 20.2663 46.373C20.2663 45.619 20.418 44.9603 20.7213 44.397C21.0333 43.8337 21.4667 43.4003 22.0213 43.097C22.576 42.7937 23.213 42.642 23.9323 42.642C24.6343 42.642 25.2583 42.7893 25.8043 43.084C26.3503 43.3787 26.775 43.799 27.0783 44.345C27.3903 44.891 27.5463 45.528 27.5463 46.256ZM25.2713 45.671C25.2713 45.2897 25.1413 44.9863 24.8813 44.761C24.6213 44.5357 24.2963 44.423 23.9063 44.423C23.5337 44.423 23.2173 44.5313 22.9573 44.748C22.706 44.9647 22.55 45.2723 22.4893 45.671H25.2713ZM30.9421 40.38V50H28.7191V40.38H30.9421ZM39.3911 46.256C39.3911 46.464 39.3781 46.6807 39.3521 46.906H34.3211C34.3557 47.3567 34.4987 47.7033 34.7501 47.946C35.0101 48.18 35.3264 48.297 35.6991 48.297C36.2537 48.297 36.6394 48.063 36.8561 47.595H39.2221C39.1007 48.0717 38.8797 48.5007 38.5591 48.882C38.2471 49.2633 37.8527 49.5623 37.3761 49.779C36.8994 49.9957 36.3664 50.104 35.7771 50.104C35.0664 50.104 34.4337 49.9523 33.8791 49.649C33.3244 49.3457 32.8911 48.9123 32.5791 48.349C32.2671 47.7857 32.1111 47.127 32.1111 46.373C32.1111 45.619 32.2627 44.9603 32.5661 44.397C32.8781 43.8337 33.3114 43.4003 33.8661 43.097C34.4207 42.7937 35.0577 42.642 35.7771 42.642C36.4791 42.642 37.1031 42.7893 37.6491 43.084C38.1951 43.3787 38.6197 43.799 38.9231 44.345C39.2351 44.891 39.3911 45.528 39.3911 46.256ZM37.1161 45.671C37.1161 45.2897 36.9861 44.9863 36.7261 44.761C36.4661 44.5357 36.1411 44.423 35.7511 44.423C35.3784 44.423 35.0621 44.5313 34.8021 44.748C34.5507 44.9647 34.3947 45.2723 34.3341 45.671H37.1161ZM42.7868 43.955C43.0468 43.5563 43.3718 43.2443 43.7618 43.019C44.1518 42.785 44.5851 42.668 45.0618 42.668V45.021H44.4508C43.8961 45.021 43.4801 45.1423 43.2028 45.385C42.9255 45.619 42.7868 46.035 42.7868 46.633V50H40.5638V42.746H42.7868V43.955Z" fill="#343434"/>
</svg>
