<svg width="56" height="56" viewBox="0 0 56 56" fill="none" xmlns="http://www.w3.org/2000/svg">
<g clip-path="url(#clip0_971_1611)">
<path d="M15.6991 55.541C29.7748 55.541 29.7748 55.3314 32.1614 54.623C35.2804 53.6971 23.3554 45.4426 15.6991 45.4426C8.04275 45.4426 1.83606 47.7032 1.83606 50.4918C1.83606 53.2804 8.04306 55.541 15.6991 55.541Z" fill="black"/>
<path d="M47.6608 12.604L48.3083 13.3017L47.7423 14.0669C29.385 38.8874 18.81 50.1255 14.3231 48.6182C11.5901 47.7001 8.84938 44.9391 6.10855 40.9298C5.14516 39.5206 4.2405 38.0366 3.41772 36.5599C2.86981 35.5765 2.40607 34.6797 2.16528 34.1745C1.85813 33.5301 1.72845 33.1331 1.62556 32.6118C1.61929 32.5798 1.61929 32.5798 1.61332 32.5491C1.57038 32.3278 1.55552 32.2579 1.52343 32.1369C0.971045 30.055 0.688522 27.8981 0.688522 25.7049C0.688522 11.8887 11.8887 0.688525 25.7049 0.688525C30.0334 0.688525 34.2045 1.79012 37.9011 3.85802L37.9966 3.91773C41.0232 6.02488 44.2425 8.92025 47.6608 12.604ZM36.7317 5.83367C33.3874 3.97372 29.6194 2.98361 25.7049 2.98361C13.1563 2.98361 2.9836 13.1563 2.9836 25.7049C2.9836 27.699 3.24021 29.6581 3.74175 31.5483C3.79135 31.7352 3.81378 31.8408 3.86639 32.112C3.87191 32.1404 3.87191 32.1404 3.87722 32.1674C3.94362 32.5039 4.01367 32.7184 4.23704 33.187C4.4567 33.6478 4.89813 34.5015 5.42261 35.4429C6.21341 36.8622 7.08243 38.2877 8.00321 39.6346C10.4795 43.2569 12.9354 45.7309 15.0539 46.4426C17.8796 47.3918 28.5169 36.1314 45.3276 13.4709C42.2756 10.2494 39.4086 7.70367 36.7317 5.83367Z" fill="black"/>
<path d="M36.7317 5.83367C33.3874 3.97372 29.6194 2.98361 25.7049 2.98361C13.1563 2.98361 2.9836 13.1563 2.9836 25.7049C2.9836 27.699 3.24021 29.6581 3.74175 31.5483C3.79135 31.7352 3.81378 31.8408 3.86639 32.112C3.87191 32.1404 3.87191 32.1404 3.87722 32.1674C3.94362 32.5039 4.01367 32.7184 4.23704 33.187C4.4567 33.6478 4.89813 34.5015 5.42261 35.4429C6.21341 36.8622 7.08243 38.2877 8.00321 39.6346C10.4795 43.2569 12.9354 45.7309 15.0539 46.4426C17.8796 47.3918 28.5169 36.1314 45.3276 13.4709C42.2756 10.2494 39.4086 7.70367 36.7317 5.83367Z" fill="#EC1C79"/>
<path d="M30.2951 55.3115C16.4789 55.3115 5.27869 44.1113 5.27869 30.2951C5.27869 16.4789 16.4789 5.27869 30.2951 5.27869C44.1113 5.27869 55.3115 16.4789 55.3115 30.2951C55.3115 44.1113 44.1113 55.3115 30.2951 55.3115ZM30.2951 53.0164C42.8437 53.0164 53.0164 42.8437 53.0164 30.2951C53.0164 17.7464 42.8437 7.57377 30.2951 7.57377C17.7464 7.57377 7.57377 17.7464 7.57377 30.2951C7.57377 42.8437 17.7464 53.0164 30.2951 53.0164Z" fill="black"/>
<path d="M30.2951 53.0164C42.8437 53.0164 53.0164 42.8437 53.0164 30.2951C53.0164 17.7464 42.8437 7.57377 30.2951 7.57377C17.7464 7.57377 7.57377 17.7464 7.57377 30.2951C7.57377 42.8437 17.7464 53.0164 30.2951 53.0164Z" fill="white"/>
<path fill-rule="evenodd" clip-rule="evenodd" d="M13.2986 34.9495L10.2911 25.8885H12.9259L14.4939 31.0938L16.229 25.8628H18.3753L20.1104 31.0938L21.6784 25.8885H24.2618L21.2543 34.9495H19.0822L17.27 29.77L15.4707 34.9495H13.2986ZM25.2514 34.8852V25.8885H32.4873V28.0092H27.7191V29.3715H32.0375V31.338H27.7191V32.7646H32.5516V34.8852H25.2514ZM36.0218 34.8852V28.0734H33.3228V25.8885H41.2142V28.0734H38.5151V34.8852H36.0218ZM42.3066 34.8852V25.8885H44.8V29.2559H48.0003V25.8885H50.4936V34.8852H48.0003V31.4665H44.8V34.8852H42.3066Z" fill="black"/>
<path d="M2.17931 23.1823C1.54443 22.8649 1.28709 22.0929 1.60454 21.458C1.92198 20.8231 2.69399 20.5658 3.32887 20.8832L7.001 22.7193C7.63589 23.0367 7.89323 23.8087 7.57578 24.4436C7.25834 25.0785 6.48633 25.3359 5.85145 25.0184L2.17931 23.1823Z" fill="black"/>
<path d="M1.75651 29.2711C1.11201 28.9737 0.830672 28.2101 1.12811 27.5656C1.42556 26.9211 2.18915 26.6398 2.83364 26.9372L6.50578 28.6319C7.15027 28.9294 7.43161 29.693 7.13417 30.3375C6.83673 30.982 6.07314 31.2633 5.42864 30.9659L1.75651 29.2711Z" fill="black"/>
</g>
<defs>
<clipPath id="clip0_971_1611">
<rect width="56" height="56" fill="white"/>
</clipPath>
</defs>
</svg>
