<svg xmlns="http://www.w3.org/2000/svg" width="121" height="28" viewBox="0 0 121 28" fill="none">
  <g clip-path="url(#clip0_358_1102)">
    <path fill-rule="evenodd" clip-rule="evenodd" d="M20.9612 13.1981L20.9219 13.1682C21.7972 11.9079 22.2349 10.3751 22.2349 8.56964C22.2349 5.89156 21.3158 3.79322 19.4776 2.27462C17.6393 0.756018 15.1096 -0.00218504 11.8883 4.72955e-06H3.86581V1.12171H11.7439C14.4815 1.12171 16.9237 1.73101 18.4731 2.99396C19.9141 4.16986 20.4426 5.18154 20.8644 6.69577C20.4361 5.31457 19.4267 4.42607 18.7997 3.90381C17.7017 2.98083 16.3378 2.33539 12.622 2.33539H6.43441V3.42918H12.4841C15.655 3.42918 16.8187 3.82004 17.8855 4.61C19.2511 5.62167 20.098 6.83043 20.098 8.57458C20.098 10.1463 19.5465 10.9872 18.6208 11.8592C18.5125 11.8165 18.4042 11.7755 18.2926 11.7361L18.3976 11.6802C19.4004 11.1268 20.0947 10.0642 20.0947 8.56964C20.0947 6.93717 19.1592 5.91731 18.2433 5.34249C17.385 4.80381 16.5676 4.4425 13.0799 4.4425H8.63208V5.17168H12.9551C16.1031 5.17168 17.2963 5.73172 17.6574 5.95343C18.3648 6.38701 19.2987 7.13919 19.2987 8.58115C19.2987 9.50085 18.7554 10.6078 17.9528 11.0594C17.6922 11.2038 17.4171 11.3205 17.1322 11.4076C15.9374 11.1367 14.7152 11.0055 13.4902 11.0167H8.12493V12.1384H13.3425C16.0801 12.1384 18.5584 12.7017 20.0717 14.0107C21.214 14.9826 22.0451 16.2694 22.4614 17.7108C22.0347 16.3296 21.1582 15.4921 20.3983 14.9189C19.2494 14.0501 17.9364 13.3488 14.2206 13.3505H5.80909V14.4442H14.0827C17.2536 14.4442 18.4157 14.8351 19.4841 15.6251C20.8497 16.6368 21.6834 17.8455 21.6834 19.5897C21.6834 21.2714 20.8365 22.4982 19.4644 23.5099C18.0611 24.5446 15.916 24.5758 15.0429 24.5758H10.4473V25.6679H13.8825C16.758 25.6679 18.6783 25.4216 20.3409 24.1898C21.9001 23.0303 22.7289 21.5309 22.7289 19.5913C22.7441 20.6307 22.5208 21.6597 22.0764 22.5992C21.632 23.5387 20.9782 24.3638 20.1653 25.011C18.5913 26.3117 15.7831 26.8849 12.9732 26.8849H3.92818V28H13.0372C16.4292 28 19.0765 27.2632 20.9793 25.7894C22.8821 24.3157 23.8346 22.2453 23.8368 19.5782C23.8302 16.8968 22.9073 14.7979 21.068 13.2815C21.033 13.2526 20.9972 13.2254 20.9612 13.1981ZM21.1232 8.71258C21.1199 10.0673 20.7126 11.3914 19.9519 12.5145C19.8551 12.4587 19.7566 12.4045 19.6581 12.3503C20.5931 11.3677 21.1161 10.0659 21.1232 8.71258ZM15.4842 18.0064H7.59961V18.617H15.4842V18.0064ZM10.851 20.2285H15.4367V20.7521H10.851V20.2285ZM6.25398 18.0064H3.91845V18.617H6.25398V18.0064ZM2.4624 20.1858H9.55597V20.7963H2.4624V20.1858ZM9.13744 24.8467H2.4624V25.5787H9.13744V24.8467ZM4.21045 4.61331H6.97434V5.11719H4.21045V4.61331ZM8.61555 8.62064H2.28515V9.20656H8.61555V8.62064ZM4.97021 6.83043H15.4514V7.41637H4.97021V6.83043ZM15.2529 8.62064H10.2109V9.20656H15.2529V8.62064ZM21.6736 19.5799C21.6736 20.9907 20.9924 22.0467 19.988 22.5804C18.9868 23.1109 17.5688 23.4164 15.1709 23.4164H0.589844V22.7217H15.1052C17.3176 22.7217 18.8046 22.3653 19.5366 21.9678C20.3409 21.5293 20.8841 20.4635 20.8841 19.5766C20.8841 18.1888 19.9503 17.458 19.2429 17.0392C18.8818 16.8257 17.6869 16.2854 14.5406 16.2854H9.003V15.5907H14.6703C18.222 15.5907 18.9753 15.9405 19.8354 16.4595C20.7512 17.0162 21.6736 18.0049 21.6736 19.5799ZM49.8494 7.21801C49.4351 7.22941 49.0294 7.09776 48.7005 6.8452C48.5522 6.73755 48.4318 6.59597 48.3493 6.43227C48.2667 6.26857 48.2246 6.08749 48.2262 5.90415C48.2246 5.71989 48.2667 5.53788 48.3492 5.37312C48.4317 5.20836 48.5521 5.06557 48.7005 4.95652C49.0275 4.69987 49.4341 4.5662 49.8494 4.5788C50.2713 4.56616 50.6847 4.69957 51.0197 4.95652C51.1697 5.06271 51.2921 5.20339 51.3766 5.3667C51.461 5.53002 51.5051 5.71123 51.5051 5.89513C51.5051 6.07902 51.461 6.26023 51.3766 6.42355C51.2921 6.58687 51.1697 6.72752 51.0197 6.83371C50.6861 7.09411 50.2723 7.23001 49.8494 7.21801ZM51.0738 23.1256H48.5643V10.4386H51.0738V23.1256ZM32.1943 23.1256V5.3589H38.4311C40.3273 5.3589 41.8313 5.73445 42.943 6.48554C44.0547 7.23663 44.6105 8.21545 44.6105 9.42201C44.624 10.3952 44.2625 11.3361 43.6011 12.0497C42.9282 12.7943 41.9982 13.3231 40.811 13.6362V13.6855C42.2892 13.8256 43.472 14.2778 44.3594 15.042C44.7917 15.4058 45.136 15.8629 45.3665 16.3788C45.597 16.8948 45.7078 17.4563 45.6905 18.0212C45.6905 19.542 45.0175 20.7727 43.6717 21.7132C42.3259 22.6537 40.6299 23.1245 38.5838 23.1256H32.1943ZM34.7645 7.24265V12.9793H37.3905C38.7977 12.9793 39.9039 12.7056 40.7092 12.1581C41.0948 11.9089 41.409 11.5636 41.621 11.1562C41.8331 10.7488 41.9357 10.2933 41.9188 9.83424C41.9188 8.1087 40.5166 7.24593 37.7123 7.24593L34.7645 7.24265ZM34.7645 14.8499V21.2435H38.2522C39.7611 21.2435 40.9313 20.9544 41.7629 20.3763C42.157 20.1197 42.4787 19.7661 42.6972 19.3495C42.9156 18.9328 43.0234 18.4669 43.0103 17.9966C43.0103 15.8999 41.2459 14.851 37.7172 14.8499H34.7645ZM59.825 23.3983C60.7945 23.3994 61.5746 23.2674 62.1655 23.0025L62.1704 21.2682C61.6734 21.5592 61.1048 21.7049 60.5291 21.6886C59.7019 21.6886 59.11 21.5069 58.7533 21.1434C58.3966 20.7799 58.2182 20.1728 58.2182 19.322V12.173H62.1655V10.4387H58.2182V6.68434L55.7104 7.34127V10.4387H53.017V12.173H55.7104V19.6817C55.7093 22.1594 57.0808 23.3983 59.825 23.3983ZM84.9511 23.1256H82.6009V12.1615C82.6125 11.099 82.6782 10.0377 82.7978 8.9819H82.742C82.5918 9.528 82.389 10.0582 82.1364 10.5651L75.243 23.1256H74.0941L67.2123 10.6571C66.952 10.1216 66.7489 9.56009 66.6066 8.9819H66.5508C66.643 10.0468 66.6808 11.1157 66.6641 12.1844V23.1256H64.3696V6.7812H67.488L73.6805 18.1789C74.0445 18.8054 74.3552 19.4614 74.6095 20.1399H74.6948C75.0975 19.2432 75.4208 18.5747 75.6648 18.1346L81.9837 6.7812H84.938L84.9511 23.1256ZM97.696 23.1256H100.206V14.8746C100.204 11.7191 98.3634 10.1414 94.6826 10.1414C92.6726 10.1414 90.8978 10.5377 89.3583 11.3304V13.4129C90.8601 12.3771 92.6453 11.8316 94.4692 11.8511C96.6204 11.8521 97.696 12.9301 97.696 15.0848L93.0003 15.6185C89.5525 16.0061 87.8286 17.3851 87.8286 19.7556C87.8154 20.2739 87.929 20.7875 88.1595 21.2518C88.3901 21.7161 88.7307 22.117 89.1515 22.4194C90.0345 23.0884 91.2562 23.4229 92.8165 23.4229C94.9348 23.424 96.5411 22.6641 97.6352 21.1433H97.696V23.1256ZM93.921 17.1295L97.696 16.709L97.7058 17.972C97.7169 18.4816 97.6134 18.9873 97.4028 19.4515C97.1923 19.9157 96.8802 20.3267 96.4896 20.6539C95.6788 21.3601 94.6514 21.7132 93.4073 21.7132C92.5013 21.7132 91.7748 21.5172 91.2277 21.1253C90.9744 20.9618 90.7665 20.737 90.623 20.4717C90.4796 20.2065 90.4053 19.9093 90.4071 19.6077C90.4125 18.7559 90.7085 18.163 91.295 17.8291C91.8815 17.4952 92.7568 17.262 93.921 17.1295ZM111.848 12.4948C111.411 12.2222 110.778 12.0859 109.951 12.0859C109.441 12.0776 108.935 12.1834 108.47 12.3956C108.006 12.6079 107.594 12.9212 107.266 13.3127C106.547 14.1305 106.188 15.2457 106.188 16.6581V23.1256H103.68V10.4386H106.188V13.0548H106.25C106.571 12.2076 107.144 11.4791 107.891 10.9674C108.616 10.4706 109.475 10.2085 110.353 10.2169C110.859 10.1988 111.364 10.2575 111.852 10.391V10.4387H114.13V7.34127L116.638 6.68434V10.4387H120.577V12.173H116.638V19.322C116.638 20.1728 116.816 20.7799 117.173 21.1434C117.53 21.5069 118.122 21.6886 118.949 21.6886C119.524 21.7049 120.093 21.5592 120.59 21.2682L120.585 23.0025C119.994 23.2674 119.214 23.3994 118.245 23.3983C115.5 23.3983 114.129 22.1594 114.13 19.6817V12.173H111.849L111.848 12.4948ZM0.79834 26.8931H2.4675V27.955H0.79834V26.8931Z" fill="white"/>
  </g>
  <defs>
    <clipPath id="clip0_358_1102">
      <rect width="120" height="28" fill="white" transform="translate(0.589844)"/>
    </clipPath>
  </defs>
</svg>