<svg width="89" height="20" viewBox="0 0 89 20" fill="none" xmlns="http://www.w3.org/2000/svg">
<g id="gate">
<path id="Vector" fill-rule="evenodd" clip-rule="evenodd" d="M73.1416 16.5793H75.6278V7.03467H73.1416V16.5793Z" fill="white"/>
<path id="Vector_2" fill-rule="evenodd" clip-rule="evenodd" d="M73.1416 5.94369H75.6278V3.46289H73.1416V5.94369Z" fill="white"/>
<path id="Vector_3" fill-rule="evenodd" clip-rule="evenodd" d="M69.3457 16.5789H71.8319V14.0981H69.3457V16.5789Z" fill="white"/>
<path id="Vector_4" fill-rule="evenodd" clip-rule="evenodd" d="M51.7622 15.2835C51.9074 15.6677 52.1284 15.9682 52.3915 16.2032C52.6579 16.4415 52.9706 16.6272 53.3411 16.7327C53.7179 16.838 54.1331 16.8793 54.573 16.8793C55.0272 16.8793 55.4328 16.8322 55.7787 16.739C56.1 16.6529 56.408 16.531 56.6941 16.3764V14.6233C56.2383 14.8198 55.8123 14.8912 55.3266 14.9138C54.8137 14.9376 54.51 14.7913 54.257 14.5513C53.9928 14.2997 53.8519 13.9717 53.8519 13.4215V8.11916H56.6941V5.94369H53.8519V3.46289H51.5418V5.94369H50.1572V8.11916H51.5418V13.8126C51.5418 14.4007 51.6154 14.8954 51.7622 15.2835Z" fill="white"/>
<path id="Vector_5" fill-rule="evenodd" clip-rule="evenodd" d="M36.7799 9.17161H30.5899V11.7369H34.0658C33.8842 12.4697 33.5255 13.1266 33.0112 13.6514C32.235 14.4429 31.1589 14.8788 29.9809 14.8788C27.536 14.8788 25.5472 12.894 25.5472 10.4543C25.5472 8.01454 27.536 6.02964 29.9809 6.02964C31.2903 6.02964 32.494 6.58873 33.3286 7.55337L35.3188 5.93054C33.9992 4.38756 32.0414 3.46436 29.9809 3.46436C26.1186 3.46436 22.9766 6.60004 22.9766 10.4543C22.9766 14.3085 26.1186 17.444 29.9809 17.444C31.8559 17.444 33.5845 16.7698 34.8483 15.4812C35.9088 14.3996 36.6118 12.8905 36.7469 11.3789C36.8128 10.6414 36.8187 9.90931 36.7799 9.17161Z" fill="white"/>
<path id="Vector_6" fill-rule="evenodd" clip-rule="evenodd" d="M63.0467 7.92288C64.4729 7.92288 65.6887 8.81749 66.1643 10.0749H59.929C60.4041 8.81749 61.6205 7.92288 63.0467 7.92288ZM68.626 12.1026C68.6681 11.8237 68.6911 11.5382 68.6911 11.2477C68.6911 8.13749 66.1638 5.61621 63.0467 5.61621C59.9306 5.61621 57.4033 8.13749 57.4033 11.2477C57.4033 14.358 59.9306 16.8791 63.0467 16.8791C65.1849 16.8791 67.045 15.6925 68.0031 13.9436L65.9177 12.934C65.3381 13.9143 64.2695 14.5725 63.0467 14.5725C61.5015 14.5725 60.2023 13.5226 59.8255 12.0988H66.2673C66.2673 12.1 66.2668 12.1012 66.2668 12.1026H68.626Z" fill="white"/>
<path id="Vector_7" fill-rule="evenodd" clip-rule="evenodd" d="M43.2529 14.5729C41.4127 14.5729 39.9209 13.0842 39.9209 11.2478C39.9209 9.41131 41.4127 7.92262 43.2529 7.92262C45.0931 7.92262 46.5848 9.41131 46.5848 11.2478C46.5848 13.0842 45.0931 14.5729 43.2529 14.5729ZM43.2526 5.62598C40.1364 5.62598 37.6104 8.14699 37.6104 11.2567C37.6104 14.3664 40.1364 16.8875 43.2526 16.8875C46.3688 16.8875 48.8949 14.3664 48.8949 11.2567C48.8949 8.14699 46.3688 5.62598 43.2526 5.62598Z" fill="white"/>
<g id="Mask group">
<mask id="mask0_82_3914" style="mask-type:alpha" maskUnits="userSpaceOnUse" x="0" y="0" width="89" height="20">
<g id="Group">
<path id="Vector_8" d="M0.673828 20H88.2091V0H0.673828V20Z" fill="white"/>
</g>
</mask>
<g mask="url(#mask0_82_3914)">
<g id="Group_2">
<path id="Vector_9" fill-rule="evenodd" clip-rule="evenodd" d="M46.585 16.5792H48.8948V5.93506H46.585V16.5792Z" fill="white"/>
<path id="Vector_10" fill-rule="evenodd" clip-rule="evenodd" d="M82.5648 14.5724C80.7244 14.5724 79.2331 13.0839 79.2331 11.2476C79.2331 9.41141 80.7244 7.92288 82.5648 7.92288C84.4046 7.92288 85.8965 9.41141 85.8965 11.2476C85.8965 13.0839 84.4046 14.5724 82.5648 14.5724ZM82.5648 5.61621C79.4482 5.61621 76.9209 8.13733 76.9209 11.2476C76.9209 14.3578 79.4482 16.8791 82.5648 16.8791C85.6814 16.8791 88.2087 14.3578 88.2087 11.2476C88.2087 8.13733 85.6814 5.61621 82.5648 5.61621Z" fill="white"/>
<path id="Vector_11" fill-rule="evenodd" clip-rule="evenodd" d="M10.6944 15.4999C7.65044 15.4999 5.18307 13.0374 5.18307 9.99995C5.18307 6.96229 7.65044 4.49995 10.6944 4.49995V0C5.16012 0 0.673828 4.47707 0.673828 9.99995C0.673828 15.5228 5.16012 19.9999 10.6944 19.9999C16.2286 19.9999 20.7148 15.5228 20.7148 9.99995H16.2056C16.2056 13.0374 13.7381 15.4999 10.6944 15.4999Z" fill="#0051D2"/>
<path id="Vector_12" fill-rule="evenodd" clip-rule="evenodd" d="M10.6943 9.99951H16.2056V4.49951H10.6943V9.99951Z" fill="#14E0A1"/>
</g>
</g>
</g>
</g>
</svg>
