<svg width="136" height="20" viewBox="0 0 136 20" fill="none" xmlns="http://www.w3.org/2000/svg">
<g id="mexc">
<path id="Vector" d="M32.2803 14.1293L25.2405 1.90687C23.7041 -0.638511 19.9204 -0.661442 18.4298 2.02154L11.0459 14.7255C9.67002 17.0645 11.3669 19.9768 14.1416 19.9768H28.9782C31.753 19.9997 33.8398 16.9728 32.2803 14.1293Z" fill="#003087"/>
<path id="Vector_2" d="M22.1219 15.0925L21.6862 14.3357C21.2735 13.6249 20.3791 12.1114 20.3791 12.1114L14.417 1.74642C12.8806 -0.546718 9.21155 -0.753105 7.67515 2.15919L0.726936 14.1752C-0.717743 16.6977 1.00212 19.9769 4.1208 19.9998H18.8657H25.1488H28.8867C25.08 20.0228 23.8648 18.0277 22.1219 15.0925Z" fill="#1877F2"/>
<path id="Vector_3" d="M22.1217 15.0466L21.686 14.2899C21.2733 13.579 20.379 12.0655 20.379 12.0655L16.5265 5.27783L11 14.7256C9.62412 17.0646 11.321 19.9769 14.0957 19.9769H18.8425H25.1258H28.8866C25.057 19.9539 23.8646 18.0048 22.1217 15.0466Z" fill="url(#paint0_linear_82_3915)"/>
<path id="Vector_4" d="M123.931 5.24178C124.963 4.27866 126.774 3.82003 129.412 3.82003H135.58V0.311523H128.288C126.545 0.311523 125.078 0.494982 123.931 0.861882C122.807 1.22879 121.821 1.80206 120.973 2.60467C120.078 3.47606 119.368 4.55383 118.863 5.83798C118.359 7.14507 118.106 8.56682 118.106 10.0574C118.106 11.4791 118.359 12.855 118.863 14.1162C119.368 15.3775 120.078 16.4782 120.973 17.3496C121.798 18.1522 122.784 18.7254 123.885 19.0923C125.009 19.4593 126.499 19.6427 128.288 19.6427H135.58V16.1801H129.412C128.013 16.1801 127.05 16.1342 126.499 16.0195C125.926 15.9049 125.399 15.7214 124.963 15.4462C124.092 14.8959 123.426 14.185 122.991 13.2907C122.578 12.4193 122.372 11.3186 122.372 10.0344C122.372 7.83302 122.899 6.2049 123.931 5.24178Z" fill="white"/>
<path id="Vector_5" d="M70.249 19.6886H87.4477V16.2947H74.4454V11.4562H85.7966V8.2458H74.4454V3.75125H87.4477V0.334473H70.249V19.6886Z" fill="white"/>
<path id="Vector_6" d="M91.7354 0.334473L99.7844 10.0115L91.7354 19.6886H96.9409L103.293 12.0295V8.01648L96.9409 0.334473H91.7354Z" fill="white"/>
<path id="Vector_7" d="M111.273 0.334473L104.921 8.01648V12.0295L111.273 19.6886H116.478L108.406 10.0115L116.478 0.334473H111.273Z" fill="white"/>
<path id="Vector_8" d="M53.3947 9.87394L45.6668 0.334473H41.6768V19.6886H45.8732V6.7782L52.5692 14.8042H54.1972L60.8932 6.70942V19.6886H65.0896V0.334473H61.1455L53.3947 9.87394Z" fill="white"/>
</g>
<defs>
<linearGradient id="paint0_linear_82_3915" x1="9.02761" y1="10.4437" x2="26.1589" y2="16.7743" gradientUnits="userSpaceOnUse">
<stop stop-color="#003087" stop-opacity="0"/>
<stop offset="1" stop-color="#003087"/>
</linearGradient>
</defs>
</svg>
