<svg width="67" height="20" viewBox="0 0 67 20" fill="none" xmlns="http://www.w3.org/2000/svg">
<g id="okx">
<path id="Vector" d="M19.5551 0H0.444376C0.326518 0 0.213482 0.0467866 0.130178 0.13018C0.0467853 0.213484 0 0.326519 0 0.444466V19.5552C0 19.673 0.0467853 19.7861 0.130178 19.8694C0.213482 19.9528 0.326518 19.9996 0.444376 19.9996H19.5551C19.673 19.9996 19.7861 19.9528 19.8694 19.8694C19.9528 19.7861 19.9996 19.673 19.9996 19.5552V0.444466C19.9996 0.326519 19.9528 0.213484 19.8694 0.13018C19.7861 0.0467866 19.673 0 19.5551 0ZM13.333 12.8886C13.333 13.0065 13.2862 13.1195 13.2028 13.2029C13.1195 13.2862 13.0065 13.3331 12.8886 13.3331H7.11092C6.99307 13.3331 6.88003 13.2862 6.79664 13.2029C6.71333 13.1195 6.66655 13.0065 6.66655 12.8886V7.11092C6.66655 6.99307 6.71333 6.88003 6.79664 6.79672C6.88003 6.71333 6.99307 6.66655 7.11092 6.66655H12.8886C13.0065 6.66655 13.1195 6.71333 13.2028 6.79672C13.2862 6.88003 13.333 6.99307 13.333 7.11092V12.8886Z" fill="white"/>
<path id="Vector_2" d="M59.5658 6.66748H53.7882C53.5428 6.66748 53.3438 6.86641 53.3438 7.11186V12.8896C53.3438 13.135 53.5428 13.334 53.7882 13.334H59.5658C59.8113 13.334 60.0103 13.135 60.0103 12.8896V7.11186C60.0103 6.86641 59.8113 6.66748 59.5658 6.66748Z" fill="white"/>
<path id="Vector_3" d="M52.8959 0.000488281H47.1183C46.8728 0.000488281 46.6738 0.199417 46.6738 0.444954V6.22257C46.6738 6.46801 46.8728 6.66703 47.1183 6.66703H52.8959C53.1414 6.66703 53.3404 6.46801 53.3404 6.22257V0.444954C53.3404 0.199417 53.1414 0.000488281 52.8959 0.000488281Z" fill="white"/>
<path id="Vector_4" d="M66.229 0.000488281H60.4513C60.2059 0.000488281 60.0068 0.199417 60.0068 0.444954V6.22257C60.0068 6.46801 60.2059 6.66703 60.4513 6.66703H66.229C66.4745 6.66703 66.6734 6.46801 66.6734 6.22257V0.444954C66.6734 0.199417 66.4745 0.000488281 66.229 0.000488281Z" fill="white"/>
<path id="Vector_5" d="M52.8959 13.3335H47.1183C46.8728 13.3335 46.6738 13.5324 46.6738 13.7779V19.5556C46.6738 19.801 46.8728 20 47.1183 20H52.8959C53.1414 20 53.3404 19.801 53.3404 19.5556V13.7779C53.3404 13.5324 53.1414 13.3335 52.8959 13.3335Z" fill="white"/>
<path id="Vector_6" d="M66.229 13.3335H60.4513C60.2059 13.3335 60.0068 13.5324 60.0068 13.7779V19.5556C60.0068 19.801 60.2059 20 60.4513 20H66.229C66.4745 20 66.6734 19.801 66.6734 19.5556V13.7779C66.6734 13.5324 66.4745 13.3335 66.229 13.3335Z" fill="white"/>
<path id="Vector_7" d="M42.8881 0.000488281H37.1105C36.865 0.000488281 36.666 0.199417 36.666 0.444954V6.22257C36.666 6.46801 36.865 6.66703 37.1105 6.66703H42.8881C43.1335 6.66703 43.3326 6.46801 43.3326 6.22257V0.444954C43.3326 0.199417 43.1335 0.000488281 42.8881 0.000488281Z" fill="white"/>
<path id="Vector_8" d="M42.8881 13.3335H37.1105C36.865 13.3335 36.666 13.5324 36.666 13.7779V19.5556C36.666 19.801 36.865 20 37.1105 20H42.8881C43.1335 20 43.3326 19.801 43.3326 19.5556V13.7779C43.3326 13.5324 43.1335 13.3335 42.8881 13.3335Z" fill="white"/>
<path id="Vector_9" d="M36.6661 7.10592C36.6661 6.98807 36.6192 6.87503 36.5359 6.79172C36.4525 6.70833 36.3395 6.66155 36.2216 6.66155H29.9996V0.444466C29.9996 0.326519 29.9527 0.213484 29.8694 0.13018C29.786 0.0467866 29.6729 0 29.5551 0H23.7775C23.6595 0 23.5465 0.0467866 23.4632 0.13018C23.3798 0.213484 23.333 0.326519 23.333 0.444466V19.5452C23.333 19.663 23.3798 19.7761 23.4632 19.8594C23.5465 19.9428 23.6595 19.9896 23.7775 19.9896H29.5551C29.6729 19.9896 29.786 19.9428 29.8694 19.8594C29.9527 19.7761 29.9996 19.663 29.9996 19.5452V13.3281H36.2216C36.3395 13.3281 36.4525 13.2812 36.5359 13.1979C36.6192 13.1145 36.6661 13.0015 36.6661 12.8836V7.10592Z" fill="white"/>
</g>
</svg>
