<svg width="119" height="20" viewBox="0 0 119 20" fill="none" xmlns="http://www.w3.org/2000/svg">
<g id="Suiswap_logo">
<path id="Vector" d="M48.1583 15.3714C47.2613 15.3714 46.4553 15.2251 45.7404 14.9324C45.0384 14.6275 44.4859 14.2128 44.083 13.6884C43.68 13.1518 43.472 12.5359 43.459 11.8407H45.3504C45.4154 12.4383 45.6754 12.9445 46.1304 13.3591C46.5983 13.7616 47.2743 13.9628 48.1583 13.9628C49.0032 13.9628 49.6662 13.7677 50.1472 13.3774C50.6412 12.9749 50.8881 12.4627 50.8881 11.8407C50.8881 11.3529 50.7451 10.9565 50.4592 10.6516C50.1732 10.3467 49.8157 10.115 49.3867 9.95646C48.9577 9.79793 48.3793 9.62717 47.6513 9.44423C46.7543 9.22471 46.0329 9.00518 45.4869 8.78565C44.9539 8.56613 44.4924 8.22466 44.1025 7.7612C43.7255 7.28556 43.537 6.65139 43.537 5.85864C43.537 5.16348 43.7255 4.54759 44.1025 4.01097C44.4795 3.47435 45.0059 3.05969 45.6819 2.76699C46.3709 2.47429 47.1573 2.32794 48.0413 2.32794C49.3152 2.32794 50.3551 2.62674 51.1611 3.22433C51.9801 3.82193 52.4415 4.61466 52.5456 5.60253H50.5957C50.5306 5.11471 50.2576 4.68784 49.7767 4.32196C49.2957 3.94389 48.6587 3.75485 47.8658 3.75485C47.1248 3.75485 46.5203 3.93779 46.0524 4.30367C45.5844 4.65735 45.3504 5.15736 45.3504 5.80376C45.3504 6.26722 45.4869 6.64528 45.7599 6.93798C46.0458 7.23068 46.3904 7.45632 46.7933 7.61485C47.2093 7.7612 47.7878 7.93196 48.5287 8.12708C49.4257 8.35878 50.1472 8.59054 50.6931 8.82224C51.2391 9.04177 51.7071 9.38935 52.0971 9.86499C52.4871 10.3285 52.682 10.9626 52.682 11.7675C52.682 12.3895 52.5066 12.9749 52.1556 13.5238C51.8046 14.0726 51.2846 14.5177 50.5957 14.8592C49.9067 15.2007 49.0942 15.3714 48.1583 15.3714ZM63.9897 5.21836V15.2434H62.2153V13.7616C61.8777 14.2738 61.403 14.6763 60.792 14.969C60.194 15.2495 59.531 15.3897 58.8031 15.3897C57.9711 15.3897 57.2236 15.2312 56.5607 14.9141C55.8977 14.5848 55.3712 14.097 54.9812 13.4506C54.6043 12.8042 54.4158 12.0175 54.4158 11.0907V5.21836H56.1707V10.8711C56.1707 11.859 56.4372 12.6212 56.9701 13.1579C57.5031 13.6823 58.2311 13.9445 59.1541 13.9445C60.103 13.9445 60.8505 13.6701 61.3964 13.1213C61.9423 12.5725 62.2153 11.7737 62.2153 10.7248V5.21836H63.9897ZM67.1223 3.59021C66.7841 3.59021 66.4984 3.48045 66.2644 3.26092C66.0304 3.0414 65.9134 2.77309 65.9134 2.45599C65.9134 2.1389 66.0304 1.87059 66.2644 1.65107C66.4984 1.43154 66.7841 1.32178 67.1223 1.32178C67.4471 1.32178 67.7201 1.43154 67.9413 1.65107C68.1753 1.87059 68.2923 2.1389 68.2923 2.45599C68.2923 2.77309 68.1753 3.0414 67.9413 3.26092C67.7201 3.48045 67.4471 3.59021 67.1223 3.59021ZM67.9803 5.21836V15.2434H66.2059V5.21836H67.9803ZM74.0073 15.408C73.1884 15.408 72.4541 15.28 71.8039 15.0238C71.1538 14.7556 70.6407 14.3897 70.2635 13.9262C69.8863 13.4506 69.6785 12.9079 69.6395 12.2981H71.4725C71.5243 12.7981 71.7716 13.2066 72.2134 13.5238C72.6686 13.8409 73.2597 13.9994 73.9878 13.9994C74.6636 13.9994 75.1968 13.8592 75.5868 13.5786C75.9767 13.2981 76.1717 12.9445 76.1717 12.5176C76.1717 12.0785 75.964 11.7554 75.5478 11.548C75.1316 11.3285 74.4881 11.1151 73.6174 10.9077C72.8246 10.7126 72.1744 10.5175 71.6674 10.3223C71.1733 10.115 70.7443 9.81622 70.3805 9.42594C70.0295 9.02347 69.854 8.49907 69.854 7.85267C69.854 7.34044 70.0167 6.87092 70.3415 6.44405C70.6663 6.01717 71.1282 5.68182 71.7259 5.43789C72.3237 5.18177 73.0062 5.05372 73.7733 5.05372C74.9561 5.05372 75.9115 5.33424 76.6397 5.89523C77.3679 6.45622 77.7579 7.22456 77.8097 8.20025H76.0352C75.9962 7.67585 75.769 7.25509 75.3528 6.93798C74.95 6.62087 74.404 6.46234 73.7149 6.46234C73.0781 6.46234 72.5711 6.5904 72.1939 6.84651C71.8167 7.10262 71.6285 7.43803 71.6285 7.85267C71.6285 8.18196 71.7387 8.45637 71.9599 8.67589C72.1939 8.88324 72.4797 9.05395 72.8179 9.18812C73.1689 9.31006 73.6497 9.45035 74.2608 9.60888C75.028 9.80399 75.652 9.99916 76.1327 10.1943C76.6135 10.3772 77.023 10.6577 77.3612 11.0358C77.7122 11.4138 77.8944 11.9078 77.9072 12.5176C77.9072 13.0664 77.7445 13.5603 77.4197 13.9994C77.0949 14.4384 76.633 14.786 76.0352 15.0421C75.4503 15.2861 74.7745 15.408 74.0073 15.408ZM93.8665 5.21836L90.5322 15.2434H88.6993L86.1254 7.28556L83.5515 15.2434H81.7186L78.3648 5.21836H80.1782L82.6351 13.6335L85.2869 5.21836H87.1004L89.6937 13.6518L92.1116 5.21836H93.8665ZM94.1846 10.1943C94.1846 9.16982 94.4052 8.27343 94.8476 7.50509C95.2894 6.72457 95.8938 6.12087 96.661 5.694C97.441 5.26712 98.305 5.05372 99.2544 5.05372C100.19 5.05372 101.003 5.24277 101.692 5.62082C102.38 5.99888 102.894 6.47452 103.232 7.04774V5.21836H105.026V15.2434H103.232V13.3774C102.881 13.9628 102.355 14.4506 101.653 14.8409C100.964 15.219 100.157 15.408 99.2349 15.408C98.2855 15.408 97.4276 15.1885 96.661 14.7494C95.8938 14.3104 95.2894 13.6945 94.8476 12.9018C94.4052 12.109 94.1846 11.2066 94.1846 10.1943ZM103.232 10.2126C103.232 9.45641 103.069 8.79783 102.745 8.23684C102.419 7.67585 101.978 7.24897 101.419 6.95627C100.873 6.65139 100.268 6.49893 99.6054 6.49893C98.9424 6.49893 98.3379 6.64528 97.792 6.93798C97.246 7.23068 96.8103 7.65755 96.4855 8.21855C96.1601 8.77954 95.998 9.43811 95.998 10.1943C95.998 10.9626 96.1601 11.6334 96.4855 12.2066C96.8103 12.7676 97.246 13.2006 97.792 13.5055C98.3379 13.7982 98.9424 13.9445 99.6054 13.9445C100.268 13.9445 100.873 13.7982 101.419 13.5055C101.978 13.2006 102.419 12.7676 102.745 12.2066C103.069 11.6334 103.232 10.9687 103.232 10.2126ZM109.019 7.06604C109.37 6.49281 109.89 6.01717 110.579 5.63912C111.281 5.24883 112.093 5.05372 113.016 5.05372C113.965 5.05372 114.823 5.26712 115.59 5.694C116.37 6.12087 116.981 6.72457 117.423 7.50509C117.865 8.27343 118.086 9.16982 118.086 10.1943C118.086 11.2066 117.865 12.109 117.423 12.9018C116.981 13.6945 116.37 14.3104 115.59 14.7494C114.823 15.1885 113.965 15.408 113.016 15.408C112.106 15.408 111.301 15.219 110.599 14.8409C109.909 14.4506 109.383 13.9689 109.019 13.3957V19.9998H107.245V5.21836H109.019V7.06604ZM116.273 10.1943C116.273 9.43811 116.11 8.77954 115.785 8.21855C115.46 7.65755 115.018 7.23068 114.459 6.93798C113.913 6.64528 113.309 6.49893 112.646 6.49893C111.996 6.49893 111.391 6.65139 110.833 6.95627C110.287 7.24897 109.844 7.68191 109.507 8.25513C109.181 8.81612 109.019 9.46864 109.019 10.2126C109.019 10.9687 109.181 11.6334 109.507 12.2066C109.844 12.7676 110.287 13.2006 110.833 13.5055C111.391 13.7982 111.996 13.9445 112.646 13.9445C113.309 13.9445 113.913 13.7982 114.459 13.5055C115.018 13.2006 115.46 12.7676 115.785 12.2066C116.11 11.6334 116.273 10.9626 116.273 10.1943Z" fill="white"/>
<path id="Intersect" fill-rule="evenodd" clip-rule="evenodd" d="M14.2861 3.13086C15.2194 4.13097 16.0826 5.30522 16.8929 6.55083L16.9526 6.64224C17.243 7.08432 17.5256 7.53779 17.8015 7.99672C18.0803 8.45633 18.3509 8.92367 18.6146 9.39063C18.8784 8.92357 19.1491 8.45612 19.428 7.99644C19.7036 7.53795 19.9859 7.0849 20.276 6.64324L20.3064 6.59675L20.337 6.54995C21.1471 5.30466 22.0101 4.13073 22.9432 3.13086C24.6745 1.27551 26.6651 0 29.0238 0C31.3867 0 33.297 1.34028 34.6098 3.2396C35.9219 5.13776 36.6492 7.60872 36.6492 9.91511C36.6492 12.2215 35.9219 14.6925 34.6098 16.5906C33.297 18.4899 31.3867 19.8302 29.0238 19.8302C26.6651 19.8302 24.6745 18.5547 22.9432 16.6994C22.0101 15.6994 21.147 14.5254 20.3369 13.2801L20.276 13.1869C19.9859 12.7453 19.7036 12.2923 19.428 11.8338C19.1491 11.3741 18.8784 10.9067 18.6146 10.4396C18.3509 10.9065 18.0803 11.3739 17.8015 11.8335C17.5256 12.2924 17.243 12.7459 16.9526 13.188L16.8928 13.2795C16.0826 14.525 15.2193 15.6993 14.2861 16.6994C12.5548 18.5547 10.5642 19.8302 8.20548 19.8302C5.84254 19.8302 3.93227 18.4899 2.61943 16.5906C1.3074 14.6925 0.580078 12.2215 0.580078 9.9151C0.580078 7.60872 1.3074 5.13776 2.61943 3.2396C3.93227 1.34028 5.84254 0 8.20548 0C10.5642 0 12.5548 1.27551 14.2861 3.13086ZM0.897509 9.9151C0.897509 7.66929 1.60736 5.26204 2.88057 3.42005C4.153 1.5792 5.97607 0.317374 8.20548 0.317374C8.45185 0.317374 8.69433 0.332039 8.93304 0.360599C8.82882 0.35532 8.72383 0.352642 8.61807 0.352642C6.34496 0.352642 4.50788 1.64614 3.24584 3.47782C1.98457 5.30836 1.28549 7.6911 1.28549 9.9151C1.28549 12.1391 1.98457 14.5218 3.24584 16.3524C4.50788 18.1841 6.34496 19.4776 8.61807 19.4776C8.72383 19.4776 8.8288 19.4749 8.93302 19.4696C8.69431 19.4982 8.45185 19.5128 8.20548 19.5128C5.97607 19.5128 4.153 18.251 2.88057 16.4102C1.60736 14.5682 0.897509 12.1609 0.897509 9.9151ZM8.61807 0.670016C8.85684 0.670016 9.09178 0.68442 9.32305 0.712446C9.22628 0.707689 9.12882 0.705283 9.03068 0.705283C6.84735 0.705283 5.08348 1.95203 3.87223 3.71605C2.66173 5.47899 1.9909 7.77348 1.9909 9.9151C1.9909 12.0567 2.66173 14.3512 3.87223 16.1142C5.08348 17.8782 6.84735 19.1249 9.03068 19.1249C9.12882 19.1249 9.22629 19.1225 9.32306 19.1178C9.09179 19.1458 8.85684 19.1602 8.61807 19.1602C6.47894 19.1602 4.72907 17.9456 3.50725 16.1723C2.28464 14.3979 1.60292 12.0788 1.60292 9.9151C1.60292 7.75145 2.28464 5.43229 3.50725 3.65787C4.72907 1.88457 6.47894 0.670016 8.61807 0.670016ZM28.6112 19.1602C28.3724 19.1602 28.1374 19.1458 27.9062 19.1178C28.003 19.1225 28.1004 19.1249 28.1986 19.1249C30.3819 19.1249 32.1458 17.8782 33.357 16.1142C34.5675 14.3512 35.2384 12.0567 35.2384 9.9151C35.2384 7.77348 34.5675 5.47899 33.357 3.71605C32.1458 1.95203 30.3819 0.705283 28.1986 0.705283C28.1005 0.705283 28.003 0.707689 27.9062 0.712446C28.1375 0.68442 28.3724 0.670016 28.6112 0.670016C30.7503 0.670016 32.5002 1.88457 33.722 3.65787C34.9446 5.43229 35.6263 7.75145 35.6263 9.91511C35.6263 12.0788 34.9446 14.3979 33.722 16.1723C32.5002 17.9456 30.7503 19.1602 28.6112 19.1602ZM28.6112 0.352642C28.5054 0.352642 28.4005 0.35532 28.2963 0.360599C28.535 0.332051 28.7774 0.317374 29.0238 0.317374C31.2532 0.317374 33.0763 1.57921 34.3487 3.42005C35.6219 5.26204 36.3318 7.66929 36.3318 9.91511C36.3318 12.1609 35.6219 14.5682 34.3487 16.4102C33.0763 18.251 31.2532 19.5128 29.0238 19.5128C28.7774 19.5128 28.535 19.4982 28.2962 19.4696C28.4005 19.4749 28.5054 19.4776 28.6112 19.4776C30.8843 19.4776 32.7214 18.1841 33.9834 16.3524C35.2447 14.5218 35.9438 12.1391 35.9438 9.91511C35.9438 7.6911 35.2447 5.30836 33.9834 3.47782C32.7214 1.64614 30.8843 0.352642 28.6112 0.352642ZM9.03068 1.02266C9.26182 1.02266 9.48925 1.0368 9.71308 1.0643C9.62376 1.06007 9.53382 1.05792 9.44327 1.05792C7.34971 1.05792 5.65904 2.25794 4.49862 3.9543C3.33888 5.64963 2.6963 7.85589 2.6963 9.9151C2.6963 11.9743 3.33888 14.1806 4.49862 15.8759C5.65904 17.5723 7.34971 18.7723 9.44327 18.7723C9.53382 18.7723 9.62377 18.7701 9.71309 18.7659C9.48925 18.7934 9.26182 18.8076 9.03068 18.8076C6.98184 18.8076 5.30518 17.6403 4.13394 15.9345C2.96194 14.2277 2.30833 11.9966 2.30833 9.9151C2.30833 7.8336 2.96194 5.60252 4.13394 3.89567C5.30518 2.18991 6.98184 1.02266 9.03068 1.02266ZM28.1986 18.8076C27.9674 18.8076 27.74 18.7934 27.5162 18.7659C27.6055 18.7701 27.6955 18.7723 27.786 18.7723C29.8796 18.7723 31.5703 17.5723 32.7307 15.8759C33.8904 14.1806 34.533 11.9743 34.533 9.9151C34.533 7.85589 33.8904 5.64963 32.7307 3.9543C31.5703 2.25794 29.8796 1.05792 27.786 1.05792C27.6955 1.05792 27.6055 1.06007 27.5162 1.0643C27.74 1.0368 27.9675 1.02266 28.1986 1.02266C30.2474 1.02266 31.9241 2.18991 33.0954 3.89567C34.2673 5.60252 34.921 7.8336 34.921 9.9151C34.921 11.9966 34.2673 14.2277 33.0954 15.9345C31.9241 17.6403 30.2474 18.8076 28.1986 18.8076ZM9.44327 1.3753C10.6816 1.3753 11.8084 1.80134 12.8483 2.52385C12.6595 2.42447 12.4672 2.33535 12.2712 2.2574C11.4925 1.86826 10.6577 1.64566 9.75827 1.64566C7.78542 1.64566 6.19236 2.7666 5.09923 4.35046C4.0069 5.93318 3.40171 7.99269 3.40171 9.9151C3.40171 11.8375 4.0069 13.897 5.09923 15.4797C6.19236 17.0636 7.78542 18.1846 9.75827 18.1846C10.6577 18.1846 11.4925 17.9619 12.2712 17.5728C12.4672 17.4949 12.6595 17.4057 12.8484 17.3063C11.8084 18.0289 10.6816 18.4549 9.44327 18.4549C7.48476 18.4549 5.8813 17.335 4.76062 15.6967C3.63924 14.0575 3.01373 11.9145 3.01373 9.9151C3.01373 7.91573 3.63924 5.77274 4.76062 4.13348C5.8813 2.49523 7.48476 1.3753 9.44327 1.3753ZM5.36051 4.53072C6.33783 3.11463 7.7056 2.11494 9.36794 1.9789C7.91344 2.27914 6.72138 3.24242 5.85603 4.5098C4.80617 6.0474 4.22469 8.04792 4.22469 9.9151C4.22469 11.7823 4.80617 13.7828 5.85603 15.3204C6.72138 16.5878 7.91344 17.5511 9.36794 17.8513C7.7056 17.7153 6.33783 16.7156 5.36051 15.2995C4.30691 13.7729 3.71914 11.777 3.71914 9.9151C3.71914 8.05316 4.30691 6.05729 5.36051 4.53072ZM27.786 18.4549C26.5477 18.4549 25.4209 18.0289 24.3809 17.3064C24.5698 17.4057 24.7621 17.4948 24.958 17.5728C25.7367 17.9619 26.5716 18.1846 27.471 18.1846C29.4439 18.1846 31.0369 17.0636 32.1301 15.4797C33.2224 13.897 33.8276 11.8375 33.8276 9.91511C33.8276 7.99269 33.2224 5.93318 32.1301 4.35046C31.0369 2.7666 29.4439 1.64566 27.471 1.64566C26.5716 1.64566 25.7368 1.86827 24.958 2.25743C24.7621 2.33538 24.5698 2.42448 24.3809 2.52385C25.4209 1.80134 26.5477 1.3753 27.786 1.3753C29.7445 1.3753 31.348 2.49523 32.4687 4.13347C33.59 5.77274 34.2156 7.91573 34.2156 9.9151C34.2156 11.9145 33.59 14.0575 32.4687 15.6967C31.348 17.335 29.7445 18.4549 27.786 18.4549ZM31.8688 15.2995C30.8914 16.7156 29.5237 17.7153 27.8614 17.8513C29.3159 17.5511 30.5079 16.5878 31.3733 15.3204C32.4231 13.7828 33.0046 11.7823 33.0046 9.9151C33.0046 8.04792 32.4231 6.0474 31.3733 4.5098C30.5079 3.24244 29.3159 2.27916 27.8614 1.9789C29.5237 2.11496 30.8914 3.11465 31.8688 4.53072C32.9224 6.05729 33.5101 8.05316 33.5101 9.91511C33.5101 11.777 32.9224 13.7729 31.8688 15.2995ZM10.3372 2.19813C10.5454 2.19813 10.75 2.21152 10.9513 2.23754C10.8846 2.23479 10.8174 2.2334 10.7498 2.2334C8.94094 2.2334 7.48208 3.27718 6.48238 4.7481C5.48331 6.21809 4.9301 8.13034 4.9301 9.9151C4.9301 11.6999 5.48331 13.6121 6.48238 15.0821C7.48208 16.553 8.94094 17.5968 10.7498 17.5968C10.8174 17.5968 10.8846 17.5954 10.9513 17.5927C10.75 17.6187 10.5454 17.6321 10.3372 17.6321C8.57396 17.6321 7.1291 16.622 6.11821 15.1415C5.10661 13.6599 4.54212 11.7226 4.54212 9.9151C4.54212 8.10763 5.10661 6.1703 6.11821 4.68875C7.1291 3.20819 8.57396 2.19813 10.3372 2.19813ZM26.8921 17.6321C26.6839 17.6321 26.4793 17.6187 26.278 17.5927C26.3447 17.5954 26.4119 17.5968 26.4794 17.5968C28.2883 17.5968 29.7472 16.553 30.7469 15.0821C31.746 13.6121 32.2992 11.6999 32.2992 9.9151C32.2992 8.13034 31.746 6.21809 30.7469 4.7481C29.7472 3.27717 28.2883 2.2334 26.4794 2.2334C26.4119 2.2334 26.3447 2.23479 26.278 2.23754C26.4793 2.21152 26.6839 2.19813 26.8921 2.19813C28.6553 2.19813 30.1002 3.20819 31.1111 4.68875C32.1227 6.1703 32.6872 8.10763 32.6872 9.9151C32.6872 11.7226 32.1227 13.6599 31.1111 15.1415C30.1002 16.622 28.6553 17.6321 26.8921 17.6321ZM10.7498 2.55077C10.9638 2.55077 11.1738 2.56575 11.3802 2.59479C11.2856 2.58898 11.1901 2.58604 11.0937 2.58604C9.36011 2.58604 7.96224 3.58248 7.00466 4.98589C6.04775 6.3883 5.51794 8.21247 5.51794 9.9151C5.51794 11.6177 6.04775 13.4419 7.00466 14.8443C7.96224 16.2477 9.36011 17.2442 11.0937 17.2442C11.1447 17.2442 11.1954 17.2434 11.2458 17.2417C11.2908 17.2403 11.3356 17.2382 11.3802 17.2354C11.1738 17.2645 10.9638 17.2794 10.7498 17.2794C9.07694 17.2794 7.70529 16.3168 6.74493 14.9037C5.78393 13.4897 5.24753 11.6405 5.24753 9.9151C5.24753 8.18974 5.78393 6.34048 6.74493 4.92648C7.70529 3.51344 9.07694 2.55077 10.7498 2.55077ZM26.4794 17.2794C26.2655 17.2794 26.0554 17.2645 25.849 17.2354C25.9436 17.2412 26.0392 17.2442 26.1356 17.2442C27.8692 17.2442 29.2671 16.2477 30.2247 14.8443C31.1816 13.4419 31.7114 11.6177 31.7114 9.9151C31.7114 8.21247 31.1816 6.3883 30.2247 4.98588C29.2671 3.58248 27.8692 2.58604 26.1356 2.58604C26.0392 2.58604 25.9436 2.58898 25.849 2.59479C26.0554 2.56575 26.2655 2.55077 26.4794 2.55077C28.1523 2.55077 29.524 3.51344 30.4843 4.92648C31.4454 6.34048 31.9817 8.18974 31.9817 9.9151C31.9817 11.6405 31.4454 13.4897 30.4843 14.9037C29.524 16.3168 28.1523 17.2794 26.4794 17.2794ZM11.0937 2.90342C11.301 2.90342 11.5041 2.91808 11.7032 2.94652C11.6155 2.94132 11.5269 2.93868 11.4375 2.93868C9.77929 2.93868 8.44243 3.88775 7.52696 5.22364C6.61219 6.55848 6.10577 8.2946 6.10577 9.9151C6.10577 11.5356 6.61219 13.2717 7.52696 14.6066C8.44243 15.9425 9.77929 16.8915 11.4375 16.8915C11.5269 16.8915 11.6155 16.8889 11.7033 16.8837C11.5041 16.9121 11.301 16.9268 11.0937 16.9268C9.49551 16.9268 8.18488 16.0108 7.26688 14.6655C6.34821 13.3191 5.83537 11.5581 5.83537 9.9151C5.83537 8.27214 6.34821 6.51113 7.26688 5.16475C8.18488 3.81936 9.49551 2.90342 11.0937 2.90342ZM26.1356 16.9268C25.9283 16.9268 25.7253 16.9121 25.5262 16.8837C25.6139 16.8889 25.7024 16.8915 25.7918 16.8915C27.45 16.8915 28.7868 15.9425 29.7023 14.6066C30.6171 13.2717 31.1235 11.5356 31.1235 9.9151C31.1235 8.2946 30.6171 6.55848 29.7023 5.22364C28.7868 3.88775 27.45 2.93868 25.7918 2.93868C25.7024 2.93868 25.6139 2.94132 25.5262 2.9465C25.7253 2.91808 25.9283 2.90342 26.1356 2.90342C27.7338 2.90342 29.0444 3.81936 29.9624 5.16475C30.8811 6.51113 31.3939 8.27214 31.3939 9.9151C31.3939 11.5581 30.8811 13.3191 29.9624 14.6655C29.0444 16.0108 27.7338 16.9268 26.1356 16.9268ZM11.4375 3.25606C12.8155 3.25606 13.9969 3.93249 15.0581 4.99772C16.2577 6.41518 17.3205 8.17033 18.3092 9.9151C17.3205 11.6599 16.2576 13.415 15.0581 14.8325C13.9969 15.8977 12.8155 16.5742 11.4375 16.5742C9.91407 16.5742 8.66443 15.7049 7.78881 14.4272C6.91249 13.1484 6.42322 11.4756 6.42322 9.9151C6.42322 8.35456 6.91249 6.6818 7.78881 5.40303C8.66443 4.12533 9.91407 3.25606 11.4375 3.25606ZM25.7918 16.5742C24.4034 16.5742 23.2162 15.8874 22.1506 14.8082C20.9595 13.395 19.9031 11.6499 18.9201 9.91511C19.9031 8.18028 20.9595 6.43522 22.1506 5.02203C23.2162 3.94278 24.4034 3.25606 25.7918 3.25606C27.3152 3.25606 28.5649 4.12533 29.4405 5.40303C30.3168 6.6818 30.8061 8.35456 30.8061 9.9151C30.8061 11.4756 30.3168 13.1484 29.4405 14.4272C28.5649 15.7049 27.3152 16.5742 25.7918 16.5742Z" fill="white"/>
</g>
</svg>
