<svg width="1725" height="1130" viewBox="0 0 1725 1130" fill="none" xmlns="http://www.w3.org/2000/svg">
<g opacity="0.6">
<path d="M1445.6 882.382C1626.68 807.41 1480.56 646.106 1405.17 643.434C1329.78 640.763 1098.17 939.963 1098.17 939.963C1098.17 939.963 1128.62 1036.09 1193.54 1034.85C1235.65 1034.04 1270.72 1026.68 1309.5 977.585C1348.28 928.486 1445.6 882.382 1445.6 882.382Z" fill="url(#paint0_linear_1354_1865)"/>
<path d="M1439.98 660.941C1432.58 634.846 1399.82 465.2 1216.05 472.32C1108.8 476.475 1036.03 550.873 1019.87 645.837C1003.07 704.288 979.495 716.572 979.495 716.572C918.133 750.155 925.993 801.962 925.993 801.962C925.993 801.962 941.654 985.826 1199.73 976.254C1457.81 966.682 1447.39 687.035 1439.98 660.941Z" fill="url(#paint1_linear_1354_1865)"/>
<path d="M870.604 419.382C1051.68 344.41 905.562 183.106 830.171 180.434C754.781 177.763 523.166 476.963 523.166 476.963C523.166 476.963 553.625 573.092 618.536 571.849C660.655 571.042 695.717 563.683 734.498 514.585C773.28 465.486 870.604 419.382 870.604 419.382Z" fill="url(#paint2_linear_1354_1865)"/>
<path d="M809.982 226.941C802.578 200.846 769.823 31.1997 586.052 38.3197C478.805 42.4749 406.031 116.873 389.875 211.837C373.07 270.288 349.495 282.572 349.495 282.572C288.133 316.155 295.993 367.962 295.993 367.962C295.993 367.962 311.654 551.826 569.732 542.254C827.81 532.682 817.386 253.035 809.982 226.941Z" fill="url(#paint3_linear_1354_1865)"/>
</g>
<defs>
<linearGradient id="paint0_linear_1354_1865" x1="1226.31" y1="1010.56" x2="1514.31" y2="766.326" gradientUnits="userSpaceOnUse">
<stop stop-color="#95F3AA"/>
<stop offset="1" stop-color="#472BF2"/>
</linearGradient>
<linearGradient id="paint1_linear_1354_1865" x1="1027.37" y1="940.916" x2="1400.36" y2="555.357" gradientUnits="userSpaceOnUse">
<stop stop-color="#A0E69F"/>
<stop offset="0.433153" stop-color="#94D7E7"/>
<stop offset="1" stop-color="#65DCC6"/>
</linearGradient>
<linearGradient id="paint2_linear_1354_1865" x1="651.315" y1="547.557" x2="939.307" y2="303.326" gradientUnits="userSpaceOnUse">
<stop stop-color="#95E3A6"/>
<stop offset="1" stop-color="#AFE243"/>
</linearGradient>
<linearGradient id="paint3_linear_1354_1865" x1="397.367" y1="506.916" x2="770.358" y2="121.357" gradientUnits="userSpaceOnUse">
<stop stop-color="#A0E69F"/>
<stop offset="0.433153" stop-color="#94D7E7"/>
<stop offset="1" stop-color="#65DCC6"/>
</linearGradient>
</defs>
</svg>
