<svg width="1728" height="1728" viewBox="0 0 1728 1728" fill="none" xmlns="http://www.w3.org/2000/svg">
<path d="M1215.86 895.628C1215.86 998.97 1178.27 1093.55 1115.99 1166.46C1006.64 1114.17 923.581 1015.82 892.025 896.573C900.507 772.115 963.598 662.627 1057.56 591.811C1084.31 606.727 1109.25 624.491 1131.97 644.692C1184.64 714.552 1215.86 801.449 1215.86 895.628ZM891.824 899.684C923.995 1017.85 1006.7 1115.22 1115.32 1167.25C1111.21 1172.04 1106.99 1176.74 1102.66 1181.34C1087.09 1189.5 1070.94 1196.7 1054.28 1202.88C1014.07 1184.62 977.264 1160.19 945.076 1130.8C910.681 1070.14 891.047 1000.03 891.047 925.35C891.047 916.731 891.309 908.174 891.824 899.684ZM1105.36 1179.91C1109.07 1175.91 1112.7 1171.84 1116.25 1167.7C1118.21 1168.63 1120.18 1169.55 1122.16 1170.45C1116.64 1173.73 1111.04 1176.88 1105.36 1179.91ZM1055.58 1203.47C1071.03 1197.69 1086.04 1191.04 1100.57 1183.56C1091.57 1192.99 1082.14 1202 1072.31 1210.56C1066.67 1208.31 1061.09 1205.95 1055.58 1203.47ZM1073.35 1210.97C1083.8 1201.86 1093.79 1192.24 1103.28 1182.15C1110.05 1178.59 1116.72 1174.86 1123.27 1170.96C1146.63 1181.55 1171.13 1190.06 1196.55 1196.26C1186.89 1210 1176.43 1223.13 1165.23 1235.59C1133.28 1230.85 1102.51 1222.5 1073.35 1210.97ZM1054.24 1203.96C1059.91 1206.53 1065.65 1208.98 1071.46 1211.3C1059.63 1221.54 1047.22 1231.13 1034.28 1240.01C1026.03 1232.81 1018.06 1225.3 1010.4 1217.48C1025.35 1213.76 1039.98 1209.24 1054.24 1203.96ZM1035.06 1240.68C1048.09 1231.73 1060.59 1222.05 1072.5 1211.71C1101.68 1223.29 1132.46 1231.69 1164.43 1236.48C1146.6 1256.19 1126.92 1274.19 1105.66 1290.22C1080.4 1276.13 1056.75 1259.5 1035.06 1240.68ZM1009.28 1217.76C1017.02 1225.68 1025.08 1233.3 1033.43 1240.59C966.297 1286.43 885.1 1313.24 797.631 1313.24C738.15 1313.24 681.568 1300.85 630.338 1278.49C674.706 1258.85 715.022 1231.74 749.688 1198.76C798.71 1218.83 852.385 1229.9 908.648 1229.9C943.337 1229.9 977.041 1225.69 1009.28 1217.76ZM629.095 1279.04C680.67 1301.68 737.681 1314.24 797.631 1314.24C885.403 1314.24 966.874 1287.31 1034.21 1241.27C1055.89 1260.11 1079.53 1276.76 1104.78 1290.87C1034.9 1343.26 948.053 1374.3 853.944 1374.3C759.249 1374.3 671.904 1342.87 601.799 1289.89C611.053 1286.59 620.155 1282.97 629.095 1279.04ZM748.675 1198.34C713.946 1231.31 673.549 1258.38 629.095 1277.95C588.882 1260.25 551.989 1236.41 519.608 1207.61C513.248 1199.18 507.201 1190.49 501.483 1181.58C549.823 1171.91 595.16 1153.95 635.94 1129.23C669.367 1157.85 707.359 1181.3 748.675 1198.34ZM522.695 1211.66C554.013 1238.85 589.412 1261.47 627.852 1278.49C619.006 1282.35 610 1285.92 600.846 1289.17C571.513 1266.87 545.22 1240.79 522.695 1211.66ZM500.429 1181.79C505.323 1189.44 510.459 1196.91 515.827 1204.21C508.346 1197.4 501.114 1190.31 494.146 1182.98C496.246 1182.6 498.341 1182.2 500.429 1181.79ZM492.969 1183.19C501.238 1191.92 509.88 1200.3 518.869 1208.3C541.977 1238.93 569.201 1266.29 599.719 1289.57C556.185 1304.9 509.348 1313.24 460.559 1313.24C254.222 1313.24 82.7858 1164.04 48.5525 967.786C119.067 1099.85 258.385 1189.73 418.726 1189.73C444.062 1189.73 468.872 1187.49 492.969 1183.19ZM492.148 1182.32C468.31 1186.53 443.775 1188.73 418.726 1188.73C257.682 1188.73 117.899 1097.84 48.0149 964.632C44.2772 942.185 42.3324 919.133 42.3324 895.628C42.3324 664.985 229.578 478.011 460.559 478.011C516.53 478.011 569.932 488.99 618.725 508.909C613.345 514.054 608.102 519.341 603.001 524.763C469.478 594.777 378.405 734.582 378.405 895.628C378.405 1006.56 421.616 1107.41 492.148 1182.32ZM493.324 1182.11C422.696 1107.33 379.405 1006.53 379.405 895.628C379.405 735.995 469.102 597.281 600.915 526.998C547.19 584.958 509.682 658.125 495.594 739.309C456.967 802.668 434.718 877.079 434.718 956.679C434.718 1039.16 458.606 1116.07 499.852 1180.88C497.682 1181.31 495.506 1181.72 493.324 1182.11ZM500.905 1180.67C459.63 1115.95 435.718 1039.1 435.718 956.679C435.718 878.175 457.411 804.73 495.137 741.995C491.378 764.532 489.422 787.679 489.422 811.282C489.422 938.118 545.913 1051.78 635.141 1128.55C594.424 1153.18 549.161 1171.07 500.905 1180.67ZM636.04 1128C546.882 1051.41 490.422 937.931 490.422 811.282C490.422 786.864 492.52 762.936 496.547 739.667C546.094 658.48 622.605 595.502 713.656 563.136C760.34 598.624 799.325 643.691 827.672 695.403C814.889 735.494 807.992 778.207 807.992 822.528C807.992 850.013 810.644 876.879 815.708 902.885C784.239 997.464 719.819 1077.03 636.04 1128ZM636.839 1128.69C720.19 1077.88 784.39 998.835 816.099 904.867C824.474 946.795 839.121 986.464 859.022 1022.86C837.503 1090.11 799.381 1149.96 749.468 1197.59C708.194 1180.61 670.237 1157.23 636.839 1128.69ZM750.482 1198C800.132 1150.52 838.109 1090.97 859.685 1024.06C881.894 1064.36 910.557 1100.62 944.283 1131.43C961.998 1162.65 983.613 1191.37 1008.47 1216.93C976.48 1224.75 943.049 1228.9 908.648 1228.9C852.677 1228.9 799.274 1217.92 750.482 1198ZM1052.95 1203.37C1038.84 1208.55 1024.37 1213 1009.59 1216.65C985.337 1191.78 964.161 1163.89 946.679 1133.61C978.152 1161.92 1013.94 1185.55 1052.95 1203.37ZM942.699 1128.62C909.801 1098.11 881.829 1062.38 860.105 1022.75C872.887 982.661 879.785 939.949 879.785 895.628C879.785 825.683 862.606 759.744 832.23 701.79C831.614 698.096 830.949 694.419 830.236 690.759C848.543 635.74 878 585.802 915.933 543.618C928.184 545.435 940.261 547.783 952.141 550.637C904.884 618.395 877.176 700.763 877.176 789.593C877.176 826.603 881.986 862.492 891.016 896.67C890.374 906.147 890.047 915.711 890.047 925.35C890.047 999.117 909.156 1068.43 942.699 1128.62ZM1056.6 591.28C963.355 661.712 900.518 770.176 891.239 893.556C882.71 860.319 878.176 825.484 878.176 789.593C878.176 700.836 905.905 618.546 953.185 550.89C989.778 559.782 1024.49 573.481 1056.6 591.28ZM1057.48 590.621C1025.29 572.736 990.491 558.962 953.801 550.01C961.393 539.206 969.484 528.777 978.041 518.757C1012.12 535.051 1043.64 555.817 1071.84 580.294C1066.98 583.638 1062.19 587.081 1057.48 590.621ZM1072.7 579.71C1044.44 555.158 1012.86 534.324 978.715 517.97C1008.09 483.747 1042.91 454.325 1081.84 431.046C1129.1 452.544 1171.65 482.568 1207.52 519.15C1158.61 531.325 1113.11 552.076 1072.7 579.71ZM1208.64 518.871C1172.77 482.181 1130.21 452.046 1082.92 430.435C1127.9 413.925 1176.5 404.911 1227.22 404.911C1382.25 404.911 1517.58 489.141 1589.81 614.272C1515.52 547.423 1417.15 506.733 1309.27 506.733C1274.59 506.733 1240.88 510.94 1208.64 518.871ZM1309.27 507.733C1418 507.733 1517.04 549.163 1591.42 617.075C1625.81 677.737 1645.44 747.843 1645.44 822.528C1645.44 975.242 1563.35 1108.81 1440.83 1181.64C1395.82 1198.18 1347.17 1207.21 1296.4 1207.21C1262.58 1207.21 1229.7 1203.2 1198.21 1195.63C1232.41 1146.6 1256.37 1089.91 1267 1028.65C1305.63 965.292 1327.87 890.882 1327.87 811.282C1327.87 697.919 1282.75 595.081 1209.45 519.702C1241.44 511.881 1274.87 507.733 1309.27 507.733ZM1445.95 1179.72C1566.21 1106.13 1646.44 973.687 1646.44 822.528C1646.44 748.761 1627.34 679.45 1593.79 619.262C1650.89 672.201 1693.14 740.872 1713.65 818.37C1702.37 983.866 1594.53 1122.89 1445.95 1179.72ZM1296.4 1208.21C1345.39 1208.21 1392.42 1199.82 1436.12 1184.4C1374.65 1219.86 1303.31 1240.14 1227.22 1240.14C1206.57 1240.14 1186.27 1238.65 1166.42 1235.76C1177.56 1223.33 1187.98 1210.22 1197.59 1196.51C1229.28 1204.16 1262.36 1208.21 1296.4 1208.21ZM1165.61 1236.66C1185.72 1239.61 1206.29 1241.14 1227.22 1241.14C1305.41 1241.14 1378.61 1219.77 1441.26 1182.55C1591.91 1127.15 1701.92 987.846 1714.44 821.387C1722.97 854.624 1727.5 889.458 1727.5 925.35C1727.5 1155.99 1540.25 1342.97 1309.27 1342.97C1235.75 1342.97 1166.65 1324.02 1106.61 1290.75C1127.97 1274.62 1147.73 1256.5 1165.61 1236.66ZM41.3324 895.628C41.3324 918.142 43.1124 940.242 46.5395 961.793C17.1104 904.633 0.5 839.812 0.5 771.117C0.5 540.474 187.746 353.5 418.726 353.5C522.493 353.5 617.433 391.235 690.535 453.713C664.926 469.322 641.125 487.597 619.518 508.152C570.497 488.079 516.822 477.011 460.559 477.011C229.027 477.011 41.3324 664.432 41.3324 895.628ZM620.532 508.569C642.079 488.114 665.808 469.928 691.334 454.397C702.119 463.661 712.425 473.465 722.211 483.767C689.712 489.663 658.519 499.299 629.095 512.214C626.257 510.968 623.402 509.753 620.532 508.569ZM723.388 483.555C713.519 473.134 703.12 463.218 692.233 453.852C755.37 415.654 829.437 393.665 908.648 393.665C969.818 393.665 1027.92 406.778 1080.29 430.342C1033 448.015 989.763 473.971 952.347 506.441C904.477 487.451 852.275 477.011 797.631 477.011C772.296 477.011 747.485 479.255 723.388 483.555ZM630.338 512.762C659.639 499.978 690.69 490.45 723.033 484.635C740.925 503.578 757.063 524.192 771.187 546.217C751.537 550.145 732.384 555.445 713.831 562.013C688.154 542.547 660.161 525.968 630.338 512.762ZM772.241 546.007C758.151 523.991 742.055 503.377 724.21 484.425C748.047 480.21 772.582 478.011 797.631 478.011C851.962 478.011 903.873 488.356 951.497 507.181C938.818 518.243 926.812 530.056 915.549 542.55C895.443 539.593 874.873 538.062 853.944 538.062C825.986 538.062 798.667 540.795 772.241 546.007ZM714.783 562.738C733.219 556.244 752.248 551.004 771.766 547.121C799.264 590.245 819.056 638.747 829.204 690.693C828.829 691.824 828.458 692.956 828.092 694.091C799.823 642.797 761.098 598.058 714.783 562.738ZM829.845 688.777C819.6 637.489 799.97 589.58 772.819 546.913C799.063 541.762 826.188 539.062 853.944 539.062C874.595 539.062 894.897 540.556 914.746 543.443C877.319 585.197 848.161 634.498 829.845 688.777ZM828.755 695.299C829.031 694.434 829.311 693.571 829.593 692.709C829.988 694.787 830.368 696.87 830.732 698.958C830.079 697.735 829.42 696.515 828.755 695.299ZM828.335 696.618C829.327 698.442 830.305 700.273 831.27 702.112C835.008 724.559 836.953 747.611 836.953 771.117C836.953 816.438 829.722 860.074 816.351 900.936C811.52 875.539 808.992 849.328 808.992 822.528C808.992 778.648 815.769 736.35 828.335 696.618ZM859.441 1021.54C839.551 984.964 824.972 945.091 816.74 902.952C830.502 861.502 837.953 817.178 837.953 771.117C837.953 748.602 836.173 726.503 832.745 704.951C862.174 762.112 878.785 826.933 878.785 895.628C878.785 939.507 872.008 981.806 859.441 1021.54ZM952.757 549.757C940.938 546.905 928.923 544.554 916.737 542.726C927.96 530.317 939.918 518.584 952.543 507.596C960.866 510.912 969.057 514.487 977.107 518.312C968.508 528.392 960.38 538.885 952.757 549.757ZM977.78 517.524C969.787 513.72 961.655 510.162 953.393 506.858C989.845 475.303 1031.82 449.938 1077.67 432.401C1040.05 455.424 1006.34 484.208 977.78 517.524ZM1227.22 403.911C1178.23 403.911 1131.21 412.301 1087.51 427.721C1148.97 392.265 1220.31 371.976 1296.4 371.976C1527.38 371.976 1714.63 558.95 1714.63 789.593C1714.63 798.211 1714.37 806.769 1713.85 815.258C1692.74 737.725 1649.88 669.14 1592.21 616.444C1520.19 489.543 1383.72 403.911 1227.22 403.911ZM629.095 513.307C658.958 526.452 686.99 542.983 712.703 562.414C622.514 594.633 546.606 656.832 497.02 736.987C511.582 656.009 549.521 583.132 603.615 525.571C611.946 521.207 620.444 517.115 629.095 513.307ZM627.852 512.762C620.354 516.082 612.972 519.615 605.714 523.354C610.277 518.568 614.954 513.89 619.738 509.324C622.457 510.442 625.162 511.588 627.852 512.762ZM1265.57 1030.97C1254.73 1091.26 1230.93 1147.05 1197.16 1195.38C1171.9 1189.24 1147.54 1180.82 1124.31 1170.33C1181.81 1135.82 1230.34 1087.93 1265.57 1030.97ZM1123.21 1169.83C1121.1 1168.87 1119.01 1167.9 1116.93 1166.91C1179.25 1093.84 1216.86 999.122 1216.86 895.628C1216.86 803.015 1186.74 717.426 1135.75 648.095C1219.58 724.468 1272.17 834.44 1272.17 956.679C1272.17 981.096 1270.07 1005.02 1266.04 1028.29C1230.67 1086.26 1181.55 1134.94 1123.21 1169.83ZM1326.87 811.282C1326.87 889.786 1305.18 963.231 1267.45 1025.97C1271.21 1003.43 1273.17 980.281 1273.17 956.679C1273.17 832.351 1218.89 720.682 1132.71 644.011C1115.2 620.809 1095.34 599.483 1073.48 580.389C1113.89 552.787 1159.41 532.085 1208.33 519.979C1281.69 595.216 1326.87 697.98 1326.87 811.282ZM1072.62 580.972C1093.26 598.972 1112.12 618.964 1128.88 640.648C1107.23 621.855 1083.64 605.243 1058.43 591.154C1063.09 587.664 1067.82 584.269 1072.62 580.972Z" stroke="white" stroke-opacity="0.35"/>
</svg>
