<svg width="65" height="53" viewBox="0 0 65 53" fill="none" xmlns="http://www.w3.org/2000/svg">
<path d="M64.75 6.71526C62.3769 7.77043 59.8265 8.48105 57.1498 8.80137C59.8829 7.16209 61.9819 4.56455 62.9682 1.46903C60.4124 2.98718 57.5797 4.0908 54.5644 4.68568C52.1537 2.10967 48.711 0.5 44.9055 0.5C36.3619 0.5 30.0839 8.48375 32.0136 16.7717C21.019 16.2199 11.2687 10.944 4.74081 2.92527C1.27394 8.88213 2.94288 16.6748 8.83388 20.6209C6.66775 20.5509 4.62525 19.956 2.84344 18.9628C2.69831 25.1026 7.09238 30.8468 13.4564 32.1254C11.5939 32.6315 9.55413 32.7499 7.47938 32.3515C9.16175 37.6166 14.0476 41.447 19.8419 41.5547C14.2788 45.9234 7.26975 47.8749 0.25 47.0458C6.10606 50.8062 13.064 53 20.5352 53C45.1044 53 58.9853 32.217 58.1468 13.5765C60.7322 11.7058 62.9762 9.37203 64.75 6.71526V6.71526Z" fill="#4996E2"/>
</svg>
