<svg width="69" height="54" viewBox="0 0 69 54" fill="none" xmlns="http://www.w3.org/2000/svg">
<path d="M60.3744 7.34496C59.1676 5.30315 57.3295 3.70256 55.1242 2.82951C52.2537 1.6931 49.2721 0.78824 46.2015 0.135169C45.0178 -0.116592 43.8239 0.451832 43.3013 1.54336C42.7392 2.71743 41.4862 3.43186 40.1924 3.28917C36.3778 2.86848 32.5885 2.86675 28.8246 3.28397C27.5244 3.42809 26.263 2.71281 25.691 1.53629C25.1623 0.448689 23.9677 -0.117154 22.7849 0.134382C19.7187 0.786392 16.7413 1.6908 13.8758 2.82618C11.6527 3.70706 9.80378 5.32985 8.59488 7.39307C2.32476 18.0943 -0.0795556 28.5943 0.0020007 38.9649C0.0307718 42.6234 1.91668 46.0241 5.03121 47.9438C8.40704 50.0245 11.7297 51.5944 15.0157 52.8092C16.6344 53.4076 18.4484 52.8068 19.362 51.3427C19.6408 50.8959 19.912 50.4435 20.1753 49.9856C20.9239 48.684 20.2779 47.0604 18.922 46.4151C18.1716 46.0579 17.4349 45.6759 16.7132 45.2705C16.1763 44.9688 16.14 44.2171 16.6161 43.8265C16.8808 43.6094 17.246 43.5619 17.5572 43.7043C28.5963 48.7551 40.5299 48.7561 51.4418 43.7074C51.7536 43.5632 52.1226 43.6105 52.3887 43.8279C52.8663 44.2178 52.8262 44.9678 52.2888 45.2701C51.5677 45.6755 50.832 46.0572 50.0829 46.4138C48.7191 47.0631 48.0696 48.6969 48.8223 50.0065C49.0834 50.4608 49.3523 50.91 49.6289 51.3536C50.5405 52.816 52.3517 53.4143 53.9683 52.8175C57.2642 51.6006 60.5966 50.027 63.9812 47.9387C67.0882 46.0217 68.9708 42.6286 68.9982 38.9779C69.0858 27.2966 65.9858 16.839 60.3744 7.34496ZM23.0379 36.5627C19.6297 36.5627 16.8347 33.3459 16.8347 29.4287C16.8347 25.5116 19.57 22.2893 23.0379 22.2893C26.5058 22.2893 29.3007 25.5059 29.241 29.4287C29.2464 33.3459 26.5058 36.5627 23.0379 36.5627ZM45.9619 36.5627C42.5537 36.5627 39.7587 33.3459 39.7587 29.4287C39.7587 25.5116 42.4939 22.2893 45.9619 22.2893C49.4297 22.2893 52.2247 25.5059 52.165 29.4287C52.165 33.3459 49.4297 36.5627 45.9619 36.5627Z" fill="#5865F2"/>
</svg>